<?xml version="1.0" encoding="us-ascii" standalone="no"?><svg xmlns="http://www.w3.org/2000/svg" xmlns:xlink="http://www.w3.org/1999/xlink" contentStyleType="text/css" height="480px" preserveAspectRatio="none" style="width:905px;height:480px;background:#FFFFFF;" version="1.1" viewBox="0 0 905 480" width="905px" zoomAndPan="magnify"><defs/><g><ellipse cx="320.5" cy="16" fill="#222222" rx="10" ry="10" style="stroke:#222222;stroke-width:1.0;"/><g id="Uninitialized"><rect fill="#F1F1F1" height="50" rx="12.5" ry="12.5" style="stroke:#181818;stroke-width:0.5;" width="102" x="269.5" y="87"/><line style="stroke:#181818;stroke-width:0.5;" x1="269.5" x2="371.5" y1="113.2969" y2="113.2969"/><text fill="#000000" font-family="sans-serif" font-size="14" lengthAdjust="spacing" textLength="82" x="279.5" y="104.9951">Uninitialized</text></g><g id="Available"><rect fill="#F1F1F1" height="50" rx="12.5" ry="12.5" style="stroke:#181818;stroke-width:0.5;" width="79" x="281" y="214"/><line style="stroke:#181818;stroke-width:0.5;" x1="281" x2="360" y1="240.2969" y2="240.2969"/><text fill="#000000" font-family="sans-serif" font-size="14" lengthAdjust="spacing" textLength="59" x="291" y="231.9951">Available</text></g><g id="Editing"><rect fill="#F1F1F1" height="50" rx="12.5" ry="12.5" style="stroke:#181818;stroke-width:0.5;" width="67" x="7" y="341"/><line style="stroke:#181818;stroke-width:0.5;" x1="7" x2="74" y1="367.2969" y2="367.2969"/><text fill="#000000" font-family="sans-serif" font-size="14" lengthAdjust="spacing" textLength="47" x="17" y="358.9951">Editing</text></g><g id="Searching"><rect fill="#F1F1F1" height="50" rx="12.5" ry="12.5" style="stroke:#181818;stroke-width:0.5;" width="89" x="285" y="341"/><line style="stroke:#181818;stroke-width:0.5;" x1="285" x2="374" y1="367.2969" y2="367.2969"/><text fill="#000000" font-family="sans-serif" font-size="14" lengthAdjust="spacing" textLength="69" x="295" y="358.9951">Searching</text></g><g id="Deleted"><rect fill="#F1F1F1" height="50" rx="12.5" ry="12.5" style="stroke:#181818;stroke-width:0.5;" width="75" x="597" y="341"/><line style="stroke:#181818;stroke-width:0.5;" x1="597" x2="672" y1="367.2969" y2="367.2969"/><text fill="#000000" font-family="sans-serif" font-size="14" lengthAdjust="spacing" textLength="55" x="607" y="358.9951">Deleted</text></g><ellipse cx="634.5" cy="463" fill="none" rx="11" ry="11" style="stroke:#222222;stroke-width:1.0;"/><ellipse cx="634.5" cy="463" fill="#222222" rx="6" ry="6" style="stroke:#222222;stroke-width:1.0;"/><g id="elem_GMN17"><path d="M395.5,219 L395.5,235 L360.14,239 L395.5,243 L395.5,259.2656 A0,0 0 0 0 395.5,259.2656 L589.5,259.2656 A0,0 0 0 0 589.5,259.2656 L589.5,229 L579.5,219 L395.5,219 A0,0 0 0 0 395.5,219 " fill="#FEFFDD" style="stroke:#181818;stroke-width:0.5;"/><path d="M579.5,219 L579.5,229 L589.5,229 L579.5,219 " fill="#FEFFDD" style="stroke:#181818;stroke-width:0.5;"/><text fill="#000000" font-family="sans-serif" font-size="13" lengthAdjust="spacing" textLength="121" x="401.5" y="236.0669">Documents can be</text><text fill="#000000" font-family="sans-serif" font-size="13" lengthAdjust="spacing" textLength="173" x="401.5" y="251.1997">queried and displayed here</text></g><g id="elem_GMN20"><path d="M109.5,346 L109.5,362 L74.16,366 L109.5,370 L109.5,386.2656 A0,0 0 0 0 109.5,386.2656 L249.5,386.2656 A0,0 0 0 0 249.5,386.2656 L249.5,356 L239.5,346 L109.5,346 A0,0 0 0 0 109.5,346 " fill="#FEFFDD" style="stroke:#181818;stroke-width:0.5;"/><path d="M239.5,346 L239.5,356 L249.5,356 L239.5,346 " fill="#FEFFDD" style="stroke:#181818;stroke-width:0.5;"/><text fill="#000000" font-family="sans-serif" font-size="13" lengthAdjust="spacing" textLength="113" x="115.5" y="363.0669">Document details</text><text fill="#000000" font-family="sans-serif" font-size="13" lengthAdjust="spacing" textLength="119" x="115.5" y="378.1997">are being modified</text></g><g id="elem_GMN23"><path d="M409,346 L409,362 L374.29,366 L409,370 L409,386.2656 A0,0 0 0 0 409,386.2656 L562,386.2656 A0,0 0 0 0 562,386.2656 L562,356 L552,346 L409,346 A0,0 0 0 0 409,346 " fill="#FEFFDD" style="stroke:#181818;stroke-width:0.5;"/><path d="M552,346 L552,356 L562,356 L552,346 " fill="#FEFFDD" style="stroke:#181818;stroke-width:0.5;"/><text fill="#000000" font-family="sans-serif" font-size="13" lengthAdjust="spacing" textLength="128" x="415" y="363.0669">Users are searching</text><text fill="#000000" font-family="sans-serif" font-size="13" lengthAdjust="spacing" textLength="93" x="415" y="378.1997">for documents</text></g><g id="elem_GMN26"><path d="M707,346 L707,362 L672.23,366 L707,370 L707,386.2656 A0,0 0 0 0 707,386.2656 L898,386.2656 A0,0 0 0 0 898,386.2656 L898,356 L888,346 L707,346 A0,0 0 0 0 707,346 " fill="#FEFFDD" style="stroke:#181818;stroke-width:0.5;"/><path d="M888,346 L888,356 L898,356 L888,346 " fill="#FEFFDD" style="stroke:#181818;stroke-width:0.5;"/><text fill="#000000" font-family="sans-serif" font-size="13" lengthAdjust="spacing" textLength="166" x="713" y="363.0669">Document is permanently</text><text fill="#000000" font-family="sans-serif" font-size="13" lengthAdjust="spacing" textLength="159" x="713" y="378.1997">removed from the library</text></g><!--link *start* to Uninitialized--><g id="link_*start*_Uninitialized"><path d="M320.5,26.01 C320.5,39.89 320.5,60.97 320.5,80.84 " fill="none" id="*start*-to-Uninitialized" style="stroke:#181818;stroke-width:1.0;"/><polygon fill="#181818" points="320.5,86.84,324.5,77.84,320.5,81.84,316.5,77.84,320.5,86.84" style="stroke:#181818;stroke-width:1.0;"/></g><!--link Uninitialized to Available--><g id="link_Uninitialized_Available"><path d="M320.5,137.1 C320.5,159.24 320.5,185.86 320.5,207.97 " fill="none" id="Uninitialized-to-Available" style="stroke:#181818;stroke-width:1.0;"/><polygon fill="#181818" points="320.5,213.97,324.5,204.97,320.5,208.97,316.5,204.97,320.5,213.97" style="stroke:#181818;stroke-width:1.0;"/><text fill="#000000" font-family="sans-serif" font-size="13" lengthAdjust="spacing" textLength="122" x="321.5" y="180.0669">Document Created</text></g><!--link Available to Editing--><g id="link_Available_Editing"><path d="M280.92,241.56 C210.5,245.25 67.95,257.19 37.5,294 C26.96,306.74 26.8685,319.7584 30.5185,334.8384 " fill="none" id="Available-to-Editing" style="stroke:#181818;stroke-width:1.0;"/><polygon fill="#181818" points="31.93,340.67,33.7005,330.9816,30.7538,335.8103,25.925,332.8636,31.93,340.67" style="stroke:#181818;stroke-width:1.0;"/><text fill="#000000" font-family="sans-serif" font-size="13" lengthAdjust="spacing" textLength="96" x="38.5" y="307.0669">Edit Requested</text></g><!--link Editing to Available--><g id="link_Editing_Available"><path d="M74.19,349 C79.95,346.31 85.89,343.56 91.5,341 C157.53,310.91 229.3563,279.4895 275.1463,259.6095 " fill="none" id="Editing-to-Available" style="stroke:#181818;stroke-width:1.0;"/><polygon fill="#181818" points="280.65,257.22,270.8015,257.1351,276.0636,259.2112,273.9874,264.4733,280.65,257.22" style="stroke:#181818;stroke-width:1.0;"/><text fill="#000000" font-family="sans-serif" font-size="13" lengthAdjust="spacing" textLength="100" x="193.5" y="307.0669">Changes Saved</text></g><!--link Available to Searching--><g id="link_Available_Searching"><path d="M317.68,264.05 C316.52,277.83 315.79,295.43 317.5,311 C318.59,320.93 319.3828,325.8626 321.5928,335.1626 " fill="none" id="Available-to-Searching" style="stroke:#181818;stroke-width:1.0;"/><polygon fill="#181818" points="322.98,341,324.7909,331.3191,321.824,336.1355,317.0076,333.1686,322.98,341" style="stroke:#181818;stroke-width:1.0;"/><text fill="#000000" font-family="sans-serif" font-size="13" lengthAdjust="spacing" textLength="100" x="318.5" y="307.0669">Search Initiated</text></g><!--link Searching to Available--><g id="link_Searching_Available"><path d="M374.04,344.79 C395.42,334.08 417.65,321.1 423.5,311 C427.28,304.46 427.41,300.47 423.5,294 C419.74,287.78 393.0343,274.0556 365.6443,260.9756 " fill="none" id="Searching-to-Available" style="stroke:#181818;stroke-width:1.0;"/><polygon fill="#181818" points="360.23,258.39,366.6277,265.8779,364.7419,260.5447,370.0752,258.6588,360.23,258.39" style="stroke:#181818;stroke-width:1.0;"/><text fill="#000000" font-family="sans-serif" font-size="13" lengthAdjust="spacing" textLength="119" x="427.5" y="307.0669">Search Completed</text></g><!--link Available to Deleted--><g id="link_Available_Deleted"><path d="M360.25,258.11 C365.96,260.3 371.83,262.35 377.5,264 C454.54,286.38 483.24,259.14 555.5,294 C578.42,305.06 595.5217,320.4199 610.1617,336.2899 " fill="none" id="Available-to-Deleted" style="stroke:#181818;stroke-width:1.0;"/><polygon fill="#181818" points="614.23,340.7,611.0676,331.3727,610.8398,337.0249,605.1875,336.797,614.23,340.7" style="stroke:#181818;stroke-width:1.0;"/><text fill="#000000" font-family="sans-serif" font-size="13" lengthAdjust="spacing" textLength="114" x="581.5" y="307.0669">Delete Requested</text></g><!--link Deleted to *end*--><g id="link_Deleted_*end*"><path d="M634.5,391.46 C634.5,411.04 634.5,431.49 634.5,445.8 " fill="none" id="Deleted-to-*end*" style="stroke:#181818;stroke-width:1.0;"/><polygon fill="#181818" points="634.5,451.8,638.5,442.8,634.5,446.8,630.5,442.8,634.5,451.8" style="stroke:#181818;stroke-width:1.0;"/></g><!--SRC=[RP4nRiCm34Ltdu9pW5oWGu72oT2rGQOa0stHjW29SYabW7lwK4uTkqutKl__9uewRIwmtRx3aItRPD7P7pB5dsxKFsve7LQEu0rseRvwuWIb42QrpsAsxer6kLLZhk2BlgyKisqIrhooGsufmW5lBx03eTJT0_UeuNCSBGDdSOtyjPR1zuvUHzpHU9hVCbQB8ISfsqwRIr5mK5risoK8pRzxY50ZGqLmPgM8rJIo0MDZxt3GhYEX5MTUqdERXfAoer9GI75Pzi7OHe6hz78hnqWI8KVYy_JCJH0mqtohzEBrqzqsGa_YaRLnW-Q5VD3VW4Q2XzGHE5i9ob3S0G00]--></g></svg>