<?xml version="1.0" encoding="us-ascii" standalone="no"?><svg xmlns="http://www.w3.org/2000/svg" xmlns:xlink="http://www.w3.org/1999/xlink" contentStyleType="text/css" height="1268px" preserveAspectRatio="none" style="width:1804px;height:1268px;background:#FFFFFF;" version="1.1" viewBox="0 0 1804 1268" width="1804px" zoomAndPan="magnify"><defs/><g><!--cluster v003--><g id="cluster_v003"><path d="M8.5,6 L48.5,6 A3.75,3.75 0 0 1 51,8.5 L58,28.2969 L1794.5,28.2969 A2.5,2.5 0 0 1 1797,30.7969 L1797,1258.72 A2.5,2.5 0 0 1 1794.5,1261.22 L8.5,1261.22 A2.5,2.5 0 0 1 6,1258.72 L6,8.5 A2.5,2.5 0 0 1 8.5,6 " fill="none" style="stroke:#000000;stroke-width:1.5;"/><line style="stroke:#000000;stroke-width:1.5;" x1="6" x2="58" y1="28.2969" y2="28.2969"/><text fill="#000000" font-family="sans-serif" font-size="14" font-weight="bold" lengthAdjust="spacing" textLength="39" x="10" y="20.9951">v003</text></g><!--cluster src--><g id="cluster_src"><path d="M32.5,49 L58.5,49 A3.75,3.75 0 0 1 61,51.5 L68,71.2969 L1770.5,71.2969 A2.5,2.5 0 0 1 1773,73.7969 L1773,1234.72 A2.5,2.5 0 0 1 1770.5,1237.22 L32.5,1237.22 A2.5,2.5 0 0 1 30,1234.72 L30,51.5 A2.5,2.5 0 0 1 32.5,49 " fill="none" style="stroke:#000000;stroke-width:1.5;"/><line style="stroke:#000000;stroke-width:1.5;" x1="30" x2="68" y1="71.2969" y2="71.2969"/><text fill="#000000" font-family="sans-serif" font-size="14" font-weight="bold" lengthAdjust="spacing" textLength="25" x="34" y="63.9951">src</text></g><!--class LibraryManager--><g id="elem_LibraryManager"><rect codeLine="3" fill="#F1F1F1" height="781.3594" id="LibraryManager" rx="2.5" ry="2.5" style="stroke:#181818;stroke-width:0.5;" width="431" x="550.5" y="103"/><ellipse cx="709.75" cy="119" fill="#ADD1B2" rx="11" ry="11" style="stroke:#181818;stroke-width:1.0;"/><path d="M712.7188,124.6406 Q712.1406,124.9375 711.5,125.0781 Q710.8594,125.2344 710.1563,125.2344 Q707.6563,125.2344 706.3281,123.5938 Q705.0156,121.9375 705.0156,118.8125 Q705.0156,115.6875 706.3281,114.0313 Q707.6563,112.375 710.1563,112.375 Q710.8594,112.375 711.5,112.5313 Q712.1563,112.6875 712.7188,112.9844 L712.7188,115.7031 Q712.0938,115.125 711.5,114.8594 Q710.9063,114.5781 710.2813,114.5781 Q708.9375,114.5781 708.25,115.6563 Q707.5625,116.7188 707.5625,118.8125 Q707.5625,120.9063 708.25,121.9844 Q708.9375,123.0469 710.2813,123.0469 Q710.9063,123.0469 711.5,122.7813 Q712.0938,122.5 712.7188,121.9219 L712.7188,124.6406 Z " fill="#000000"/><text fill="#000000" font-family="sans-serif" font-size="14" lengthAdjust="spacing" textLength="104" x="730.25" y="123.8467">LibraryManager</text><line style="stroke:#181818;stroke-width:0.5;" x1="551.5" x2="980.5" y1="135" y2="135"/><rect fill="none" height="6" style="stroke:#C82930;stroke-width:1.0;" width="6" x="558.5" y="145.6484"/><text fill="#000000" font-family="sans-serif" font-size="14" lengthAdjust="spacing" textLength="130" x="570.5" y="151.9951">List&lt;Book&gt; books</text><rect fill="none" height="6" style="stroke:#C82930;stroke-width:1.0;" width="6" x="558.5" y="161.9453"/><text fill="#000000" font-family="sans-serif" font-size="14" lengthAdjust="spacing" textLength="150" x="570.5" y="168.292">List&lt;Author&gt; authors</text><rect fill="none" height="6" style="stroke:#C82930;stroke-width:1.0;" width="6" x="558.5" y="178.2422"/><text fill="#000000" font-family="sans-serif" font-size="14" lengthAdjust="spacing" textLength="237" x="570.5" y="184.5889">List&lt;BookAuthor&gt; authorrelations</text><rect fill="none" height="6" style="stroke:#C82930;stroke-width:1.0;" width="6" x="558.5" y="194.5391"/><text fill="#000000" font-family="sans-serif" font-size="14" lengthAdjust="spacing" textLength="178" x="570.5" y="200.8857">List&lt;KeyWord&gt; keywords</text><rect fill="none" height="6" style="stroke:#C82930;stroke-width:1.0;" width="6" x="558.5" y="210.8359"/><text fill="#000000" font-family="sans-serif" font-size="14" lengthAdjust="spacing" textLength="265" x="570.5" y="217.1826">List&lt;BookKeyWord&gt; keywordrelations</text><rect fill="none" height="6" style="stroke:#C82930;stroke-width:1.0;" width="6" x="558.5" y="227.1328"/><text fill="#000000" font-family="sans-serif" font-size="14" lengthAdjust="spacing" textLength="117" x="570.5" y="233.4795">Scanner scanner</text><line style="stroke:#181818;stroke-width:0.5;" x1="551.5" x2="980.5" y1="240.7813" y2="240.7813"/><ellipse cx="561.5" cy="254.4297" fill="#84BE84" rx="3" ry="3" style="stroke:#038048;stroke-width:1.0;"/><text fill="#000000" font-family="sans-serif" font-size="14" lengthAdjust="spacing" textLength="114" x="570.5" y="257.7764">LibraryManager()</text><ellipse cx="561.5" cy="270.7266" fill="#84BE84" rx="3" ry="3" style="stroke:#038048;stroke-width:1.0;"/><text fill="#000000" font-family="sans-serif" font-size="14" lengthAdjust="spacing" textLength="177" x="570.5" y="274.0732">void startLibraryManager()</text><rect fill="#F24D5C" height="6" style="stroke:#C82930;stroke-width:1.0;" width="6" x="558.5" y="284.0234"/><text fill="#000000" font-family="sans-serif" font-size="14" lengthAdjust="spacing" textLength="105" x="570.5" y="290.3701">void listBooks()</text><rect fill="#F24D5C" height="6" style="stroke:#C82930;stroke-width:1.0;" width="6" x="558.5" y="300.3203"/><text fill="#000000" font-family="sans-serif" font-size="14" lengthAdjust="spacing" textLength="104" x="570.5" y="306.667">void addBook()</text><rect fill="#F24D5C" height="6" style="stroke:#C82930;stroke-width:1.0;" width="6" x="558.5" y="316.6172"/><text fill="#000000" font-family="sans-serif" font-size="14" lengthAdjust="spacing" textLength="179" x="570.5" y="322.9639">void addBook(Book book)</text><rect fill="#F24D5C" height="6" style="stroke:#C82930;stroke-width:1.0;" width="6" x="558.5" y="332.9141"/><text fill="#000000" font-family="sans-serif" font-size="14" lengthAdjust="spacing" textLength="189" x="570.5" y="339.2607">void addAuthor(Book book)</text><rect fill="#F24D5C" height="6" style="stroke:#C82930;stroke-width:1.0;" width="6" x="558.5" y="349.2109"/><text fill="#000000" font-family="sans-serif" font-size="14" lengthAdjust="spacing" textLength="209" x="570.5" y="355.5576">void addAuthor(Author author)</text><rect fill="#F24D5C" height="6" style="stroke:#C82930;stroke-width:1.0;" width="6" x="558.5" y="365.5078"/><text fill="#000000" font-family="sans-serif" font-size="14" lengthAdjust="spacing" textLength="278" x="570.5" y="371.8545">void addRelation(int bookId, int authorId)</text><rect fill="#F24D5C" height="6" style="stroke:#C82930;stroke-width:1.0;" width="6" x="558.5" y="381.8047"/><text fill="#000000" font-family="sans-serif" font-size="14" lengthAdjust="spacing" textLength="317" x="570.5" y="388.1514">List&lt;Author&gt; getAuthorsByBookId(int bookId)</text><rect fill="#F24D5C" height="6" style="stroke:#C82930;stroke-width:1.0;" width="6" x="558.5" y="398.1016"/><text fill="#000000" font-family="sans-serif" font-size="14" lengthAdjust="spacing" textLength="317" x="570.5" y="404.4482">List&lt;Book&gt; getBooksByAuthorId(int authorId)</text><rect fill="#F24D5C" height="6" style="stroke:#C82930;stroke-width:1.0;" width="6" x="558.5" y="414.3984"/><text fill="#000000" font-family="sans-serif" font-size="14" lengthAdjust="spacing" textLength="208" x="570.5" y="420.7451">Book findBookById(int bookId)</text><rect fill="#F24D5C" height="6" style="stroke:#C82930;stroke-width:1.0;" width="6" x="558.5" y="430.6953"/><text fill="#000000" font-family="sans-serif" font-size="14" lengthAdjust="spacing" textLength="238" x="570.5" y="437.042">Author findAuthorById(int authorId)</text><rect fill="#F24D5C" height="6" style="stroke:#C82930;stroke-width:1.0;" width="6" x="558.5" y="446.9922"/><text fill="#000000" font-family="sans-serif" font-size="14" lengthAdjust="spacing" textLength="115" x="570.5" y="453.3389">void listAuthors()</text><rect fill="#F24D5C" height="6" style="stroke:#C82930;stroke-width:1.0;" width="6" x="558.5" y="463.2891"/><text fill="#000000" font-family="sans-serif" font-size="14" lengthAdjust="spacing" textLength="130" x="570.5" y="469.6357">void listKeyWords()</text><rect fill="#F24D5C" height="6" style="stroke:#C82930;stroke-width:1.0;" width="6" x="558.5" y="479.5859"/><text fill="#000000" font-family="sans-serif" font-size="14" lengthAdjust="spacing" textLength="204" x="570.5" y="485.9326">void addKeyWord(Book book)</text><rect fill="#F24D5C" height="6" style="stroke:#C82930;stroke-width:1.0;" width="6" x="558.5" y="495.8828"/><text fill="#000000" font-family="sans-serif" font-size="14" lengthAdjust="spacing" textLength="252" x="570.5" y="502.2295">void addKeyWord(KeyWord keyword)</text><rect fill="#F24D5C" height="6" style="stroke:#C82930;stroke-width:1.0;" width="6" x="558.5" y="512.1797"/><text fill="#000000" font-family="sans-serif" font-size="14" lengthAdjust="spacing" textLength="352" x="570.5" y="518.5264">void addKeyWordRelation(int bookId, int keywordId)</text><rect fill="#F24D5C" height="6" style="stroke:#C82930;stroke-width:1.0;" width="6" x="558.5" y="528.4766"/><text fill="#000000" font-family="sans-serif" font-size="14" lengthAdjust="spacing" textLength="347" x="570.5" y="534.8232">List&lt;KeyWord&gt; getKeyWordsByBookId(int bookId)</text><rect fill="#F24D5C" height="6" style="stroke:#C82930;stroke-width:1.0;" width="6" x="558.5" y="544.7734"/><text fill="#000000" font-family="sans-serif" font-size="14" lengthAdjust="spacing" textLength="269" x="570.5" y="551.1201">KeyWord findKeyWordById(int keyword)</text><rect fill="#F24D5C" height="6" style="stroke:#C82930;stroke-width:1.0;" width="6" x="558.5" y="561.0703"/><text fill="#000000" font-family="sans-serif" font-size="14" lengthAdjust="spacing" textLength="133" x="570.5" y="567.417">void searchBooks()</text><rect fill="#F24D5C" height="6" style="stroke:#C82930;stroke-width:1.0;" width="6" x="558.5" y="577.3672"/><text fill="#000000" font-family="sans-serif" font-size="14" lengthAdjust="spacing" textLength="135" x="570.5" y="583.7139">void searchByTitle()</text><rect fill="#F24D5C" height="6" style="stroke:#C82930;stroke-width:1.0;" width="6" x="558.5" y="593.6641"/><text fill="#000000" font-family="sans-serif" font-size="14" lengthAdjust="spacing" textLength="212" x="570.5" y="600.0107">void searchByPublicationYear()</text><rect fill="#F24D5C" height="6" style="stroke:#C82930;stroke-width:1.0;" width="6" x="558.5" y="609.9609"/><text fill="#000000" font-family="sans-serif" font-size="14" lengthAdjust="spacing" textLength="152" x="570.5" y="616.3076">void searchByAuthor()</text><rect fill="#F24D5C" height="6" style="stroke:#C82930;stroke-width:1.0;" width="6" x="558.5" y="626.2578"/><text fill="#000000" font-family="sans-serif" font-size="14" lengthAdjust="spacing" textLength="140" x="570.5" y="632.6045">void searchByType()</text><rect fill="#F24D5C" height="6" style="stroke:#C82930;stroke-width:1.0;" width="6" x="558.5" y="642.5547"/><text fill="#000000" font-family="sans-serif" font-size="14" lengthAdjust="spacing" textLength="175" x="570.5" y="648.9014">void searchByKeyWords()</text><rect fill="#F24D5C" height="6" style="stroke:#C82930;stroke-width:1.0;" width="6" x="558.5" y="658.8516"/><text fill="#000000" font-family="sans-serif" font-size="14" lengthAdjust="spacing" textLength="405" x="570.5" y="665.1982">void displaySearchResults(LinkedList&lt;Book&gt; foundBooks)</text><rect fill="#F24D5C" height="6" style="stroke:#C82930;stroke-width:1.0;" width="6" x="558.5" y="675.1484"/><text fill="#000000" font-family="sans-serif" font-size="14" lengthAdjust="spacing" textLength="104" x="570.5" y="681.4951">void editBook()</text><rect fill="#F24D5C" height="6" style="stroke:#C82930;stroke-width:1.0;" width="6" x="558.5" y="691.4453"/><text fill="#000000" font-family="sans-serif" font-size="14" lengthAdjust="spacing" textLength="172" x="570.5" y="697.792">void editTitle(Book book)</text><rect fill="#F24D5C" height="6" style="stroke:#C82930;stroke-width:1.0;" width="6" x="558.5" y="707.7422"/><text fill="#000000" font-family="sans-serif" font-size="14" lengthAdjust="spacing" textLength="174" x="570.5" y="714.0889">void editYear(Book book)</text><rect fill="#F24D5C" height="6" style="stroke:#C82930;stroke-width:1.0;" width="6" x="558.5" y="724.0391"/><text fill="#000000" font-family="sans-serif" font-size="14" lengthAdjust="spacing" textLength="177" x="570.5" y="730.3857">void editType(Book book)</text><rect fill="#F24D5C" height="6" style="stroke:#C82930;stroke-width:1.0;" width="6" x="558.5" y="740.3359"/><text fill="#000000" font-family="sans-serif" font-size="14" lengthAdjust="spacing" textLength="255" x="570.5" y="746.6826">void editAuthorsForBook(Book book)</text><rect fill="#F24D5C" height="6" style="stroke:#C82930;stroke-width:1.0;" width="6" x="558.5" y="756.6328"/><text fill="#000000" font-family="sans-serif" font-size="14" lengthAdjust="spacing" textLength="278" x="570.5" y="762.9795">void deleteAuthorFromBook(Book book)</text><rect fill="#F24D5C" height="6" style="stroke:#C82930;stroke-width:1.0;" width="6" x="558.5" y="772.9297"/><text fill="#000000" font-family="sans-serif" font-size="14" lengthAdjust="spacing" textLength="296" x="570.5" y="779.2764">void addExistingAuthorToBook(Book book)</text><rect fill="#F24D5C" height="6" style="stroke:#C82930;stroke-width:1.0;" width="6" x="558.5" y="789.2266"/><text fill="#000000" font-family="sans-serif" font-size="14" lengthAdjust="spacing" textLength="273" x="570.5" y="795.5732">void addNewAuthorToBook(Book book)</text><rect fill="#F24D5C" height="6" style="stroke:#C82930;stroke-width:1.0;" width="6" x="558.5" y="805.5234"/><text fill="#000000" font-family="sans-serif" font-size="14" lengthAdjust="spacing" textLength="268" x="570.5" y="811.8701">void editKeywordsForBook(Book book)</text><rect fill="#F24D5C" height="6" style="stroke:#C82930;stroke-width:1.0;" width="6" x="558.5" y="821.8203"/><text fill="#000000" font-family="sans-serif" font-size="14" lengthAdjust="spacing" textLength="291" x="570.5" y="828.167">void deleteKeywordFromBook(Book book)</text><rect fill="#F24D5C" height="6" style="stroke:#C82930;stroke-width:1.0;" width="6" x="558.5" y="838.1172"/><text fill="#000000" font-family="sans-serif" font-size="14" lengthAdjust="spacing" textLength="309" x="570.5" y="844.4639">void addExistingKeywordToBook(Book book)</text><rect fill="#F24D5C" height="6" style="stroke:#C82930;stroke-width:1.0;" width="6" x="558.5" y="854.4141"/><text fill="#000000" font-family="sans-serif" font-size="14" lengthAdjust="spacing" textLength="286" x="570.5" y="860.7607">void addNewKeywordToBook(Book book)</text><rect fill="#F24D5C" height="6" style="stroke:#C82930;stroke-width:1.0;" width="6" x="558.5" y="870.7109"/><text fill="#000000" font-family="sans-serif" font-size="14" lengthAdjust="spacing" textLength="122" x="570.5" y="877.0576">void deleteBook()</text></g><!--class Author--><g id="elem_Author"><rect codeLine="51" fill="#F1F1F1" height="162.0781" id="Author" rx="2.5" ry="2.5" style="stroke:#181818;stroke-width:0.5;" width="213" x="45.5" y="1010.25"/><ellipse cx="124.75" cy="1026.25" fill="#ADD1B2" rx="11" ry="11" style="stroke:#181818;stroke-width:1.0;"/><path d="M127.7188,1031.8906 Q127.1406,1032.1875 126.5,1032.3281 Q125.8594,1032.4844 125.1563,1032.4844 Q122.6563,1032.4844 121.3281,1030.8438 Q120.0156,1029.1875 120.0156,1026.0625 Q120.0156,1022.9375 121.3281,1021.2813 Q122.6563,1019.625 125.1563,1019.625 Q125.8594,1019.625 126.5,1019.7813 Q127.1563,1019.9375 127.7188,1020.2344 L127.7188,1022.9531 Q127.0938,1022.375 126.5,1022.1094 Q125.9063,1021.8281 125.2813,1021.8281 Q123.9375,1021.8281 123.25,1022.9063 Q122.5625,1023.9688 122.5625,1026.0625 Q122.5625,1028.1563 123.25,1029.2344 Q123.9375,1030.2969 125.2813,1030.2969 Q125.9063,1030.2969 126.5,1030.0313 Q127.0938,1029.75 127.7188,1029.1719 L127.7188,1031.8906 Z " fill="#000000"/><text fill="#000000" font-family="sans-serif" font-size="14" lengthAdjust="spacing" textLength="46" x="145.25" y="1031.0967">Author</text><line style="stroke:#181818;stroke-width:0.5;" x1="46.5" x2="257.5" y1="1042.25" y2="1042.25"/><rect fill="none" height="6" style="stroke:#C82930;stroke-width:1.0;" width="6" x="53.5" y="1052.8984"/><text fill="#000000" font-family="sans-serif" font-size="14" lengthAdjust="spacing" textLength="33" x="65.5" y="1059.2451">int id</text><rect fill="none" height="6" style="stroke:#C82930;stroke-width:1.0;" width="6" x="53.5" y="1069.1953"/><text fill="#000000" font-family="sans-serif" font-size="14" lengthAdjust="spacing" textLength="83" x="65.5" y="1075.542">String name</text><line style="stroke:#181818;stroke-width:0.5;" x1="46.5" x2="257.5" y1="1082.8438" y2="1082.8438"/><ellipse cx="56.5" cy="1096.4922" fill="#84BE84" rx="3" ry="3" style="stroke:#038048;stroke-width:1.0;"/><text fill="#000000" font-family="sans-serif" font-size="14" lengthAdjust="spacing" textLength="180" x="65.5" y="1099.8389">Author(int id, String name)</text><ellipse cx="56.5" cy="1112.7891" fill="#84BE84" rx="3" ry="3" style="stroke:#038048;stroke-width:1.0;"/><text fill="#000000" font-family="sans-serif" font-size="14" lengthAdjust="spacing" textLength="66" x="65.5" y="1116.1357">int getId()</text><ellipse cx="56.5" cy="1129.0859" fill="#84BE84" rx="3" ry="3" style="stroke:#038048;stroke-width:1.0;"/><text fill="#000000" font-family="sans-serif" font-size="14" lengthAdjust="spacing" textLength="117" x="65.5" y="1132.4326">String getName()</text><ellipse cx="56.5" cy="1145.3828" fill="#84BE84" rx="3" ry="3" style="stroke:#038048;stroke-width:1.0;"/><text fill="#000000" font-family="sans-serif" font-size="14" lengthAdjust="spacing" textLength="187" x="65.5" y="1148.7295">void setName(String name)</text><ellipse cx="56.5" cy="1161.6797" fill="#84BE84" rx="3" ry="3" style="stroke:#038048;stroke-width:1.0;"/><text fill="#000000" font-family="sans-serif" font-size="14" lengthAdjust="spacing" textLength="108" x="65.5" y="1165.0264">String toString()</text></g><!--class Book--><g id="elem_Book"><rect codeLine="61" fill="#F1F1F1" height="259.8594" id="Book" rx="2.5" ry="2.5" style="stroke:#181818;stroke-width:0.5;" width="399" x="1357.5" y="961.36"/><ellipse cx="1534.75" cy="977.36" fill="#ADD1B2" rx="11" ry="11" style="stroke:#181818;stroke-width:1.0;"/><path d="M1537.7188,983.0006 Q1537.1406,983.2975 1536.5,983.4381 Q1535.8594,983.5944 1535.1563,983.5944 Q1532.6563,983.5944 1531.3281,981.9538 Q1530.0156,980.2975 1530.0156,977.1725 Q1530.0156,974.0475 1531.3281,972.3913 Q1532.6563,970.735 1535.1563,970.735 Q1535.8594,970.735 1536.5,970.8913 Q1537.1563,971.0475 1537.7188,971.3444 L1537.7188,974.0631 Q1537.0938,973.485 1536.5,973.2194 Q1535.9063,972.9381 1535.2813,972.9381 Q1533.9375,972.9381 1533.25,974.0163 Q1532.5625,975.0788 1532.5625,977.1725 Q1532.5625,979.2663 1533.25,980.3444 Q1533.9375,981.4069 1535.2813,981.4069 Q1535.9063,981.4069 1536.5,981.1413 Q1537.0938,980.86 1537.7188,980.2819 L1537.7188,983.0006 Z " fill="#000000"/><text fill="#000000" font-family="sans-serif" font-size="14" lengthAdjust="spacing" textLength="36" x="1555.25" y="982.2067">Book</text><line style="stroke:#181818;stroke-width:0.5;" x1="1358.5" x2="1755.5" y1="993.36" y2="993.36"/><rect fill="none" height="6" style="stroke:#C82930;stroke-width:1.0;" width="6" x="1365.5" y="1004.0084"/><text fill="#000000" font-family="sans-serif" font-size="14" lengthAdjust="spacing" textLength="33" x="1377.5" y="1010.3551">int id</text><rect fill="none" height="6" style="stroke:#C82930;stroke-width:1.0;" width="6" x="1365.5" y="1020.3053"/><text fill="#000000" font-family="sans-serif" font-size="14" lengthAdjust="spacing" textLength="69" x="1377.5" y="1026.652">String title</text><rect fill="none" height="6" style="stroke:#C82930;stroke-width:1.0;" width="6" x="1365.5" y="1036.6022"/><text fill="#000000" font-family="sans-serif" font-size="14" lengthAdjust="spacing" textLength="127" x="1377.5" y="1042.9489">int publicationYear</text><rect fill="none" height="6" style="stroke:#C82930;stroke-width:1.0;" width="6" x="1365.5" y="1052.8991"/><text fill="#000000" font-family="sans-serif" font-size="14" lengthAdjust="spacing" textLength="105" x="1377.5" y="1059.2457">final String type</text><line style="stroke:#181818;stroke-width:0.5;" x1="1358.5" x2="1755.5" y1="1066.5475" y2="1066.5475"/><ellipse cx="1368.5" cy="1080.1959" fill="#84BE84" rx="3" ry="3" style="stroke:#038048;stroke-width:1.0;"/><text fill="#000000" font-family="sans-serif" font-size="14" lengthAdjust="spacing" textLength="373" x="1377.5" y="1083.5426">Book(int id, String title, int publicationYear, String type)</text><ellipse cx="1368.5" cy="1096.4928" fill="#84BE84" rx="3" ry="3" style="stroke:#038048;stroke-width:1.0;"/><text fill="#000000" font-family="sans-serif" font-size="14" lengthAdjust="spacing" textLength="66" x="1377.5" y="1099.8395">int getId()</text><ellipse cx="1368.5" cy="1112.7897" fill="#84BE84" rx="3" ry="3" style="stroke:#038048;stroke-width:1.0;"/><text fill="#000000" font-family="sans-serif" font-size="14" lengthAdjust="spacing" textLength="106" x="1377.5" y="1116.1364">String getTitle()</text><ellipse cx="1368.5" cy="1129.0866" fill="#84BE84" rx="3" ry="3" style="stroke:#038048;stroke-width:1.0;"/><text fill="#000000" font-family="sans-serif" font-size="14" lengthAdjust="spacing" textLength="160" x="1377.5" y="1132.4332">int getPublicationYear()</text><ellipse cx="1368.5" cy="1145.3834" fill="#84BE84" rx="3" ry="3" style="stroke:#038048;stroke-width:1.0;"/><text fill="#000000" font-family="sans-serif" font-size="14" lengthAdjust="spacing" textLength="111" x="1377.5" y="1148.7301">String getType()</text><ellipse cx="1368.5" cy="1161.6803" fill="#84BE84" rx="3" ry="3" style="stroke:#038048;stroke-width:1.0;"/><text fill="#000000" font-family="sans-serif" font-size="14" lengthAdjust="spacing" textLength="162" x="1377.5" y="1165.027">void setTitle(String title)</text><ellipse cx="1368.5" cy="1177.9772" fill="#84BE84" rx="3" ry="3" style="stroke:#038048;stroke-width:1.0;"/><text fill="#000000" font-family="sans-serif" font-size="14" lengthAdjust="spacing" textLength="297" x="1377.5" y="1181.3239">void setPublicationYear(int publicationYear)</text><ellipse cx="1368.5" cy="1194.2741" fill="#84BE84" rx="3" ry="3" style="stroke:#038048;stroke-width:1.0;"/><text fill="#000000" font-family="sans-serif" font-size="14" lengthAdjust="spacing" textLength="172" x="1377.5" y="1197.6207">void setType(String type)</text><ellipse cx="1368.5" cy="1210.5709" fill="#84BE84" rx="3" ry="3" style="stroke:#038048;stroke-width:1.0;"/><text fill="#000000" font-family="sans-serif" font-size="14" lengthAdjust="spacing" textLength="108" x="1377.5" y="1213.9176">String toString()</text></g><!--class BookAuthor--><g id="elem_BookAuthor"><rect codeLine="77" fill="#F1F1F1" height="129.4844" id="BookAuthor" rx="2.5" ry="2.5" style="stroke:#181818;stroke-width:0.5;" width="272" x="349" y="1026.55"/><ellipse cx="439.75" cy="1042.55" fill="#ADD1B2" rx="11" ry="11" style="stroke:#181818;stroke-width:1.0;"/><path d="M442.7188,1048.1906 Q442.1406,1048.4875 441.5,1048.6281 Q440.8594,1048.7844 440.1563,1048.7844 Q437.6563,1048.7844 436.3281,1047.1438 Q435.0156,1045.4875 435.0156,1042.3625 Q435.0156,1039.2375 436.3281,1037.5813 Q437.6563,1035.925 440.1563,1035.925 Q440.8594,1035.925 441.5,1036.0813 Q442.1563,1036.2375 442.7188,1036.5344 L442.7188,1039.2531 Q442.0938,1038.675 441.5,1038.4094 Q440.9063,1038.1281 440.2813,1038.1281 Q438.9375,1038.1281 438.25,1039.2063 Q437.5625,1040.2688 437.5625,1042.3625 Q437.5625,1044.4563 438.25,1045.5344 Q438.9375,1046.5969 440.2813,1046.5969 Q440.9063,1046.5969 441.5,1046.3313 Q442.0938,1046.05 442.7188,1045.4719 L442.7188,1048.1906 Z " fill="#000000"/><text fill="#000000" font-family="sans-serif" font-size="14" lengthAdjust="spacing" textLength="82" x="460.25" y="1047.3967">BookAuthor</text><line style="stroke:#181818;stroke-width:0.5;" x1="350" x2="620" y1="1058.55" y2="1058.55"/><rect fill="none" height="6" style="stroke:#C82930;stroke-width:1.0;" width="6" x="357" y="1069.1984"/><text fill="#000000" font-family="sans-serif" font-size="14" lengthAdjust="spacing" textLength="68" x="369" y="1075.5451">int bookId</text><rect fill="none" height="6" style="stroke:#C82930;stroke-width:1.0;" width="6" x="357" y="1085.4953"/><text fill="#000000" font-family="sans-serif" font-size="14" lengthAdjust="spacing" textLength="78" x="369" y="1091.842">int authorId</text><line style="stroke:#181818;stroke-width:0.5;" x1="350" x2="620" y1="1099.1438" y2="1099.1438"/><ellipse cx="360" cy="1112.7922" fill="#84BE84" rx="3" ry="3" style="stroke:#038048;stroke-width:1.0;"/><text fill="#000000" font-family="sans-serif" font-size="14" lengthAdjust="spacing" textLength="246" x="369" y="1116.1389">BookAuthor(int bookId, int authorId)</text><ellipse cx="360" cy="1129.0891" fill="#84BE84" rx="3" ry="3" style="stroke:#038048;stroke-width:1.0;"/><text fill="#000000" font-family="sans-serif" font-size="14" lengthAdjust="spacing" textLength="102" x="369" y="1132.4357">int getBookId()</text><ellipse cx="360" cy="1145.3859" fill="#84BE84" rx="3" ry="3" style="stroke:#038048;stroke-width:1.0;"/><text fill="#000000" font-family="sans-serif" font-size="14" lengthAdjust="spacing" textLength="112" x="369" y="1148.7326">int getAuthorId()</text></g><!--class KeyWord--><g id="elem_KeyWord"><rect codeLine="85" fill="#F1F1F1" height="162.0781" id="KeyWord" rx="2.5" ry="2.5" style="stroke:#181818;stroke-width:0.5;" width="221" x="655.5" y="1010.25"/><ellipse cx="731.25" cy="1026.25" fill="#ADD1B2" rx="11" ry="11" style="stroke:#181818;stroke-width:1.0;"/><path d="M734.2188,1031.8906 Q733.6406,1032.1875 733,1032.3281 Q732.3594,1032.4844 731.6563,1032.4844 Q729.1563,1032.4844 727.8281,1030.8438 Q726.5156,1029.1875 726.5156,1026.0625 Q726.5156,1022.9375 727.8281,1021.2813 Q729.1563,1019.625 731.6563,1019.625 Q732.3594,1019.625 733,1019.7813 Q733.6563,1019.9375 734.2188,1020.2344 L734.2188,1022.9531 Q733.5938,1022.375 733,1022.1094 Q732.4063,1021.8281 731.7813,1021.8281 Q730.4375,1021.8281 729.75,1022.9063 Q729.0625,1023.9688 729.0625,1026.0625 Q729.0625,1028.1563 729.75,1029.2344 Q730.4375,1030.2969 731.7813,1030.2969 Q732.4063,1030.2969 733,1030.0313 Q733.5938,1029.75 734.2188,1029.1719 L734.2188,1031.8906 Z " fill="#000000"/><text fill="#000000" font-family="sans-serif" font-size="14" lengthAdjust="spacing" textLength="61" x="751.75" y="1031.0967">KeyWord</text><line style="stroke:#181818;stroke-width:0.5;" x1="656.5" x2="875.5" y1="1042.25" y2="1042.25"/><rect fill="none" height="6" style="stroke:#C82930;stroke-width:1.0;" width="6" x="663.5" y="1052.8984"/><text fill="#000000" font-family="sans-serif" font-size="14" lengthAdjust="spacing" textLength="33" x="675.5" y="1059.2451">int id</text><rect fill="none" height="6" style="stroke:#C82930;stroke-width:1.0;" width="6" x="663.5" y="1069.1953"/><text fill="#000000" font-family="sans-serif" font-size="14" lengthAdjust="spacing" textLength="83" x="675.5" y="1075.542">String name</text><line style="stroke:#181818;stroke-width:0.5;" x1="656.5" x2="875.5" y1="1082.8438" y2="1082.8438"/><ellipse cx="666.5" cy="1096.4922" fill="#84BE84" rx="3" ry="3" style="stroke:#038048;stroke-width:1.0;"/><text fill="#000000" font-family="sans-serif" font-size="14" lengthAdjust="spacing" textLength="195" x="675.5" y="1099.8389">KeyWord(int id, String name)</text><ellipse cx="666.5" cy="1112.7891" fill="#84BE84" rx="3" ry="3" style="stroke:#038048;stroke-width:1.0;"/><text fill="#000000" font-family="sans-serif" font-size="14" lengthAdjust="spacing" textLength="66" x="675.5" y="1116.1357">int getId()</text><ellipse cx="666.5" cy="1129.0859" fill="#84BE84" rx="3" ry="3" style="stroke:#038048;stroke-width:1.0;"/><text fill="#000000" font-family="sans-serif" font-size="14" lengthAdjust="spacing" textLength="117" x="675.5" y="1132.4326">String getName()</text><ellipse cx="666.5" cy="1145.3828" fill="#84BE84" rx="3" ry="3" style="stroke:#038048;stroke-width:1.0;"/><text fill="#000000" font-family="sans-serif" font-size="14" lengthAdjust="spacing" textLength="187" x="675.5" y="1148.7295">void setName(String name)</text><ellipse cx="666.5" cy="1161.6797" fill="#84BE84" rx="3" ry="3" style="stroke:#038048;stroke-width:1.0;"/><text fill="#000000" font-family="sans-serif" font-size="14" lengthAdjust="spacing" textLength="108" x="675.5" y="1165.0264">String toString()</text></g><!--class BookKeyWord--><g id="elem_BookKeyWord"><rect codeLine="95" fill="#F1F1F1" height="129.4844" id="BookKeyWord" rx="2.5" ry="2.5" style="stroke:#181818;stroke-width:0.5;" width="300" x="967" y="1026.55"/><ellipse cx="1064.25" cy="1042.55" fill="#ADD1B2" rx="11" ry="11" style="stroke:#181818;stroke-width:1.0;"/><path d="M1067.2188,1048.1906 Q1066.6406,1048.4875 1066,1048.6281 Q1065.3594,1048.7844 1064.6563,1048.7844 Q1062.1563,1048.7844 1060.8281,1047.1438 Q1059.5156,1045.4875 1059.5156,1042.3625 Q1059.5156,1039.2375 1060.8281,1037.5813 Q1062.1563,1035.925 1064.6563,1035.925 Q1065.3594,1035.925 1066,1036.0813 Q1066.6563,1036.2375 1067.2188,1036.5344 L1067.2188,1039.2531 Q1066.5938,1038.675 1066,1038.4094 Q1065.4063,1038.1281 1064.7813,1038.1281 Q1063.4375,1038.1281 1062.75,1039.2063 Q1062.0625,1040.2688 1062.0625,1042.3625 Q1062.0625,1044.4563 1062.75,1045.5344 Q1063.4375,1046.5969 1064.7813,1046.5969 Q1065.4063,1046.5969 1066,1046.3313 Q1066.5938,1046.05 1067.2188,1045.4719 L1067.2188,1048.1906 Z " fill="#000000"/><text fill="#000000" font-family="sans-serif" font-size="14" lengthAdjust="spacing" textLength="97" x="1084.75" y="1047.3967">BookKeyWord</text><line style="stroke:#181818;stroke-width:0.5;" x1="968" x2="1266" y1="1058.55" y2="1058.55"/><rect fill="none" height="6" style="stroke:#C82930;stroke-width:1.0;" width="6" x="975" y="1069.1984"/><text fill="#000000" font-family="sans-serif" font-size="14" lengthAdjust="spacing" textLength="68" x="987" y="1075.5451">int bookId</text><rect fill="none" height="6" style="stroke:#C82930;stroke-width:1.0;" width="6" x="975" y="1085.4953"/><text fill="#000000" font-family="sans-serif" font-size="14" lengthAdjust="spacing" textLength="91" x="987" y="1091.842">int keywordId</text><line style="stroke:#181818;stroke-width:0.5;" x1="968" x2="1266" y1="1099.1438" y2="1099.1438"/><ellipse cx="978" cy="1112.7922" fill="#84BE84" rx="3" ry="3" style="stroke:#038048;stroke-width:1.0;"/><text fill="#000000" font-family="sans-serif" font-size="14" lengthAdjust="spacing" textLength="274" x="987" y="1116.1389">BookKeyWord(int bookId, int keywordId)</text><ellipse cx="978" cy="1129.0891" fill="#84BE84" rx="3" ry="3" style="stroke:#038048;stroke-width:1.0;"/><text fill="#000000" font-family="sans-serif" font-size="14" lengthAdjust="spacing" textLength="102" x="987" y="1132.4357">int getBookId()</text><ellipse cx="978" cy="1145.3859" fill="#84BE84" rx="3" ry="3" style="stroke:#038048;stroke-width:1.0;"/><text fill="#000000" font-family="sans-serif" font-size="14" lengthAdjust="spacing" textLength="125" x="987" y="1148.7326">int getKeywordId()</text></g><!--link LibraryManager to Book--><g id="link_LibraryManager_Book"><path codeLine="103" d="M981.88,657.24 C1108.71,752.73 1266.82,871.79 1385.15,960.89 " fill="none" id="LibraryManager-Book" style="stroke:#181818;stroke-width:1.0;"/><text fill="#000000" font-family="sans-serif" font-size="13" lengthAdjust="spacing" textLength="60" x="1345" y="927.4269">manages</text><text fill="#000000" font-family="sans-serif" font-size="13" lengthAdjust="spacing" textLength="23" x="1352.123" y="950.4191">0..*</text></g><!--link LibraryManager to Author--><g id="link_LibraryManager_Author"><path codeLine="104" d="M550.39,703.83 C441.37,809.59 315.43,931.75 234.83,1009.95 " fill="none" id="LibraryManager-Author" style="stroke:#181818;stroke-width:1.0;"/><text fill="#000000" font-family="sans-serif" font-size="13" lengthAdjust="spacing" textLength="60" x="317" y="927.4269">manages</text><text fill="#000000" font-family="sans-serif" font-size="13" lengthAdjust="spacing" textLength="23" x="218.1828" y="999.1106">0..*</text></g><!--link LibraryManager to BookAuthor--><g id="link_LibraryManager_BookAuthor"><path codeLine="105" d="M582.1,884.48 C556.36,939.04 532.77,989.03 515.29,1026.08 " fill="none" id="LibraryManager-BookAuthor" style="stroke:#181818;stroke-width:1.0;"/><text fill="#000000" font-family="sans-serif" font-size="13" lengthAdjust="spacing" textLength="60" x="561" y="927.4269">manages</text><text fill="#000000" font-family="sans-serif" font-size="13" lengthAdjust="spacing" textLength="23" x="494.2277" y="1015.6553">0..*</text></g><!--link LibraryManager to KeyWord--><g id="link_LibraryManager_KeyWord"><path codeLine="106" d="M766,884.48 C766,931.56 766,975.24 766,1010.14 " fill="none" id="LibraryManager-KeyWord" style="stroke:#181818;stroke-width:1.0;"/><text fill="#000000" font-family="sans-serif" font-size="13" lengthAdjust="spacing" textLength="60" x="767" y="927.4269">manages</text><text fill="#000000" font-family="sans-serif" font-size="13" lengthAdjust="spacing" textLength="23" x="741.9758" y="999.3175">0..*</text></g><!--link LibraryManager to BookKeyWord--><g id="link_LibraryManager_BookKeyWord"><path codeLine="107" d="M981.8,860.86 C1019.43,924.73 1054.46,984.16 1079.42,1026.53 " fill="none" id="LibraryManager-BookKeyWord" style="stroke:#181818;stroke-width:1.0;"/><text fill="#000000" font-family="sans-serif" font-size="13" lengthAdjust="spacing" textLength="60" x="1023" y="927.4269">manages</text><text fill="#000000" font-family="sans-serif" font-size="13" lengthAdjust="spacing" textLength="23" x="1051.0519" y="1015.7005">0..*</text></g><!--link BookAuthor to Book--><g id="link_BookAuthor_Book"><path codeLine="108" d="M544.14,1026.21 C570.36,1001.61 603.15,976.03 638,961.36 C756.89,911.31 798.14,940.42 927,934.43 C1086.39,927.02 1131.11,919.22 1285,961.36 C1308.98,967.93 1333.42,976.53 1357.33,986.19 " fill="none" id="BookAuthor-Book" style="stroke:#181818;stroke-width:1.0;"/><text fill="#000000" font-family="sans-serif" font-size="13" lengthAdjust="spacing" textLength="54" x="928" y="927.4269">contains</text><text fill="#000000" font-family="sans-serif" font-size="13" lengthAdjust="spacing" textLength="23" x="526.3506" y="1015.3455">0..*</text><text fill="#000000" font-family="sans-serif" font-size="13" lengthAdjust="spacing" textLength="8" x="1341.3741" y="978.8611">1</text></g><!--link Author to BookAuthor--><g id="link_Author_BookAuthor"><path codeLine="109" d="M258.74,1091.29 C287.37,1091.29 318.72,1091.29 348.71,1091.29 " fill="none" id="Author-BookAuthor" style="stroke:#181818;stroke-width:1.0;"/><text fill="#000000" font-family="sans-serif" font-size="13" lengthAdjust="spacing" textLength="54" x="276.75" y="1084.3569">contains</text><text fill="#000000" font-family="sans-serif" font-size="13" lengthAdjust="spacing" textLength="8" x="266.5264" y="1087.8343">1</text><text fill="#000000" font-family="sans-serif" font-size="13" lengthAdjust="spacing" textLength="23" x="318.0896" y="1103.7469">0..*</text></g><!--link BookKeyWord to Book--><g id="link_BookKeyWord_Book"><path codeLine="110" d="M1267.5,1091.29 C1296.37,1091.29 1327.02,1091.29 1357.15,1091.29 " fill="none" id="BookKeyWord-Book" style="stroke:#181818;stroke-width:1.0;"/><text fill="#000000" font-family="sans-serif" font-size="13" lengthAdjust="spacing" textLength="54" x="1285.25" y="1084.3569">contains</text><text fill="#000000" font-family="sans-serif" font-size="13" lengthAdjust="spacing" textLength="23" x="1274.8406" y="1103.6996">0..*</text><text fill="#000000" font-family="sans-serif" font-size="13" lengthAdjust="spacing" textLength="8" x="1341.1871" y="1088.0665">1</text></g><!--link KeyWord to BookKeyWord--><g id="link_KeyWord_BookKeyWord"><path codeLine="111" d="M876.58,1091.29 C905.11,1091.29 936.31,1091.29 966.5,1091.29 " fill="none" id="KeyWord-BookKeyWord" style="stroke:#181818;stroke-width:1.0;"/><text fill="#000000" font-family="sans-serif" font-size="13" lengthAdjust="spacing" textLength="54" x="894.75" y="1084.3569">contains</text><text fill="#000000" font-family="sans-serif" font-size="13" lengthAdjust="spacing" textLength="8" x="884.6364" y="1087.8343">1</text><text fill="#000000" font-family="sans-serif" font-size="13" lengthAdjust="spacing" textLength="23" x="936.1594" y="1103.6996">0..*</text></g><!--SRC=[pLPDRzim3BtdLmWv9LiSPDXj608qm0eKoOgXBJ3igDXgAiIn0qbfPmpzxzC7PSiEvJYt-c0BuYD5FbAaZpJTqnqZhul5rxaKAVat6X7zf3cLacpuLb1H_QI5nWWj8_0a6oxLzrLPxfTagz-o8xavgPTIB0crNudejH62vLJnikWYrwpwNOfiIVQiUjCBp58NWzXwJ6bHw02a-zQ2p-q09zD6ybhoZ4X5XOfY4el9jH_63NaceLbc1D5zyxBi8G17pn28-m2F2Em1w9ZmGbbJTzcCcBNJkCkcaTpjc79BkQfMLYymCKLBGQjOAbRL3HYVH4woWJtpmZAngcAs8JW3TCiQYjYiqm5kewc2Qa6p1R9UrZq6lhxeuiWe_w1vpcLTq9fExsv_2hmpXYTOrqH579ICYlG5BroGLKzSvImg_NNQvZoriVtHMr4Sr6dqaEeOFoEQhOpBOqwhHujxOFAKApdPy6BFig0UdykJgp3PrMSPL-ZbD08NTxGA3CH6t8kmSVKYe4nlTLNtjeECvKmnXxuLvU5Yy_ZnLrF0YvrJUIelAjopjs5Ou_OQMl50lm5-bUEWCyppWM3dJP3pzt3IGQC99fovEpmBPeWIsZDIq0DhfWJKjiFEI809HecHwgkixsEm2L2zVw_HvvC7zd6BiAjAjy02iZnS3aUPKc-ZZkrxtGXrTw6vZr7fycuSihHsMB2cNQlhc9o5HeOJrMr77XzlHA5okytKB3kZeSi8g7i24XDcsXo9HpemWNXLklRVtlFZi9sIe3px9x-d4eRCkQ2UvuYdVlfSUtdyAFsWjoSI5iP-FShRz8S1NfZy5nEmzZfjTpj_w4b2nelv_DFOtVzlv605iXyBPJOG7HJcG0tFv1K7u2esgF6NCKbot9sqB1JbyEiFknQVY04ACVEDCosutyOEG5H6x_y1]--></g></svg>