<?xml version="1.0" encoding="us-ascii" standalone="no"?><svg xmlns="http://www.w3.org/2000/svg" xmlns:xlink="http://www.w3.org/1999/xlink" contentStyleType="text/css" height="490px" preserveAspectRatio="none" style="width:462px;height:490px;background:#FFFFFF;" version="1.1" viewBox="0 0 462 490" width="462px" zoomAndPan="magnify"><defs/><g><!--class Document--><g id="elem_Document"><rect codeLine="1" fill="#F1F1F1" height="129.4844" id="Document" rx="2.5" ry="2.5" style="stroke:#181818;stroke-width:0.5;" width="247" x="113.5" y="181"/><ellipse cx="196.25" cy="197" fill="#ADD1B2" rx="11" ry="11" style="stroke:#181818;stroke-width:1.0;"/><path d="M199.2188,202.6406 Q198.6406,202.9375 198,203.0781 Q197.3594,203.2344 196.6563,203.2344 Q194.1563,203.2344 192.8281,201.5938 Q191.5156,199.9375 191.5156,196.8125 Q191.5156,193.6875 192.8281,192.0313 Q194.1563,190.375 196.6563,190.375 Q197.3594,190.375 198,190.5313 Q198.6563,190.6875 199.2188,190.9844 L199.2188,193.7031 Q198.5938,193.125 198,192.8594 Q197.4063,192.5781 196.7813,192.5781 Q195.4375,192.5781 194.75,193.6563 Q194.0625,194.7188 194.0625,196.8125 Q194.0625,198.9063 194.75,199.9844 Q195.4375,201.0469 196.7813,201.0469 Q197.4063,201.0469 198,200.7813 Q198.5938,200.5 199.2188,199.9219 L199.2188,202.6406 Z " fill="#000000"/><text fill="#000000" font-family="sans-serif" font-size="14" lengthAdjust="spacing" textLength="73" x="216.75" y="201.8467">Document</text><line style="stroke:#181818;stroke-width:0.5;" x1="114.5" x2="359.5" y1="213" y2="213"/><rect fill="none" height="6" style="stroke:#C82930;stroke-width:1.0;" width="6" x="121.5" y="223.6484"/><text fill="#000000" font-family="sans-serif" font-size="14" lengthAdjust="spacing" textLength="74" x="133.5" y="229.9951">title: String</text><rect fill="none" height="6" style="stroke:#C82930;stroke-width:1.0;" width="6" x="121.5" y="239.9453"/><text fill="#000000" font-family="sans-serif" font-size="14" lengthAdjust="spacing" textLength="158" x="133.5" y="246.292">authors: List&lt;Integer&gt;</text><rect fill="none" height="6" style="stroke:#C82930;stroke-width:1.0;" width="6" x="121.5" y="256.2422"/><text fill="#000000" font-family="sans-serif" font-size="14" lengthAdjust="spacing" textLength="132" x="133.5" y="262.5889">publicationYear: int</text><rect fill="none" height="6" style="stroke:#C82930;stroke-width:1.0;" width="6" x="121.5" y="272.5391"/><text fill="#000000" font-family="sans-serif" font-size="14" lengthAdjust="spacing" textLength="221" x="133.5" y="278.8857">documentType: DocumentType</text><rect fill="none" height="6" style="stroke:#C82930;stroke-width:1.0;" width="6" x="121.5" y="288.8359"/><text fill="#000000" font-family="sans-serif" font-size="14" lengthAdjust="spacing" textLength="171" x="133.5" y="295.1826">keywords: List&lt;Integer&gt;</text><line style="stroke:#181818;stroke-width:0.5;" x1="114.5" x2="359.5" y1="302.4844" y2="302.4844"/></g><!--class DigitalLibrary--><g id="elem_DigitalLibrary"><rect codeLine="9" fill="#F1F1F1" height="96.8906" id="DigitalLibrary" rx="2.5" ry="2.5" style="stroke:#181818;stroke-width:0.5;" width="234" x="120" y="7"/><ellipse cx="189.75" cy="23" fill="#ADD1B2" rx="11" ry="11" style="stroke:#181818;stroke-width:1.0;"/><path d="M192.7188,28.6406 Q192.1406,28.9375 191.5,29.0781 Q190.8594,29.2344 190.1563,29.2344 Q187.6563,29.2344 186.3281,27.5938 Q185.0156,25.9375 185.0156,22.8125 Q185.0156,19.6875 186.3281,18.0313 Q187.6563,16.375 190.1563,16.375 Q190.8594,16.375 191.5,16.5313 Q192.1563,16.6875 192.7188,16.9844 L192.7188,19.7031 Q192.0938,19.125 191.5,18.8594 Q190.9063,18.5781 190.2813,18.5781 Q188.9375,18.5781 188.25,19.6563 Q187.5625,20.7188 187.5625,22.8125 Q187.5625,24.9063 188.25,25.9844 Q188.9375,27.0469 190.2813,27.0469 Q190.9063,27.0469 191.5,26.7813 Q192.0938,26.5 192.7188,25.9219 L192.7188,28.6406 Z " fill="#000000"/><text fill="#000000" font-family="sans-serif" font-size="14" lengthAdjust="spacing" textLength="86" x="210.25" y="27.8467">DigitalLibrary</text><line style="stroke:#181818;stroke-width:0.5;" x1="121" x2="353" y1="39" y2="39"/><rect fill="none" height="6" style="stroke:#C82930;stroke-width:1.0;" width="6" x="128" y="49.6484"/><text fill="#000000" font-family="sans-serif" font-size="14" lengthAdjust="spacing" textLength="208" x="140" y="55.9951">documents: List&lt;Document&gt;</text><rect fill="none" height="6" style="stroke:#C82930;stroke-width:1.0;" width="6" x="128" y="65.9453"/><text fill="#000000" font-family="sans-serif" font-size="14" lengthAdjust="spacing" textLength="155" x="140" y="72.292">authors: List&lt;Author&gt;</text><rect fill="none" height="6" style="stroke:#C82930;stroke-width:1.0;" width="6" x="128" y="82.2422"/><text fill="#000000" font-family="sans-serif" font-size="14" lengthAdjust="spacing" textLength="181" x="140" y="88.5889">keywords: List&lt;Keyword&gt;</text><line style="stroke:#181818;stroke-width:0.5;" x1="121" x2="353" y1="95.8906" y2="95.8906"/></g><!--class Author--><g id="elem_Author"><rect codeLine="15" fill="#F1F1F1" height="96.8906" id="Author" rx="2.5" ry="2.5" style="stroke:#181818;stroke-width:0.5;" width="134" x="86" y="387"/><ellipse cx="126.2" cy="403" fill="#ADD1B2" rx="11" ry="11" style="stroke:#181818;stroke-width:1.0;"/><path d="M129.1688,408.6406 Q128.5906,408.9375 127.95,409.0781 Q127.3094,409.2344 126.6063,409.2344 Q124.1063,409.2344 122.7781,407.5938 Q121.4656,405.9375 121.4656,402.8125 Q121.4656,399.6875 122.7781,398.0313 Q124.1063,396.375 126.6063,396.375 Q127.3094,396.375 127.95,396.5313 Q128.6063,396.6875 129.1688,396.9844 L129.1688,399.7031 Q128.5438,399.125 127.95,398.8594 Q127.3563,398.5781 126.7313,398.5781 Q125.3875,398.5781 124.7,399.6563 Q124.0125,400.7188 124.0125,402.8125 Q124.0125,404.9063 124.7,405.9844 Q125.3875,407.0469 126.7313,407.0469 Q127.3563,407.0469 127.95,406.7813 Q128.5438,406.5 129.1688,405.9219 L129.1688,408.6406 Z " fill="#000000"/><text fill="#000000" font-family="sans-serif" font-size="14" lengthAdjust="spacing" textLength="46" x="145.8" y="407.8467">Author</text><line style="stroke:#181818;stroke-width:0.5;" x1="87" x2="219" y1="419" y2="419"/><rect fill="none" height="6" style="stroke:#C82930;stroke-width:1.0;" width="6" x="94" y="429.6484"/><text fill="#000000" font-family="sans-serif" font-size="14" lengthAdjust="spacing" textLength="70" x="106" y="435.9951">id: Integer</text><rect fill="none" height="6" style="stroke:#C82930;stroke-width:1.0;" width="6" x="94" y="445.9453"/><text fill="#000000" font-family="sans-serif" font-size="14" lengthAdjust="spacing" textLength="88" x="106" y="452.292">name: String</text><rect fill="none" height="6" style="stroke:#C82930;stroke-width:1.0;" width="6" x="94" y="462.2422"/><text fill="#000000" font-family="sans-serif" font-size="14" lengthAdjust="spacing" textLength="108" x="106" y="468.5889">affiliation: String</text><line style="stroke:#181818;stroke-width:0.5;" x1="87" x2="219" y1="475.8906" y2="475.8906"/></g><!--class Keyword--><g id="elem_Keyword"><rect codeLine="21" fill="#F1F1F1" height="80.5938" id="Keyword" rx="2.5" ry="2.5" style="stroke:#181818;stroke-width:0.5;" width="133" x="281.5" y="395"/><ellipse cx="315.4" cy="411" fill="#ADD1B2" rx="11" ry="11" style="stroke:#181818;stroke-width:1.0;"/><path d="M318.3688,416.6406 Q317.7906,416.9375 317.15,417.0781 Q316.5094,417.2344 315.8063,417.2344 Q313.3063,417.2344 311.9781,415.5938 Q310.6656,413.9375 310.6656,410.8125 Q310.6656,407.6875 311.9781,406.0313 Q313.3063,404.375 315.8063,404.375 Q316.5094,404.375 317.15,404.5313 Q317.8063,404.6875 318.3688,404.9844 L318.3688,407.7031 Q317.7438,407.125 317.15,406.8594 Q316.5563,406.5781 315.9313,406.5781 Q314.5875,406.5781 313.9,407.6563 Q313.2125,408.7188 313.2125,410.8125 Q313.2125,412.9063 313.9,413.9844 Q314.5875,415.0469 315.9313,415.0469 Q316.5563,415.0469 317.15,414.7813 Q317.7438,414.5 318.3688,413.9219 L318.3688,416.6406 Z " fill="#000000"/><text fill="#000000" font-family="sans-serif" font-size="14" lengthAdjust="spacing" textLength="59" x="333.6" y="415.8467">Keyword</text><line style="stroke:#181818;stroke-width:0.5;" x1="282.5" x2="413.5" y1="427" y2="427"/><rect fill="none" height="6" style="stroke:#C82930;stroke-width:1.0;" width="6" x="289.5" y="437.6484"/><text fill="#000000" font-family="sans-serif" font-size="14" lengthAdjust="spacing" textLength="70" x="301.5" y="443.9951">id: Integer</text><rect fill="none" height="6" style="stroke:#C82930;stroke-width:1.0;" width="6" x="289.5" y="453.9453"/><text fill="#000000" font-family="sans-serif" font-size="14" lengthAdjust="spacing" textLength="107" x="301.5" y="460.292">keyword: String</text><line style="stroke:#181818;stroke-width:0.5;" x1="282.5" x2="413.5" y1="467.5938" y2="467.5938"/></g><!--reverse link DigitalLibrary to Document--><g id="link_DigitalLibrary_Document"><path codeLine="26" d="M237,116.43 C237,139.6 237,155.73 237,180.69 " fill="none" id="DigitalLibrary-backto-Document" style="stroke:#181818;stroke-width:1.0;"/><polygon fill="none" points="237,104.43,233,110.43,237,116.43,241,110.43,237,104.43" style="stroke:#181818;stroke-width:1.0;"/><text fill="#000000" font-family="sans-serif" font-size="13" lengthAdjust="spacing" textLength="54" x="238" y="147.0669">contains</text></g><!--reverse link DigitalLibrary to Author--><g id="link_DigitalLibrary_Author"><path codeLine="27" d="M109.4374,107.532 C75.6474,126.662 53.19,146.73 34,181 C6,231.03 12.66,256.79 34,310 C45.85,339.56 68.44,366.07 90.78,386.95 " fill="none" id="DigitalLibrary-backto-Author" style="stroke:#181818;stroke-width:1.0;"/><polygon fill="none" points="119.88,101.62,112.688,101.0951,109.4374,107.532,116.6294,108.0569,119.88,101.62" style="stroke:#181818;stroke-width:1.0;"/><text fill="#000000" font-family="sans-serif" font-size="13" lengthAdjust="spacing" textLength="60" x="35" y="250.0669">manages</text></g><!--reverse link DigitalLibrary to Keyword--><g id="link_DigitalLibrary_Keyword"><path codeLine="28" d="M322.8388,111.6734 C348.2788,131.9234 364.24,150.49 378,181 C409.71,251.29 384.45,343.14 365.02,394.77 " fill="none" id="DigitalLibrary-backto-Keyword" style="stroke:#181818;stroke-width:1.0;"/><polygon fill="none" points="313.45,104.2,315.6533,111.0663,322.8388,111.6734,320.6355,104.8071,313.45,104.2" style="stroke:#181818;stroke-width:1.0;"/><text fill="#000000" font-family="sans-serif" font-size="13" lengthAdjust="spacing" textLength="60" x="394" y="250.0669">manages</text></g><!--link Document to Author--><g id="link_Document_Author"><path codeLine="30" d="M208.56,310.15 C197.33,335.29 184.65,363.67 174.24,386.97 " fill="none" id="Document-Author" style="stroke:#181818;stroke-width:1.0;"/><polygon fill="#000000" points="197.9605,353.1315,204.3333,346.0719,198.9667,343.6743,197.9605,353.1315" style="stroke:#000000;stroke-width:1.0;"/><text fill="#000000" font-family="sans-serif" font-size="13" lengthAdjust="spacing" textLength="23" x="209" y="353.0669">has</text><text fill="#000000" font-family="sans-serif" font-size="13" lengthAdjust="spacing" textLength="23" x="180.9419" y="330.5389">0..*</text><text fill="#000000" font-family="sans-serif" font-size="13" lengthAdjust="spacing" textLength="23" x="152.6706" y="375.8253">0..*</text></g><!--link Document to Keyword--><g id="link_Document_Keyword"><path codeLine="31" d="M274.58,310.15 C291.12,338.16 310.04,370.21 324.53,394.75 " fill="none" id="Document-Keyword" style="stroke:#181818;stroke-width:1.0;"/><polygon fill="#000000" points="307.5421,352.872,305.4741,343.5889,300.4127,346.5774,307.5421,352.872" style="stroke:#000000;stroke-width:1.0;"/><text fill="#000000" font-family="sans-serif" font-size="13" lengthAdjust="spacing" textLength="30" x="314" y="353.0669">uses</text><text fill="#000000" font-family="sans-serif" font-size="13" lengthAdjust="spacing" textLength="23" x="254.5955" y="330.5389">0..*</text><text fill="#000000" font-family="sans-serif" font-size="13" lengthAdjust="spacing" textLength="23" x="295.7381" y="383.8701">0..*</text></g><!--SRC=[VP71QiCm38RlUGhHuo1bPrC2XLx6UcilFQgEcuevSh4LIXXxzuNQJaARpITB-lNfbwqjXW0xfxlMiC1t0SCfXSGQ1GVnn4rCOITNvuE2FGNPVB2OnlWgrcxTsP968SSdWru1iSHAdS37_ZRmThCerhzCVtU-Vi7-58MEpgWXGRkdiqVVPtyPc_iok5hokdr4rUB0pnZE1aPr7aIrWcGg9XZRvuUvNCZIO_cnCD8I_qzSiZDlVDhObUNqFGgqOq7Yi2HBrXMqoDYOHKqsD8cAaRvwNw_VLZ2eqcq4NZ50zOzmedR13D9V]--></g></svg>