<?xml version="1.0" encoding="us-ascii" standalone="no"?><svg xmlns="http://www.w3.org/2000/svg" xmlns:xlink="http://www.w3.org/1999/xlink" contentStyleType="text/css" height="915px" preserveAspectRatio="none" style="width:1449px;height:915px;background:#FFFFFF;" version="1.1" viewBox="0 0 1449 915" width="1449px" zoomAndPan="magnify"><defs/><g><!--class LibraryManager--><g id="elem_LibraryManager"><rect codeLine="1" fill="#F1F1F1" height="357.6406" id="LibraryManager" rx="2.5" ry="2.5" style="stroke:#181818;stroke-width:0.5;" width="452" x="743.5" y="7"/><ellipse cx="909.75" cy="23" fill="#ADD1B2" rx="11" ry="11" style="stroke:#181818;stroke-width:1.0;"/><path d="M912.0938,18.6719 C911.1563,18.2344 910.5625,18.0938 909.6875,18.0938 C907.0625,18.0938 905.0625,20.1719 905.0625,22.8906 L905.0625,24.0156 C905.0625,26.5938 907.1719,28.4844 910.0625,28.4844 C911.2813,28.4844 912.4375,28.1875 913.1875,27.6406 C913.7656,27.2344 914.0938,26.7813 914.0938,26.3906 C914.0938,25.9375 913.7031,25.5469 913.2344,25.5469 C913.0156,25.5469 912.8125,25.625 912.625,25.8125 C912.1719,26.2969 912.1719,26.2969 911.9844,26.3906 C911.5625,26.6563 910.875,26.7813 910.1094,26.7813 C908.0625,26.7813 906.7656,25.6875 906.7656,23.9844 L906.7656,22.8906 C906.7656,21.1094 908.0156,19.7969 909.75,19.7969 C910.3281,19.7969 910.9375,19.9531 911.4063,20.2031 C911.8906,20.4844 912.0625,20.7031 912.1563,21.1094 C912.2188,21.5156 912.25,21.6406 912.3906,21.7656 C912.5313,21.9063 912.7656,22.0156 912.9844,22.0156 C913.25,22.0156 913.5156,21.875 913.6875,21.6563 C913.7969,21.5 913.8281,21.3125 913.8281,20.8906 L913.8281,19.4688 C913.8281,19.0313 913.8125,18.9063 913.7188,18.75 C913.5625,18.4844 913.2813,18.3438 912.9844,18.3438 C912.6875,18.3438 912.4844,18.4375 912.2656,18.75 L912.0938,18.6719 Z " fill="#000000"/><text fill="#000000" font-family="sans-serif" font-size="14" lengthAdjust="spacing" textLength="111" x="930.25" y="27.8467">LibraryManager</text><line style="stroke:#181818;stroke-width:0.5;" x1="744.5" x2="1194.5" y1="39" y2="39"/><rect fill="none" height="6" style="stroke:#C82930;stroke-width:1.0;" width="6" x="751.5" y="49.6484"/><text fill="#000000" font-family="sans-serif" font-size="14" lengthAdjust="spacing" textLength="216" x="763.5" y="55.9951">documents : List&lt;Document&gt;</text><rect fill="none" height="6" style="stroke:#C82930;stroke-width:1.0;" width="6" x="751.5" y="65.9453"/><text fill="#000000" font-family="sans-serif" font-size="14" lengthAdjust="spacing" textLength="164" x="763.5" y="72.292">authors : List&lt;Author&gt;</text><rect fill="none" height="6" style="stroke:#C82930;stroke-width:1.0;" width="6" x="751.5" y="82.2422"/><text fill="#000000" font-family="sans-serif" font-size="14" lengthAdjust="spacing" textLength="248" x="763.5" y="88.5889">relations : List&lt;DocumentAuthor&gt;</text><rect fill="none" height="6" style="stroke:#C82930;stroke-width:1.0;" width="6" x="751.5" y="98.5391"/><text fill="#000000" font-family="sans-serif" font-size="14" lengthAdjust="spacing" textLength="127" x="763.5" y="104.8857">scanner : Scanner</text><line style="stroke:#181818;stroke-width:0.5;" x1="744.5" x2="1194.5" y1="112.1875" y2="112.1875"/><ellipse cx="754.5" cy="125.8359" fill="#84BE84" rx="3" ry="3" style="stroke:#038048;stroke-width:1.0;"/><text fill="#000000" font-family="sans-serif" font-size="14" lengthAdjust="spacing" textLength="199" x="763.5" y="129.1826">startLibraryManager() : void</text><ellipse cx="754.5" cy="142.1328" fill="#84BE84" rx="3" ry="3" style="stroke:#038048;stroke-width:1.0;"/><text fill="#000000" font-family="sans-serif" font-size="14" lengthAdjust="spacing" textLength="157" x="763.5" y="145.4795">listDocuments() : void</text><ellipse cx="754.5" cy="158.4297" fill="#84BE84" rx="3" ry="3" style="stroke:#038048;stroke-width:1.0;"/><text fill="#000000" font-family="sans-serif" font-size="14" lengthAdjust="spacing" textLength="199" x="763.5" y="161.7764">addDocument() : Document</text><ellipse cx="754.5" cy="174.7266" fill="#84BE84" rx="3" ry="3" style="stroke:#038048;stroke-width:1.0;"/><text fill="#000000" font-family="sans-serif" font-size="14" lengthAdjust="spacing" textLength="147" x="763.5" y="178.0732">addAuthor() : Author</text><ellipse cx="754.5" cy="191.0234" fill="#84BE84" rx="3" ry="3" style="stroke:#038048;stroke-width:1.0;"/><text fill="#000000" font-family="sans-serif" font-size="14" lengthAdjust="spacing" textLength="359" x="763.5" y="194.3701">addRelation(documentId : int, authorId : int) : void</text><ellipse cx="754.5" cy="207.3203" fill="#84BE84" rx="3" ry="3" style="stroke:#038048;stroke-width:1.0;"/><text fill="#000000" font-family="sans-serif" font-size="14" lengthAdjust="spacing" textLength="408" x="763.5" y="210.667">findRelation(docId : int, authorId : int) : DocumentAuthor</text><ellipse cx="754.5" cy="223.6172" fill="#84BE84" rx="3" ry="3" style="stroke:#038048;stroke-width:1.0;"/><text fill="#000000" font-family="sans-serif" font-size="14" lengthAdjust="spacing" textLength="426" x="763.5" y="226.9639">getAuthorsByDocumentId(documentId : int) : List&lt;Author&gt;</text><ellipse cx="754.5" cy="239.9141" fill="#84BE84" rx="3" ry="3" style="stroke:#038048;stroke-width:1.0;"/><text fill="#000000" font-family="sans-serif" font-size="14" lengthAdjust="spacing" textLength="426" x="763.5" y="243.2607">getDocumentsByAuthorId(authorId : int) : List&lt;Document&gt;</text><ellipse cx="754.5" cy="256.2109" fill="#84BE84" rx="3" ry="3" style="stroke:#038048;stroke-width:1.0;"/><text fill="#000000" font-family="sans-serif" font-size="14" lengthAdjust="spacing" textLength="323" x="763.5" y="259.5576">addOrRemoveAuthorsFromDocument() : void</text><ellipse cx="754.5" cy="272.5078" fill="#84BE84" rx="3" ry="3" style="stroke:#038048;stroke-width:1.0;"/><text fill="#000000" font-family="sans-serif" font-size="14" lengthAdjust="spacing" textLength="178" x="763.5" y="275.8545">modifyDocument() : void</text><ellipse cx="754.5" cy="288.8047" fill="#84BE84" rx="3" ry="3" style="stroke:#038048;stroke-width:1.0;"/><text fill="#000000" font-family="sans-serif" font-size="14" lengthAdjust="spacing" textLength="347" x="763.5" y="292.1514">findDocumentByTitle(input : String) : Document</text><ellipse cx="754.5" cy="305.1016" fill="#84BE84" rx="3" ry="3" style="stroke:#038048;stroke-width:1.0;"/><text fill="#000000" font-family="sans-serif" font-size="14" lengthAdjust="spacing" textLength="351" x="763.5" y="308.4482">findDocumentById(documentId : int) : Document</text><ellipse cx="754.5" cy="321.3984" fill="#84BE84" rx="3" ry="3" style="stroke:#038048;stroke-width:1.0;"/><text fill="#000000" font-family="sans-serif" font-size="14" lengthAdjust="spacing" textLength="250" x="763.5" y="324.7451">findDocumentsByKeywords() : void</text><ellipse cx="754.5" cy="337.6953" fill="#84BE84" rx="3" ry="3" style="stroke:#038048;stroke-width:1.0;"/><text fill="#000000" font-family="sans-serif" font-size="14" lengthAdjust="spacing" textLength="273" x="763.5" y="341.042">findAuthorById(authorId : int) : Author</text><ellipse cx="754.5" cy="353.9922" fill="#84BE84" rx="3" ry="3" style="stroke:#038048;stroke-width:1.0;"/><text fill="#000000" font-family="sans-serif" font-size="14" lengthAdjust="spacing" textLength="131" x="763.5" y="357.3389">listAuthors() : void</text></g><!--class Document--><g id="elem_Document"><rect codeLine="24" fill="#F1F1F1" height="259.8594" id="Document" rx="2.5" ry="2.5" style="stroke:#181818;stroke-width:0.5;" width="809" x="7" y="442"/><ellipse cx="369.75" cy="458" fill="#ADD1B2" rx="11" ry="11" style="stroke:#181818;stroke-width:1.0;"/><path d="M372.0938,453.6719 C371.1563,453.2344 370.5625,453.0938 369.6875,453.0938 C367.0625,453.0938 365.0625,455.1719 365.0625,457.8906 L365.0625,459.0156 C365.0625,461.5938 367.1719,463.4844 370.0625,463.4844 C371.2813,463.4844 372.4375,463.1875 373.1875,462.6406 C373.7656,462.2344 374.0938,461.7813 374.0938,461.3906 C374.0938,460.9375 373.7031,460.5469 373.2344,460.5469 C373.0156,460.5469 372.8125,460.625 372.625,460.8125 C372.1719,461.2969 372.1719,461.2969 371.9844,461.3906 C371.5625,461.6563 370.875,461.7813 370.1094,461.7813 C368.0625,461.7813 366.7656,460.6875 366.7656,458.9844 L366.7656,457.8906 C366.7656,456.1094 368.0156,454.7969 369.75,454.7969 C370.3281,454.7969 370.9375,454.9531 371.4063,455.2031 C371.8906,455.4844 372.0625,455.7031 372.1563,456.1094 C372.2188,456.5156 372.25,456.6406 372.3906,456.7656 C372.5313,456.9063 372.7656,457.0156 372.9844,457.0156 C373.25,457.0156 373.5156,456.875 373.6875,456.6563 C373.7969,456.5 373.8281,456.3125 373.8281,455.8906 L373.8281,454.4688 C373.8281,454.0313 373.8125,453.9063 373.7188,453.75 C373.5625,453.4844 373.2813,453.3438 372.9844,453.3438 C372.6875,453.3438 372.4844,453.4375 372.2656,453.75 L372.0938,453.6719 Z " fill="#000000"/><text fill="#000000" font-family="sans-serif" font-size="14" lengthAdjust="spacing" textLength="75" x="390.25" y="462.8467">Document</text><line style="stroke:#181818;stroke-width:0.5;" x1="8" x2="815" y1="474" y2="474"/><rect fill="none" height="6" style="stroke:#C82930;stroke-width:1.0;" width="6" x="15" y="484.6484"/><text fill="#000000" font-family="sans-serif" font-size="14" lengthAdjust="spacing" textLength="46" x="27" y="490.9951">id : int</text><rect fill="none" height="6" style="stroke:#C82930;stroke-width:1.0;" width="6" x="15" y="500.9453"/><text fill="#000000" font-family="sans-serif" font-size="14" lengthAdjust="spacing" textLength="88" x="27" y="507.292">title : String</text><rect fill="none" height="6" style="stroke:#C82930;stroke-width:1.0;" width="6" x="15" y="517.2422"/><text fill="#000000" font-family="sans-serif" font-size="14" lengthAdjust="spacing" textLength="201" x="27" y="523.5889">publicationDate : LocalDate</text><rect fill="none" height="6" style="stroke:#C82930;stroke-width:1.0;" width="6" x="15" y="533.5391"/><text fill="#000000" font-family="sans-serif" font-size="14" lengthAdjust="spacing" textLength="158" x="27" y="539.8857">type : DocumentType</text><rect fill="none" height="6" style="stroke:#C82930;stroke-width:1.0;" width="6" x="15" y="549.8359"/><text fill="#000000" font-family="sans-serif" font-size="14" lengthAdjust="spacing" textLength="173" x="27" y="556.1826">keywords : List&lt;String&gt;</text><line style="stroke:#181818;stroke-width:0.5;" x1="8" x2="815" y1="563.4844" y2="563.4844"/><ellipse cx="18" cy="577.1328" fill="#84BE84" rx="3" ry="3" style="stroke:#038048;stroke-width:1.0;"/><text fill="#000000" font-family="sans-serif" font-size="14" lengthAdjust="spacing" textLength="783" x="27" y="580.4795">Document(id : int, title : String, publicationDate : LocalDate, type : DocumentType, keywords : List&lt;String&gt;)</text><ellipse cx="18" cy="593.4297" fill="#84BE84" rx="3" ry="3" style="stroke:#038048;stroke-width:1.0;"/><text fill="#000000" font-family="sans-serif" font-size="14" lengthAdjust="spacing" textLength="81" x="27" y="596.7764">getId() : int</text><ellipse cx="18" cy="609.7266" fill="#84BE84" rx="3" ry="3" style="stroke:#038048;stroke-width:1.0;"/><text fill="#000000" font-family="sans-serif" font-size="14" lengthAdjust="spacing" textLength="125" x="27" y="613.0732">getTitle() : String</text><ellipse cx="18" cy="626.0234" fill="#84BE84" rx="3" ry="3" style="stroke:#038048;stroke-width:1.0;"/><text fill="#000000" font-family="sans-serif" font-size="14" lengthAdjust="spacing" textLength="209" x="27" y="629.3701">getKeywords() : List&lt;String&gt;</text><ellipse cx="18" cy="642.3203" fill="#84BE84" rx="3" ry="3" style="stroke:#038048;stroke-width:1.0;"/><text fill="#000000" font-family="sans-serif" font-size="14" lengthAdjust="spacing" textLength="197" x="27" y="645.667">setTitle(title : String) : void</text><ellipse cx="18" cy="658.6172" fill="#84BE84" rx="3" ry="3" style="stroke:#038048;stroke-width:1.0;"/><text fill="#000000" font-family="sans-serif" font-size="14" lengthAdjust="spacing" textLength="420" x="27" y="661.9639">setPublicationDate(newPublicationDate : LocalDate) : void</text><ellipse cx="18" cy="674.9141" fill="#84BE84" rx="3" ry="3" style="stroke:#038048;stroke-width:1.0;"/><text fill="#000000" font-family="sans-serif" font-size="14" lengthAdjust="spacing" textLength="344" x="27" y="678.2607">setKeywords(keywordsList : List&lt;String&gt;) : void</text><ellipse cx="18" cy="691.2109" fill="#84BE84" rx="3" ry="3" style="stroke:#038048;stroke-width:1.0;"/><text fill="#000000" font-family="sans-serif" font-size="14" lengthAdjust="spacing" textLength="127" x="27" y="694.5576">toString() : String</text></g><!--class Author--><g id="elem_Author"><rect codeLine="40" fill="#F1F1F1" height="145.7813" id="Author" rx="2.5" ry="2.5" style="stroke:#181818;stroke-width:0.5;" width="236" x="851.5" y="499"/><ellipse cx="940.75" cy="515" fill="#ADD1B2" rx="11" ry="11" style="stroke:#181818;stroke-width:1.0;"/><path d="M943.0938,510.6719 C942.1563,510.2344 941.5625,510.0938 940.6875,510.0938 C938.0625,510.0938 936.0625,512.1719 936.0625,514.8906 L936.0625,516.0156 C936.0625,518.5938 938.1719,520.4844 941.0625,520.4844 C942.2813,520.4844 943.4375,520.1875 944.1875,519.6406 C944.7656,519.2344 945.0938,518.7813 945.0938,518.3906 C945.0938,517.9375 944.7031,517.5469 944.2344,517.5469 C944.0156,517.5469 943.8125,517.625 943.625,517.8125 C943.1719,518.2969 943.1719,518.2969 942.9844,518.3906 C942.5625,518.6563 941.875,518.7813 941.1094,518.7813 C939.0625,518.7813 937.7656,517.6875 937.7656,515.9844 L937.7656,514.8906 C937.7656,513.1094 939.0156,511.7969 940.75,511.7969 C941.3281,511.7969 941.9375,511.9531 942.4063,512.2031 C942.8906,512.4844 943.0625,512.7031 943.1563,513.1094 C943.2188,513.5156 943.25,513.6406 943.3906,513.7656 C943.5313,513.9063 943.7656,514.0156 943.9844,514.0156 C944.25,514.0156 944.5156,513.875 944.6875,513.6563 C944.7969,513.5 944.8281,513.3125 944.8281,512.8906 L944.8281,511.4688 C944.8281,511.0313 944.8125,510.9063 944.7188,510.75 C944.5625,510.4844 944.2813,510.3438 943.9844,510.3438 C943.6875,510.3438 943.4844,510.4375 943.2656,510.75 L943.0938,510.6719 Z " fill="#000000"/><text fill="#000000" font-family="sans-serif" font-size="14" lengthAdjust="spacing" textLength="49" x="961.25" y="519.8467">Author</text><line style="stroke:#181818;stroke-width:0.5;" x1="852.5" x2="1086.5" y1="531" y2="531"/><rect fill="none" height="6" style="stroke:#C82930;stroke-width:1.0;" width="6" x="859.5" y="541.6484"/><text fill="#000000" font-family="sans-serif" font-size="14" lengthAdjust="spacing" textLength="46" x="871.5" y="547.9951">id : int</text><rect fill="none" height="6" style="stroke:#C82930;stroke-width:1.0;" width="6" x="859.5" y="557.9453"/><text fill="#000000" font-family="sans-serif" font-size="14" lengthAdjust="spacing" textLength="97" x="871.5" y="564.292">name : String</text><line style="stroke:#181818;stroke-width:0.5;" x1="852.5" x2="1086.5" y1="571.5938" y2="571.5938"/><ellipse cx="862.5" cy="585.2422" fill="#84BE84" rx="3" ry="3" style="stroke:#038048;stroke-width:1.0;"/><text fill="#000000" font-family="sans-serif" font-size="14" lengthAdjust="spacing" textLength="210" x="871.5" y="588.5889">Author(id : int, name : String)</text><ellipse cx="862.5" cy="601.5391" fill="#84BE84" rx="3" ry="3" style="stroke:#038048;stroke-width:1.0;"/><text fill="#000000" font-family="sans-serif" font-size="14" lengthAdjust="spacing" textLength="81" x="871.5" y="604.8857">getId() : int</text><ellipse cx="862.5" cy="617.8359" fill="#84BE84" rx="3" ry="3" style="stroke:#038048;stroke-width:1.0;"/><text fill="#000000" font-family="sans-serif" font-size="14" lengthAdjust="spacing" textLength="133" x="871.5" y="621.1826">getName() : String</text><ellipse cx="862.5" cy="634.1328" fill="#84BE84" rx="3" ry="3" style="stroke:#038048;stroke-width:1.0;"/><text fill="#000000" font-family="sans-serif" font-size="14" lengthAdjust="spacing" textLength="127" x="871.5" y="637.4795">toString() : String</text></g><!--class DocumentAuthor--><g id="elem_DocumentAuthor"><rect codeLine="49" fill="#F1F1F1" height="129.4844" id="DocumentAuthor" rx="2.5" ry="2.5" style="stroke:#181818;stroke-width:0.5;" width="380" x="779.5" y="779"/><ellipse cx="903.25" cy="795" fill="#ADD1B2" rx="11" ry="11" style="stroke:#181818;stroke-width:1.0;"/><path d="M905.5938,790.6719 C904.6563,790.2344 904.0625,790.0938 903.1875,790.0938 C900.5625,790.0938 898.5625,792.1719 898.5625,794.8906 L898.5625,796.0156 C898.5625,798.5938 900.6719,800.4844 903.5625,800.4844 C904.7813,800.4844 905.9375,800.1875 906.6875,799.6406 C907.2656,799.2344 907.5938,798.7813 907.5938,798.3906 C907.5938,797.9375 907.2031,797.5469 906.7344,797.5469 C906.5156,797.5469 906.3125,797.625 906.125,797.8125 C905.6719,798.2969 905.6719,798.2969 905.4844,798.3906 C905.0625,798.6563 904.375,798.7813 903.6094,798.7813 C901.5625,798.7813 900.2656,797.6875 900.2656,795.9844 L900.2656,794.8906 C900.2656,793.1094 901.5156,791.7969 903.25,791.7969 C903.8281,791.7969 904.4375,791.9531 904.9063,792.2031 C905.3906,792.4844 905.5625,792.7031 905.6563,793.1094 C905.7188,793.5156 905.75,793.6406 905.8906,793.7656 C906.0313,793.9063 906.2656,794.0156 906.4844,794.0156 C906.75,794.0156 907.0156,793.875 907.1875,793.6563 C907.2969,793.5 907.3281,793.3125 907.3281,792.8906 L907.3281,791.4688 C907.3281,791.0313 907.3125,790.9063 907.2188,790.75 C907.0625,790.4844 906.7813,790.3438 906.4844,790.3438 C906.1875,790.3438 905.9844,790.4375 905.7656,790.75 L905.5938,790.6719 Z " fill="#000000"/><text fill="#000000" font-family="sans-serif" font-size="14" lengthAdjust="spacing" textLength="124" x="923.75" y="799.8467">DocumentAuthor</text><line style="stroke:#181818;stroke-width:0.5;" x1="780.5" x2="1158.5" y1="811" y2="811"/><rect fill="none" height="6" style="stroke:#C82930;stroke-width:1.0;" width="6" x="787.5" y="821.6484"/><text fill="#000000" font-family="sans-serif" font-size="14" lengthAdjust="spacing" textLength="119" x="799.5" y="827.9951">documentId : int</text><rect fill="none" height="6" style="stroke:#C82930;stroke-width:1.0;" width="6" x="787.5" y="837.9453"/><text fill="#000000" font-family="sans-serif" font-size="14" lengthAdjust="spacing" textLength="93" x="799.5" y="844.292">authorId : int</text><line style="stroke:#181818;stroke-width:0.5;" x1="780.5" x2="1158.5" y1="851.5938" y2="851.5938"/><ellipse cx="790.5" cy="865.2422" fill="#84BE84" rx="3" ry="3" style="stroke:#038048;stroke-width:1.0;"/><text fill="#000000" font-family="sans-serif" font-size="14" lengthAdjust="spacing" textLength="354" x="799.5" y="868.5889">DocumentAuthor(documentId : int, authorId : int)</text><ellipse cx="790.5" cy="881.5391" fill="#84BE84" rx="3" ry="3" style="stroke:#038048;stroke-width:1.0;"/><text fill="#000000" font-family="sans-serif" font-size="14" lengthAdjust="spacing" textLength="156" x="799.5" y="884.8857">getDocumentId() : int</text><ellipse cx="790.5" cy="897.8359" fill="#84BE84" rx="3" ry="3" style="stroke:#038048;stroke-width:1.0;"/><text fill="#000000" font-family="sans-serif" font-size="14" lengthAdjust="spacing" textLength="130" x="799.5" y="901.1826">getAuthorId() : int</text></g><!--class App--><g id="elem_App"><rect codeLine="57" fill="#F1F1F1" height="64.2969" id="App" rx="2.5" ry="2.5" style="stroke:#181818;stroke-width:0.5;" width="211" x="1231" y="154"/><ellipse cx="1317.25" cy="170" fill="#ADD1B2" rx="11" ry="11" style="stroke:#181818;stroke-width:1.0;"/><path d="M1319.5938,165.6719 C1318.6563,165.2344 1318.0625,165.0938 1317.1875,165.0938 C1314.5625,165.0938 1312.5625,167.1719 1312.5625,169.8906 L1312.5625,171.0156 C1312.5625,173.5938 1314.6719,175.4844 1317.5625,175.4844 C1318.7813,175.4844 1319.9375,175.1875 1320.6875,174.6406 C1321.2656,174.2344 1321.5938,173.7813 1321.5938,173.3906 C1321.5938,172.9375 1321.2031,172.5469 1320.7344,172.5469 C1320.5156,172.5469 1320.3125,172.625 1320.125,172.8125 C1319.6719,173.2969 1319.6719,173.2969 1319.4844,173.3906 C1319.0625,173.6563 1318.375,173.7813 1317.6094,173.7813 C1315.5625,173.7813 1314.2656,172.6875 1314.2656,170.9844 L1314.2656,169.8906 C1314.2656,168.1094 1315.5156,166.7969 1317.25,166.7969 C1317.8281,166.7969 1318.4375,166.9531 1318.9063,167.2031 C1319.3906,167.4844 1319.5625,167.7031 1319.6563,168.1094 C1319.7188,168.5156 1319.75,168.6406 1319.8906,168.7656 C1320.0313,168.9063 1320.2656,169.0156 1320.4844,169.0156 C1320.75,169.0156 1321.0156,168.875 1321.1875,168.6563 C1321.2969,168.5 1321.3281,168.3125 1321.3281,167.8906 L1321.3281,166.4688 C1321.3281,166.0313 1321.3125,165.9063 1321.2188,165.75 C1321.0625,165.4844 1320.7813,165.3438 1320.4844,165.3438 C1320.1875,165.3438 1319.9844,165.4375 1319.7656,165.75 L1319.5938,165.6719 Z " fill="#000000"/><text fill="#000000" font-family="sans-serif" font-size="14" lengthAdjust="spacing" textLength="30" x="1337.75" y="174.8467">App</text><line style="stroke:#181818;stroke-width:0.5;" x1="1232" x2="1441" y1="186" y2="186"/><line style="stroke:#181818;stroke-width:0.5;" x1="1232" x2="1441" y1="194" y2="194"/><ellipse cx="1242" cy="207.6484" fill="#84BE84" rx="3" ry="3" style="stroke:#038048;stroke-width:1.0;"/><text fill="#000000" font-family="sans-serif" font-size="14" lengthAdjust="spacing" textLength="185" x="1251" y="210.9951">main(args : String[]) : void</text></g><!--link LibraryManager to Document--><g id="link_LibraryManager_Document"><path codeLine="61" d="M743.344,342.634 C695.461,375.586 645.423,410.021 599.152,441.863 " fill="none" id="LibraryManager-Document" style="stroke:#181818;stroke-width:1.0;"/><text fill="#000000" font-family="sans-serif" font-size="13" lengthAdjust="spacing" textLength="54" x="658.5" y="408.0669">contains</text><text fill="#000000" font-family="sans-serif" font-size="13" lengthAdjust="spacing" textLength="8" x="727.792" y="344.6024">1</text><text fill="#000000" font-family="sans-serif" font-size="13" lengthAdjust="spacing" textLength="7" x="602.7983" y="430.9807">*</text></g><!--link LibraryManager to Author--><g id="link_LibraryManager_Author"><path codeLine="62" d="M969.5,365.229 C969.5,412.471 969.5,460.83 969.5,498.787 " fill="none" id="LibraryManager-Author" style="stroke:#181818;stroke-width:1.0;"/><text fill="#000000" font-family="sans-serif" font-size="13" lengthAdjust="spacing" textLength="54" x="970.5" y="408.0669">contains</text><text fill="#000000" font-family="sans-serif" font-size="13" lengthAdjust="spacing" textLength="8" x="961.3438" y="384.5996">1</text><text fill="#000000" font-family="sans-serif" font-size="13" lengthAdjust="spacing" textLength="7" x="962.1555" y="487.926">*</text></g><!--link LibraryManager to DocumentAuthor--><g id="link_LibraryManager_DocumentAuthor"><path codeLine="63" d="M1078.26,365.071 C1089.44,390.156 1099.05,416.202 1105.5,442 C1133.53,554.105 1148.85,594.884 1105.5,702 C1093.85,730.794 1073.15,756.953 1051.36,778.684 " fill="none" id="LibraryManager-DocumentAuthor" style="stroke:#181818;stroke-width:1.0;"/><text fill="#000000" font-family="sans-serif" font-size="13" lengthAdjust="spacing" textLength="60" x="1133.5" y="576.5669">manages</text><text fill="#000000" font-family="sans-serif" font-size="13" lengthAdjust="spacing" textLength="8" x="1074.3522" y="384.4354">1</text><text fill="#000000" font-family="sans-serif" font-size="13" lengthAdjust="spacing" textLength="7" x="1052.9306" y="767.8221">*</text></g><!--link Document to DocumentAuthor--><g id="link_Document_DocumentAuthor"><path codeLine="65" d="M678.651,702.027 C733.942,728.731 789.854,755.735 837.681,778.835 " fill="none" id="Document-DocumentAuthor" style="stroke:#181818;stroke-width:1.0;"/><text fill="#000000" font-family="sans-serif" font-size="13" lengthAdjust="spacing" textLength="79" x="774.5" y="745.0669">participation</text><text fill="#000000" font-family="sans-serif" font-size="13" lengthAdjust="spacing" textLength="8" x="685.8644" y="722.0526">1</text><text fill="#000000" font-family="sans-serif" font-size="13" lengthAdjust="spacing" textLength="23" x="799.0055" y="767.9896">0..*</text></g><!--link Author to DocumentAuthor--><g id="link_Author_DocumentAuthor"><path codeLine="66" d="M969.5,645.221 C969.5,686.851 969.5,738.711 969.5,778.811 " fill="none" id="Author-DocumentAuthor" style="stroke:#181818;stroke-width:1.0;"/><text fill="#000000" font-family="sans-serif" font-size="13" lengthAdjust="spacing" textLength="79" x="970.5" y="745.0669">participation</text><text fill="#000000" font-family="sans-serif" font-size="13" lengthAdjust="spacing" textLength="8" x="961.1313" y="664.7456">1</text><text fill="#000000" font-family="sans-serif" font-size="13" lengthAdjust="spacing" textLength="23" x="945.2422" y="767.963">0..*</text></g><!--SRC=[bLLDJ-Cm4BtdLrWz9KjRBTSA8L5LArN0We0Ruk0cfcjjOaUs2ueG_tqTP-nayWNRGsLxljvxCtRId6fDRlX1KLNTKa6FJ96FYDZVYcGoFHLC64qsraMRYnqSN883FPa_KWNpbTjwes8vDLoAGJHsqoaLmXRTaCTcvSxTtndHXYg3qSM9TNsJF0ENtARscNNVIBFCsvp9Rrfp0yOPcsLhUW02iTTXdralBimIYFjzh-Wh5oXsBWnh0WcE3FPwM-r2xG6CP4nt5ntqs5PNK38UrXvfgUDzfnvO8TyOOFYbP854x50jPCPVgobhBOItRQidRd8MSr6UJDriexWuZlG41qtGdecndAzPzIvLfiVmDAHSug4Yg0lrO844RQBFA4hTbV7bmcNXa0UsfcORUC9XUJhaF7M3iQEcDj_8bERrseTL9UlmUx9RiFm5KhvnJMBVjj027eOD8rZE5L-ErLrEbKpQGRCg9XtQxgpfSuAvEmlgomW9xOCnz5uNhTSzfX8Bzdu_pMuO7u1uXZMOFaiSPMHptYKMXg4PawbH4BHWVJNWsMcxXPo-KFYtzHqAF8iGlpE35twF4UERqHinWFxbepXyZiQuXFV9MrfHon9msdU6SX5JTTI1slDBzqxsFc2BymLPhSZYnwAzfnkIIc5i7ZtZ3V9yoxSdwSQ2h7rq58MQtlldUZqMKDgF6qzvwQOsWkF_YVa7]--></g></svg>