<?xml version="1.0" encoding="us-ascii" standalone="no"?><svg xmlns="http://www.w3.org/2000/svg" xmlns:xlink="http://www.w3.org/1999/xlink" contentStyleType="text/css" height="973px" preserveAspectRatio="none" style="width:563px;height:973px;background:#FFFFFF;" version="1.1" viewBox="0 0 563 973" width="563px" zoomAndPan="magnify"><defs/><g><!--class Document--><g id="elem_Document"><rect codeLine="26" fill="#F1F1F1" height="341.3438" id="Document" rx="2.5" ry="2.5" style="stroke:#181818;stroke-width:0.5;" width="549" x="7" y="403"/><ellipse cx="239.75" cy="419" fill="#ADD1B2" rx="11" ry="11" style="stroke:#181818;stroke-width:1.0;"/><path d="M242.0938,414.6719 C241.1563,414.2344 240.5625,414.0938 239.6875,414.0938 C237.0625,414.0938 235.0625,416.1719 235.0625,418.8906 L235.0625,420.0156 C235.0625,422.5938 237.1719,424.4844 240.0625,424.4844 C241.2813,424.4844 242.4375,424.1875 243.1875,423.6406 C243.7656,423.2344 244.0938,422.7813 244.0938,422.3906 C244.0938,421.9375 243.7031,421.5469 243.2344,421.5469 C243.0156,421.5469 242.8125,421.625 242.625,421.8125 C242.1719,422.2969 242.1719,422.2969 241.9844,422.3906 C241.5625,422.6563 240.875,422.7813 240.1094,422.7813 C238.0625,422.7813 236.7656,421.6875 236.7656,419.9844 L236.7656,418.8906 C236.7656,417.1094 238.0156,415.7969 239.75,415.7969 C240.3281,415.7969 240.9375,415.9531 241.4063,416.2031 C241.8906,416.4844 242.0625,416.7031 242.1563,417.1094 C242.2188,417.5156 242.25,417.6406 242.3906,417.7656 C242.5313,417.9063 242.7656,418.0156 242.9844,418.0156 C243.25,418.0156 243.5156,417.875 243.6875,417.6563 C243.7969,417.5 243.8281,417.3125 243.8281,416.8906 L243.8281,415.4688 C243.8281,415.0313 243.8125,414.9063 243.7188,414.75 C243.5625,414.4844 243.2813,414.3438 242.9844,414.3438 C242.6875,414.3438 242.4844,414.4375 242.2656,414.75 L242.0938,414.6719 Z " fill="#000000"/><text fill="#000000" font-family="sans-serif" font-size="14" lengthAdjust="spacing" textLength="75" x="260.25" y="423.8467">Document</text><line style="stroke:#181818;stroke-width:0.5;" x1="8" x2="555" y1="435" y2="435"/><rect fill="none" height="6" style="stroke:#C82930;stroke-width:1.0;" width="6" x="15" y="445.6484"/><text fill="#000000" font-family="sans-serif" font-size="14" lengthAdjust="spacing" textLength="187" x="27" y="451.9951">static contadorIds: int = 0</text><rect fill="none" height="6" style="stroke:#C82930;stroke-width:1.0;" width="6" x="15" y="461.9453"/><text fill="#000000" font-family="sans-serif" font-size="14" lengthAdjust="spacing" textLength="42" x="27" y="468.292">id: int</text><rect fill="none" height="6" style="stroke:#C82930;stroke-width:1.0;" width="6" x="15" y="478.2422"/><text fill="#000000" font-family="sans-serif" font-size="14" lengthAdjust="spacing" textLength="73" x="27" y="484.5889">title: Title</text><rect fill="none" height="6" style="stroke:#C82930;stroke-width:1.0;" width="6" x="15" y="494.5391"/><text fill="#000000" font-family="sans-serif" font-size="14" lengthAdjust="spacing" textLength="87" x="27" y="500.8857">type: String</text><rect fill="none" height="6" style="stroke:#C82930;stroke-width:1.0;" width="6" x="15" y="510.8359"/><text fill="#000000" font-family="sans-serif" font-size="14" lengthAdjust="spacing" textLength="117" x="27" y="517.1826">language: String</text><rect fill="none" height="6" style="stroke:#C82930;stroke-width:1.0;" width="6" x="15" y="527.1328"/><text fill="#000000" font-family="sans-serif" font-size="14" lengthAdjust="spacing" textLength="122" x="27" y="533.4795">authors: Author[]</text><rect fill="none" height="6" style="stroke:#C82930;stroke-width:1.0;" width="6" x="15" y="543.4297"/><text fill="#000000" font-family="sans-serif" font-size="14" lengthAdjust="spacing" textLength="131" x="27" y="549.7764">keywords: String[]</text><rect fill="none" height="6" style="stroke:#C82930;stroke-width:1.0;" width="6" x="15" y="559.7266"/><text fill="#000000" font-family="sans-serif" font-size="14" lengthAdjust="spacing" textLength="137" x="27" y="566.0732">publishYear: String</text><line style="stroke:#181818;stroke-width:0.5;" x1="8" x2="555" y1="573.375" y2="573.375"/><ellipse cx="18" cy="587.0234" fill="#84BE84" rx="3" ry="3" style="stroke:#038048;stroke-width:1.0;"/><text fill="#000000" font-family="sans-serif" font-size="14" lengthAdjust="spacing" textLength="523" x="27" y="590.3701">Document(title: Title, type: String, language: String, publishYear: String)</text><ellipse cx="18" cy="603.3203" fill="#84BE84" rx="3" ry="3" style="stroke:#038048;stroke-width:1.0;"/><text fill="#000000" font-family="sans-serif" font-size="14" lengthAdjust="spacing" textLength="77" x="27" y="606.667">getId(): int</text><ellipse cx="18" cy="619.6172" fill="#84BE84" rx="3" ry="3" style="stroke:#038048;stroke-width:1.0;"/><text fill="#000000" font-family="sans-serif" font-size="14" lengthAdjust="spacing" textLength="110" x="27" y="622.9639">getTitle(): Title</text><ellipse cx="18" cy="635.9141" fill="#84BE84" rx="3" ry="3" style="stroke:#038048;stroke-width:1.0;"/><text fill="#000000" font-family="sans-serif" font-size="14" lengthAdjust="spacing" textLength="124" x="27" y="639.2607">getType(): String</text><ellipse cx="18" cy="652.2109" fill="#84BE84" rx="3" ry="3" style="stroke:#038048;stroke-width:1.0;"/><text fill="#000000" font-family="sans-serif" font-size="14" lengthAdjust="spacing" textLength="156" x="27" y="655.5576">getLanguage(): String</text><ellipse cx="18" cy="668.5078" fill="#84BE84" rx="3" ry="3" style="stroke:#038048;stroke-width:1.0;"/><text fill="#000000" font-family="sans-serif" font-size="14" lengthAdjust="spacing" textLength="159" x="27" y="671.8545">getAuthors(): Author[]</text><ellipse cx="18" cy="684.8047" fill="#84BE84" rx="3" ry="3" style="stroke:#038048;stroke-width:1.0;"/><text fill="#000000" font-family="sans-serif" font-size="14" lengthAdjust="spacing" textLength="211" x="27" y="688.1514">setAuthors(authors: Author[])</text><ellipse cx="18" cy="701.1016" fill="#84BE84" rx="3" ry="3" style="stroke:#038048;stroke-width:1.0;"/><text fill="#000000" font-family="sans-serif" font-size="14" lengthAdjust="spacing" textLength="233" x="27" y="704.4482">setKeywords(keywords: String[])</text><ellipse cx="18" cy="717.3984" fill="#84BE84" rx="3" ry="3" style="stroke:#038048;stroke-width:1.0;"/><text fill="#000000" font-family="sans-serif" font-size="14" lengthAdjust="spacing" textLength="167" x="27" y="720.7451">getKeywords(): String[]</text><ellipse cx="18" cy="733.6953" fill="#84BE84" rx="3" ry="3" style="stroke:#038048;stroke-width:1.0;"/><text fill="#000000" font-family="sans-serif" font-size="14" lengthAdjust="spacing" textLength="171" x="27" y="737.042">getPublishYear(): String</text></g><!--class Author--><g id="elem_Author"><rect codeLine="16" fill="#F1F1F1" height="145.7813" id="Author" rx="2.5" ry="2.5" style="stroke:#181818;stroke-width:0.5;" width="213" x="51" y="821"/><ellipse cx="128.75" cy="837" fill="#ADD1B2" rx="11" ry="11" style="stroke:#181818;stroke-width:1.0;"/><path d="M131.0938,832.6719 C130.1563,832.2344 129.5625,832.0938 128.6875,832.0938 C126.0625,832.0938 124.0625,834.1719 124.0625,836.8906 L124.0625,838.0156 C124.0625,840.5938 126.1719,842.4844 129.0625,842.4844 C130.2813,842.4844 131.4375,842.1875 132.1875,841.6406 C132.7656,841.2344 133.0938,840.7813 133.0938,840.3906 C133.0938,839.9375 132.7031,839.5469 132.2344,839.5469 C132.0156,839.5469 131.8125,839.625 131.625,839.8125 C131.1719,840.2969 131.1719,840.2969 130.9844,840.3906 C130.5625,840.6563 129.875,840.7813 129.1094,840.7813 C127.0625,840.7813 125.7656,839.6875 125.7656,837.9844 L125.7656,836.8906 C125.7656,835.1094 127.0156,833.7969 128.75,833.7969 C129.3281,833.7969 129.9375,833.9531 130.4063,834.2031 C130.8906,834.4844 131.0625,834.7031 131.1563,835.1094 C131.2188,835.5156 131.25,835.6406 131.3906,835.7656 C131.5313,835.9063 131.7656,836.0156 131.9844,836.0156 C132.25,836.0156 132.5156,835.875 132.6875,835.6563 C132.7969,835.5 132.8281,835.3125 132.8281,834.8906 L132.8281,833.4688 C132.8281,833.0313 132.8125,832.9063 132.7188,832.75 C132.5625,832.4844 132.2813,832.3438 131.9844,832.3438 C131.6875,832.3438 131.4844,832.4375 131.2656,832.75 L131.0938,832.6719 Z " fill="#000000"/><text fill="#000000" font-family="sans-serif" font-size="14" lengthAdjust="spacing" textLength="49" x="149.25" y="841.8467">Author</text><line style="stroke:#181818;stroke-width:0.5;" x1="52" x2="263" y1="853" y2="853"/><rect fill="none" height="6" style="stroke:#C82930;stroke-width:1.0;" width="6" x="59" y="863.6484"/><text fill="#000000" font-family="sans-serif" font-size="14" lengthAdjust="spacing" textLength="187" x="71" y="869.9951">static contadorIds: int = 0</text><rect fill="none" height="6" style="stroke:#C82930;stroke-width:1.0;" width="6" x="59" y="879.9453"/><text fill="#000000" font-family="sans-serif" font-size="14" lengthAdjust="spacing" textLength="42" x="71" y="886.292">id: int</text><rect fill="none" height="6" style="stroke:#C82930;stroke-width:1.0;" width="6" x="59" y="896.2422"/><text fill="#000000" font-family="sans-serif" font-size="14" lengthAdjust="spacing" textLength="93" x="71" y="902.5889">name: String</text><line style="stroke:#181818;stroke-width:0.5;" x1="52" x2="263" y1="909.8906" y2="909.8906"/><ellipse cx="62" cy="923.5391" fill="#84BE84" rx="3" ry="3" style="stroke:#038048;stroke-width:1.0;"/><text fill="#000000" font-family="sans-serif" font-size="14" lengthAdjust="spacing" textLength="152" x="71" y="926.8857">Author(name: String)</text><ellipse cx="62" cy="939.8359" fill="#84BE84" rx="3" ry="3" style="stroke:#038048;stroke-width:1.0;"/><text fill="#000000" font-family="sans-serif" font-size="14" lengthAdjust="spacing" textLength="77" x="71" y="943.1826">getId(): int</text><ellipse cx="62" cy="956.1328" fill="#84BE84" rx="3" ry="3" style="stroke:#038048;stroke-width:1.0;"/><text fill="#000000" font-family="sans-serif" font-size="14" lengthAdjust="spacing" textLength="129" x="71" y="959.4795">getName(): String</text></g><!--class Title--><g id="elem_Title"><rect codeLine="6" fill="#F1F1F1" height="145.7813" id="Title" rx="2.5" ry="2.5" style="stroke:#181818;stroke-width:0.5;" width="213" x="299" y="821"/><ellipse cx="384.75" cy="837" fill="#ADD1B2" rx="11" ry="11" style="stroke:#181818;stroke-width:1.0;"/><path d="M387.0938,832.6719 C386.1563,832.2344 385.5625,832.0938 384.6875,832.0938 C382.0625,832.0938 380.0625,834.1719 380.0625,836.8906 L380.0625,838.0156 C380.0625,840.5938 382.1719,842.4844 385.0625,842.4844 C386.2813,842.4844 387.4375,842.1875 388.1875,841.6406 C388.7656,841.2344 389.0938,840.7813 389.0938,840.3906 C389.0938,839.9375 388.7031,839.5469 388.2344,839.5469 C388.0156,839.5469 387.8125,839.625 387.625,839.8125 C387.1719,840.2969 387.1719,840.2969 386.9844,840.3906 C386.5625,840.6563 385.875,840.7813 385.1094,840.7813 C383.0625,840.7813 381.7656,839.6875 381.7656,837.9844 L381.7656,836.8906 C381.7656,835.1094 383.0156,833.7969 384.75,833.7969 C385.3281,833.7969 385.9375,833.9531 386.4063,834.2031 C386.8906,834.4844 387.0625,834.7031 387.1563,835.1094 C387.2188,835.5156 387.25,835.6406 387.3906,835.7656 C387.5313,835.9063 387.7656,836.0156 387.9844,836.0156 C388.25,836.0156 388.5156,835.875 388.6875,835.6563 C388.7969,835.5 388.8281,835.3125 388.8281,834.8906 L388.8281,833.4688 C388.8281,833.0313 388.8125,832.9063 388.7188,832.75 C388.5625,832.4844 388.2813,832.3438 387.9844,832.3438 C387.6875,832.3438 387.4844,832.4375 387.2656,832.75 L387.0938,832.6719 Z " fill="#000000"/><text fill="#000000" font-family="sans-serif" font-size="14" lengthAdjust="spacing" textLength="33" x="405.25" y="841.8467">Title</text><line style="stroke:#181818;stroke-width:0.5;" x1="300" x2="511" y1="853" y2="853"/><rect fill="none" height="6" style="stroke:#C82930;stroke-width:1.0;" width="6" x="307" y="863.6484"/><text fill="#000000" font-family="sans-serif" font-size="14" lengthAdjust="spacing" textLength="187" x="319" y="869.9951">static contadorIds: int = 0</text><rect fill="none" height="6" style="stroke:#C82930;stroke-width:1.0;" width="6" x="307" y="879.9453"/><text fill="#000000" font-family="sans-serif" font-size="14" lengthAdjust="spacing" textLength="42" x="319" y="886.292">id: int</text><rect fill="none" height="6" style="stroke:#C82930;stroke-width:1.0;" width="6" x="307" y="896.2422"/><text fill="#000000" font-family="sans-serif" font-size="14" lengthAdjust="spacing" textLength="93" x="319" y="902.5889">name: String</text><line style="stroke:#181818;stroke-width:0.5;" x1="300" x2="511" y1="909.8906" y2="909.8906"/><ellipse cx="310" cy="923.5391" fill="#84BE84" rx="3" ry="3" style="stroke:#038048;stroke-width:1.0;"/><text fill="#000000" font-family="sans-serif" font-size="14" lengthAdjust="spacing" textLength="136" x="319" y="926.8857">Title(name: String)</text><ellipse cx="310" cy="939.8359" fill="#84BE84" rx="3" ry="3" style="stroke:#038048;stroke-width:1.0;"/><text fill="#000000" font-family="sans-serif" font-size="14" lengthAdjust="spacing" textLength="77" x="319" y="943.1826">getId(): int</text><ellipse cx="310" cy="956.1328" fill="#84BE84" rx="3" ry="3" style="stroke:#038048;stroke-width:1.0;"/><text fill="#000000" font-family="sans-serif" font-size="14" lengthAdjust="spacing" textLength="129" x="319" y="959.4795">getName(): String</text></g><!--class LibraryManager--><g id="elem_LibraryManager"><rect codeLine="48" fill="#F1F1F1" height="178.375" id="LibraryManager" rx="2.5" ry="2.5" style="stroke:#181818;stroke-width:0.5;" width="492" x="35.5" y="148"/><ellipse cx="221.75" cy="164" fill="#ADD1B2" rx="11" ry="11" style="stroke:#181818;stroke-width:1.0;"/><path d="M224.0938,159.6719 C223.1563,159.2344 222.5625,159.0938 221.6875,159.0938 C219.0625,159.0938 217.0625,161.1719 217.0625,163.8906 L217.0625,165.0156 C217.0625,167.5938 219.1719,169.4844 222.0625,169.4844 C223.2813,169.4844 224.4375,169.1875 225.1875,168.6406 C225.7656,168.2344 226.0938,167.7813 226.0938,167.3906 C226.0938,166.9375 225.7031,166.5469 225.2344,166.5469 C225.0156,166.5469 224.8125,166.625 224.625,166.8125 C224.1719,167.2969 224.1719,167.2969 223.9844,167.3906 C223.5625,167.6563 222.875,167.7813 222.1094,167.7813 C220.0625,167.7813 218.7656,166.6875 218.7656,164.9844 L218.7656,163.8906 C218.7656,162.1094 220.0156,160.7969 221.75,160.7969 C222.3281,160.7969 222.9375,160.9531 223.4063,161.2031 C223.8906,161.4844 224.0625,161.7031 224.1563,162.1094 C224.2188,162.5156 224.25,162.6406 224.3906,162.7656 C224.5313,162.9063 224.7656,163.0156 224.9844,163.0156 C225.25,163.0156 225.5156,162.875 225.6875,162.6563 C225.7969,162.5 225.8281,162.3125 225.8281,161.8906 L225.8281,160.4688 C225.8281,160.0313 225.8125,159.9063 225.7188,159.75 C225.5625,159.4844 225.2813,159.3438 224.9844,159.3438 C224.6875,159.3438 224.4844,159.4375 224.2656,159.75 L224.0938,159.6719 Z " fill="#000000"/><text fill="#000000" font-family="sans-serif" font-size="14" lengthAdjust="spacing" textLength="111" x="242.25" y="168.8467">LibraryManager</text><line style="stroke:#181818;stroke-width:0.5;" x1="36.5" x2="526.5" y1="180" y2="180"/><rect fill="none" height="6" style="stroke:#C82930;stroke-width:1.0;" width="6" x="43.5" y="190.6484"/><text fill="#000000" font-family="sans-serif" font-size="14" lengthAdjust="spacing" textLength="212" x="55.5" y="196.9951">documents: List&lt;Document&gt;</text><line style="stroke:#181818;stroke-width:0.5;" x1="36.5" x2="526.5" y1="204.2969" y2="204.2969"/><rect fill="#F24D5C" height="6" style="stroke:#C82930;stroke-width:1.0;" width="6" x="43.5" y="214.9453"/><text fill="#000000" font-family="sans-serif" font-size="14" lengthAdjust="spacing" textLength="121" x="55.5" y="221.292">LibraryManager()</text><rect fill="#F24D5C" height="6" style="stroke:#C82930;stroke-width:1.0;" width="6" x="43.5" y="231.2422"/><text fill="#000000" font-family="sans-serif" font-size="14" lengthAdjust="spacing" textLength="307" x="55.5" y="237.5889">addDocument(document: Document): void</text><rect fill="#F24D5C" height="6" style="stroke:#C82930;stroke-width:1.0;" width="6" x="43.5" y="247.5391"/><text fill="#000000" font-family="sans-serif" font-size="14" lengthAdjust="spacing" textLength="466" x="55.5" y="253.8857">searchDocument(criterio: String, valor: String): List&lt;Document&gt;</text><rect fill="#F24D5C" height="6" style="stroke:#C82930;stroke-width:1.0;" width="6" x="43.5" y="263.8359"/><text fill="#000000" font-family="sans-serif" font-size="14" lengthAdjust="spacing" textLength="409" x="55.5" y="270.1826">mostrarDocumentos(documents: List&lt;Document&gt;): void</text><rect fill="#F24D5C" height="6" style="stroke:#C82930;stroke-width:1.0;" width="6" x="43.5" y="280.1328"/><text fill="#000000" font-family="sans-serif" font-size="14" lengthAdjust="spacing" textLength="150" x="55.5" y="286.4795">addDocument(): void</text><rect fill="#F24D5C" height="6" style="stroke:#C82930;stroke-width:1.0;" width="6" x="43.5" y="296.4297"/><text fill="#000000" font-family="sans-serif" font-size="14" lengthAdjust="spacing" textLength="146" x="55.5" y="302.7764">searchOption(): void</text><ellipse cx="46.5" cy="315.7266" fill="#84BE84" rx="3" ry="3" style="stroke:#038048;stroke-width:1.0;"/><text fill="#000000" font-family="sans-serif" font-size="14" lengthAdjust="spacing" textLength="195" x="55.5" y="319.0732">startLibraryManager(): void</text></g><!--class App--><g id="elem_App"><rect codeLine="60" fill="#F1F1F1" height="64.2969" id="App" rx="2.5" ry="2.5" style="stroke:#181818;stroke-width:0.5;" width="203" x="180" y="7"/><ellipse cx="262.25" cy="23" fill="#ADD1B2" rx="11" ry="11" style="stroke:#181818;stroke-width:1.0;"/><path d="M264.5938,18.6719 C263.6563,18.2344 263.0625,18.0938 262.1875,18.0938 C259.5625,18.0938 257.5625,20.1719 257.5625,22.8906 L257.5625,24.0156 C257.5625,26.5938 259.6719,28.4844 262.5625,28.4844 C263.7813,28.4844 264.9375,28.1875 265.6875,27.6406 C266.2656,27.2344 266.5938,26.7813 266.5938,26.3906 C266.5938,25.9375 266.2031,25.5469 265.7344,25.5469 C265.5156,25.5469 265.3125,25.625 265.125,25.8125 C264.6719,26.2969 264.6719,26.2969 264.4844,26.3906 C264.0625,26.6563 263.375,26.7813 262.6094,26.7813 C260.5625,26.7813 259.2656,25.6875 259.2656,23.9844 L259.2656,22.8906 C259.2656,21.1094 260.5156,19.7969 262.25,19.7969 C262.8281,19.7969 263.4375,19.9531 263.9063,20.2031 C264.3906,20.4844 264.5625,20.7031 264.6563,21.1094 C264.7188,21.5156 264.75,21.6406 264.8906,21.7656 C265.0313,21.9063 265.2656,22.0156 265.4844,22.0156 C265.75,22.0156 266.0156,21.875 266.1875,21.6563 C266.2969,21.5 266.3281,21.3125 266.3281,20.8906 L266.3281,19.4688 C266.3281,19.0313 266.3125,18.9063 266.2188,18.75 C266.0625,18.4844 265.7813,18.3438 265.4844,18.3438 C265.1875,18.3438 264.9844,18.4375 264.7656,18.75 L264.5938,18.6719 Z " fill="#000000"/><text fill="#000000" font-family="sans-serif" font-size="14" lengthAdjust="spacing" textLength="30" x="282.75" y="27.8467">App</text><line style="stroke:#181818;stroke-width:0.5;" x1="181" x2="382" y1="39" y2="39"/><line style="stroke:#181818;stroke-width:0.5;" x1="181" x2="382" y1="47" y2="47"/><ellipse cx="191" cy="60.6484" fill="#84BE84" rx="3" ry="3" style="stroke:#038048;stroke-width:1.0;"/><text fill="#000000" font-family="sans-serif" font-size="14" lengthAdjust="spacing" textLength="177" x="200" y="63.9951">main(args: String[]): void</text></g><!--link Document to Author--><g id="link_Document_Author"><path codeLine="1" d="M215.506,744.008 C204.98,771.046 194.607,797.688 185.61,820.799 " fill="none" id="Document-Author" style="stroke:#181818;stroke-width:1.0;"/><text fill="#000000" font-family="sans-serif" font-size="13" lengthAdjust="spacing" textLength="56" x="202.5" y="787.0669">Contains</text></g><!--link Document to Title--><g id="link_Document_Title"><path codeLine="2" d="M347.494,744.008 C358.02,771.046 368.393,797.688 377.39,820.799 " fill="none" id="Document-Title" style="stroke:#181818;stroke-width:1.0;"/><text fill="#000000" font-family="sans-serif" font-size="13" lengthAdjust="spacing" textLength="56" x="365.5" y="787.0669">Contains</text></g><!--link LibraryManager to Document--><g id="link_LibraryManager_Document"><path codeLine="3" d="M281.5,326.323 C281.5,349.938 281.5,376.276 281.5,402.699 " fill="none" id="LibraryManager-Document" style="stroke:#181818;stroke-width:1.0;"/><text fill="#000000" font-family="sans-serif" font-size="13" lengthAdjust="spacing" textLength="57" x="282.5" y="369.0669">Manages</text></g><!--link App to LibraryManager--><g id="link_App_LibraryManager"><path codeLine="4" d="M281.5,71.057 C281.5,91.89 281.5,114.454 281.5,141.961 " fill="none" id="App-to-LibraryManager" style="stroke:#181818;stroke-width:1.0;stroke-dasharray:7.0,7.0;"/><polygon fill="#181818" points="281.5,147.961,285.5,138.961,281.5,142.961,277.5,138.961,281.5,147.961" style="stroke:#181818;stroke-width:1.0;"/><text fill="#000000" font-family="sans-serif" font-size="13" lengthAdjust="spacing" textLength="48" x="282.5" y="114.0669">creates</text></g><!--SRC=[jLJ9QiCm4BtxAtIqoKBFfWs4vXAQBj1UIkb1iOGjQaj66gU4q7-lR7aPRz13wkEyDpDlteorKr6HSGbajI9aMq2YT4ZkbGGgfF5s27qJa7A47SHHKtr-f9B6N5Vv3JqaBcgyRPwJzNf31kIGH9fJi0GlIganhZYvUAJ-LiG01H6Hg6p7bDup4n9XbToH6yGIh8gYYAIPLVaAMiZOQ-CBry77Q83GcCEU-K6_M1L-iXabK5Siup-DQkVNlyfsBQwikrthDPI3kulANnm-vxpNtOLJAkF2ti04HAjHRLStyySdmhxu-LlfKf9Bwu5vSKo5ITuvrLCMDjFwMEco9t0vqhMSgletvzsb1KDB76QR3hRIOeTQmXpkR34bF79eGKn761aPz7aFjPd-sDN1X2qpc32-OhnqBirTs-3VnpV7wjLO1GTXuBPPrSP3f7w-7-2JOQpTBciVdoPazPoKOFZ6hSmeQLCYBO1heRgbdsYgkdMFL7MLCcN0gceWPVpPMSOoiEmvaSyv22L7yAByJpKCFK6ixdMoR-y59MRssVQfZl6wSTul]--></g></svg>