<?xml version="1.0" encoding="us-ascii" standalone="no"?><svg xmlns="http://www.w3.org/2000/svg" xmlns:xlink="http://www.w3.org/1999/xlink" contentStyleType="text/css" height="931px" preserveAspectRatio="none" style="width:1766px;height:931px;background:#FFFFFF;" version="1.1" viewBox="0 0 1766 931" width="1766px" zoomAndPan="magnify"><defs/><g><!--class LibraryManager--><g id="elem_LibraryManager"><rect codeLine="60" fill="#F1F1F1" height="536.9063" id="LibraryManager" rx="2.5" ry="2.5" style="stroke:#181818;stroke-width:0.5;" width="413" x="528.5" y="148"/><ellipse cx="675.25" cy="164" fill="#ADD1B2" rx="11" ry="11" style="stroke:#181818;stroke-width:1.0;"/><path d="M677.5938,159.6719 C676.6563,159.2344 676.0625,159.0938 675.1875,159.0938 C672.5625,159.0938 670.5625,161.1719 670.5625,163.8906 L670.5625,165.0156 C670.5625,167.5938 672.6719,169.4844 675.5625,169.4844 C676.7813,169.4844 677.9375,169.1875 678.6875,168.6406 C679.2656,168.2344 679.5938,167.7813 679.5938,167.3906 C679.5938,166.9375 679.2031,166.5469 678.7344,166.5469 C678.5156,166.5469 678.3125,166.625 678.125,166.8125 C677.6719,167.2969 677.6719,167.2969 677.4844,167.3906 C677.0625,167.6563 676.375,167.7813 675.6094,167.7813 C673.5625,167.7813 672.2656,166.6875 672.2656,164.9844 L672.2656,163.8906 C672.2656,162.1094 673.5156,160.7969 675.25,160.7969 C675.8281,160.7969 676.4375,160.9531 676.9063,161.2031 C677.3906,161.4844 677.5625,161.7031 677.6563,162.1094 C677.7188,162.5156 677.75,162.6406 677.8906,162.7656 C678.0313,162.9063 678.2656,163.0156 678.4844,163.0156 C678.75,163.0156 679.0156,162.875 679.1875,162.6563 C679.2969,162.5 679.3281,162.3125 679.3281,161.8906 L679.3281,160.4688 C679.3281,160.0313 679.3125,159.9063 679.2188,159.75 C679.0625,159.4844 678.7813,159.3438 678.4844,159.3438 C678.1875,159.3438 677.9844,159.4375 677.7656,159.75 L677.5938,159.6719 Z " fill="#000000"/><text fill="#000000" font-family="sans-serif" font-size="14" lengthAdjust="spacing" textLength="111" x="695.75" y="168.8467">LibraryManager</text><line style="stroke:#181818;stroke-width:0.5;" x1="529.5" x2="940.5" y1="180" y2="180"/><rect fill="none" height="6" style="stroke:#C82930;stroke-width:1.0;" width="6" x="536.5" y="190.6484"/><text fill="#000000" font-family="sans-serif" font-size="14" lengthAdjust="spacing" textLength="138" x="548.5" y="196.9951">books: List&lt;Book&gt;</text><rect fill="none" height="6" style="stroke:#C82930;stroke-width:1.0;" width="6" x="536.5" y="206.9453"/><text fill="#000000" font-family="sans-serif" font-size="14" lengthAdjust="spacing" textLength="160" x="548.5" y="213.292">authors: List&lt;Author&gt;</text><rect fill="none" height="6" style="stroke:#C82930;stroke-width:1.0;" width="6" x="536.5" y="223.2422"/><text fill="#000000" font-family="sans-serif" font-size="14" lengthAdjust="spacing" textLength="187" x="548.5" y="229.5889">keywords: List&lt;Keyword&gt;</text><rect fill="none" height="6" style="stroke:#C82930;stroke-width:1.0;" width="6" x="536.5" y="239.5391"/><text fill="#000000" font-family="sans-serif" font-size="14" lengthAdjust="spacing" textLength="255" x="548.5" y="245.8857">relationsAuthor: List&lt;BookAuthor&gt;</text><rect fill="none" height="6" style="stroke:#C82930;stroke-width:1.0;" width="6" x="536.5" y="255.8359"/><text fill="#000000" font-family="sans-serif" font-size="14" lengthAdjust="spacing" textLength="281" x="548.5" y="262.1826">relationsKeyword: List&lt;BookKeyword&gt;</text><rect fill="none" height="6" style="stroke:#C82930;stroke-width:1.0;" width="6" x="536.5" y="272.1328"/><text fill="#000000" font-family="sans-serif" font-size="14" lengthAdjust="spacing" textLength="123" x="548.5" y="278.4795">scanner: Scanner</text><line style="stroke:#181818;stroke-width:0.5;" x1="529.5" x2="940.5" y1="285.7813" y2="285.7813"/><ellipse cx="539.5" cy="299.4297" fill="#84BE84" rx="3" ry="3" style="stroke:#038048;stroke-width:1.0;"/><text fill="#000000" font-family="sans-serif" font-size="14" lengthAdjust="spacing" textLength="121" x="548.5" y="302.7764">LibraryManager()</text><ellipse cx="539.5" cy="315.7266" fill="#84BE84" rx="3" ry="3" style="stroke:#038048;stroke-width:1.0;"/><text fill="#000000" font-family="sans-serif" font-size="14" lengthAdjust="spacing" textLength="195" x="548.5" y="319.0732">startLibraryManager(): void</text><rect fill="#F24D5C" height="6" style="stroke:#C82930;stroke-width:1.0;" width="6" x="536.5" y="329.0234"/><text fill="#000000" font-family="sans-serif" font-size="14" lengthAdjust="spacing" textLength="115" x="548.5" y="335.3701">listBooks(): void</text><rect fill="#F24D5C" height="6" style="stroke:#C82930;stroke-width:1.0;" width="6" x="536.5" y="345.3203"/><text fill="#000000" font-family="sans-serif" font-size="14" lengthAdjust="spacing" textLength="202" x="548.5" y="351.667">listBooksByKeywords(): void</text><rect fill="#F24D5C" height="6" style="stroke:#C82930;stroke-width:1.0;" width="6" x="536.5" y="361.6172"/><text fill="#000000" font-family="sans-serif" font-size="14" lengthAdjust="spacing" textLength="305" x="548.5" y="367.9639">listBooksByKeywords(keywordId: int): void</text><rect fill="#F24D5C" height="6" style="stroke:#C82930;stroke-width:1.0;" width="6" x="536.5" y="377.9141"/><text fill="#000000" font-family="sans-serif" font-size="14" lengthAdjust="spacing" textLength="182" x="548.5" y="384.2607">listBooksByAuthor(): void</text><rect fill="#F24D5C" height="6" style="stroke:#C82930;stroke-width:1.0;" width="6" x="536.5" y="394.2109"/><text fill="#000000" font-family="sans-serif" font-size="14" lengthAdjust="spacing" textLength="271" x="548.5" y="400.5576">listBooksByAuthor(authorId: int): void</text><rect fill="#F24D5C" height="6" style="stroke:#C82930;stroke-width:1.0;" width="6" x="536.5" y="410.5078"/><text fill="#000000" font-family="sans-serif" font-size="14" lengthAdjust="spacing" textLength="112" x="548.5" y="416.8545">addBook(): void</text><rect fill="#F24D5C" height="6" style="stroke:#C82930;stroke-width:1.0;" width="6" x="536.5" y="426.8047"/><text fill="#000000" font-family="sans-serif" font-size="14" lengthAdjust="spacing" textLength="195" x="548.5" y="433.1514">addBook(book: Book): void</text><rect fill="#F24D5C" height="6" style="stroke:#C82930;stroke-width:1.0;" width="6" x="536.5" y="443.1016"/><text fill="#000000" font-family="sans-serif" font-size="14" lengthAdjust="spacing" textLength="207" x="548.5" y="449.4482">addAuthor(book: Book): void</text><rect fill="#F24D5C" height="6" style="stroke:#C82930;stroke-width:1.0;" width="6" x="536.5" y="459.3984"/><text fill="#000000" font-family="sans-serif" font-size="14" lengthAdjust="spacing" textLength="229" x="548.5" y="465.7451">addAuthor(author: Author): void</text><rect fill="#F24D5C" height="6" style="stroke:#C82930;stroke-width:1.0;" width="6" x="536.5" y="475.6953"/><text fill="#000000" font-family="sans-serif" font-size="14" lengthAdjust="spacing" textLength="360" x="548.5" y="482.042">addRelationAuthor(bookId: int, authorId: int): void</text><rect fill="#F24D5C" height="6" style="stroke:#C82930;stroke-width:1.0;" width="6" x="536.5" y="491.9922"/><text fill="#000000" font-family="sans-serif" font-size="14" lengthAdjust="spacing" textLength="220" x="548.5" y="498.3389">addKeyword(book: Book): void</text><rect fill="#F24D5C" height="6" style="stroke:#C82930;stroke-width:1.0;" width="6" x="536.5" y="508.2891"/><text fill="#000000" font-family="sans-serif" font-size="14" lengthAdjust="spacing" textLength="269" x="548.5" y="514.6357">addKeyword(keyword: Keyword): void</text><rect fill="#F24D5C" height="6" style="stroke:#C82930;stroke-width:1.0;" width="6" x="536.5" y="524.5859"/><text fill="#000000" font-family="sans-serif" font-size="14" lengthAdjust="spacing" textLength="387" x="548.5" y="530.9326">addRelationKeyword(bookId: int, keywordId: int): void</text><rect fill="#F24D5C" height="6" style="stroke:#C82930;stroke-width:1.0;" width="6" x="536.5" y="540.8828"/><text fill="#000000" font-family="sans-serif" font-size="14" lengthAdjust="spacing" textLength="344" x="548.5" y="547.2295">getAuthorsByBookId(bookId: int): List&lt;Author&gt;</text><rect fill="#F24D5C" height="6" style="stroke:#C82930;stroke-width:1.0;" width="6" x="536.5" y="557.1797"/><text fill="#000000" font-family="sans-serif" font-size="14" lengthAdjust="spacing" textLength="370" x="548.5" y="563.5264">getKeywordsByBookId(bookId: int): List&lt;Keyword&gt;</text><rect fill="#F24D5C" height="6" style="stroke:#C82930;stroke-width:1.0;" width="6" x="536.5" y="573.4766"/><text fill="#000000" font-family="sans-serif" font-size="14" lengthAdjust="spacing" textLength="369" x="548.5" y="579.8232">getBooksByKeywordId(keywordId: int): List&lt;Book&gt;</text><rect fill="#F24D5C" height="6" style="stroke:#C82930;stroke-width:1.0;" width="6" x="536.5" y="589.7734"/><text fill="#000000" font-family="sans-serif" font-size="14" lengthAdjust="spacing" textLength="342" x="548.5" y="596.1201">getBooksByAuthorId(authorId: int): List&lt;Book&gt;</text><rect fill="#F24D5C" height="6" style="stroke:#C82930;stroke-width:1.0;" width="6" x="536.5" y="606.0703"/><text fill="#000000" font-family="sans-serif" font-size="14" lengthAdjust="spacing" textLength="231" x="548.5" y="612.417">findBookById(bookId: int): Book</text><rect fill="#F24D5C" height="6" style="stroke:#C82930;stroke-width:1.0;" width="6" x="536.5" y="622.3672"/><text fill="#000000" font-family="sans-serif" font-size="14" lengthAdjust="spacing" textLength="265" x="548.5" y="628.7139">findAuthorById(authorId: int): Author</text><rect fill="#F24D5C" height="6" style="stroke:#C82930;stroke-width:1.0;" width="6" x="536.5" y="638.6641"/><text fill="#000000" font-family="sans-serif" font-size="14" lengthAdjust="spacing" textLength="305" x="548.5" y="645.0107">findKeywordById(keywordId: int): Keyword</text><rect fill="#F24D5C" height="6" style="stroke:#C82930;stroke-width:1.0;" width="6" x="536.5" y="654.9609"/><text fill="#000000" font-family="sans-serif" font-size="14" lengthAdjust="spacing" textLength="127" x="548.5" y="661.3076">listAuthors(): void</text><rect fill="#F24D5C" height="6" style="stroke:#C82930;stroke-width:1.0;" width="6" x="536.5" y="671.2578"/><text fill="#000000" font-family="sans-serif" font-size="14" lengthAdjust="spacing" textLength="140" x="548.5" y="677.6045">listKeywords(): void</text></g><!--class Author--><g id="elem_Author"><rect codeLine="14" fill="#F1F1F1" height="145.7813" id="Author" rx="2.5" ry="2.5" style="stroke:#181818;stroke-width:0.5;" width="218" x="7" y="770"/><ellipse cx="87.25" cy="786" fill="#ADD1B2" rx="11" ry="11" style="stroke:#181818;stroke-width:1.0;"/><path d="M89.5938,781.6719 C88.6563,781.2344 88.0625,781.0938 87.1875,781.0938 C84.5625,781.0938 82.5625,783.1719 82.5625,785.8906 L82.5625,787.0156 C82.5625,789.5938 84.6719,791.4844 87.5625,791.4844 C88.7813,791.4844 89.9375,791.1875 90.6875,790.6406 C91.2656,790.2344 91.5938,789.7813 91.5938,789.3906 C91.5938,788.9375 91.2031,788.5469 90.7344,788.5469 C90.5156,788.5469 90.3125,788.625 90.125,788.8125 C89.6719,789.2969 89.6719,789.2969 89.4844,789.3906 C89.0625,789.6563 88.375,789.7813 87.6094,789.7813 C85.5625,789.7813 84.2656,788.6875 84.2656,786.9844 L84.2656,785.8906 C84.2656,784.1094 85.5156,782.7969 87.25,782.7969 C87.8281,782.7969 88.4375,782.9531 88.9063,783.2031 C89.3906,783.4844 89.5625,783.7031 89.6563,784.1094 C89.7188,784.5156 89.75,784.6406 89.8906,784.7656 C90.0313,784.9063 90.2656,785.0156 90.4844,785.0156 C90.75,785.0156 91.0156,784.875 91.1875,784.6563 C91.2969,784.5 91.3281,784.3125 91.3281,783.8906 L91.3281,782.4688 C91.3281,782.0313 91.3125,781.9063 91.2188,781.75 C91.0625,781.4844 90.7813,781.3438 90.4844,781.3438 C90.1875,781.3438 89.9844,781.4375 89.7656,781.75 L89.5938,781.6719 Z " fill="#000000"/><text fill="#000000" font-family="sans-serif" font-size="14" lengthAdjust="spacing" textLength="49" x="107.75" y="790.8467">Author</text><line style="stroke:#181818;stroke-width:0.5;" x1="8" x2="224" y1="802" y2="802"/><rect fill="none" height="6" style="stroke:#C82930;stroke-width:1.0;" width="6" x="15" y="812.6484"/><text fill="#000000" font-family="sans-serif" font-size="14" lengthAdjust="spacing" textLength="37" x="27" y="818.9951">int id</text><rect fill="none" height="6" style="stroke:#C82930;stroke-width:1.0;" width="6" x="15" y="828.9453"/><text fill="#000000" font-family="sans-serif" font-size="14" lengthAdjust="spacing" textLength="88" x="27" y="835.292">String name</text><line style="stroke:#181818;stroke-width:0.5;" x1="8" x2="224" y1="842.5938" y2="842.5938"/><ellipse cx="18" cy="856.2422" fill="#84BE84" rx="3" ry="3" style="stroke:#038048;stroke-width:1.0;"/><text fill="#000000" font-family="sans-serif" font-size="14" lengthAdjust="spacing" textLength="192" x="27" y="859.5889">Author(int id, String name)</text><ellipse cx="18" cy="872.5391" fill="#84BE84" rx="3" ry="3" style="stroke:#038048;stroke-width:1.0;"/><text fill="#000000" font-family="sans-serif" font-size="14" lengthAdjust="spacing" textLength="72" x="27" y="875.8857">int getId()</text><ellipse cx="18" cy="888.8359" fill="#84BE84" rx="3" ry="3" style="stroke:#038048;stroke-width:1.0;"/><text fill="#000000" font-family="sans-serif" font-size="14" lengthAdjust="spacing" textLength="124" x="27" y="892.1826">String getName()</text><ellipse cx="18" cy="905.1328" fill="#84BE84" rx="3" ry="3" style="stroke:#038048;stroke-width:1.0;"/><text fill="#000000" font-family="sans-serif" font-size="14" lengthAdjust="spacing" textLength="118" x="27" y="908.4795">String toString()</text></g><!--class Book--><g id="elem_Book"><rect codeLine="40" fill="#F1F1F1" height="162.0781" id="Book" rx="2.5" ry="2.5" style="stroke:#181818;stroke-width:0.5;" width="432" x="1327" y="762"/><ellipse cx="1520.25" cy="778" fill="#ADD1B2" rx="11" ry="11" style="stroke:#181818;stroke-width:1.0;"/><path d="M1522.5938,773.6719 C1521.6563,773.2344 1521.0625,773.0938 1520.1875,773.0938 C1517.5625,773.0938 1515.5625,775.1719 1515.5625,777.8906 L1515.5625,779.0156 C1515.5625,781.5938 1517.6719,783.4844 1520.5625,783.4844 C1521.7813,783.4844 1522.9375,783.1875 1523.6875,782.6406 C1524.2656,782.2344 1524.5938,781.7813 1524.5938,781.3906 C1524.5938,780.9375 1524.2031,780.5469 1523.7344,780.5469 C1523.5156,780.5469 1523.3125,780.625 1523.125,780.8125 C1522.6719,781.2969 1522.6719,781.2969 1522.4844,781.3906 C1522.0625,781.6563 1521.375,781.7813 1520.6094,781.7813 C1518.5625,781.7813 1517.2656,780.6875 1517.2656,778.9844 L1517.2656,777.8906 C1517.2656,776.1094 1518.5156,774.7969 1520.25,774.7969 C1520.8281,774.7969 1521.4375,774.9531 1521.9063,775.2031 C1522.3906,775.4844 1522.5625,775.7031 1522.6563,776.1094 C1522.7188,776.5156 1522.75,776.6406 1522.8906,776.7656 C1523.0313,776.9063 1523.2656,777.0156 1523.4844,777.0156 C1523.75,777.0156 1524.0156,776.875 1524.1875,776.6563 C1524.2969,776.5 1524.3281,776.3125 1524.3281,775.8906 L1524.3281,774.4688 C1524.3281,774.0313 1524.3125,773.9063 1524.2188,773.75 C1524.0625,773.4844 1523.7813,773.3438 1523.4844,773.3438 C1523.1875,773.3438 1522.9844,773.4375 1522.7656,773.75 L1522.5938,773.6719 Z " fill="#000000"/><text fill="#000000" font-family="sans-serif" font-size="14" lengthAdjust="spacing" textLength="37" x="1540.75" y="782.8467">Book</text><line style="stroke:#181818;stroke-width:0.5;" x1="1328" x2="1758" y1="794" y2="794"/><rect fill="none" height="6" style="stroke:#C82930;stroke-width:1.0;" width="6" x="1335" y="804.6484"/><text fill="#000000" font-family="sans-serif" font-size="14" lengthAdjust="spacing" textLength="37" x="1347" y="810.9951">int id</text><rect fill="none" height="6" style="stroke:#C82930;stroke-width:1.0;" width="6" x="1335" y="820.9453"/><text fill="#000000" font-family="sans-serif" font-size="14" lengthAdjust="spacing" textLength="79" x="1347" y="827.292">String title</text><rect fill="none" height="6" style="stroke:#C82930;stroke-width:1.0;" width="6" x="1335" y="837.2422"/><text fill="#000000" font-family="sans-serif" font-size="14" lengthAdjust="spacing" textLength="137" x="1347" y="843.5889">int publicationYear</text><rect fill="none" height="6" style="stroke:#C82930;stroke-width:1.0;" width="6" x="1335" y="853.5391"/><text fill="#000000" font-family="sans-serif" font-size="14" lengthAdjust="spacing" textLength="117" x="1347" y="859.8857">final String type</text><line style="stroke:#181818;stroke-width:0.5;" x1="1328" x2="1758" y1="867.1875" y2="867.1875"/><ellipse cx="1338" cy="880.8359" fill="#84BE84" rx="3" ry="3" style="stroke:#038048;stroke-width:1.0;"/><text fill="#000000" font-family="sans-serif" font-size="14" lengthAdjust="spacing" textLength="406" x="1347" y="884.1826">Book(int id, String title, int publicationYear, String type)</text><ellipse cx="1338" cy="897.1328" fill="#84BE84" rx="3" ry="3" style="stroke:#038048;stroke-width:1.0;"/><text fill="#000000" font-family="sans-serif" font-size="14" lengthAdjust="spacing" textLength="72" x="1347" y="900.4795">int getId()</text><ellipse cx="1338" cy="913.4297" fill="#84BE84" rx="3" ry="3" style="stroke:#038048;stroke-width:1.0;"/><text fill="#000000" font-family="sans-serif" font-size="14" lengthAdjust="spacing" textLength="118" x="1347" y="916.7764">String toString()</text></g><!--class Keyword--><g id="elem_Keyword"><rect codeLine="23" fill="#F1F1F1" height="129.4844" id="Keyword" rx="2.5" ry="2.5" style="stroke:#181818;stroke-width:0.5;" width="191" x="639.5" y="778.5"/><ellipse cx="699.75" cy="794.5" fill="#ADD1B2" rx="11" ry="11" style="stroke:#181818;stroke-width:1.0;"/><path d="M702.0938,790.1719 C701.1563,789.7344 700.5625,789.5938 699.6875,789.5938 C697.0625,789.5938 695.0625,791.6719 695.0625,794.3906 L695.0625,795.5156 C695.0625,798.0938 697.1719,799.9844 700.0625,799.9844 C701.2813,799.9844 702.4375,799.6875 703.1875,799.1406 C703.7656,798.7344 704.0938,798.2813 704.0938,797.8906 C704.0938,797.4375 703.7031,797.0469 703.2344,797.0469 C703.0156,797.0469 702.8125,797.125 702.625,797.3125 C702.1719,797.7969 702.1719,797.7969 701.9844,797.8906 C701.5625,798.1563 700.875,798.2813 700.1094,798.2813 C698.0625,798.2813 696.7656,797.1875 696.7656,795.4844 L696.7656,794.3906 C696.7656,792.6094 698.0156,791.2969 699.75,791.2969 C700.3281,791.2969 700.9375,791.4531 701.4063,791.7031 C701.8906,791.9844 702.0625,792.2031 702.1563,792.6094 C702.2188,793.0156 702.25,793.1406 702.3906,793.2656 C702.5313,793.4063 702.7656,793.5156 702.9844,793.5156 C703.25,793.5156 703.5156,793.375 703.6875,793.1563 C703.7969,793 703.8281,792.8125 703.8281,792.3906 L703.8281,790.9688 C703.8281,790.5313 703.8125,790.4063 703.7188,790.25 C703.5625,789.9844 703.2813,789.8438 702.9844,789.8438 C702.6875,789.8438 702.4844,789.9375 702.2656,790.25 L702.0938,790.1719 Z " fill="#000000"/><text fill="#000000" font-family="sans-serif" font-size="14" lengthAdjust="spacing" textLength="62" x="720.25" y="799.3467">Keyword</text><line style="stroke:#181818;stroke-width:0.5;" x1="640.5" x2="829.5" y1="810.5" y2="810.5"/><rect fill="none" height="6" style="stroke:#C82930;stroke-width:1.0;" width="6" x="647.5" y="821.1484"/><text fill="#000000" font-family="sans-serif" font-size="14" lengthAdjust="spacing" textLength="42" x="659.5" y="827.4951">id: int</text><rect fill="none" height="6" style="stroke:#C82930;stroke-width:1.0;" width="6" x="647.5" y="837.4453"/><text fill="#000000" font-family="sans-serif" font-size="14" lengthAdjust="spacing" textLength="93" x="659.5" y="843.792">name: String</text><line style="stroke:#181818;stroke-width:0.5;" x1="640.5" x2="829.5" y1="851.0938" y2="851.0938"/><ellipse cx="650.5" cy="864.7422" fill="#84BE84" rx="3" ry="3" style="stroke:#038048;stroke-width:1.0;"/><text fill="#000000" font-family="sans-serif" font-size="14" lengthAdjust="spacing" textLength="165" x="659.5" y="868.0889">Keyword(name: String)</text><ellipse cx="650.5" cy="881.0391" fill="#84BE84" rx="3" ry="3" style="stroke:#038048;stroke-width:1.0;"/><text fill="#000000" font-family="sans-serif" font-size="14" lengthAdjust="spacing" textLength="77" x="659.5" y="884.3857">getId(): int</text><ellipse cx="650.5" cy="897.3359" fill="#84BE84" rx="3" ry="3" style="stroke:#038048;stroke-width:1.0;"/><text fill="#000000" font-family="sans-serif" font-size="14" lengthAdjust="spacing" textLength="129" x="659.5" y="900.6826">getName(): String</text></g><!--class BookKeyword--><g id="elem_BookKeyword"><rect codeLine="50" fill="#F1F1F1" height="129.4844" id="BookKeyword" rx="2.5" ry="2.5" style="stroke:#181818;stroke-width:0.5;" width="315" x="921.5" y="778.5"/><ellipse cx="1025.25" cy="794.5" fill="#ADD1B2" rx="11" ry="11" style="stroke:#181818;stroke-width:1.0;"/><path d="M1027.5938,790.1719 C1026.6563,789.7344 1026.0625,789.5938 1025.1875,789.5938 C1022.5625,789.5938 1020.5625,791.6719 1020.5625,794.3906 L1020.5625,795.5156 C1020.5625,798.0938 1022.6719,799.9844 1025.5625,799.9844 C1026.7813,799.9844 1027.9375,799.6875 1028.6875,799.1406 C1029.2656,798.7344 1029.5938,798.2813 1029.5938,797.8906 C1029.5938,797.4375 1029.2031,797.0469 1028.7344,797.0469 C1028.5156,797.0469 1028.3125,797.125 1028.125,797.3125 C1027.6719,797.7969 1027.6719,797.7969 1027.4844,797.8906 C1027.0625,798.1563 1026.375,798.2813 1025.6094,798.2813 C1023.5625,798.2813 1022.2656,797.1875 1022.2656,795.4844 L1022.2656,794.3906 C1022.2656,792.6094 1023.5156,791.2969 1025.25,791.2969 C1025.8281,791.2969 1026.4375,791.4531 1026.9063,791.7031 C1027.3906,791.9844 1027.5625,792.2031 1027.6563,792.6094 C1027.7188,793.0156 1027.75,793.1406 1027.8906,793.2656 C1028.0313,793.4063 1028.2656,793.5156 1028.4844,793.5156 C1028.75,793.5156 1029.0156,793.375 1029.1875,793.1563 C1029.2969,793 1029.3281,792.8125 1029.3281,792.3906 L1029.3281,790.9688 C1029.3281,790.5313 1029.3125,790.4063 1029.2188,790.25 C1029.0625,789.9844 1028.7813,789.8438 1028.4844,789.8438 C1028.1875,789.8438 1027.9844,789.9375 1027.7656,790.25 L1027.5938,790.1719 Z " fill="#000000"/><text fill="#000000" font-family="sans-serif" font-size="14" lengthAdjust="spacing" textLength="99" x="1045.75" y="799.3467">BookKeyword</text><line style="stroke:#181818;stroke-width:0.5;" x1="922.5" x2="1235.5" y1="810.5" y2="810.5"/><rect fill="none" height="6" style="stroke:#C82930;stroke-width:1.0;" width="6" x="929.5" y="821.1484"/><text fill="#000000" font-family="sans-serif" font-size="14" lengthAdjust="spacing" textLength="74" x="941.5" y="827.4951">int bookId</text><rect fill="none" height="6" style="stroke:#C82930;stroke-width:1.0;" width="6" x="929.5" y="837.4453"/><text fill="#000000" font-family="sans-serif" font-size="14" lengthAdjust="spacing" textLength="98" x="941.5" y="843.792">int keywordId</text><line style="stroke:#181818;stroke-width:0.5;" x1="922.5" x2="1235.5" y1="851.0938" y2="851.0938"/><ellipse cx="932.5" cy="864.7422" fill="#84BE84" rx="3" ry="3" style="stroke:#038048;stroke-width:1.0;"/><text fill="#000000" font-family="sans-serif" font-size="14" lengthAdjust="spacing" textLength="289" x="941.5" y="868.0889">BookKeyword(int bookId, int keywordId)</text><ellipse cx="932.5" cy="881.0391" fill="#84BE84" rx="3" ry="3" style="stroke:#038048;stroke-width:1.0;"/><text fill="#000000" font-family="sans-serif" font-size="14" lengthAdjust="spacing" textLength="109" x="941.5" y="884.3857">int getBookId()</text><ellipse cx="932.5" cy="897.3359" fill="#84BE84" rx="3" ry="3" style="stroke:#038048;stroke-width:1.0;"/><text fill="#000000" font-family="sans-serif" font-size="14" lengthAdjust="spacing" textLength="134" x="941.5" y="900.6826">int getKeywordId()</text></g><!--class BookAuthor--><g id="elem_BookAuthor"><rect codeLine="32" fill="#F1F1F1" height="129.4844" id="BookAuthor" rx="2.5" ry="2.5" style="stroke:#181818;stroke-width:0.5;" width="288" x="316" y="778.5"/><ellipse cx="412.75" cy="794.5" fill="#ADD1B2" rx="11" ry="11" style="stroke:#181818;stroke-width:1.0;"/><path d="M415.0938,790.1719 C414.1563,789.7344 413.5625,789.5938 412.6875,789.5938 C410.0625,789.5938 408.0625,791.6719 408.0625,794.3906 L408.0625,795.5156 C408.0625,798.0938 410.1719,799.9844 413.0625,799.9844 C414.2813,799.9844 415.4375,799.6875 416.1875,799.1406 C416.7656,798.7344 417.0938,798.2813 417.0938,797.8906 C417.0938,797.4375 416.7031,797.0469 416.2344,797.0469 C416.0156,797.0469 415.8125,797.125 415.625,797.3125 C415.1719,797.7969 415.1719,797.7969 414.9844,797.8906 C414.5625,798.1563 413.875,798.2813 413.1094,798.2813 C411.0625,798.2813 409.7656,797.1875 409.7656,795.4844 L409.7656,794.3906 C409.7656,792.6094 411.0156,791.2969 412.75,791.2969 C413.3281,791.2969 413.9375,791.4531 414.4063,791.7031 C414.8906,791.9844 415.0625,792.2031 415.1563,792.6094 C415.2188,793.0156 415.25,793.1406 415.3906,793.2656 C415.5313,793.4063 415.7656,793.5156 415.9844,793.5156 C416.25,793.5156 416.5156,793.375 416.6875,793.1563 C416.7969,793 416.8281,792.8125 416.8281,792.3906 L416.8281,790.9688 C416.8281,790.5313 416.8125,790.4063 416.7188,790.25 C416.5625,789.9844 416.2813,789.8438 415.9844,789.8438 C415.6875,789.8438 415.4844,789.9375 415.2656,790.25 L415.0938,790.1719 Z " fill="#000000"/><text fill="#000000" font-family="sans-serif" font-size="14" lengthAdjust="spacing" textLength="86" x="433.25" y="799.3467">BookAuthor</text><line style="stroke:#181818;stroke-width:0.5;" x1="317" x2="603" y1="810.5" y2="810.5"/><rect fill="none" height="6" style="stroke:#C82930;stroke-width:1.0;" width="6" x="324" y="821.1484"/><text fill="#000000" font-family="sans-serif" font-size="14" lengthAdjust="spacing" textLength="74" x="336" y="827.4951">int bookId</text><rect fill="none" height="6" style="stroke:#C82930;stroke-width:1.0;" width="6" x="324" y="837.4453"/><text fill="#000000" font-family="sans-serif" font-size="14" lengthAdjust="spacing" textLength="84" x="336" y="843.792">int authorId</text><line style="stroke:#181818;stroke-width:0.5;" x1="317" x2="603" y1="851.0938" y2="851.0938"/><ellipse cx="327" cy="864.7422" fill="#84BE84" rx="3" ry="3" style="stroke:#038048;stroke-width:1.0;"/><text fill="#000000" font-family="sans-serif" font-size="14" lengthAdjust="spacing" textLength="262" x="336" y="868.0889">BookAuthor(int bookId, int authorId)</text><ellipse cx="327" cy="881.0391" fill="#84BE84" rx="3" ry="3" style="stroke:#038048;stroke-width:1.0;"/><text fill="#000000" font-family="sans-serif" font-size="14" lengthAdjust="spacing" textLength="109" x="336" y="884.3857">int getBookId()</text><ellipse cx="327" cy="897.3359" fill="#84BE84" rx="3" ry="3" style="stroke:#038048;stroke-width:1.0;"/><text fill="#000000" font-family="sans-serif" font-size="14" lengthAdjust="spacing" textLength="121" x="336" y="900.6826">int getAuthorId()</text></g><!--class App--><g id="elem_App"><rect codeLine="94" fill="#F1F1F1" height="64.2969" id="App" rx="2.5" ry="2.5" style="stroke:#181818;stroke-width:0.5;" width="203" x="633.5" y="7"/><ellipse cx="715.75" cy="23" fill="#ADD1B2" rx="11" ry="11" style="stroke:#181818;stroke-width:1.0;"/><path d="M718.0938,18.6719 C717.1563,18.2344 716.5625,18.0938 715.6875,18.0938 C713.0625,18.0938 711.0625,20.1719 711.0625,22.8906 L711.0625,24.0156 C711.0625,26.5938 713.1719,28.4844 716.0625,28.4844 C717.2813,28.4844 718.4375,28.1875 719.1875,27.6406 C719.7656,27.2344 720.0938,26.7813 720.0938,26.3906 C720.0938,25.9375 719.7031,25.5469 719.2344,25.5469 C719.0156,25.5469 718.8125,25.625 718.625,25.8125 C718.1719,26.2969 718.1719,26.2969 717.9844,26.3906 C717.5625,26.6563 716.875,26.7813 716.1094,26.7813 C714.0625,26.7813 712.7656,25.6875 712.7656,23.9844 L712.7656,22.8906 C712.7656,21.1094 714.0156,19.7969 715.75,19.7969 C716.3281,19.7969 716.9375,19.9531 717.4063,20.2031 C717.8906,20.4844 718.0625,20.7031 718.1563,21.1094 C718.2188,21.5156 718.25,21.6406 718.3906,21.7656 C718.5313,21.9063 718.7656,22.0156 718.9844,22.0156 C719.25,22.0156 719.5156,21.875 719.6875,21.6563 C719.7969,21.5 719.8281,21.3125 719.8281,20.8906 L719.8281,19.4688 C719.8281,19.0313 719.8125,18.9063 719.7188,18.75 C719.5625,18.4844 719.2813,18.3438 718.9844,18.3438 C718.6875,18.3438 718.4844,18.4375 718.2656,18.75 L718.0938,18.6719 Z " fill="#000000"/><text fill="#000000" font-family="sans-serif" font-size="14" lengthAdjust="spacing" textLength="30" x="736.25" y="27.8467">App</text><line style="stroke:#181818;stroke-width:0.5;" x1="634.5" x2="835.5" y1="39" y2="39"/><line style="stroke:#181818;stroke-width:0.5;" x1="634.5" x2="835.5" y1="47" y2="47"/><ellipse cx="644.5" cy="60.6484" fill="#84BE84" rx="3" ry="3" style="stroke:#038048;stroke-width:1.0;"/><text fill="#000000" font-family="sans-serif" font-size="14" lengthAdjust="spacing" textLength="177" x="653.5" y="63.9951">main(args: String[]): void</text></g><!--link LibraryManager to Author--><g id="link_LibraryManager_Author"><path codeLine="1" d="M528.452,559.147 C425.439,629.792 305.255,712.212 221.288,769.795 " fill="none" id="LibraryManager-Author" style="stroke:#181818;stroke-width:1.0;"/><text fill="#000000" font-family="sans-serif" font-size="13" lengthAdjust="spacing" textLength="57" x="300" y="728.0669">Manages</text></g><!--link LibraryManager to Book--><g id="link_LibraryManager_Book"><path codeLine="2" d="M941.507,525.993 C1081.54,599.564 1263.57,695.194 1390.54,761.901 " fill="none" id="LibraryManager-Book" style="stroke:#181818;stroke-width:1.0;"/><text fill="#000000" font-family="sans-serif" font-size="13" lengthAdjust="spacing" textLength="57" x="1328" y="728.0669">Manages</text></g><!--link LibraryManager to Keyword--><g id="link_LibraryManager_Keyword"><path codeLine="3" d="M735,685.138 C735,719.575 735,751.92 735,778.19 " fill="none" id="LibraryManager-Keyword" style="stroke:#181818;stroke-width:1.0;"/><text fill="#000000" font-family="sans-serif" font-size="13" lengthAdjust="spacing" textLength="57" x="736" y="728.0669">Manages</text></g><!--link LibraryManager to BookKeyword--><g id="link_LibraryManager_BookKeyword"><path codeLine="4" d="M941.559,672.396 C973.38,711.663 1003.554,748.899 1027.48,778.424 " fill="none" id="LibraryManager-BookKeyword" style="stroke:#181818;stroke-width:1.0;"/><text fill="#000000" font-family="sans-serif" font-size="13" lengthAdjust="spacing" textLength="57" x="988" y="728.0669">Manages</text></g><!--link LibraryManager to BookAuthor--><g id="link_LibraryManager_BookAuthor"><path codeLine="5" d="M561.619,685.138 C539.31,719.575 518.356,751.92 501.338,778.19 " fill="none" id="LibraryManager-BookAuthor" style="stroke:#181818;stroke-width:1.0;"/><text fill="#000000" font-family="sans-serif" font-size="13" lengthAdjust="spacing" textLength="57" x="543" y="728.0669">Manages</text></g><!--link App to LibraryManager--><g id="link_App_LibraryManager"><path codeLine="6" d="M735,71.048 C735,90.377 735,117.299 735,147.66 " fill="none" id="App-LibraryManager" style="stroke:#181818;stroke-width:1.0;stroke-dasharray:7.0,7.0;"/><text fill="#000000" font-family="sans-serif" font-size="13" lengthAdjust="spacing" textLength="48" x="736" y="114.0669">creates</text></g><!--link BookAuthor to Book--><g id="link_BookAuthor_Book"><path codeLine="7" d="M577.003,778.418 C591.836,772.057 607.057,766.357 622,762 C622,762 1254,762 1254,762 C1277.7,766.365 1302.27,771.796 1326.62,777.766 " fill="none" id="BookAuthor-Book" style="stroke:#181818;stroke-width:1.0;"/><text fill="#000000" font-family="sans-serif" font-size="13" lengthAdjust="spacing" textLength="54" x="892" y="728.0669">contains</text><text fill="#000000" font-family="sans-serif" font-size="13" lengthAdjust="spacing" textLength="23" x="565.5424" y="767.5817">0..*</text><text fill="#000000" font-family="sans-serif" font-size="13" lengthAdjust="spacing" textLength="8" x="1310.7001" y="772.22">1</text></g><!--link BookKeyword to Book--><g id="link_BookKeyword_Book"><path codeLine="8" d="M1236.74,843 C1265.77,843 1296.53,843 1326.93,843 " fill="none" id="BookKeyword-Book" style="stroke:#181818;stroke-width:1.0;"/><text fill="#000000" font-family="sans-serif" font-size="13" lengthAdjust="spacing" textLength="54" x="1254.75" y="836.0669">contains</text><text fill="#000000" font-family="sans-serif" font-size="13" lengthAdjust="spacing" textLength="23" x="1244.4087" y="855.3988">0..*</text><text fill="#000000" font-family="sans-serif" font-size="13" lengthAdjust="spacing" textLength="8" x="1311.0212" y="839.7983">1</text></g><!--link Author to BookAuthor--><g id="link_Author_BookAuthor"><path codeLine="9" d="M225.316,843 C254.04,843 285.465,843 315.715,843 " fill="none" id="Author-BookAuthor" style="stroke:#181818;stroke-width:1.0;"/><text fill="#000000" font-family="sans-serif" font-size="13" lengthAdjust="spacing" textLength="54" x="243.5" y="836.0669">contains</text><text fill="#000000" font-family="sans-serif" font-size="13" lengthAdjust="spacing" textLength="8" x="232.9294" y="839.5748">1</text><text fill="#000000" font-family="sans-serif" font-size="13" lengthAdjust="spacing" textLength="23" x="285.1692" y="855.4217">0..*</text></g><!--link Keyword to BookKeyword--><g id="link_Keyword_BookKeyword"><path codeLine="10" d="M830.823,843 C858.954,843 890.491,843 921.403,843 " fill="none" id="Keyword-BookKeyword" style="stroke:#181818;stroke-width:1.0;"/><text fill="#000000" font-family="sans-serif" font-size="13" lengthAdjust="spacing" textLength="54" x="849" y="836.0669">contains</text><text fill="#000000" font-family="sans-serif" font-size="13" lengthAdjust="spacing" textLength="8" x="838.4657" y="839.4792">1</text><text fill="#000000" font-family="sans-serif" font-size="13" lengthAdjust="spacing" textLength="23" x="890.7408" y="855.3988">0..*</text></g><!--SRC=[bLPBZzCm4BxtLunwojAcWck4aDfRjGi7zeGG1xS99MhMgMmlA5hnt_5ZR4-SHqDEoSmtttpsFDgd-YIOw3uppYwLW3m7sB-gNwqemDdawca0ERJjTSuFZrNtfnNbBCQGBCMbalQt6-nsaA0BE8kAAUqtCR3-i8QyoM7zVhTxjoOy1jXonMe-ZKHb58h15foBExmOFmOUeTRFkM5Iujt3smhmoMkke2xZzxCIDRy0PozLC6vSMEQmMo2OXmWotakbZcL6Z0ZLzYyQFU9HhNj1rr-l54z1bEhK1UWan68K52Xd5QbzS4Rz9BMNsQVRH9M1ioU9L2Avm9Fs7Ck-ZLaaiMvYV1Q3ja31m-iyM5GsTEmn9Bqust7t2wngrLHzrEtrrDHdfkgMVwkOYCwVDMUDhxhgRbN_J6bVM6ftheHoIqaMjivKWz1MNr2EguEczV2TaXOamF-Z8ey-9ahrOfDDGhlQP9M5HaZrqL1_8ZxN5jxhAaxzgD83K015YAgnjo_zYWjvXcm16zPc08ymopFZlDACp-w5pb__kFIgG2ecLEelu7TBUnGQdTZabNE-GuUobg92KUtWpyRWd2x1-DcT86LbQOTasdEoFtVcTHI3QPQX69RPVOuYlsAP2I-AtyBzi_Y1kIF7mww-bT0mguXo1qdtYXPMeQu8ZYQ9VvYSdJYmiu4ZdOyx87RMiHosrkWynyYmlTCR7utJ2zYsog4RY3Jc1EcuBJPbTwu4ZwUm0ODpe3EP0BpnYVaO7SkmkCsVgpUo4LxqNvICYOlqlxhVV_JY_W40]--></g></svg>