<?xml version="1.0" encoding="us-ascii" standalone="no"?><svg xmlns="http://www.w3.org/2000/svg" xmlns:xlink="http://www.w3.org/1999/xlink" contentStyleType="text/css" height="1110px" preserveAspectRatio="none" style="width:2413px;height:1110px;background:#FFFFFF;" version="1.1" viewBox="0 0 2413 1110" width="2413px" zoomAndPan="magnify"><defs/><g><!--class LibraryManager--><g id="elem_LibraryManager"><rect codeLine="85" fill="#F1F1F1" height="716.1719" id="LibraryManager" rx="2.5" ry="2.5" style="stroke:#181818;stroke-width:0.5;" width="415" x="871.5" y="148"/><ellipse cx="1019.25" cy="164" fill="#ADD1B2" rx="11" ry="11" style="stroke:#181818;stroke-width:1.0;"/><path d="M1021.5938,159.6719 C1020.6563,159.2344 1020.0625,159.0938 1019.1875,159.0938 C1016.5625,159.0938 1014.5625,161.1719 1014.5625,163.8906 L1014.5625,165.0156 C1014.5625,167.5938 1016.6719,169.4844 1019.5625,169.4844 C1020.7813,169.4844 1021.9375,169.1875 1022.6875,168.6406 C1023.2656,168.2344 1023.5938,167.7813 1023.5938,167.3906 C1023.5938,166.9375 1023.2031,166.5469 1022.7344,166.5469 C1022.5156,166.5469 1022.3125,166.625 1022.125,166.8125 C1021.6719,167.2969 1021.6719,167.2969 1021.4844,167.3906 C1021.0625,167.6563 1020.375,167.7813 1019.6094,167.7813 C1017.5625,167.7813 1016.2656,166.6875 1016.2656,164.9844 L1016.2656,163.8906 C1016.2656,162.1094 1017.5156,160.7969 1019.25,160.7969 C1019.8281,160.7969 1020.4375,160.9531 1020.9063,161.2031 C1021.3906,161.4844 1021.5625,161.7031 1021.6563,162.1094 C1021.7188,162.5156 1021.75,162.6406 1021.8906,162.7656 C1022.0313,162.9063 1022.2656,163.0156 1022.4844,163.0156 C1022.75,163.0156 1023.0156,162.875 1023.1875,162.6563 C1023.2969,162.5 1023.3281,162.3125 1023.3281,161.8906 L1023.3281,160.4688 C1023.3281,160.0313 1023.3125,159.9063 1023.2188,159.75 C1023.0625,159.4844 1022.7813,159.3438 1022.4844,159.3438 C1022.1875,159.3438 1021.9844,159.4375 1021.7656,159.75 L1021.5938,159.6719 Z " fill="#000000"/><text fill="#000000" font-family="sans-serif" font-size="14" lengthAdjust="spacing" textLength="111" x="1039.75" y="168.8467">LibraryManager</text><line style="stroke:#181818;stroke-width:0.5;" x1="872.5" x2="1285.5" y1="180" y2="180"/><rect fill="none" height="6" style="stroke:#C82930;stroke-width:1.0;" width="6" x="879.5" y="190.6484"/><text fill="#000000" font-family="sans-serif" font-size="14" lengthAdjust="spacing" textLength="138" x="891.5" y="196.9951">books: List&lt;Book&gt;</text><rect fill="none" height="6" style="stroke:#C82930;stroke-width:1.0;" width="6" x="879.5" y="206.9453"/><text fill="#000000" font-family="sans-serif" font-size="14" lengthAdjust="spacing" textLength="160" x="891.5" y="213.292">authors: List&lt;Author&gt;</text><rect fill="none" height="6" style="stroke:#C82930;stroke-width:1.0;" width="6" x="879.5" y="223.2422"/><text fill="#000000" font-family="sans-serif" font-size="14" lengthAdjust="spacing" textLength="187" x="891.5" y="229.5889">keywords: List&lt;Keyword&gt;</text><rect fill="none" height="6" style="stroke:#C82930;stroke-width:1.0;" width="6" x="879.5" y="239.5391"/><text fill="#000000" font-family="sans-serif" font-size="14" lengthAdjust="spacing" textLength="255" x="891.5" y="245.8857">relationsAuthor: List&lt;BookAuthor&gt;</text><rect fill="none" height="6" style="stroke:#C82930;stroke-width:1.0;" width="6" x="879.5" y="255.8359"/><text fill="#000000" font-family="sans-serif" font-size="14" lengthAdjust="spacing" textLength="281" x="891.5" y="262.1826">relationsKeyword: List&lt;BookKeyword&gt;</text><rect fill="none" height="6" style="stroke:#C82930;stroke-width:1.0;" width="6" x="879.5" y="272.1328"/><text fill="#000000" font-family="sans-serif" font-size="14" lengthAdjust="spacing" textLength="123" x="891.5" y="278.4795">scanner: Scanner</text><line style="stroke:#181818;stroke-width:0.5;" x1="872.5" x2="1285.5" y1="285.7813" y2="285.7813"/><ellipse cx="882.5" cy="299.4297" fill="#84BE84" rx="3" ry="3" style="stroke:#038048;stroke-width:1.0;"/><text fill="#000000" font-family="sans-serif" font-size="14" lengthAdjust="spacing" textLength="121" x="891.5" y="302.7764">LibraryManager()</text><ellipse cx="882.5" cy="315.7266" fill="#84BE84" rx="3" ry="3" style="stroke:#038048;stroke-width:1.0;"/><text fill="#000000" font-family="sans-serif" font-size="14" lengthAdjust="spacing" textLength="195" x="891.5" y="319.0732">startLibraryManager(): void</text><rect fill="#F24D5C" height="6" style="stroke:#C82930;stroke-width:1.0;" width="6" x="879.5" y="329.0234"/><text fill="#000000" font-family="sans-serif" font-size="14" lengthAdjust="spacing" textLength="138" x="891.5" y="335.3701">addDefaulAuthors()</text><rect fill="#F24D5C" height="6" style="stroke:#C82930;stroke-width:1.0;" width="6" x="879.5" y="345.3203"/><text fill="#000000" font-family="sans-serif" font-size="14" lengthAdjust="spacing" textLength="201" x="891.5" y="351.667">addDefaultKeywords() : void</text><rect fill="#F24D5C" height="6" style="stroke:#C82930;stroke-width:1.0;" width="6" x="879.5" y="361.6172"/><text fill="#000000" font-family="sans-serif" font-size="14" lengthAdjust="spacing" textLength="200" x="891.5" y="367.9639">addDefaulLanguages() : void</text><rect fill="#F24D5C" height="6" style="stroke:#C82930;stroke-width:1.0;" width="6" x="879.5" y="377.9141"/><text fill="#000000" font-family="sans-serif" font-size="14" lengthAdjust="spacing" textLength="115" x="891.5" y="384.2607">listBooks(): void</text><rect fill="#F24D5C" height="6" style="stroke:#C82930;stroke-width:1.0;" width="6" x="879.5" y="394.2109"/><text fill="#000000" font-family="sans-serif" font-size="14" lengthAdjust="spacing" textLength="202" x="891.5" y="400.5576">listBooksByKeywords(): void</text><rect fill="#F24D5C" height="6" style="stroke:#C82930;stroke-width:1.0;" width="6" x="879.5" y="410.5078"/><text fill="#000000" font-family="sans-serif" font-size="14" lengthAdjust="spacing" textLength="305" x="891.5" y="416.8545">listBooksByKeywords(keywordId: int): void</text><rect fill="#F24D5C" height="6" style="stroke:#C82930;stroke-width:1.0;" width="6" x="879.5" y="426.8047"/><text fill="#000000" font-family="sans-serif" font-size="14" lengthAdjust="spacing" textLength="182" x="891.5" y="433.1514">listBooksByAuthor(): void</text><rect fill="#F24D5C" height="6" style="stroke:#C82930;stroke-width:1.0;" width="6" x="879.5" y="443.1016"/><text fill="#000000" font-family="sans-serif" font-size="14" lengthAdjust="spacing" textLength="271" x="891.5" y="449.4482">listBooksByAuthor(authorId: int): void</text><rect fill="#F24D5C" height="6" style="stroke:#C82930;stroke-width:1.0;" width="6" x="879.5" y="459.3984"/><text fill="#000000" font-family="sans-serif" font-size="14" lengthAdjust="spacing" textLength="208" x="891.5" y="465.7451">listBooksByLanguages(): void</text><rect fill="#F24D5C" height="6" style="stroke:#C82930;stroke-width:1.0;" width="6" x="879.5" y="475.6953"/><text fill="#000000" font-family="sans-serif" font-size="14" lengthAdjust="spacing" textLength="314" x="891.5" y="482.042">listBooksByLanguages(languageId: int): void</text><rect fill="#F24D5C" height="6" style="stroke:#C82930;stroke-width:1.0;" width="6" x="879.5" y="491.9922"/><text fill="#000000" font-family="sans-serif" font-size="14" lengthAdjust="spacing" textLength="112" x="891.5" y="498.3389">addBook(): void</text><rect fill="#F24D5C" height="6" style="stroke:#C82930;stroke-width:1.0;" width="6" x="879.5" y="508.2891"/><text fill="#000000" font-family="sans-serif" font-size="14" lengthAdjust="spacing" textLength="195" x="891.5" y="514.6357">addBook(book: Book): void</text><rect fill="#F24D5C" height="6" style="stroke:#C82930;stroke-width:1.0;" width="6" x="879.5" y="524.5859"/><text fill="#000000" font-family="sans-serif" font-size="14" lengthAdjust="spacing" textLength="207" x="891.5" y="530.9326">addAuthor(book: Book): void</text><rect fill="#F24D5C" height="6" style="stroke:#C82930;stroke-width:1.0;" width="6" x="879.5" y="540.8828"/><text fill="#000000" font-family="sans-serif" font-size="14" lengthAdjust="spacing" textLength="229" x="891.5" y="547.2295">addAuthor(author: Author): void</text><rect fill="#F24D5C" height="6" style="stroke:#C82930;stroke-width:1.0;" width="6" x="879.5" y="557.1797"/><text fill="#000000" font-family="sans-serif" font-size="14" lengthAdjust="spacing" textLength="360" x="891.5" y="563.5264">addRelationAuthor(bookId: int, authorId: int): void</text><rect fill="#F24D5C" height="6" style="stroke:#C82930;stroke-width:1.0;" width="6" x="879.5" y="573.4766"/><text fill="#000000" font-family="sans-serif" font-size="14" lengthAdjust="spacing" textLength="220" x="891.5" y="579.8232">addKeyword(book: Book): void</text><rect fill="#F24D5C" height="6" style="stroke:#C82930;stroke-width:1.0;" width="6" x="879.5" y="589.7734"/><text fill="#000000" font-family="sans-serif" font-size="14" lengthAdjust="spacing" textLength="269" x="891.5" y="596.1201">addKeyword(keyword: Keyword): void</text><rect fill="#F24D5C" height="6" style="stroke:#C82930;stroke-width:1.0;" width="6" x="879.5" y="606.0703"/><text fill="#000000" font-family="sans-serif" font-size="14" lengthAdjust="spacing" textLength="226" x="891.5" y="612.417">addLanguage(book: Book): void</text><rect fill="#F24D5C" height="6" style="stroke:#C82930;stroke-width:1.0;" width="6" x="879.5" y="622.3672"/><text fill="#000000" font-family="sans-serif" font-size="14" lengthAdjust="spacing" textLength="284" x="891.5" y="628.7139">addLanguage(language: Language): void</text><rect fill="#F24D5C" height="6" style="stroke:#C82930;stroke-width:1.0;" width="6" x="879.5" y="638.6641"/><text fill="#000000" font-family="sans-serif" font-size="14" lengthAdjust="spacing" textLength="387" x="891.5" y="645.0107">addRelationKeyword(bookId: int, keywordId: int): void</text><rect fill="#F24D5C" height="6" style="stroke:#C82930;stroke-width:1.0;" width="6" x="879.5" y="654.9609"/><text fill="#000000" font-family="sans-serif" font-size="14" lengthAdjust="spacing" textLength="344" x="891.5" y="661.3076">getAuthorsByBookId(bookId: int): List&lt;Author&gt;</text><rect fill="#F24D5C" height="6" style="stroke:#C82930;stroke-width:1.0;" width="6" x="879.5" y="671.2578"/><text fill="#000000" font-family="sans-serif" font-size="14" lengthAdjust="spacing" textLength="370" x="891.5" y="677.6045">getKeywordsByBookId(bookId: int): List&lt;Keyword&gt;</text><rect fill="#F24D5C" height="6" style="stroke:#C82930;stroke-width:1.0;" width="6" x="879.5" y="687.5547"/><text fill="#000000" font-family="sans-serif" font-size="14" lengthAdjust="spacing" textLength="389" x="891.5" y="693.9014">getLanguagesByBookId(bookId: int): List&lt;Languages&gt;</text><rect fill="#F24D5C" height="6" style="stroke:#C82930;stroke-width:1.0;" width="6" x="879.5" y="703.8516"/><text fill="#000000" font-family="sans-serif" font-size="14" lengthAdjust="spacing" textLength="369" x="891.5" y="710.1982">getBooksByKeywordId(keywordId: int): List&lt;Book&gt;</text><rect fill="#F24D5C" height="6" style="stroke:#C82930;stroke-width:1.0;" width="6" x="879.5" y="720.1484"/><text fill="#000000" font-family="sans-serif" font-size="14" lengthAdjust="spacing" textLength="342" x="891.5" y="726.4951">getBooksByAuthorId(authorId: int): List&lt;Book&gt;</text><rect fill="#F24D5C" height="6" style="stroke:#C82930;stroke-width:1.0;" width="6" x="879.5" y="736.4453"/><text fill="#000000" font-family="sans-serif" font-size="14" lengthAdjust="spacing" textLength="378" x="891.5" y="742.792">getBooksByLanguageId(languageId: int): List&lt;Book&gt;</text><rect fill="#F24D5C" height="6" style="stroke:#C82930;stroke-width:1.0;" width="6" x="879.5" y="752.7422"/><text fill="#000000" font-family="sans-serif" font-size="14" lengthAdjust="spacing" textLength="231" x="891.5" y="759.0889">findBookById(bookId: int): Book</text><rect fill="#F24D5C" height="6" style="stroke:#C82930;stroke-width:1.0;" width="6" x="879.5" y="769.0391"/><text fill="#000000" font-family="sans-serif" font-size="14" lengthAdjust="spacing" textLength="265" x="891.5" y="775.3857">findAuthorById(authorId: int): Author</text><rect fill="#F24D5C" height="6" style="stroke:#C82930;stroke-width:1.0;" width="6" x="879.5" y="785.3359"/><text fill="#000000" font-family="sans-serif" font-size="14" lengthAdjust="spacing" textLength="305" x="891.5" y="791.6826">findKeywordById(keywordId: int): Keyword</text><rect fill="#F24D5C" height="6" style="stroke:#C82930;stroke-width:1.0;" width="6" x="879.5" y="801.6328"/><text fill="#000000" font-family="sans-serif" font-size="14" lengthAdjust="spacing" textLength="320" x="891.5" y="807.9795">findLanguageById(languageId: int): Language</text><rect fill="#F24D5C" height="6" style="stroke:#C82930;stroke-width:1.0;" width="6" x="879.5" y="817.9297"/><text fill="#000000" font-family="sans-serif" font-size="14" lengthAdjust="spacing" textLength="127" x="891.5" y="824.2764">listAuthors(): void</text><rect fill="#F24D5C" height="6" style="stroke:#C82930;stroke-width:1.0;" width="6" x="879.5" y="834.2266"/><text fill="#000000" font-family="sans-serif" font-size="14" lengthAdjust="spacing" textLength="140" x="891.5" y="840.5732">listKeywords(): void</text><rect fill="#F24D5C" height="6" style="stroke:#C82930;stroke-width:1.0;" width="6" x="879.5" y="850.5234"/><text fill="#000000" font-family="sans-serif" font-size="14" lengthAdjust="spacing" textLength="146" x="891.5" y="856.8701">listLanguages(): void</text></g><!--class Author--><g id="elem_Author"><rect codeLine="18" fill="#F1F1F1" height="145.7813" id="Author" rx="2.5" ry="2.5" style="stroke:#181818;stroke-width:0.5;" width="218" x="7" y="949"/><ellipse cx="87.25" cy="965" fill="#ADD1B2" rx="11" ry="11" style="stroke:#181818;stroke-width:1.0;"/><path d="M89.5938,960.6719 C88.6563,960.2344 88.0625,960.0938 87.1875,960.0938 C84.5625,960.0938 82.5625,962.1719 82.5625,964.8906 L82.5625,966.0156 C82.5625,968.5938 84.6719,970.4844 87.5625,970.4844 C88.7813,970.4844 89.9375,970.1875 90.6875,969.6406 C91.2656,969.2344 91.5938,968.7813 91.5938,968.3906 C91.5938,967.9375 91.2031,967.5469 90.7344,967.5469 C90.5156,967.5469 90.3125,967.625 90.125,967.8125 C89.6719,968.2969 89.6719,968.2969 89.4844,968.3906 C89.0625,968.6563 88.375,968.7813 87.6094,968.7813 C85.5625,968.7813 84.2656,967.6875 84.2656,965.9844 L84.2656,964.8906 C84.2656,963.1094 85.5156,961.7969 87.25,961.7969 C87.8281,961.7969 88.4375,961.9531 88.9063,962.2031 C89.3906,962.4844 89.5625,962.7031 89.6563,963.1094 C89.7188,963.5156 89.75,963.6406 89.8906,963.7656 C90.0313,963.9063 90.2656,964.0156 90.4844,964.0156 C90.75,964.0156 91.0156,963.875 91.1875,963.6563 C91.2969,963.5 91.3281,963.3125 91.3281,962.8906 L91.3281,961.4688 C91.3281,961.0313 91.3125,960.9063 91.2188,960.75 C91.0625,960.4844 90.7813,960.3438 90.4844,960.3438 C90.1875,960.3438 89.9844,960.4375 89.7656,960.75 L89.5938,960.6719 Z " fill="#000000"/><text fill="#000000" font-family="sans-serif" font-size="14" lengthAdjust="spacing" textLength="49" x="107.75" y="969.8467">Author</text><line style="stroke:#181818;stroke-width:0.5;" x1="8" x2="224" y1="981" y2="981"/><rect fill="none" height="6" style="stroke:#C82930;stroke-width:1.0;" width="6" x="15" y="991.6484"/><text fill="#000000" font-family="sans-serif" font-size="14" lengthAdjust="spacing" textLength="37" x="27" y="997.9951">int id</text><rect fill="none" height="6" style="stroke:#C82930;stroke-width:1.0;" width="6" x="15" y="1007.9453"/><text fill="#000000" font-family="sans-serif" font-size="14" lengthAdjust="spacing" textLength="88" x="27" y="1014.292">String name</text><line style="stroke:#181818;stroke-width:0.5;" x1="8" x2="224" y1="1021.5938" y2="1021.5938"/><ellipse cx="18" cy="1035.2422" fill="#84BE84" rx="3" ry="3" style="stroke:#038048;stroke-width:1.0;"/><text fill="#000000" font-family="sans-serif" font-size="14" lengthAdjust="spacing" textLength="192" x="27" y="1038.5889">Author(int id, String name)</text><ellipse cx="18" cy="1051.5391" fill="#84BE84" rx="3" ry="3" style="stroke:#038048;stroke-width:1.0;"/><text fill="#000000" font-family="sans-serif" font-size="14" lengthAdjust="spacing" textLength="72" x="27" y="1054.8857">int getId()</text><ellipse cx="18" cy="1067.8359" fill="#84BE84" rx="3" ry="3" style="stroke:#038048;stroke-width:1.0;"/><text fill="#000000" font-family="sans-serif" font-size="14" lengthAdjust="spacing" textLength="124" x="27" y="1071.1826">String getName()</text><ellipse cx="18" cy="1084.1328" fill="#84BE84" rx="3" ry="3" style="stroke:#038048;stroke-width:1.0;"/><text fill="#000000" font-family="sans-serif" font-size="14" lengthAdjust="spacing" textLength="118" x="27" y="1087.4795">String toString()</text></g><!--class Book--><g id="elem_Book"><rect codeLine="56" fill="#F1F1F1" height="162.0781" id="Book" rx="2.5" ry="2.5" style="stroke:#181818;stroke-width:0.5;" width="432" x="1974" y="941"/><ellipse cx="2167.25" cy="957" fill="#ADD1B2" rx="11" ry="11" style="stroke:#181818;stroke-width:1.0;"/><path d="M2169.5938,952.6719 C2168.6563,952.2344 2168.0625,952.0938 2167.1875,952.0938 C2164.5625,952.0938 2162.5625,954.1719 2162.5625,956.8906 L2162.5625,958.0156 C2162.5625,960.5938 2164.6719,962.4844 2167.5625,962.4844 C2168.7813,962.4844 2169.9375,962.1875 2170.6875,961.6406 C2171.2656,961.2344 2171.5938,960.7813 2171.5938,960.3906 C2171.5938,959.9375 2171.2031,959.5469 2170.7344,959.5469 C2170.5156,959.5469 2170.3125,959.625 2170.125,959.8125 C2169.6719,960.2969 2169.6719,960.2969 2169.4844,960.3906 C2169.0625,960.6563 2168.375,960.7813 2167.6094,960.7813 C2165.5625,960.7813 2164.2656,959.6875 2164.2656,957.9844 L2164.2656,956.8906 C2164.2656,955.1094 2165.5156,953.7969 2167.25,953.7969 C2167.8281,953.7969 2168.4375,953.9531 2168.9063,954.2031 C2169.3906,954.4844 2169.5625,954.7031 2169.6563,955.1094 C2169.7188,955.5156 2169.75,955.6406 2169.8906,955.7656 C2170.0313,955.9063 2170.2656,956.0156 2170.4844,956.0156 C2170.75,956.0156 2171.0156,955.875 2171.1875,955.6563 C2171.2969,955.5 2171.3281,955.3125 2171.3281,954.8906 L2171.3281,953.4688 C2171.3281,953.0313 2171.3125,952.9063 2171.2188,952.75 C2171.0625,952.4844 2170.7813,952.3438 2170.4844,952.3438 C2170.1875,952.3438 2169.9844,952.4375 2169.7656,952.75 L2169.5938,952.6719 Z " fill="#000000"/><text fill="#000000" font-family="sans-serif" font-size="14" lengthAdjust="spacing" textLength="37" x="2187.75" y="961.8467">Book</text><line style="stroke:#181818;stroke-width:0.5;" x1="1975" x2="2405" y1="973" y2="973"/><rect fill="none" height="6" style="stroke:#C82930;stroke-width:1.0;" width="6" x="1982" y="983.6484"/><text fill="#000000" font-family="sans-serif" font-size="14" lengthAdjust="spacing" textLength="37" x="1994" y="989.9951">int id</text><rect fill="none" height="6" style="stroke:#C82930;stroke-width:1.0;" width="6" x="1982" y="999.9453"/><text fill="#000000" font-family="sans-serif" font-size="14" lengthAdjust="spacing" textLength="79" x="1994" y="1006.292">String title</text><rect fill="none" height="6" style="stroke:#C82930;stroke-width:1.0;" width="6" x="1982" y="1016.2422"/><text fill="#000000" font-family="sans-serif" font-size="14" lengthAdjust="spacing" textLength="137" x="1994" y="1022.5889">int publicationYear</text><rect fill="none" height="6" style="stroke:#C82930;stroke-width:1.0;" width="6" x="1982" y="1032.5391"/><text fill="#000000" font-family="sans-serif" font-size="14" lengthAdjust="spacing" textLength="117" x="1994" y="1038.8857">final String type</text><line style="stroke:#181818;stroke-width:0.5;" x1="1975" x2="2405" y1="1046.1875" y2="1046.1875"/><ellipse cx="1985" cy="1059.8359" fill="#84BE84" rx="3" ry="3" style="stroke:#038048;stroke-width:1.0;"/><text fill="#000000" font-family="sans-serif" font-size="14" lengthAdjust="spacing" textLength="406" x="1994" y="1063.1826">Book(int id, String title, int publicationYear, String type)</text><ellipse cx="1985" cy="1076.1328" fill="#84BE84" rx="3" ry="3" style="stroke:#038048;stroke-width:1.0;"/><text fill="#000000" font-family="sans-serif" font-size="14" lengthAdjust="spacing" textLength="72" x="1994" y="1079.4795">int getId()</text><ellipse cx="1985" cy="1092.4297" fill="#84BE84" rx="3" ry="3" style="stroke:#038048;stroke-width:1.0;"/><text fill="#000000" font-family="sans-serif" font-size="14" lengthAdjust="spacing" textLength="118" x="1994" y="1095.7764">String toString()</text></g><!--class Keyword--><g id="elem_Keyword"><rect codeLine="27" fill="#F1F1F1" height="145.7813" id="Keyword" rx="2.5" ry="2.5" style="stroke:#181818;stroke-width:0.5;" width="191" x="639.5" y="949"/><ellipse cx="699.75" cy="965" fill="#ADD1B2" rx="11" ry="11" style="stroke:#181818;stroke-width:1.0;"/><path d="M702.0938,960.6719 C701.1563,960.2344 700.5625,960.0938 699.6875,960.0938 C697.0625,960.0938 695.0625,962.1719 695.0625,964.8906 L695.0625,966.0156 C695.0625,968.5938 697.1719,970.4844 700.0625,970.4844 C701.2813,970.4844 702.4375,970.1875 703.1875,969.6406 C703.7656,969.2344 704.0938,968.7813 704.0938,968.3906 C704.0938,967.9375 703.7031,967.5469 703.2344,967.5469 C703.0156,967.5469 702.8125,967.625 702.625,967.8125 C702.1719,968.2969 702.1719,968.2969 701.9844,968.3906 C701.5625,968.6563 700.875,968.7813 700.1094,968.7813 C698.0625,968.7813 696.7656,967.6875 696.7656,965.9844 L696.7656,964.8906 C696.7656,963.1094 698.0156,961.7969 699.75,961.7969 C700.3281,961.7969 700.9375,961.9531 701.4063,962.2031 C701.8906,962.4844 702.0625,962.7031 702.1563,963.1094 C702.2188,963.5156 702.25,963.6406 702.3906,963.7656 C702.5313,963.9063 702.7656,964.0156 702.9844,964.0156 C703.25,964.0156 703.5156,963.875 703.6875,963.6563 C703.7969,963.5 703.8281,963.3125 703.8281,962.8906 L703.8281,961.4688 C703.8281,961.0313 703.8125,960.9063 703.7188,960.75 C703.5625,960.4844 703.2813,960.3438 702.9844,960.3438 C702.6875,960.3438 702.4844,960.4375 702.2656,960.75 L702.0938,960.6719 Z " fill="#000000"/><text fill="#000000" font-family="sans-serif" font-size="14" lengthAdjust="spacing" textLength="62" x="720.25" y="969.8467">Keyword</text><line style="stroke:#181818;stroke-width:0.5;" x1="640.5" x2="829.5" y1="981" y2="981"/><rect fill="none" height="6" style="stroke:#C82930;stroke-width:1.0;" width="6" x="647.5" y="991.6484"/><text fill="#000000" font-family="sans-serif" font-size="14" lengthAdjust="spacing" textLength="42" x="659.5" y="997.9951">id: int</text><rect fill="none" height="6" style="stroke:#C82930;stroke-width:1.0;" width="6" x="647.5" y="1007.9453"/><text fill="#000000" font-family="sans-serif" font-size="14" lengthAdjust="spacing" textLength="93" x="659.5" y="1014.292">name: String</text><line style="stroke:#181818;stroke-width:0.5;" x1="640.5" x2="829.5" y1="1021.5938" y2="1021.5938"/><ellipse cx="650.5" cy="1035.2422" fill="#84BE84" rx="3" ry="3" style="stroke:#038048;stroke-width:1.0;"/><text fill="#000000" font-family="sans-serif" font-size="14" lengthAdjust="spacing" textLength="165" x="659.5" y="1038.5889">Keyword(name: String)</text><ellipse cx="650.5" cy="1051.5391" fill="#84BE84" rx="3" ry="3" style="stroke:#038048;stroke-width:1.0;"/><text fill="#000000" font-family="sans-serif" font-size="14" lengthAdjust="spacing" textLength="77" x="659.5" y="1054.8857">getId(): int</text><ellipse cx="650.5" cy="1067.8359" fill="#84BE84" rx="3" ry="3" style="stroke:#038048;stroke-width:1.0;"/><text fill="#000000" font-family="sans-serif" font-size="14" lengthAdjust="spacing" textLength="129" x="659.5" y="1071.1826">getName(): String</text><ellipse cx="650.5" cy="1084.1328" fill="#84BE84" rx="3" ry="3" style="stroke:#038048;stroke-width:1.0;"/><text fill="#000000" font-family="sans-serif" font-size="14" lengthAdjust="spacing" textLength="118" x="659.5" y="1087.4795">String toString()</text></g><!--class Language--><g id="elem_Language"><rect codeLine="37" fill="#F1F1F1" height="145.7813" id="Language" rx="2.5" ry="2.5" style="stroke:#181818;stroke-width:0.5;" width="197" x="1271.5" y="949"/><ellipse cx="1331.75" cy="965" fill="#ADD1B2" rx="11" ry="11" style="stroke:#181818;stroke-width:1.0;"/><path d="M1334.0938,960.6719 C1333.1563,960.2344 1332.5625,960.0938 1331.6875,960.0938 C1329.0625,960.0938 1327.0625,962.1719 1327.0625,964.8906 L1327.0625,966.0156 C1327.0625,968.5938 1329.1719,970.4844 1332.0625,970.4844 C1333.2813,970.4844 1334.4375,970.1875 1335.1875,969.6406 C1335.7656,969.2344 1336.0938,968.7813 1336.0938,968.3906 C1336.0938,967.9375 1335.7031,967.5469 1335.2344,967.5469 C1335.0156,967.5469 1334.8125,967.625 1334.625,967.8125 C1334.1719,968.2969 1334.1719,968.2969 1333.9844,968.3906 C1333.5625,968.6563 1332.875,968.7813 1332.1094,968.7813 C1330.0625,968.7813 1328.7656,967.6875 1328.7656,965.9844 L1328.7656,964.8906 C1328.7656,963.1094 1330.0156,961.7969 1331.75,961.7969 C1332.3281,961.7969 1332.9375,961.9531 1333.4063,962.2031 C1333.8906,962.4844 1334.0625,962.7031 1334.1563,963.1094 C1334.2188,963.5156 1334.25,963.6406 1334.3906,963.7656 C1334.5313,963.9063 1334.7656,964.0156 1334.9844,964.0156 C1335.25,964.0156 1335.5156,963.875 1335.6875,963.6563 C1335.7969,963.5 1335.8281,963.3125 1335.8281,962.8906 L1335.8281,961.4688 C1335.8281,961.0313 1335.8125,960.9063 1335.7188,960.75 C1335.5625,960.4844 1335.2813,960.3438 1334.9844,960.3438 C1334.6875,960.3438 1334.4844,960.4375 1334.2656,960.75 L1334.0938,960.6719 Z " fill="#000000"/><text fill="#000000" font-family="sans-serif" font-size="14" lengthAdjust="spacing" textLength="68" x="1352.25" y="969.8467">Language</text><line style="stroke:#181818;stroke-width:0.5;" x1="1272.5" x2="1467.5" y1="981" y2="981"/><rect fill="none" height="6" style="stroke:#C82930;stroke-width:1.0;" width="6" x="1279.5" y="991.6484"/><text fill="#000000" font-family="sans-serif" font-size="14" lengthAdjust="spacing" textLength="42" x="1291.5" y="997.9951">id: int</text><rect fill="none" height="6" style="stroke:#C82930;stroke-width:1.0;" width="6" x="1279.5" y="1007.9453"/><text fill="#000000" font-family="sans-serif" font-size="14" lengthAdjust="spacing" textLength="93" x="1291.5" y="1014.292">name: String</text><line style="stroke:#181818;stroke-width:0.5;" x1="1272.5" x2="1467.5" y1="1021.5938" y2="1021.5938"/><ellipse cx="1282.5" cy="1035.2422" fill="#84BE84" rx="3" ry="3" style="stroke:#038048;stroke-width:1.0;"/><text fill="#000000" font-family="sans-serif" font-size="14" lengthAdjust="spacing" textLength="171" x="1291.5" y="1038.5889">Language(name: String)</text><ellipse cx="1282.5" cy="1051.5391" fill="#84BE84" rx="3" ry="3" style="stroke:#038048;stroke-width:1.0;"/><text fill="#000000" font-family="sans-serif" font-size="14" lengthAdjust="spacing" textLength="77" x="1291.5" y="1054.8857">getId(): int</text><ellipse cx="1282.5" cy="1067.8359" fill="#84BE84" rx="3" ry="3" style="stroke:#038048;stroke-width:1.0;"/><text fill="#000000" font-family="sans-serif" font-size="14" lengthAdjust="spacing" textLength="129" x="1291.5" y="1071.1826">getName(): String</text><ellipse cx="1282.5" cy="1084.1328" fill="#84BE84" rx="3" ry="3" style="stroke:#038048;stroke-width:1.0;"/><text fill="#000000" font-family="sans-serif" font-size="14" lengthAdjust="spacing" textLength="118" x="1291.5" y="1087.4795">String toString()</text></g><!--class BookKeyword--><g id="elem_BookKeyword"><rect codeLine="66" fill="#F1F1F1" height="129.4844" id="BookKeyword" rx="2.5" ry="2.5" style="stroke:#181818;stroke-width:0.5;" width="315" x="921.5" y="957.5"/><ellipse cx="1025.25" cy="973.5" fill="#ADD1B2" rx="11" ry="11" style="stroke:#181818;stroke-width:1.0;"/><path d="M1027.5938,969.1719 C1026.6563,968.7344 1026.0625,968.5938 1025.1875,968.5938 C1022.5625,968.5938 1020.5625,970.6719 1020.5625,973.3906 L1020.5625,974.5156 C1020.5625,977.0938 1022.6719,978.9844 1025.5625,978.9844 C1026.7813,978.9844 1027.9375,978.6875 1028.6875,978.1406 C1029.2656,977.7344 1029.5938,977.2813 1029.5938,976.8906 C1029.5938,976.4375 1029.2031,976.0469 1028.7344,976.0469 C1028.5156,976.0469 1028.3125,976.125 1028.125,976.3125 C1027.6719,976.7969 1027.6719,976.7969 1027.4844,976.8906 C1027.0625,977.1563 1026.375,977.2813 1025.6094,977.2813 C1023.5625,977.2813 1022.2656,976.1875 1022.2656,974.4844 L1022.2656,973.3906 C1022.2656,971.6094 1023.5156,970.2969 1025.25,970.2969 C1025.8281,970.2969 1026.4375,970.4531 1026.9063,970.7031 C1027.3906,970.9844 1027.5625,971.2031 1027.6563,971.6094 C1027.7188,972.0156 1027.75,972.1406 1027.8906,972.2656 C1028.0313,972.4063 1028.2656,972.5156 1028.4844,972.5156 C1028.75,972.5156 1029.0156,972.375 1029.1875,972.1563 C1029.2969,972 1029.3281,971.8125 1029.3281,971.3906 L1029.3281,969.9688 C1029.3281,969.5313 1029.3125,969.4063 1029.2188,969.25 C1029.0625,968.9844 1028.7813,968.8438 1028.4844,968.8438 C1028.1875,968.8438 1027.9844,968.9375 1027.7656,969.25 L1027.5938,969.1719 Z " fill="#000000"/><text fill="#000000" font-family="sans-serif" font-size="14" lengthAdjust="spacing" textLength="99" x="1045.75" y="978.3467">BookKeyword</text><line style="stroke:#181818;stroke-width:0.5;" x1="922.5" x2="1235.5" y1="989.5" y2="989.5"/><rect fill="none" height="6" style="stroke:#C82930;stroke-width:1.0;" width="6" x="929.5" y="1000.1484"/><text fill="#000000" font-family="sans-serif" font-size="14" lengthAdjust="spacing" textLength="74" x="941.5" y="1006.4951">int bookId</text><rect fill="none" height="6" style="stroke:#C82930;stroke-width:1.0;" width="6" x="929.5" y="1016.4453"/><text fill="#000000" font-family="sans-serif" font-size="14" lengthAdjust="spacing" textLength="98" x="941.5" y="1022.792">int keywordId</text><line style="stroke:#181818;stroke-width:0.5;" x1="922.5" x2="1235.5" y1="1030.0938" y2="1030.0938"/><ellipse cx="932.5" cy="1043.7422" fill="#84BE84" rx="3" ry="3" style="stroke:#038048;stroke-width:1.0;"/><text fill="#000000" font-family="sans-serif" font-size="14" lengthAdjust="spacing" textLength="289" x="941.5" y="1047.0889">BookKeyword(int bookId, int keywordId)</text><ellipse cx="932.5" cy="1060.0391" fill="#84BE84" rx="3" ry="3" style="stroke:#038048;stroke-width:1.0;"/><text fill="#000000" font-family="sans-serif" font-size="14" lengthAdjust="spacing" textLength="109" x="941.5" y="1063.3857">int getBookId()</text><ellipse cx="932.5" cy="1076.3359" fill="#84BE84" rx="3" ry="3" style="stroke:#038048;stroke-width:1.0;"/><text fill="#000000" font-family="sans-serif" font-size="14" lengthAdjust="spacing" textLength="134" x="941.5" y="1079.6826">int getKeywordId()</text></g><!--class BookAuthor--><g id="elem_BookAuthor"><rect codeLine="48" fill="#F1F1F1" height="129.4844" id="BookAuthor" rx="2.5" ry="2.5" style="stroke:#181818;stroke-width:0.5;" width="288" x="316" y="957.5"/><ellipse cx="412.75" cy="973.5" fill="#ADD1B2" rx="11" ry="11" style="stroke:#181818;stroke-width:1.0;"/><path d="M415.0938,969.1719 C414.1563,968.7344 413.5625,968.5938 412.6875,968.5938 C410.0625,968.5938 408.0625,970.6719 408.0625,973.3906 L408.0625,974.5156 C408.0625,977.0938 410.1719,978.9844 413.0625,978.9844 C414.2813,978.9844 415.4375,978.6875 416.1875,978.1406 C416.7656,977.7344 417.0938,977.2813 417.0938,976.8906 C417.0938,976.4375 416.7031,976.0469 416.2344,976.0469 C416.0156,976.0469 415.8125,976.125 415.625,976.3125 C415.1719,976.7969 415.1719,976.7969 414.9844,976.8906 C414.5625,977.1563 413.875,977.2813 413.1094,977.2813 C411.0625,977.2813 409.7656,976.1875 409.7656,974.4844 L409.7656,973.3906 C409.7656,971.6094 411.0156,970.2969 412.75,970.2969 C413.3281,970.2969 413.9375,970.4531 414.4063,970.7031 C414.8906,970.9844 415.0625,971.2031 415.1563,971.6094 C415.2188,972.0156 415.25,972.1406 415.3906,972.2656 C415.5313,972.4063 415.7656,972.5156 415.9844,972.5156 C416.25,972.5156 416.5156,972.375 416.6875,972.1563 C416.7969,972 416.8281,971.8125 416.8281,971.3906 L416.8281,969.9688 C416.8281,969.5313 416.8125,969.4063 416.7188,969.25 C416.5625,968.9844 416.2813,968.8438 415.9844,968.8438 C415.6875,968.8438 415.4844,968.9375 415.2656,969.25 L415.0938,969.1719 Z " fill="#000000"/><text fill="#000000" font-family="sans-serif" font-size="14" lengthAdjust="spacing" textLength="86" x="433.25" y="978.3467">BookAuthor</text><line style="stroke:#181818;stroke-width:0.5;" x1="317" x2="603" y1="989.5" y2="989.5"/><rect fill="none" height="6" style="stroke:#C82930;stroke-width:1.0;" width="6" x="324" y="1000.1484"/><text fill="#000000" font-family="sans-serif" font-size="14" lengthAdjust="spacing" textLength="74" x="336" y="1006.4951">int bookId</text><rect fill="none" height="6" style="stroke:#C82930;stroke-width:1.0;" width="6" x="324" y="1016.4453"/><text fill="#000000" font-family="sans-serif" font-size="14" lengthAdjust="spacing" textLength="84" x="336" y="1022.792">int authorId</text><line style="stroke:#181818;stroke-width:0.5;" x1="317" x2="603" y1="1030.0938" y2="1030.0938"/><ellipse cx="327" cy="1043.7422" fill="#84BE84" rx="3" ry="3" style="stroke:#038048;stroke-width:1.0;"/><text fill="#000000" font-family="sans-serif" font-size="14" lengthAdjust="spacing" textLength="262" x="336" y="1047.0889">BookAuthor(int bookId, int authorId)</text><ellipse cx="327" cy="1060.0391" fill="#84BE84" rx="3" ry="3" style="stroke:#038048;stroke-width:1.0;"/><text fill="#000000" font-family="sans-serif" font-size="14" lengthAdjust="spacing" textLength="109" x="336" y="1063.3857">int getBookId()</text><ellipse cx="327" cy="1076.3359" fill="#84BE84" rx="3" ry="3" style="stroke:#038048;stroke-width:1.0;"/><text fill="#000000" font-family="sans-serif" font-size="14" lengthAdjust="spacing" textLength="121" x="336" y="1079.6826">int getAuthorId()</text></g><!--class BookLanguage--><g id="elem_BookLanguage"><rect codeLine="74" fill="#F1F1F1" height="129.4844" id="BookLanguage" rx="2.5" ry="2.5" style="stroke:#181818;stroke-width:0.5;" width="324" x="1559" y="957.5"/><ellipse cx="1664.25" cy="973.5" fill="#ADD1B2" rx="11" ry="11" style="stroke:#181818;stroke-width:1.0;"/><path d="M1666.5938,969.1719 C1665.6563,968.7344 1665.0625,968.5938 1664.1875,968.5938 C1661.5625,968.5938 1659.5625,970.6719 1659.5625,973.3906 L1659.5625,974.5156 C1659.5625,977.0938 1661.6719,978.9844 1664.5625,978.9844 C1665.7813,978.9844 1666.9375,978.6875 1667.6875,978.1406 C1668.2656,977.7344 1668.5938,977.2813 1668.5938,976.8906 C1668.5938,976.4375 1668.2031,976.0469 1667.7344,976.0469 C1667.5156,976.0469 1667.3125,976.125 1667.125,976.3125 C1666.6719,976.7969 1666.6719,976.7969 1666.4844,976.8906 C1666.0625,977.1563 1665.375,977.2813 1664.6094,977.2813 C1662.5625,977.2813 1661.2656,976.1875 1661.2656,974.4844 L1661.2656,973.3906 C1661.2656,971.6094 1662.5156,970.2969 1664.25,970.2969 C1664.8281,970.2969 1665.4375,970.4531 1665.9063,970.7031 C1666.3906,970.9844 1666.5625,971.2031 1666.6563,971.6094 C1666.7188,972.0156 1666.75,972.1406 1666.8906,972.2656 C1667.0313,972.4063 1667.2656,972.5156 1667.4844,972.5156 C1667.75,972.5156 1668.0156,972.375 1668.1875,972.1563 C1668.2969,972 1668.3281,971.8125 1668.3281,971.3906 L1668.3281,969.9688 C1668.3281,969.5313 1668.3125,969.4063 1668.2188,969.25 C1668.0625,968.9844 1667.7813,968.8438 1667.4844,968.8438 C1667.1875,968.8438 1666.9844,968.9375 1666.7656,969.25 L1666.5938,969.1719 Z " fill="#000000"/><text fill="#000000" font-family="sans-serif" font-size="14" lengthAdjust="spacing" textLength="105" x="1684.75" y="978.3467">BookLanguage</text><line style="stroke:#181818;stroke-width:0.5;" x1="1560" x2="1882" y1="989.5" y2="989.5"/><rect fill="none" height="6" style="stroke:#C82930;stroke-width:1.0;" width="6" x="1567" y="1000.1484"/><text fill="#000000" font-family="sans-serif" font-size="14" lengthAdjust="spacing" textLength="74" x="1579" y="1006.4951">int bookId</text><rect fill="none" height="6" style="stroke:#C82930;stroke-width:1.0;" width="6" x="1567" y="1016.4453"/><text fill="#000000" font-family="sans-serif" font-size="14" lengthAdjust="spacing" textLength="101" x="1579" y="1022.792">int languageId</text><line style="stroke:#181818;stroke-width:0.5;" x1="1560" x2="1882" y1="1030.0938" y2="1030.0938"/><ellipse cx="1570" cy="1043.7422" fill="#84BE84" rx="3" ry="3" style="stroke:#038048;stroke-width:1.0;"/><text fill="#000000" font-family="sans-serif" font-size="14" lengthAdjust="spacing" textLength="298" x="1579" y="1047.0889">BookLanguage(int bookId, int languageId)</text><ellipse cx="1570" cy="1060.0391" fill="#84BE84" rx="3" ry="3" style="stroke:#038048;stroke-width:1.0;"/><text fill="#000000" font-family="sans-serif" font-size="14" lengthAdjust="spacing" textLength="109" x="1579" y="1063.3857">int getBookId()</text><ellipse cx="1570" cy="1076.3359" fill="#84BE84" rx="3" ry="3" style="stroke:#038048;stroke-width:1.0;"/><text fill="#000000" font-family="sans-serif" font-size="14" lengthAdjust="spacing" textLength="140" x="1579" y="1079.6826">int getLanguageId()</text></g><!--class App--><g id="elem_App"><rect codeLine="130" fill="#F1F1F1" height="64.2969" id="App" rx="2.5" ry="2.5" style="stroke:#181818;stroke-width:0.5;" width="203" x="977.5" y="7"/><ellipse cx="1059.75" cy="23" fill="#ADD1B2" rx="11" ry="11" style="stroke:#181818;stroke-width:1.0;"/><path d="M1062.0938,18.6719 C1061.1563,18.2344 1060.5625,18.0938 1059.6875,18.0938 C1057.0625,18.0938 1055.0625,20.1719 1055.0625,22.8906 L1055.0625,24.0156 C1055.0625,26.5938 1057.1719,28.4844 1060.0625,28.4844 C1061.2813,28.4844 1062.4375,28.1875 1063.1875,27.6406 C1063.7656,27.2344 1064.0938,26.7813 1064.0938,26.3906 C1064.0938,25.9375 1063.7031,25.5469 1063.2344,25.5469 C1063.0156,25.5469 1062.8125,25.625 1062.625,25.8125 C1062.1719,26.2969 1062.1719,26.2969 1061.9844,26.3906 C1061.5625,26.6563 1060.875,26.7813 1060.1094,26.7813 C1058.0625,26.7813 1056.7656,25.6875 1056.7656,23.9844 L1056.7656,22.8906 C1056.7656,21.1094 1058.0156,19.7969 1059.75,19.7969 C1060.3281,19.7969 1060.9375,19.9531 1061.4063,20.2031 C1061.8906,20.4844 1062.0625,20.7031 1062.1563,21.1094 C1062.2188,21.5156 1062.25,21.6406 1062.3906,21.7656 C1062.5313,21.9063 1062.7656,22.0156 1062.9844,22.0156 C1063.25,22.0156 1063.5156,21.875 1063.6875,21.6563 C1063.7969,21.5 1063.8281,21.3125 1063.8281,20.8906 L1063.8281,19.4688 C1063.8281,19.0313 1063.8125,18.9063 1063.7188,18.75 C1063.5625,18.4844 1063.2813,18.3438 1062.9844,18.3438 C1062.6875,18.3438 1062.4844,18.4375 1062.2656,18.75 L1062.0938,18.6719 Z " fill="#000000"/><text fill="#000000" font-family="sans-serif" font-size="14" lengthAdjust="spacing" textLength="30" x="1080.25" y="27.8467">App</text><line style="stroke:#181818;stroke-width:0.5;" x1="978.5" x2="1179.5" y1="39" y2="39"/><line style="stroke:#181818;stroke-width:0.5;" x1="978.5" x2="1179.5" y1="47" y2="47"/><ellipse cx="988.5" cy="60.6484" fill="#84BE84" rx="3" ry="3" style="stroke:#038048;stroke-width:1.0;"/><text fill="#000000" font-family="sans-serif" font-size="14" lengthAdjust="spacing" textLength="177" x="997.5" y="63.9951">main(args: String[]): void</text></g><!--link LibraryManager to Author--><g id="link_LibraryManager_Author"><path codeLine="1" d="M871.229,617.898 C672.869,723.772 381.699,879.184 225.166,962.733 " fill="none" id="LibraryManager-Author" style="stroke:#181818;stroke-width:1.0;"/><text fill="#000000" font-family="sans-serif" font-size="13" lengthAdjust="spacing" textLength="57" x="350" y="907.0669">Manages</text></g><!--link LibraryManager to Book--><g id="link_LibraryManager_Book"><path codeLine="2" d="M1286.67,603.077 C1497.22,700.489 1819.34,849.515 2016.65,940.798 " fill="none" id="LibraryManager-Book" style="stroke:#181818;stroke-width:1.0;"/><text fill="#000000" font-family="sans-serif" font-size="13" lengthAdjust="spacing" textLength="57" x="1952" y="907.0669">Manages</text></g><!--link LibraryManager to Keyword--><g id="link_LibraryManager_Keyword"><path codeLine="3" d="M871.452,817.115 C838.533,866.303 807.43,912.777 783.256,948.896 " fill="none" id="LibraryManager-Keyword" style="stroke:#181818;stroke-width:1.0;"/><text fill="#000000" font-family="sans-serif" font-size="13" lengthAdjust="spacing" textLength="57" x="820" y="907.0669">Manages</text></g><!--link LibraryManager to Language--><g id="link_LibraryManager_Language"><path codeLine="4" d="M1281.31,864.34 C1299.02,895.63 1315.4,924.566 1329.14,948.833 " fill="none" id="LibraryManager-Language" style="stroke:#181818;stroke-width:1.0;"/><text fill="#000000" font-family="sans-serif" font-size="13" lengthAdjust="spacing" textLength="57" x="1309" y="907.0669">Manages</text></g><!--link LibraryManager to BookKeyword--><g id="link_LibraryManager_BookKeyword"><path codeLine="5" d="M1079,864.34 C1079,899.391 1079,931.489 1079,957.379 " fill="none" id="LibraryManager-BookKeyword" style="stroke:#181818;stroke-width:1.0;"/><text fill="#000000" font-family="sans-serif" font-size="13" lengthAdjust="spacing" textLength="57" x="1080" y="907.0669">Manages</text></g><!--link LibraryManager to BookAuthor--><g id="link_LibraryManager_BookAuthor"><path codeLine="6" d="M871.16,679.584 C755.959,775.244 619.619,888.457 536.503,957.474 " fill="none" id="LibraryManager-BookAuthor" style="stroke:#181818;stroke-width:1.0;"/><text fill="#000000" font-family="sans-serif" font-size="13" lengthAdjust="spacing" textLength="57" x="611" y="907.0669">Manages</text></g><!--link LibraryManager to BookLanguage--><g id="link_LibraryManager_BookLanguage"><path codeLine="7" d="M1286.62,653.371 C1382.28,723.301 1495.87,809.935 1593,894 C1615.72,913.667 1639.4,936.443 1660.13,957.231 " fill="none" id="LibraryManager-BookLanguage" style="stroke:#181818;stroke-width:1.0;"/><text fill="#000000" font-family="sans-serif" font-size="13" lengthAdjust="spacing" textLength="57" x="1613" y="907.0669">Manages</text></g><!--link App to LibraryManager--><g id="link_App_LibraryManager"><path codeLine="8" d="M1079,71.23 C1079,90.27 1079,116.823 1079,147.507 " fill="none" id="App-LibraryManager" style="stroke:#181818;stroke-width:1.0;stroke-dasharray:7.0,7.0;"/><text fill="#000000" font-family="sans-serif" font-size="13" lengthAdjust="spacing" textLength="48" x="1080" y="114.0669">creates</text></g><!--link BookAuthor to Book--><g id="link_BookAuthor_Book"><path codeLine="9" d="M574.976,957.356 C590.413,950.822 606.332,945.096 622,941 C896.766,869.171 1619.55,896.263 1900,941 C1924.13,944.85 1949.12,949.994 1973.85,955.833 " fill="none" id="BookAuthor-Book" style="stroke:#181818;stroke-width:1.0;"/><text fill="#000000" font-family="sans-serif" font-size="13" lengthAdjust="spacing" textLength="54" x="1209" y="907.0669">contains</text><text fill="#000000" font-family="sans-serif" font-size="13" lengthAdjust="spacing" textLength="23" x="563.2937" y="946.5129">0..*</text><text fill="#000000" font-family="sans-serif" font-size="13" lengthAdjust="spacing" textLength="8" x="1957.9384" y="965.7925">1</text></g><!--link BookKeyword to Book--><g id="link_BookKeyword_Book"><path codeLine="10" d="M1205.7,957.464 C1221.67,951.095 1238.02,945.38 1254,941 C1254,941 1900,941 1900,941 C1924.04,945.387 1948.97,950.874 1973.67,956.911 " fill="none" id="BookKeyword-Book" style="stroke:#181818;stroke-width:1.0;"/><text fill="#000000" font-family="sans-serif" font-size="13" lengthAdjust="spacing" textLength="54" x="1530" y="907.0669">contains</text><text fill="#000000" font-family="sans-serif" font-size="13" lengthAdjust="spacing" textLength="23" x="1195.3" y="946.6327">0..*</text><text fill="#000000" font-family="sans-serif" font-size="13" lengthAdjust="spacing" textLength="8" x="1957.7519" y="951.3702">1</text></g><!--link Author to BookAuthor--><g id="link_Author_BookAuthor"><path codeLine="11" d="M225.316,1022 C254.04,1022 285.465,1022 315.715,1022 " fill="none" id="Author-BookAuthor" style="stroke:#181818;stroke-width:1.0;"/><text fill="#000000" font-family="sans-serif" font-size="13" lengthAdjust="spacing" textLength="54" x="243.5" y="1015.0669">contains</text><text fill="#000000" font-family="sans-serif" font-size="13" lengthAdjust="spacing" textLength="8" x="232.9294" y="1018.5748">1</text><text fill="#000000" font-family="sans-serif" font-size="13" lengthAdjust="spacing" textLength="23" x="285.1692" y="1034.4217">0..*</text></g><!--link Keyword to BookKeyword--><g id="link_Keyword_BookKeyword"><path codeLine="12" d="M830.823,1022 C858.954,1022 890.491,1022 921.403,1022 " fill="none" id="Keyword-BookKeyword" style="stroke:#181818;stroke-width:1.0;"/><text fill="#000000" font-family="sans-serif" font-size="13" lengthAdjust="spacing" textLength="54" x="849" y="1015.0669">contains</text><text fill="#000000" font-family="sans-serif" font-size="13" lengthAdjust="spacing" textLength="8" x="838.4657" y="1018.5061">1</text><text fill="#000000" font-family="sans-serif" font-size="13" lengthAdjust="spacing" textLength="23" x="890.7408" y="1034.3988">0..*</text></g><!--link BookLanguage to Book--><g id="link_BookLanguage_Book"><path codeLine="13" d="M1883.06,1022 C1912.32,1022 1943.24,1022 1973.75,1022 " fill="none" id="BookLanguage-Book" style="stroke:#181818;stroke-width:1.0;"/><text fill="#000000" font-family="sans-serif" font-size="13" lengthAdjust="spacing" textLength="54" x="1901.5" y="1015.0669">contains</text><text fill="#000000" font-family="sans-serif" font-size="13" lengthAdjust="spacing" textLength="23" x="1890.9244" y="1034.3988">0..*</text><text fill="#000000" font-family="sans-serif" font-size="13" lengthAdjust="spacing" textLength="8" x="1957.8348" y="1018.7983">1</text></g><!--link Language to BookLanguage--><g id="link_Language_BookLanguage"><path codeLine="14" d="M1468.71,1022 C1496.79,1022 1528.14,1022 1558.94,1022 " fill="none" id="Language-BookLanguage" style="stroke:#181818;stroke-width:1.0;"/><text fill="#000000" font-family="sans-serif" font-size="13" lengthAdjust="spacing" textLength="54" x="1486.75" y="1015.0669">contains</text><text fill="#000000" font-family="sans-serif" font-size="13" lengthAdjust="spacing" textLength="8" x="1476.5737" y="1018.5061">1</text><text fill="#000000" font-family="sans-serif" font-size="13" lengthAdjust="spacing" textLength="23" x="1528.0756" y="1034.3988">0..*</text></g><!--SRC=[lLSzZzim3DtpAuXClbuSjAjH54ZG9RYqGsygYWvAx4kD-En0Lbe4X_xtwfEYPVdZRcWcctoFUgGeojcN1yxuxGkhsQdWaAO0cwlurV0CZArTx7kGRTESn_pmKDp-D3mVnUnPVRhAjr6GMcbEC8MRrgrX_NKtbmkirn3WCpZoWWdfLonOVbX2MgMmVBzUlrkI1HMmgGKhws6aJO52BLc3KpuHr_9Zu4Ze8HKkSuf5MonsZ21_nugrhMqJU5c0_QLbBQ3C_VkZu6LzWfez5sYyDxJ4O5T0C7SUfBodGkpoX1WjLDg_IdJ48nhpO5r_dL9N8Y9Lhfs1N8LOb8JCwbdus8wTK3zPs-diXhltCZ6czqtenRA_JR2Z_nV5LZ9fsw0X3jApoxisff74Uk_vYIUjW8BxxR7LgAJls5XAM5XzCAORLfIYAhgeo_LGbKScogR-NZ3kdKzbpIeip-rIT7CA-ro7Dda58LSqoCoZCDH0T2xCs8wpWORxuHe_t124ls977Xmd9ZNMxqDQAuiDnMBJXsezuHLozqWYdOx7itjFq4Eg5cupYMZ5HnNy4_6PFdPUqwBKRylg0BPY5C6BIhTBwsuwNASV3R5uUo8u4hazihekPCH7yz0P9vrqQR6W5OoBq9_1xuOUAc1v_hbuOjVAg6n92E9qBIBTC1p2RKmKLSaCLO9jH0JwjZU_q2mKjhkUbwCSEy7cODnKcmvAKfu7ynq_45nMKy-cOSz1V-2fnoZ6vZ0FnMopcjSeyfjjLXBNYb_1HA4asysf2JaETdO7mXgYO1md4q4HL-5NfJEDPaerOwfJdOOtcznkExe8_svmilZvEqgCp0Ko2aUf20h8tREqo_k7AJegFHDlyh0D9dXaWFUFGvGhBtBT-zjRBqLb3f16byQ6oemhmDiAQ4Al1jOPK5mAcXD9mbg2QO0pDZeh9aPVVDJWNQt-9xsGyVyi_n0aZ9zQzy7uusU7zmy0]--></g></svg>