<?xml version="1.0" encoding="us-ascii" standalone="no"?><svg xmlns="http://www.w3.org/2000/svg" xmlns:xlink="http://www.w3.org/1999/xlink" contentStyleType="text/css" height="424px" preserveAspectRatio="none" style="width:403px;height:424px;background:#1B1B1B;" version="1.1" viewBox="0 0 403 424" width="403px" zoomAndPan="magnify"><defs/><g><rect fill="#1B1B1B" height="424" style="stroke:none;stroke-width:1.0;" width="403" x="0" y="0"/><!--class Biblioteca--><g id="elem_Biblioteca"><rect codeLine="6" fill="#313139" height="64.2969" id="Biblioteca" rx="2.5" ry="2.5" style="stroke:#E7E7E7;stroke-width:0.5;" width="230" x="76" y="7"/><ellipse cx="150.25" cy="23" fill="#2E5233" rx="11" ry="11" style="stroke:#E7E7E7;stroke-width:1.0;"/><path d="M152.5938,18.6719 C151.6563,18.2344 151.0625,18.0938 150.1875,18.0938 C147.5625,18.0938 145.5625,20.1719 145.5625,22.8906 L145.5625,24.0156 C145.5625,26.5938 147.6719,28.4844 150.5625,28.4844 C151.7813,28.4844 152.9375,28.1875 153.6875,27.6406 C154.2656,27.2344 154.5938,26.7813 154.5938,26.3906 C154.5938,25.9375 154.2031,25.5469 153.7344,25.5469 C153.5156,25.5469 153.3125,25.625 153.125,25.8125 C152.6719,26.2969 152.6719,26.2969 152.4844,26.3906 C152.0625,26.6563 151.375,26.7813 150.6094,26.7813 C148.5625,26.7813 147.2656,25.6875 147.2656,23.9844 L147.2656,22.8906 C147.2656,21.1094 148.5156,19.7969 150.25,19.7969 C150.8281,19.7969 151.4375,19.9531 151.9063,20.2031 C152.3906,20.4844 152.5625,20.7031 152.6563,21.1094 C152.7188,21.5156 152.75,21.6406 152.8906,21.7656 C153.0313,21.9063 153.2656,22.0156 153.4844,22.0156 C153.75,22.0156 154.0156,21.875 154.1875,21.6563 C154.2969,21.5 154.3281,21.3125 154.3281,20.8906 L154.3281,19.4688 C154.3281,19.0313 154.3125,18.9063 154.2188,18.75 C154.0625,18.4844 153.7813,18.3438 153.4844,18.3438 C153.1875,18.3438 152.9844,18.4375 152.7656,18.75 L152.5938,18.6719 Z " fill="#FFFFFF"/><text fill="#FFFFFF" font-family="sans-serif" font-size="14" lengthAdjust="spacing" textLength="73" x="170.75" y="27.8467">Biblioteca</text><line style="stroke:#E7E7E7;stroke-width:0.5;" x1="77" x2="305" y1="39" y2="39"/><text fill="#FFFFFF" font-family="sans-serif" font-size="14" lengthAdjust="spacing" textLength="218" x="82" y="55.9951">List&lt;Documento&gt; documento</text><line style="stroke:#E7E7E7;stroke-width:0.5;" x1="77" x2="305" y1="63.2969" y2="63.2969"/></g><!--class Documento--><g id="elem_Documento"><rect codeLine="10" fill="#313139" height="145.7813" id="Documento" rx="2.5" ry="2.5" style="stroke:#E7E7E7;stroke-width:0.5;" width="194" x="94" y="131"/><ellipse cx="144.75" cy="147" fill="#2E5233" rx="11" ry="11" style="stroke:#E7E7E7;stroke-width:1.0;"/><path d="M147.0938,142.6719 C146.1563,142.2344 145.5625,142.0938 144.6875,142.0938 C142.0625,142.0938 140.0625,144.1719 140.0625,146.8906 L140.0625,148.0156 C140.0625,150.5938 142.1719,152.4844 145.0625,152.4844 C146.2813,152.4844 147.4375,152.1875 148.1875,151.6406 C148.7656,151.2344 149.0938,150.7813 149.0938,150.3906 C149.0938,149.9375 148.7031,149.5469 148.2344,149.5469 C148.0156,149.5469 147.8125,149.625 147.625,149.8125 C147.1719,150.2969 147.1719,150.2969 146.9844,150.3906 C146.5625,150.6563 145.875,150.7813 145.1094,150.7813 C143.0625,150.7813 141.7656,149.6875 141.7656,147.9844 L141.7656,146.8906 C141.7656,145.1094 143.0156,143.7969 144.75,143.7969 C145.3281,143.7969 145.9375,143.9531 146.4063,144.2031 C146.8906,144.4844 147.0625,144.7031 147.1563,145.1094 C147.2188,145.5156 147.25,145.6406 147.3906,145.7656 C147.5313,145.9063 147.7656,146.0156 147.9844,146.0156 C148.25,146.0156 148.5156,145.875 148.6875,145.6563 C148.7969,145.5 148.8281,145.3125 148.8281,144.8906 L148.8281,143.4688 C148.8281,143.0313 148.8125,142.9063 148.7188,142.75 C148.5625,142.4844 148.2813,142.3438 147.9844,142.3438 C147.6875,142.3438 147.4844,142.4375 147.2656,142.75 L147.0938,142.6719 Z " fill="#FFFFFF"/><text fill="#FFFFFF" font-family="sans-serif" font-size="14" lengthAdjust="spacing" textLength="84" x="165.25" y="151.8467">Documento</text><line style="stroke:#E7E7E7;stroke-width:0.5;" x1="95" x2="287" y1="163" y2="163"/><text fill="#FFFFFF" font-family="sans-serif" font-size="14" lengthAdjust="spacing" textLength="37" x="100" y="179.9951">int id</text><text fill="#FFFFFF" font-family="sans-serif" font-size="14" lengthAdjust="spacing" textLength="84" x="100" y="196.292">Titulo titulo</text><text fill="#FFFFFF" font-family="sans-serif" font-size="14" lengthAdjust="spacing" textLength="78" x="100" y="212.5889">String tipo</text><text fill="#FFFFFF" font-family="sans-serif" font-size="14" lengthAdjust="spacing" textLength="92" x="100" y="228.8857">Autor[] autor</text><text fill="#FFFFFF" font-family="sans-serif" font-size="14" lengthAdjust="spacing" textLength="126" x="100" y="245.1826">String[] keywords</text><text fill="#FFFFFF" font-family="sans-serif" font-size="14" lengthAdjust="spacing" textLength="182" x="100" y="261.4795">String a&#241;o de publicacion</text><line style="stroke:#E7E7E7;stroke-width:0.5;" x1="95" x2="287" y1="268.7813" y2="268.7813"/></g><!--class Autor--><g id="elem_Autor"><rect codeLine="24" fill="#313139" height="80.5938" id="Autor" rx="2.5" ry="2.5" style="stroke:#E7E7E7;stroke-width:0.5;" width="100" x="7" y="337"/><ellipse cx="34.6" cy="353" fill="#2E5233" rx="11" ry="11" style="stroke:#E7E7E7;stroke-width:1.0;"/><path d="M36.9438,348.6719 C36.0063,348.2344 35.4125,348.0938 34.5375,348.0938 C31.9125,348.0938 29.9125,350.1719 29.9125,352.8906 L29.9125,354.0156 C29.9125,356.5938 32.0219,358.4844 34.9125,358.4844 C36.1313,358.4844 37.2875,358.1875 38.0375,357.6406 C38.6156,357.2344 38.9438,356.7813 38.9438,356.3906 C38.9438,355.9375 38.5531,355.5469 38.0844,355.5469 C37.8656,355.5469 37.6625,355.625 37.475,355.8125 C37.0219,356.2969 37.0219,356.2969 36.8344,356.3906 C36.4125,356.6563 35.725,356.7813 34.9594,356.7813 C32.9125,356.7813 31.6156,355.6875 31.6156,353.9844 L31.6156,352.8906 C31.6156,351.1094 32.8656,349.7969 34.6,349.7969 C35.1781,349.7969 35.7875,349.9531 36.2563,350.2031 C36.7406,350.4844 36.9125,350.7031 37.0063,351.1094 C37.0688,351.5156 37.1,351.6406 37.2406,351.7656 C37.3813,351.9063 37.6156,352.0156 37.8344,352.0156 C38.1,352.0156 38.3656,351.875 38.5375,351.6563 C38.6469,351.5 38.6781,351.3125 38.6781,350.8906 L38.6781,349.4688 C38.6781,349.0313 38.6625,348.9063 38.5688,348.75 C38.4125,348.4844 38.1313,348.3438 37.8344,348.3438 C37.5375,348.3438 37.3344,348.4375 37.1156,348.75 L36.9438,348.6719 Z " fill="#FFFFFF"/><text fill="#FFFFFF" font-family="sans-serif" font-size="14" lengthAdjust="spacing" textLength="40" x="51.4" y="357.8467">Autor</text><line style="stroke:#E7E7E7;stroke-width:0.5;" x1="8" x2="106" y1="369" y2="369"/><text fill="#FFFFFF" font-family="sans-serif" font-size="14" lengthAdjust="spacing" textLength="37" x="13" y="385.9951">int id</text><text fill="#FFFFFF" font-family="sans-serif" font-size="14" lengthAdjust="spacing" textLength="88" x="13" y="402.292">String name</text><line style="stroke:#E7E7E7;stroke-width:0.5;" x1="8" x2="106" y1="409.5938" y2="409.5938"/></g><!--class Titulo--><g id="elem_Titulo"><rect codeLine="19" fill="#313139" height="80.5938" id="Titulo" rx="2.5" ry="2.5" style="stroke:#E7E7E7;stroke-width:0.5;" width="98" x="142" y="337"/><ellipse cx="168.25" cy="353" fill="#2E5233" rx="11" ry="11" style="stroke:#E7E7E7;stroke-width:1.0;"/><path d="M170.5938,348.6719 C169.6563,348.2344 169.0625,348.0938 168.1875,348.0938 C165.5625,348.0938 163.5625,350.1719 163.5625,352.8906 L163.5625,354.0156 C163.5625,356.5938 165.6719,358.4844 168.5625,358.4844 C169.7813,358.4844 170.9375,358.1875 171.6875,357.6406 C172.2656,357.2344 172.5938,356.7813 172.5938,356.3906 C172.5938,355.9375 172.2031,355.5469 171.7344,355.5469 C171.5156,355.5469 171.3125,355.625 171.125,355.8125 C170.6719,356.2969 170.6719,356.2969 170.4844,356.3906 C170.0625,356.6563 169.375,356.7813 168.6094,356.7813 C166.5625,356.7813 165.2656,355.6875 165.2656,353.9844 L165.2656,352.8906 C165.2656,351.1094 166.5156,349.7969 168.25,349.7969 C168.8281,349.7969 169.4375,349.9531 169.9063,350.2031 C170.3906,350.4844 170.5625,350.7031 170.6563,351.1094 C170.7188,351.5156 170.75,351.6406 170.8906,351.7656 C171.0313,351.9063 171.2656,352.0156 171.4844,352.0156 C171.75,352.0156 172.0156,351.875 172.1875,351.6563 C172.2969,351.5 172.3281,351.3125 172.3281,350.8906 L172.3281,349.4688 C172.3281,349.0313 172.3125,348.9063 172.2188,348.75 C172.0625,348.4844 171.7813,348.3438 171.4844,348.3438 C171.1875,348.3438 170.9844,348.4375 170.7656,348.75 L170.5938,348.6719 Z " fill="#FFFFFF"/><text fill="#FFFFFF" font-family="sans-serif" font-size="14" lengthAdjust="spacing" textLength="41" x="184.75" y="357.8467">Titulo</text><line style="stroke:#E7E7E7;stroke-width:0.5;" x1="143" x2="239" y1="369" y2="369"/><text fill="#FFFFFF" font-family="sans-serif" font-size="14" lengthAdjust="spacing" textLength="37" x="148" y="385.9951">int id</text><text fill="#FFFFFF" font-family="sans-serif" font-size="14" lengthAdjust="spacing" textLength="86" x="148" y="402.292">string name</text><line style="stroke:#E7E7E7;stroke-width:0.5;" x1="143" x2="239" y1="409.5938" y2="409.5938"/></g><!--class Keywords--><g id="elem_Keywords"><rect codeLine="29" fill="#313139" height="80.5938" id="Keywords" rx="2.5" ry="2.5" style="stroke:#E7E7E7;stroke-width:0.5;" width="121" x="275.5" y="337"/><ellipse cx="299.5" cy="353" fill="#2E5233" rx="11" ry="11" style="stroke:#E7E7E7;stroke-width:1.0;"/><path d="M301.8438,348.6719 C300.9063,348.2344 300.3125,348.0938 299.4375,348.0938 C296.8125,348.0938 294.8125,350.1719 294.8125,352.8906 L294.8125,354.0156 C294.8125,356.5938 296.9219,358.4844 299.8125,358.4844 C301.0313,358.4844 302.1875,358.1875 302.9375,357.6406 C303.5156,357.2344 303.8438,356.7813 303.8438,356.3906 C303.8438,355.9375 303.4531,355.5469 302.9844,355.5469 C302.7656,355.5469 302.5625,355.625 302.375,355.8125 C301.9219,356.2969 301.9219,356.2969 301.7344,356.3906 C301.3125,356.6563 300.625,356.7813 299.8594,356.7813 C297.8125,356.7813 296.5156,355.6875 296.5156,353.9844 L296.5156,352.8906 C296.5156,351.1094 297.7656,349.7969 299.5,349.7969 C300.0781,349.7969 300.6875,349.9531 301.1563,350.2031 C301.6406,350.4844 301.8125,350.7031 301.9063,351.1094 C301.9688,351.5156 302,351.6406 302.1406,351.7656 C302.2813,351.9063 302.5156,352.0156 302.7344,352.0156 C303,352.0156 303.2656,351.875 303.4375,351.6563 C303.5469,351.5 303.5781,351.3125 303.5781,350.8906 L303.5781,349.4688 C303.5781,349.0313 303.5625,348.9063 303.4688,348.75 C303.3125,348.4844 303.0313,348.3438 302.7344,348.3438 C302.4375,348.3438 302.2344,348.4375 302.0156,348.75 L301.8438,348.6719 Z " fill="#FFFFFF"/><text fill="#FFFFFF" font-family="sans-serif" font-size="14" lengthAdjust="spacing" textLength="69" x="315.5" y="357.8467">Keywords</text><line style="stroke:#E7E7E7;stroke-width:0.5;" x1="276.5" x2="395.5" y1="369" y2="369"/><text fill="#FFFFFF" font-family="sans-serif" font-size="14" lengthAdjust="spacing" textLength="37" x="281.5" y="385.9951">int id</text><text fill="#FFFFFF" font-family="sans-serif" font-size="14" lengthAdjust="spacing" textLength="109" x="281.5" y="402.292">String keyword</text><line style="stroke:#E7E7E7;stroke-width:0.5;" x1="276.5" x2="395.5" y1="409.5938" y2="409.5938"/></g><!--link Biblioteca to Documento--><g id="link_Biblioteca_Documento"><path codeLine="1" d="M191,71.043 C191,88.039 191,109.861 191,130.846 " fill="none" id="Biblioteca-Documento" style="stroke:#E7E7E7;stroke-width:1.0;"/></g><!--link Documento to Autor--><g id="link_Documento_Autor"><path codeLine="2" d="M134.56,277.234 C118.682,297.557 101.991,318.9182 88.178,336.5968 " fill="none" id="Documento-Autor" style="stroke:#E7E7E7;stroke-width:1.0;"/></g><!--link Documento to Titulo--><g id="link_Documento_Titulo"><path codeLine="3" d="M191,277.234 C191,297.557 191,318.9182 191,336.5968 " fill="none" id="Documento-Titulo" style="stroke:#E7E7E7;stroke-width:1.0;"/></g><!--link Documento to Keywords--><g id="link_Documento_Keywords"><path codeLine="4" d="M252.073,277.234 C269.255,297.557 287.316,318.9182 302.263,336.5968 " fill="none" id="Documento-Keywords" style="stroke:#E7E7E7;stroke-width:1.0;"/></g><!--SRC=[ROzB3i8W48RtSugvG6zWJ7piT5TtnWK2CHDRfYb3Z6bwAC_WnQobXVZOCSF7__siwLmHYzKAYmAth4DjdJ2aqtkz2iBjv-f04gelR6VlDswD1zXKodjSv-mEzkHbaV0bcgJgPpw7TK1Ea0n43KgqbTAIkmnJmp1sEfvGZTtYpJ1UvmuJgvuFHcEn2KCNhJInoy8fFTbyVEDKRJCqYZ9J_cFcd_zWKnteNm00]--></g></svg>