<?xml version="1.0" encoding="us-ascii" standalone="no"?><svg xmlns="http://www.w3.org/2000/svg" xmlns:xlink="http://www.w3.org/1999/xlink" contentStyleType="text/css" height="1517px" preserveAspectRatio="none" style="width:1513px;height:1517px;background:#FFFFFF;" version="1.1" viewBox="0 0 1513 1517" width="1513px" zoomAndPan="magnify"><defs/><g><!--class Author--><g id="elem_Author"><rect codeLine="1" fill="#F1F1F1" height="188.875" id="Author" rx="2.5" ry="2.5" style="stroke:#181818;stroke-width:0.5;" width="303" x="7" y="1018.5"/><ellipse cx="133.25" cy="1034.5" fill="#ADD1B2" rx="11" ry="11" style="stroke:#181818;stroke-width:1.0;"/><path d="M136.0156,1030.375 Q136.1719,1030.1563 136.3594,1030.0469 Q136.5469,1029.9375 136.7656,1029.9375 Q137.1406,1029.9375 137.375,1030.2031 Q137.6094,1030.4531 137.6094,1031.0625 L137.6094,1032.5156 Q137.6094,1033.125 137.375,1033.3906 Q137.1406,1033.6563 136.7656,1033.6563 Q136.4219,1033.6563 136.2188,1033.4531 Q136.0156,1033.2656 135.9063,1032.75 Q135.8594,1032.3906 135.6719,1032.2031 Q135.3438,1031.8281 134.7344,1031.6094 Q134.125,1031.3906 133.5,1031.3906 Q132.7344,1031.3906 132.0938,1031.7188 Q131.4688,1032.0469 130.9688,1032.7969 Q130.4844,1033.5469 130.4844,1034.5781 L130.4844,1035.6719 Q130.4844,1036.9063 131.375,1037.7344 Q132.2656,1038.5469 133.8594,1038.5469 Q134.7969,1038.5469 135.4531,1038.2969 Q135.8438,1038.1406 136.2656,1037.7031 Q136.5313,1037.4375 136.6719,1037.3594 Q136.8281,1037.2813 137.0313,1037.2813 Q137.3594,1037.2813 137.6094,1037.5469 Q137.875,1037.7969 137.875,1038.1406 Q137.875,1038.4844 137.5313,1038.8906 Q137.0313,1039.4688 136.2344,1039.7969 Q135.1563,1040.25 133.8594,1040.25 Q132.3438,1040.25 131.1406,1039.625 Q130.1563,1039.125 129.4688,1038.0625 Q128.7813,1036.9844 128.7813,1035.7031 L128.7813,1034.5469 Q128.7813,1033.2188 129.3906,1032.0781 Q130.0156,1030.9219 131.1094,1030.3125 Q132.2031,1029.6875 133.4375,1029.6875 Q134.1719,1029.6875 134.8125,1029.8594 Q135.4688,1030.0156 136.0156,1030.375 Z " fill="#000000"/><text fill="#000000" font-family="sans-serif" font-size="14" lengthAdjust="spacing" textLength="42" x="153.75" y="1040.2285">Author</text><line style="stroke:#181818;stroke-width:0.5;" x1="8" x2="309" y1="1050.5" y2="1050.5"/><rect fill="none" height="6" style="stroke:#C82930;stroke-width:1.0;" width="6" x="15" y="1061.8047"/><text fill="#000000" font-family="sans-serif" font-size="14" lengthAdjust="spacing" textLength="30" x="27" y="1069.0332">int id</text><rect fill="none" height="6" style="stroke:#C82930;stroke-width:1.0;" width="6" x="15" y="1079.4141"/><text fill="#000000" font-family="sans-serif" font-size="14" lengthAdjust="spacing" textLength="76" x="27" y="1086.6426">String name</text><rect fill="none" height="6" style="stroke:#C82930;stroke-width:1.0;" width="6" x="15" y="1097.0234"/><text fill="#000000" font-family="sans-serif" font-size="14" lengthAdjust="spacing" textLength="103" x="27" y="1104.252">String surnames</text><line style="stroke:#181818;stroke-width:0.5;" x1="8" x2="309" y1="1111.3281" y2="1111.3281"/><ellipse cx="18" cy="1125.6328" fill="#84BE84" rx="3" ry="3" style="stroke:#038048;stroke-width:1.0;"/><text fill="#000000" font-family="sans-serif" font-size="14" lengthAdjust="spacing" textLength="277" x="27" y="1129.8613">Author(int id, String name, String surnames)</text><ellipse cx="18" cy="1143.2422" fill="#84BE84" rx="3" ry="3" style="stroke:#038048;stroke-width:1.0;"/><text fill="#000000" font-family="sans-serif" font-size="14" lengthAdjust="spacing" textLength="60" x="27" y="1147.4707">int getId()</text><ellipse cx="18" cy="1160.8516" fill="#84BE84" rx="3" ry="3" style="stroke:#038048;stroke-width:1.0;"/><text fill="#000000" font-family="sans-serif" font-size="14" lengthAdjust="spacing" textLength="107" x="27" y="1165.0801">String getName()</text><ellipse cx="18" cy="1178.4609" fill="#84BE84" rx="3" ry="3" style="stroke:#038048;stroke-width:1.0;"/><text fill="#000000" font-family="sans-serif" font-size="14" lengthAdjust="spacing" textLength="135" x="27" y="1182.6895">String getSurnames()</text><ellipse cx="18" cy="1196.0703" fill="#84BE84" rx="3" ry="3" style="stroke:#038048;stroke-width:1.0;"/><text fill="#000000" font-family="sans-serif" font-size="14" lengthAdjust="spacing" textLength="142" x="27" y="1200.2988">String toStringAuthor()</text></g><!--class Document--><g id="elem_Document"><rect codeLine="12" fill="#F1F1F1" height="329.75" id="Document" rx="2.5" ry="2.5" style="stroke:#181818;stroke-width:0.5;" width="712" x="794.5" y="948"/><ellipse cx="1114.25" cy="964" fill="#ADD1B2" rx="11" ry="11" style="stroke:#181818;stroke-width:1.0;"/><path d="M1117.0156,959.875 Q1117.1719,959.6563 1117.3594,959.5469 Q1117.5469,959.4375 1117.7656,959.4375 Q1118.1406,959.4375 1118.375,959.7031 Q1118.6094,959.9531 1118.6094,960.5625 L1118.6094,962.0156 Q1118.6094,962.625 1118.375,962.8906 Q1118.1406,963.1563 1117.7656,963.1563 Q1117.4219,963.1563 1117.2188,962.9531 Q1117.0156,962.7656 1116.9063,962.25 Q1116.8594,961.8906 1116.6719,961.7031 Q1116.3438,961.3281 1115.7344,961.1094 Q1115.125,960.8906 1114.5,960.8906 Q1113.7344,960.8906 1113.0938,961.2188 Q1112.4688,961.5469 1111.9688,962.2969 Q1111.4844,963.0469 1111.4844,964.0781 L1111.4844,965.1719 Q1111.4844,966.4063 1112.375,967.2344 Q1113.2656,968.0469 1114.8594,968.0469 Q1115.7969,968.0469 1116.4531,967.7969 Q1116.8438,967.6406 1117.2656,967.2031 Q1117.5313,966.9375 1117.6719,966.8594 Q1117.8281,966.7813 1118.0313,966.7813 Q1118.3594,966.7813 1118.6094,967.0469 Q1118.875,967.2969 1118.875,967.6406 Q1118.875,967.9844 1118.5313,968.3906 Q1118.0313,968.9688 1117.2344,969.2969 Q1116.1563,969.75 1114.8594,969.75 Q1113.3438,969.75 1112.1406,969.125 Q1111.1563,968.625 1110.4688,967.5625 Q1109.7813,966.4844 1109.7813,965.2031 L1109.7813,964.0469 Q1109.7813,962.7188 1110.3906,961.5781 Q1111.0156,960.4219 1112.1094,959.8125 Q1113.2031,959.1875 1114.4375,959.1875 Q1115.1719,959.1875 1115.8125,959.3594 Q1116.4688,959.5156 1117.0156,959.875 Z " fill="#000000"/><text fill="#000000" font-family="sans-serif" font-size="14" lengthAdjust="spacing" textLength="64" x="1134.75" y="969.7285">Document</text><line style="stroke:#181818;stroke-width:0.5;" x1="795.5" x2="1505.5" y1="980" y2="980"/><rect fill="none" height="6" style="stroke:#C82930;stroke-width:1.0;" width="6" x="802.5" y="991.3047"/><text fill="#000000" font-family="sans-serif" font-size="14" lengthAdjust="spacing" textLength="30" x="814.5" y="998.5332">int id</text><rect fill="none" height="6" style="stroke:#C82930;stroke-width:1.0;" width="6" x="802.5" y="1008.9141"/><text fill="#000000" font-family="sans-serif" font-size="14" lengthAdjust="spacing" textLength="63" x="814.5" y="1016.1426">String title</text><rect fill="none" height="6" style="stroke:#C82930;stroke-width:1.0;" width="6" x="802.5" y="1026.5234"/><text fill="#000000" font-family="sans-serif" font-size="14" lengthAdjust="spacing" textLength="113" x="814.5" y="1033.752">int publishingYear</text><rect fill="none" height="6" style="stroke:#C82930;stroke-width:1.0;" width="6" x="802.5" y="1044.1328"/><text fill="#000000" font-family="sans-serif" font-size="14" lengthAdjust="spacing" textLength="194" x="814.5" y="1051.3613">DocumentType documentType</text><rect fill="none" height="6" style="stroke:#C82930;stroke-width:1.0;" width="6" x="802.5" y="1061.7422"/><text fill="#000000" font-family="sans-serif" font-size="14" lengthAdjust="spacing" textLength="172" x="814.5" y="1068.9707">ArrayList&lt;String&gt; keywords</text><line style="stroke:#181818;stroke-width:0.5;" x1="795.5" x2="1505.5" y1="1076.0469" y2="1076.0469"/><ellipse cx="805.5" cy="1090.3516" fill="#84BE84" rx="3" ry="3" style="stroke:#038048;stroke-width:1.0;"/><text fill="#000000" font-family="sans-serif" font-size="14" lengthAdjust="spacing" textLength="686" x="814.5" y="1094.5801">Document(int id, String title, int publishingYear, DocumentType documentType, ArrayList&lt;String&gt; keyWords )</text><ellipse cx="805.5" cy="1107.9609" fill="#84BE84" rx="3" ry="3" style="stroke:#038048;stroke-width:1.0;"/><text fill="#000000" font-family="sans-serif" font-size="14" lengthAdjust="spacing" textLength="60" x="814.5" y="1112.1895">int getId()</text><ellipse cx="805.5" cy="1125.5703" fill="#84BE84" rx="3" ry="3" style="stroke:#038048;stroke-width:1.0;"/><text fill="#000000" font-family="sans-serif" font-size="14" lengthAdjust="spacing" textLength="98" x="814.5" y="1129.7988">String getTitle()</text><ellipse cx="805.5" cy="1143.1797" fill="#84BE84" rx="3" ry="3" style="stroke:#038048;stroke-width:1.0;"/><text fill="#000000" font-family="sans-serif" font-size="14" lengthAdjust="spacing" textLength="162" x="814.5" y="1147.4082">void setTitle(String name)</text><ellipse cx="805.5" cy="1160.7891" fill="#84BE84" rx="3" ry="3" style="stroke:#038048;stroke-width:1.0;"/><text fill="#000000" font-family="sans-serif" font-size="14" lengthAdjust="spacing" textLength="144" x="814.5" y="1165.0176">int getPublishingYear()</text><ellipse cx="805.5" cy="1178.3984" fill="#84BE84" rx="3" ry="3" style="stroke:#038048;stroke-width:1.0;"/><text fill="#000000" font-family="sans-serif" font-size="14" lengthAdjust="spacing" textLength="201" x="814.5" y="1182.627">void setPublishingYear(int year)</text><ellipse cx="805.5" cy="1196.0078" fill="#84BE84" rx="3" ry="3" style="stroke:#038048;stroke-width:1.0;"/><text fill="#000000" font-family="sans-serif" font-size="14" lengthAdjust="spacing" textLength="226" x="814.5" y="1200.2363">DocumentType getDocumentType()</text><ellipse cx="805.5" cy="1213.6172" fill="#84BE84" rx="3" ry="3" style="stroke:#038048;stroke-width:1.0;"/><text fill="#000000" font-family="sans-serif" font-size="14" lengthAdjust="spacing" textLength="208" x="814.5" y="1217.8457">ArrayList&lt;String&gt; getKeyWords()</text><ellipse cx="805.5" cy="1231.2266" fill="#84BE84" rx="3" ry="3" style="stroke:#038048;stroke-width:1.0;"/><text fill="#000000" font-family="sans-serif" font-size="14" lengthAdjust="spacing" textLength="234" x="814.5" y="1235.4551">int searchKeyWordIndex(String word)</text><ellipse cx="805.5" cy="1248.8359" fill="#84BE84" rx="3" ry="3" style="stroke:#038048;stroke-width:1.0;"/><text fill="#000000" font-family="sans-serif" font-size="14" lengthAdjust="spacing" textLength="165" x="814.5" y="1253.0645">String toStringKeyWords()</text><ellipse cx="805.5" cy="1266.4453" fill="#84BE84" rx="3" ry="3" style="stroke:#038048;stroke-width:1.0;"/><text fill="#000000" font-family="sans-serif" font-size="14" lengthAdjust="spacing" textLength="164" x="814.5" y="1270.6738">String toStringDocument()</text></g><!--class DocumentAuthor--><g id="elem_DocumentAuthor"><rect codeLine="31" fill="#F1F1F1" height="136.0469" id="DocumentAuthor" rx="2.5" ry="2.5" style="stroke:#181818;stroke-width:0.5;" width="313" x="396" y="1045"/><ellipse cx="495.25" cy="1061" fill="#ADD1B2" rx="11" ry="11" style="stroke:#181818;stroke-width:1.0;"/><path d="M498.0156,1056.875 Q498.1719,1056.6563 498.3594,1056.5469 Q498.5469,1056.4375 498.7656,1056.4375 Q499.1406,1056.4375 499.375,1056.7031 Q499.6094,1056.9531 499.6094,1057.5625 L499.6094,1059.0156 Q499.6094,1059.625 499.375,1059.8906 Q499.1406,1060.1563 498.7656,1060.1563 Q498.4219,1060.1563 498.2188,1059.9531 Q498.0156,1059.7656 497.9063,1059.25 Q497.8594,1058.8906 497.6719,1058.7031 Q497.3438,1058.3281 496.7344,1058.1094 Q496.125,1057.8906 495.5,1057.8906 Q494.7344,1057.8906 494.0938,1058.2188 Q493.4688,1058.5469 492.9688,1059.2969 Q492.4844,1060.0469 492.4844,1061.0781 L492.4844,1062.1719 Q492.4844,1063.4063 493.375,1064.2344 Q494.2656,1065.0469 495.8594,1065.0469 Q496.7969,1065.0469 497.4531,1064.7969 Q497.8438,1064.6406 498.2656,1064.2031 Q498.5313,1063.9375 498.6719,1063.8594 Q498.8281,1063.7813 499.0313,1063.7813 Q499.3594,1063.7813 499.6094,1064.0469 Q499.875,1064.2969 499.875,1064.6406 Q499.875,1064.9844 499.5313,1065.3906 Q499.0313,1065.9688 498.2344,1066.2969 Q497.1563,1066.75 495.8594,1066.75 Q494.3438,1066.75 493.1406,1066.125 Q492.1563,1065.625 491.4688,1064.5625 Q490.7813,1063.4844 490.7813,1062.2031 L490.7813,1061.0469 Q490.7813,1059.7188 491.3906,1058.5781 Q492.0156,1057.4219 493.1094,1056.8125 Q494.2031,1056.1875 495.4375,1056.1875 Q496.1719,1056.1875 496.8125,1056.3594 Q497.4688,1056.5156 498.0156,1056.875 Z " fill="#000000"/><text fill="#000000" font-family="sans-serif" font-size="14" lengthAdjust="spacing" textLength="106" x="515.75" y="1066.7285">DocumentAuthor</text><line style="stroke:#181818;stroke-width:0.5;" x1="397" x2="708" y1="1077" y2="1077"/><rect fill="none" height="6" style="stroke:#C82930;stroke-width:1.0;" width="6" x="404" y="1088.3047"/><text fill="#000000" font-family="sans-serif" font-size="14" lengthAdjust="spacing" textLength="92" x="416" y="1095.5332">int documentId</text><rect fill="none" height="6" style="stroke:#C82930;stroke-width:1.0;" width="6" x="404" y="1105.9141"/><text fill="#000000" font-family="sans-serif" font-size="14" lengthAdjust="spacing" textLength="71" x="416" y="1113.1426">int authorId</text><line style="stroke:#181818;stroke-width:0.5;" x1="397" x2="708" y1="1120.2188" y2="1120.2188"/><ellipse cx="407" cy="1134.5234" fill="#84BE84" rx="3" ry="3" style="stroke:#038048;stroke-width:1.0;"/><text fill="#000000" font-family="sans-serif" font-size="14" lengthAdjust="spacing" textLength="287" x="416" y="1138.752">DocumentAuthor(int documentId, int authorId)</text><ellipse cx="407" cy="1152.1328" fill="#84BE84" rx="3" ry="3" style="stroke:#038048;stroke-width:1.0;"/><text fill="#000000" font-family="sans-serif" font-size="14" lengthAdjust="spacing" textLength="124" x="416" y="1156.3613">int getDocumentId()</text><ellipse cx="407" cy="1169.7422" fill="#84BE84" rx="3" ry="3" style="stroke:#038048;stroke-width:1.0;"/><text fill="#000000" font-family="sans-serif" font-size="14" lengthAdjust="spacing" textLength="102" x="416" y="1173.9707">int getAuthorId()</text></g><!--class DocumentType--><g id="elem_DocumentType"><rect codeLine="40" fill="#F1F1F1" height="171.2656" id="DocumentType" rx="2.5" ry="2.5" style="stroke:#181818;stroke-width:0.5;" width="303" x="999" y="1339"/><ellipse cx="1098.25" cy="1355" fill="#EB937F" rx="11" ry="11" style="stroke:#181818;stroke-width:1.0;"/><path d="M1097.1094,1355.7969 L1097.1094,1358.2969 L1101.4375,1358.2969 L1101.4375,1357.375 Q1101.4375,1356.7656 1101.6719,1356.5 Q1101.9219,1356.2344 1102.2969,1356.2344 Q1102.6719,1356.2344 1102.9063,1356.5 Q1103.1406,1356.7656 1103.1406,1357.375 L1103.1406,1360 L1095.1406,1360 Q1094.5156,1360 1094.25,1359.7656 Q1094,1359.5313 1094,1359.1406 Q1094,1358.7656 1094.2656,1358.5313 Q1094.5313,1358.2969 1095.1406,1358.2969 L1095.4063,1358.2969 L1095.4063,1351.6406 L1095.1406,1351.6406 Q1094.5156,1351.6406 1094.25,1351.4063 Q1094,1351.1719 1094,1350.7813 Q1094,1350.4063 1094.25,1350.1719 Q1094.5156,1349.9375 1095.1406,1349.9375 L1102.7656,1349.9375 L1102.7656,1352.5313 Q1102.7656,1353.1406 1102.5313,1353.4063 Q1102.3125,1353.6563 1101.9219,1353.6563 Q1101.5469,1353.6563 1101.3125,1353.4063 Q1101.0781,1353.1406 1101.0781,1352.5313 L1101.0781,1351.6406 L1097.1094,1351.6406 L1097.1094,1354.0938 L1098.5938,1354.0938 Q1098.5938,1353.4375 1098.7188,1353.25 Q1098.9844,1352.8438 1099.4531,1352.8438 Q1099.8281,1352.8438 1100.0625,1353.1094 Q1100.2969,1353.3594 1100.2969,1353.9688 L1100.2969,1355.9375 Q1100.2969,1356.4844 1100.1719,1356.6719 Q1099.9063,1357.0625 1099.4531,1357.0625 Q1098.9844,1357.0625 1098.7188,1356.6563 Q1098.5938,1356.4688 1098.5938,1355.7969 L1097.1094,1355.7969 Z " fill="#000000"/><text fill="#000000" font-family="sans-serif" font-size="14" lengthAdjust="spacing" textLength="96" x="1118.75" y="1360.7285">DocumentType</text><line style="stroke:#181818;stroke-width:0.5;" x1="1000" x2="1301" y1="1371" y2="1371"/><text fill="#000000" font-family="sans-serif" font-size="14" lengthAdjust="spacing" textLength="40" x="1019" y="1389.5332">BOOK</text><text fill="#000000" font-family="sans-serif" font-size="14" lengthAdjust="spacing" textLength="69" x="1019" y="1407.1426">MAGAZINE</text><text fill="#000000" font-family="sans-serif" font-size="14" lengthAdjust="spacing" textLength="58" x="1019" y="1424.752">ARTICLE</text><text fill="#000000" font-family="sans-serif" font-size="14" lengthAdjust="spacing" textLength="128" x="1019" y="1442.3613">SCIENTIFIC_PAPER</text><rect fill="none" height="6" style="stroke:#C82930;stroke-width:1.0;" width="6" x="1007" y="1452.7422"/><text fill="#000000" font-family="sans-serif" font-size="14" lengthAdjust="spacing" textLength="171" x="1019" y="1459.9707">String documentTypeName</text><line style="stroke:#181818;stroke-width:0.5;" x1="1000" x2="1301" y1="1467.0469" y2="1467.0469"/><ellipse cx="1010" cy="1481.3516" fill="#84BE84" rx="3" ry="3" style="stroke:#038048;stroke-width:1.0;"/><text fill="#000000" font-family="sans-serif" font-size="14" lengthAdjust="spacing" textLength="277" x="1019" y="1485.5801">DocumentType(String documentTypeName)</text><ellipse cx="1010" cy="1498.9609" fill="#84BE84" rx="3" ry="3" style="stroke:#038048;stroke-width:1.0;"/><text fill="#000000" font-family="sans-serif" font-size="14" lengthAdjust="spacing" textLength="203" x="1019" y="1503.1895">String getDocumentTypeName()</text></g><!--class Library--><g id="elem_Library"><rect codeLine="50" fill="#F1F1F1" height="541.0625" id="Library" rx="2.5" ry="2.5" style="stroke:#181818;stroke-width:0.5;" width="468" x="318.5" y="329"/><ellipse cx="526.25" cy="345" fill="#ADD1B2" rx="11" ry="11" style="stroke:#181818;stroke-width:1.0;"/><path d="M529.0156,340.875 Q529.1719,340.6563 529.3594,340.5469 Q529.5469,340.4375 529.7656,340.4375 Q530.1406,340.4375 530.375,340.7031 Q530.6094,340.9531 530.6094,341.5625 L530.6094,343.0156 Q530.6094,343.625 530.375,343.8906 Q530.1406,344.1563 529.7656,344.1563 Q529.4219,344.1563 529.2188,343.9531 Q529.0156,343.7656 528.9063,343.25 Q528.8594,342.8906 528.6719,342.7031 Q528.3438,342.3281 527.7344,342.1094 Q527.125,341.8906 526.5,341.8906 Q525.7344,341.8906 525.0938,342.2188 Q524.4688,342.5469 523.9688,343.2969 Q523.4844,344.0469 523.4844,345.0781 L523.4844,346.1719 Q523.4844,347.4063 524.375,348.2344 Q525.2656,349.0469 526.8594,349.0469 Q527.7969,349.0469 528.4531,348.7969 Q528.8438,348.6406 529.2656,348.2031 Q529.5313,347.9375 529.6719,347.8594 Q529.8281,347.7813 530.0313,347.7813 Q530.3594,347.7813 530.6094,348.0469 Q530.875,348.2969 530.875,348.6406 Q530.875,348.9844 530.5313,349.3906 Q530.0313,349.9688 529.2344,350.2969 Q528.1563,350.75 526.8594,350.75 Q525.3438,350.75 524.1406,350.125 Q523.1563,349.625 522.4688,348.5625 Q521.7813,347.4844 521.7813,346.2031 L521.7813,345.0469 Q521.7813,343.7188 522.3906,342.5781 Q523.0156,341.4219 524.1094,340.8125 Q525.2031,340.1875 526.4375,340.1875 Q527.1719,340.1875 527.8125,340.3594 Q528.4688,340.5156 529.0156,340.875 Z " fill="#000000"/><text fill="#000000" font-family="sans-serif" font-size="14" lengthAdjust="spacing" textLength="44" x="546.75" y="350.7285">Library</text><line style="stroke:#181818;stroke-width:0.5;" x1="319.5" x2="785.5" y1="361" y2="361"/><rect fill="none" height="6" style="stroke:#C82930;stroke-width:1.0;" width="6" x="326.5" y="372.3047"/><text fill="#000000" font-family="sans-serif" font-size="14" lengthAdjust="spacing" textLength="209" x="338.5" y="379.5332">ArrayList&lt;Document&gt; documents</text><rect fill="none" height="6" style="stroke:#C82930;stroke-width:1.0;" width="6" x="326.5" y="389.9141"/><text fill="#000000" font-family="sans-serif" font-size="14" lengthAdjust="spacing" textLength="166" x="338.5" y="397.1426">ArrayList&lt;Author&gt; authors</text><rect fill="none" height="6" style="stroke:#C82930;stroke-width:1.0;" width="6" x="326.5" y="407.5234"/><text fill="#000000" font-family="sans-serif" font-size="14" lengthAdjust="spacing" textLength="236" x="338.5" y="414.752">ArrayList&lt;DocumentAuthor&gt; relations</text><rect fill="none" height="6" style="stroke:#C82930;stroke-width:1.0;" width="6" x="326.5" y="425.1328"/><text fill="#000000" font-family="sans-serif" font-size="14" lengthAdjust="spacing" textLength="116" x="338.5" y="432.3613">Scanner userInput</text><line style="stroke:#181818;stroke-width:0.5;" x1="319.5" x2="785.5" y1="439.4375" y2="439.4375"/><ellipse cx="329.5" cy="453.7422" fill="#84BE84" rx="3" ry="3" style="stroke:#038048;stroke-width:1.0;"/><text fill="#000000" font-family="sans-serif" font-size="14" lengthAdjust="spacing" textLength="54" x="338.5" y="457.9707">Library()</text><ellipse cx="329.5" cy="471.3516" fill="#84BE84" rx="3" ry="3" style="stroke:#038048;stroke-width:1.0;"/><text fill="#000000" font-family="sans-serif" font-size="14" lengthAdjust="spacing" textLength="258" x="338.5" y="475.5801">void addDocument(Document document)</text><ellipse cx="329.5" cy="488.9609" fill="#84BE84" rx="3" ry="3" style="stroke:#038048;stroke-width:1.0;"/><text fill="#000000" font-family="sans-serif" font-size="14" lengthAdjust="spacing" textLength="144" x="338.5" y="493.1895">void createDocument()</text><ellipse cx="329.5" cy="506.5703" fill="#84BE84" rx="3" ry="3" style="stroke:#038048;stroke-width:1.0;"/><text fill="#000000" font-family="sans-serif" font-size="14" lengthAdjust="spacing" textLength="193" x="338.5" y="510.7988">void addAuthor(Author author)</text><ellipse cx="329.5" cy="524.1797" fill="#84BE84" rx="3" ry="3" style="stroke:#038048;stroke-width:1.0;"/><text fill="#000000" font-family="sans-serif" font-size="14" lengthAdjust="spacing" textLength="236" x="338.5" y="528.4082">void addAuthor(Document document)</text><ellipse cx="329.5" cy="541.7891" fill="#84BE84" rx="3" ry="3" style="stroke:#038048;stroke-width:1.0;"/><text fill="#000000" font-family="sans-serif" font-size="14" lengthAdjust="spacing" textLength="287" x="338.5" y="546.0176">void addRelation(int documentId, int authorId)</text><ellipse cx="329.5" cy="559.3984" fill="#84BE84" rx="3" ry="3" style="stroke:#038048;stroke-width:1.0;"/><text fill="#000000" font-family="sans-serif" font-size="14" lengthAdjust="spacing" textLength="242" x="338.5" y="563.627">Document searchDocumentById(int id)</text><ellipse cx="329.5" cy="577.0078" fill="#84BE84" rx="3" ry="3" style="stroke:#038048;stroke-width:1.0;"/><text fill="#000000" font-family="sans-serif" font-size="14" lengthAdjust="spacing" textLength="376" x="338.5" y="581.2363">Document searchDocumentByName(String documentName)</text><ellipse cx="329.5" cy="594.6172" fill="#84BE84" rx="3" ry="3" style="stroke:#038048;stroke-width:1.0;"/><text fill="#000000" font-family="sans-serif" font-size="14" lengthAdjust="spacing" textLength="198" x="338.5" y="598.8457">Author searchAuthorById(int id)</text><ellipse cx="329.5" cy="612.2266" fill="#84BE84" rx="3" ry="3" style="stroke:#038048;stroke-width:1.0;"/><text fill="#000000" font-family="sans-serif" font-size="14" lengthAdjust="spacing" textLength="269" x="338.5" y="616.4551">Author searchAuthorByName(String name)</text><ellipse cx="329.5" cy="629.8359" fill="#84BE84" rx="3" ry="3" style="stroke:#038048;stroke-width:1.0;"/><text fill="#000000" font-family="sans-serif" font-size="14" lengthAdjust="spacing" textLength="381" x="338.5" y="634.0645">ArrayList&lt;Document&gt; getDocumentsByAuthorId(int authorId)</text><ellipse cx="329.5" cy="647.4453" fill="#84BE84" rx="3" ry="3" style="stroke:#038048;stroke-width:1.0;"/><text fill="#000000" font-family="sans-serif" font-size="14" lengthAdjust="spacing" textLength="380" x="338.5" y="651.6738">ArrayList&lt;Author&gt; getAuthorsByDocumentId(int documentId)</text><ellipse cx="329.5" cy="665.0547" fill="#84BE84" rx="3" ry="3" style="stroke:#038048;stroke-width:1.0;"/><text fill="#000000" font-family="sans-serif" font-size="14" lengthAdjust="spacing" textLength="369" x="338.5" y="669.2832">void editDocumentName(String oldName, String newName)</text><ellipse cx="329.5" cy="682.6641" fill="#84BE84" rx="3" ry="3" style="stroke:#038048;stroke-width:1.0;"/><text fill="#000000" font-family="sans-serif" font-size="14" lengthAdjust="spacing" textLength="293" x="338.5" y="686.8926">void editDocumentName(Document document)</text><ellipse cx="329.5" cy="700.2734" fill="#84BE84" rx="3" ry="3" style="stroke:#038048;stroke-width:1.0;"/><text fill="#000000" font-family="sans-serif" font-size="14" lengthAdjust="spacing" textLength="303" x="338.5" y="704.502">void editPublishingYear(String title, int newYear)</text><ellipse cx="329.5" cy="717.8828" fill="#84BE84" rx="3" ry="3" style="stroke:#038048;stroke-width:1.0;"/><text fill="#000000" font-family="sans-serif" font-size="14" lengthAdjust="spacing" textLength="288" x="338.5" y="722.1113">void editPublishingYear(Document document)</text><ellipse cx="329.5" cy="735.4922" fill="#84BE84" rx="3" ry="3" style="stroke:#038048;stroke-width:1.0;"/><text fill="#000000" font-family="sans-serif" font-size="14" lengthAdjust="spacing" textLength="442" x="338.5" y="739.7207">void editKeyWord(String title, String oldKeyWord, String newKeyWord)</text><ellipse cx="329.5" cy="753.1016" fill="#84BE84" rx="3" ry="3" style="stroke:#038048;stroke-width:1.0;"/><text fill="#000000" font-family="sans-serif" font-size="14" lengthAdjust="spacing" textLength="251" x="338.5" y="757.3301">void editKeyWord(Document document)</text><ellipse cx="329.5" cy="770.7109" fill="#84BE84" rx="3" ry="3" style="stroke:#038048;stroke-width:1.0;"/><text fill="#000000" font-family="sans-serif" font-size="14" lengthAdjust="spacing" textLength="127" x="338.5" y="774.9395">void editDocument()</text><ellipse cx="329.5" cy="788.3203" fill="#84BE84" rx="3" ry="3" style="stroke:#038048;stroke-width:1.0;"/><text fill="#000000" font-family="sans-serif" font-size="14" lengthAdjust="spacing" textLength="165" x="338.5" y="792.5488">void deleteAllDocuments()</text><ellipse cx="329.5" cy="805.9297" fill="#84BE84" rx="3" ry="3" style="stroke:#038048;stroke-width:1.0;"/><text fill="#000000" font-family="sans-serif" font-size="14" lengthAdjust="spacing" textLength="143" x="338.5" y="810.1582">void deleteAllAuthors()</text><ellipse cx="329.5" cy="823.5391" fill="#84BE84" rx="3" ry="3" style="stroke:#038048;stroke-width:1.0;"/><text fill="#000000" font-family="sans-serif" font-size="14" lengthAdjust="spacing" textLength="153" x="338.5" y="827.7676">void deleteAllRelations()</text><ellipse cx="329.5" cy="841.1484" fill="#84BE84" rx="3" ry="3" style="stroke:#038048;stroke-width:1.0;"/><text fill="#000000" font-family="sans-serif" font-size="14" lengthAdjust="spacing" textLength="143" x="338.5" y="845.377">void showDocuments()</text><ellipse cx="329.5" cy="858.7578" fill="#84BE84" rx="3" ry="3" style="stroke:#038048;stroke-width:1.0;"/><text fill="#000000" font-family="sans-serif" font-size="14" lengthAdjust="spacing" textLength="121" x="338.5" y="862.9863">void showAuthors()</text></g><!--class LibraryManager--><g id="elem_LibraryManager"><rect codeLine="81" fill="#F1F1F1" height="118.4375" id="LibraryManager" rx="2.5" ry="2.5" style="stroke:#181818;stroke-width:0.5;" width="161" x="472" y="133"/><ellipse cx="500.05" cy="149" fill="#ADD1B2" rx="11" ry="11" style="stroke:#181818;stroke-width:1.0;"/><path d="M502.8156,144.875 Q502.9719,144.6563 503.1594,144.5469 Q503.3469,144.4375 503.5656,144.4375 Q503.9406,144.4375 504.175,144.7031 Q504.4094,144.9531 504.4094,145.5625 L504.4094,147.0156 Q504.4094,147.625 504.175,147.8906 Q503.9406,148.1563 503.5656,148.1563 Q503.2219,148.1563 503.0188,147.9531 Q502.8156,147.7656 502.7063,147.25 Q502.6594,146.8906 502.4719,146.7031 Q502.1438,146.3281 501.5344,146.1094 Q500.925,145.8906 500.3,145.8906 Q499.5344,145.8906 498.8938,146.2188 Q498.2688,146.5469 497.7688,147.2969 Q497.2844,148.0469 497.2844,149.0781 L497.2844,150.1719 Q497.2844,151.4063 498.175,152.2344 Q499.0656,153.0469 500.6594,153.0469 Q501.5969,153.0469 502.2531,152.7969 Q502.6438,152.6406 503.0656,152.2031 Q503.3313,151.9375 503.4719,151.8594 Q503.6281,151.7813 503.8313,151.7813 Q504.1594,151.7813 504.4094,152.0469 Q504.675,152.2969 504.675,152.6406 Q504.675,152.9844 504.3313,153.3906 Q503.8313,153.9688 503.0344,154.2969 Q501.9563,154.75 500.6594,154.75 Q499.1438,154.75 497.9406,154.125 Q496.9563,153.625 496.2688,152.5625 Q495.5813,151.4844 495.5813,150.2031 L495.5813,149.0469 Q495.5813,147.7188 496.1906,146.5781 Q496.8156,145.4219 497.9094,144.8125 Q499.0031,144.1875 500.2375,144.1875 Q500.9719,144.1875 501.6125,144.3594 Q502.2688,144.5156 502.8156,144.875 Z " fill="#000000"/><text fill="#000000" font-family="sans-serif" font-size="14" lengthAdjust="spacing" textLength="100" x="516.95" y="154.7285">LibraryManager</text><line style="stroke:#181818;stroke-width:0.5;" x1="473" x2="632" y1="165" y2="165"/><rect fill="none" height="6" style="stroke:#C82930;stroke-width:1.0;" width="6" x="480" y="176.3047"/><text fill="#000000" font-family="sans-serif" font-size="14" lengthAdjust="spacing" textLength="129" x="492" y="183.5332">Library digitalLibrary</text><rect fill="none" height="6" style="stroke:#C82930;stroke-width:1.0;" width="6" x="480" y="193.9141"/><text fill="#000000" font-family="sans-serif" font-size="14" lengthAdjust="spacing" textLength="116" x="492" y="201.1426">Scanner userInput</text><line style="stroke:#181818;stroke-width:0.5;" x1="473" x2="632" y1="208.2188" y2="208.2188"/><ellipse cx="483" cy="222.5234" fill="#84BE84" rx="3" ry="3" style="stroke:#038048;stroke-width:1.0;"/><text fill="#000000" font-family="sans-serif" font-size="14" lengthAdjust="spacing" textLength="110" x="492" y="226.752">LibraryManager()</text><ellipse cx="483" cy="240.1328" fill="#84BE84" rx="3" ry="3" style="stroke:#038048;stroke-width:1.0;"/><text fill="#000000" font-family="sans-serif" font-size="14" lengthAdjust="spacing" textLength="135" x="492" y="244.3613">void manageLibrary()</text></g><!--class App--><g id="elem_App"><rect codeLine="88" fill="#F1F1F1" height="48" id="App" rx="2.5" ry="2.5" style="stroke:#181818;stroke-width:0.5;" width="57" x="524" y="7"/><ellipse cx="539" cy="23" fill="#ADD1B2" rx="11" ry="11" style="stroke:#181818;stroke-width:1.0;"/><path d="M541.7656,18.875 Q541.9219,18.6563 542.1094,18.5469 Q542.2969,18.4375 542.5156,18.4375 Q542.8906,18.4375 543.125,18.7031 Q543.3594,18.9531 543.3594,19.5625 L543.3594,21.0156 Q543.3594,21.625 543.125,21.8906 Q542.8906,22.1563 542.5156,22.1563 Q542.1719,22.1563 541.9688,21.9531 Q541.7656,21.7656 541.6563,21.25 Q541.6094,20.8906 541.4219,20.7031 Q541.0938,20.3281 540.4844,20.1094 Q539.875,19.8906 539.25,19.8906 Q538.4844,19.8906 537.8438,20.2188 Q537.2188,20.5469 536.7188,21.2969 Q536.2344,22.0469 536.2344,23.0781 L536.2344,24.1719 Q536.2344,25.4063 537.125,26.2344 Q538.0156,27.0469 539.6094,27.0469 Q540.5469,27.0469 541.2031,26.7969 Q541.5938,26.6406 542.0156,26.2031 Q542.2813,25.9375 542.4219,25.8594 Q542.5781,25.7813 542.7813,25.7813 Q543.1094,25.7813 543.3594,26.0469 Q543.625,26.2969 543.625,26.6406 Q543.625,26.9844 543.2813,27.3906 Q542.7813,27.9688 541.9844,28.2969 Q540.9063,28.75 539.6094,28.75 Q538.0938,28.75 536.8906,28.125 Q535.9063,27.625 535.2188,26.5625 Q534.5313,25.4844 534.5313,24.2031 L534.5313,23.0469 Q534.5313,21.7188 535.1406,20.5781 Q535.7656,19.4219 536.8594,18.8125 Q537.9531,18.1875 539.1875,18.1875 Q539.9219,18.1875 540.5625,18.3594 Q541.2188,18.5156 541.7656,18.875 Z " fill="#000000"/><text fill="#000000" font-family="sans-serif" font-size="14" lengthAdjust="spacing" textLength="25" x="553" y="28.7285">App</text><line style="stroke:#181818;stroke-width:0.5;" x1="525" x2="580" y1="39" y2="39"/><line style="stroke:#181818;stroke-width:0.5;" x1="525" x2="580" y1="47" y2="47"/></g><!--link DocumentAuthor to Document--><g id="link_DocumentAuthor_Document"><path codeLine="92" d="M709.23,1113 C736.05,1113 764.86,1113 794.44,1113 " fill="none" id="DocumentAuthor-Document" style="stroke:#181818;stroke-width:1.0;"/><text fill="#000000" font-family="sans-serif" font-size="13" lengthAdjust="spacing" textLength="49" x="727.25" y="1106.4951">contains</text><text fill="#000000" font-family="sans-serif" font-size="13" lengthAdjust="spacing" textLength="24" x="716.8756" y="1126.8645">0...*</text><text fill="#000000" font-family="sans-serif" font-size="13" lengthAdjust="spacing" textLength="7" x="779.0128" y="1110.3147">1</text></g><!--link Document to DocumentType--><g id="link_Document_DocumentType"><path codeLine="93" d="M1150.5,1278.27 C1150.5,1299.24 1150.5,1319.99 1150.5,1338.95 " fill="none" id="Document-DocumentType" style="stroke:#181818;stroke-width:1.0;"/></g><!--link Author to DocumentAuthor--><g id="link_Author_DocumentAuthor"><path codeLine="94" d="M310.27,1113 C338.34,1113 367.71,1113 395.92,1113 " fill="none" id="Author-DocumentAuthor" style="stroke:#181818;stroke-width:1.0;"/><text fill="#000000" font-family="sans-serif" font-size="13" lengthAdjust="spacing" textLength="49" x="328.5" y="1106.4951">contains</text><text fill="#000000" font-family="sans-serif" font-size="13" lengthAdjust="spacing" textLength="7" x="317.7909" y="1110.1192">1</text><text fill="#000000" font-family="sans-serif" font-size="13" lengthAdjust="spacing" textLength="19" x="368.8755" y="1126.89">0...</text></g><!--link Library to Document--><g id="link_Library_Document"><path codeLine="95" d="M786.7,800.82 C843.67,849.55 903.93,901.1 958.67,947.92 " fill="none" id="Library-Document" style="stroke:#181818;stroke-width:1.0;"/><text fill="#000000" font-family="sans-serif" font-size="13" lengthAdjust="spacing" textLength="53" x="924.5" y="914.4951">manages</text><text fill="#000000" font-family="sans-serif" font-size="13" lengthAdjust="spacing" textLength="15" x="934.015" y="937.0461">0..</text></g><!--link Library to Author--><g id="link_Library_Author"><path codeLine="96" d="M344.83,870.11 C303.72,923.48 263.22,976.04 230.55,1018.47 " fill="none" id="Library-Author" style="stroke:#181818;stroke-width:1.0;"/><text fill="#000000" font-family="sans-serif" font-size="13" lengthAdjust="spacing" textLength="53" x="321.5" y="914.4951">manages</text><text fill="#000000" font-family="sans-serif" font-size="13" lengthAdjust="spacing" textLength="15" x="220.8955" y="1007.4941">0..</text></g><!--link Library to DocumentAuthor--><g id="link_Library_DocumentAuthor"><path codeLine="97" d="M552.5,870.11 C552.5,935.26 552.5,999.21 552.5,1044.98 " fill="none" id="Library-DocumentAuthor" style="stroke:#181818;stroke-width:1.0;"/><text fill="#000000" font-family="sans-serif" font-size="13" lengthAdjust="spacing" textLength="53" x="553.5" y="914.4951">manages</text><text fill="#000000" font-family="sans-serif" font-size="13" lengthAdjust="spacing" textLength="19" x="532.4609" y="1034.1771">0...</text></g><!--link LibraryManager to Library--><g id="link_LibraryManager_Library"><path codeLine="98" d="M552.5,251.1 C552.5,273.11 552.5,299.86 552.5,328.65 " fill="none" id="LibraryManager-Library" style="stroke:#181818;stroke-width:1.0;"/><text fill="#000000" font-family="sans-serif" font-size="13" lengthAdjust="spacing" textLength="53" x="553.5" y="295.4951">manages</text></g><!--link App to LibraryManager--><g id="link_App_LibraryManager"><path codeLine="99" d="M552.5,55.12 C552.5,75.45 552.5,105.9 552.5,132.83 " fill="none" id="App-LibraryManager" style="stroke:#181818;stroke-width:1.0;"/><text fill="#000000" font-family="sans-serif" font-size="13" lengthAdjust="spacing" textLength="25" x="553.5" y="99.4951">runs</text></g><!--SRC=[ZLPBZzem4BxpAonEq2MelQugfF1e5ItB8a1QRI-LDx4WQaYGxPH6LVzxdNZis8x3iYSyyyqtxyd66MOCXIK_5HJz7I3n5w0qvoXD4BpsdARv4UNuJ1mHAsajPOtq0LX6qdfYsarSYp6OrDWZuL4oKX802k5603tYFL2uAbx87n35UF1lC8YRx9P5N9w9y6JdP-V2KvuHGtyftxEKdOJgZM0A2iLqg2u49SO3z26bk5gdZ7-Lh3FqYrJNWYQgH8h0BLBZVU9nFEdtEV6xUwtTeNiAVAYTQldlGhISAQdHF8TgQyNNCNVKjL4bVeoT0ZJP23RphRcwUGda4wGsCkDXWZe-WIhA4_97HLvNlMT2EaoENZV9CqEUJL4zYH93Y1iSY1uSyv5jDh4id78lDMpaQ48m4F8wJfANPxkyCiZvoykJtDldy7lu8zgiv2lS7QB56XxxHRJQ7A9lqUBdDjokTlPkc5DNRwMdbwCUQ7VgbWx2hF8wVQUOLhgyxI0egvdsm3eOMP0PL9BrSYWS9HdcQP4hv3x6UKueAXcXKNufESGEKTcZZfD4pua-C2es2nbJWZanXifcWP60mPAnzs1k-n6u7MHqru1fDhb4wZcln4Z9y_GXikcVqtcpwv2KD9CF3xqNPLARLyWt4iPKiNcbzyANT7TQz2O9KsFPx0fQXIP9glsPOHPPiZ4_TZcvciNmszxkQGrtBchtYo7yl1adji_mOqzm61qNRNQWDnC4KI_LnqxzYv6GZ70IPfbkR8yUUjUZLGlXwDcfkFOGrwgMqxrCppZ7HzBUVtMmalIOSfp1yxvx0bos-tCZR2-E3Y2yNC1hBTDb7NuPeY0BqF3pT3hzD7I_KuyeBdAEKt7Zj4bW_nyp06Z35D00k6vHgQm1sq85I2RWmMYQ7eJFemDLrG_QmhUOka2jGa4V4Ir5n8F_]--></g></svg>