<?xml version="1.0" encoding="us-ascii" standalone="no"?><svg xmlns="http://www.w3.org/2000/svg" xmlns:xlink="http://www.w3.org/1999/xlink" contentStyleType="text/css" height="811px" preserveAspectRatio="none" style="width:1022px;height:811px;background:#FFFFFF;" version="1.1" viewBox="0 0 1022 811" width="1022px" zoomAndPan="magnify"><defs/><g><!--cluster Digital Library System--><g id="cluster_Digital Library System"><path d="M56.5,6 L228.5,6 A3.75,3.75 0 0 1 231,8.5 L238,28.2969 L1012.5,28.2969 A2.5,2.5 0 0 1 1015,30.7969 L1015,745.5 A2.5,2.5 0 0 1 1012.5,748 L56.5,748 A2.5,2.5 0 0 1 54,745.5 L54,8.5 A2.5,2.5 0 0 1 56.5,6 " fill="none" style="stroke:#000000;stroke-width:1.5;"/><line style="stroke:#000000;stroke-width:1.5;" x1="54" x2="238" y1="28.2969" y2="28.2969"/><text fill="#000000" font-family="sans-serif" font-size="14" font-weight="bold" lengthAdjust="spacing" textLength="171" x="58" y="20.9951">Digital Library System</text></g><!--cluster Document Management--><g id="cluster_Document Management"><path d="M94,57 L281,57 A3.75,3.75 0 0 1 283.5,59.5 L290.5,79.2969 L533.5,79.2969 A2.5,2.5 0 0 1 536,81.7969 L536,249.5 A2.5,2.5 0 0 1 533.5,252 L94,252 A2.5,2.5 0 0 1 91.5,249.5 L91.5,59.5 A2.5,2.5 0 0 1 94,57 " fill="none" style="stroke:#000000;stroke-width:1.5;"/><line style="stroke:#000000;stroke-width:1.5;" x1="91.5" x2="290.5" y1="79.2969" y2="79.2969"/><text fill="#000000" font-family="sans-serif" font-size="14" font-weight="bold" lengthAdjust="spacing" textLength="186" x="95.5" y="71.9951">Document Management</text></g><!--cluster Author Management--><g id="cluster_Author Management"><path d="M111.5,292 L272.5,292 A3.75,3.75 0 0 1 275,294.5 L282,314.2969 L525.5,314.2969 A2.5,2.5 0 0 1 528,316.7969 L528,472.5 A2.5,2.5 0 0 1 525.5,475 L111.5,475 A2.5,2.5 0 0 1 109,472.5 L109,294.5 A2.5,2.5 0 0 1 111.5,292 " fill="none" style="stroke:#000000;stroke-width:1.5;"/><line style="stroke:#000000;stroke-width:1.5;" x1="109" x2="282" y1="314.2969" y2="314.2969"/><text fill="#000000" font-family="sans-serif" font-size="14" font-weight="bold" lengthAdjust="spacing" textLength="160" x="113" y="306.9951">Author Management</text></g><!--cluster Keyword Management--><g id="cluster_Keyword Management"><path d="M578.5,299 L756.5,299 A3.75,3.75 0 0 1 759,301.5 L766,321.2969 L980.5,321.2969 A2.5,2.5 0 0 1 983,323.7969 L983,481.5 A2.5,2.5 0 0 1 980.5,484 L578.5,484 A2.5,2.5 0 0 1 576,481.5 L576,301.5 A2.5,2.5 0 0 1 578.5,299 " fill="none" style="stroke:#000000;stroke-width:1.5;"/><line style="stroke:#000000;stroke-width:1.5;" x1="576" x2="766" y1="321.2969" y2="321.2969"/><text fill="#000000" font-family="sans-serif" font-size="14" font-weight="bold" lengthAdjust="spacing" textLength="177" x="580" y="313.9951">Keyword Management</text></g><!--cluster Document Operations--><g id="cluster_Document Operations"><path d="M88.5,515 L261.5,515 A3.75,3.75 0 0 1 264,517.5 L271,537.2969 L306.5,537.2969 A2.5,2.5 0 0 1 309,539.7969 L309,713.5 A2.5,2.5 0 0 1 306.5,716 L88.5,716 A2.5,2.5 0 0 1 86,713.5 L86,517.5 A2.5,2.5 0 0 1 88.5,515 " fill="none" style="stroke:#000000;stroke-width:1.5;"/><line style="stroke:#000000;stroke-width:1.5;" x1="86" x2="271" y1="537.2969" y2="537.2969"/><text fill="#000000" font-family="sans-serif" font-size="14" font-weight="bold" lengthAdjust="spacing" textLength="172" x="90" y="529.9951">Document Operations</text></g><g id="elem_UC1"><ellipse cx="197.3658" cy="189.7732" fill="#F1F1F1" rx="81.8658" ry="18.7732" style="stroke:#181818;stroke-width:0.5;"/><text fill="#000000" font-family="sans-serif" font-size="14" lengthAdjust="spacing" textLength="123" x="134.8805" y="192.9463">Create Document</text></g><g id="elem_UC2"><ellipse cx="197.2532" cy="117.9506" fill="#F1F1F1" rx="77.7532" ry="17.9506" style="stroke:#181818;stroke-width:0.5;"/><text fill="#000000" font-family="sans-serif" font-size="14" lengthAdjust="spacing" textLength="113" x="138.1994" y="121.5809">Read Document</text></g><g id="elem_UC3"><ellipse cx="428.5656" cy="192.1131" fill="#F1F1F1" rx="83.5656" ry="19.1131" style="stroke:#181818;stroke-width:0.5;"/><text fill="#000000" font-family="sans-serif" font-size="14" lengthAdjust="spacing" textLength="127" x="364.6623" y="195.0974">Update Document</text></g><g id="elem_UC4"><ellipse cx="428.3658" cy="118.7732" fill="#F1F1F1" rx="81.8658" ry="18.7732" style="stroke:#181818;stroke-width:0.5;"/><text fill="#000000" font-family="sans-serif" font-size="14" lengthAdjust="spacing" textLength="123" x="365.8805" y="121.9463">Delete Document</text></g><g id="elem_UC5"><ellipse cx="197.3963" cy="415.7793" fill="#F1F1F1" rx="64.3963" ry="15.2793" style="stroke:#181818;stroke-width:0.5;"/><text fill="#000000" font-family="sans-serif" font-size="14" lengthAdjust="spacing" textLength="77" x="155.8963" y="419.5268">Add Author</text></g><g id="elem_UC6"><ellipse cx="197.5594" cy="350.2119" fill="#F1F1F1" rx="64.0594" ry="15.2119" style="stroke:#181818;stroke-width:0.5;"/><text fill="#000000" font-family="sans-serif" font-size="14" lengthAdjust="spacing" textLength="76" x="156.5594" y="353.9594">Edit Author</text></g><g id="elem_UC7"><ellipse cx="428.2655" cy="421.0531" fill="#F1F1F1" rx="65.7655" ry="15.5531" style="stroke:#181818;stroke-width:0.5;"/><text fill="#000000" font-family="sans-serif" font-size="14" lengthAdjust="spacing" textLength="81" x="384.7655" y="424.8007">List Authors</text></g><g id="elem_UC8"><ellipse cx="428.3844" cy="352.9769" fill="#F1F1F1" rx="75.3844" ry="17.4769" style="stroke:#181818;stroke-width:0.5;"/><text fill="#000000" font-family="sans-serif" font-size="14" lengthAdjust="spacing" textLength="107" x="371.8844" y="356.7244">Remove Author</text></g><g id="elem_UC9"><ellipse cx="668.964" cy="425.1928" fill="#F1F1F1" rx="68.964" ry="16.1928" style="stroke:#181818;stroke-width:0.5;"/><text fill="#000000" font-family="sans-serif" font-size="14" lengthAdjust="spacing" textLength="90" x="620.964" y="428.9404">Add Keyword</text></g><g id="elem_UC10"><ellipse cx="669.1011" cy="358.1202" fill="#F1F1F1" rx="68.6011" ry="16.1202" style="stroke:#181818;stroke-width:0.5;"/><text fill="#000000" font-family="sans-serif" font-size="14" lengthAdjust="spacing" textLength="89" x="621.6011" y="361.8678">Edit Keyword</text></g><g id="elem_UC11"><ellipse cx="878.4333" cy="430.9867" fill="#F1F1F1" rx="70.4333" ry="16.4867" style="stroke:#181818;stroke-width:0.5;"/><text fill="#000000" font-family="sans-serif" font-size="14" lengthAdjust="spacing" textLength="94" x="828.4333" y="434.7342">List Keywords</text></g><g id="elem_UC12"><ellipse cx="878.6107" cy="361.0221" fill="#F1F1F1" rx="80.6107" ry="18.5221" style="stroke:#181818;stroke-width:0.5;"/><text fill="#000000" font-family="sans-serif" font-size="14" lengthAdjust="spacing" textLength="120" x="817.1726" y="364.3348">Remove Keyword</text></g><g id="elem_UC13"><ellipse cx="197.6635" cy="578.1327" fill="#F1F1F1" rx="86.1635" ry="19.6327" style="stroke:#181818;stroke-width:0.5;"/><text fill="#000000" font-family="sans-serif" font-size="14" lengthAdjust="spacing" textLength="133" x="131.1635" y="580.9794">Search Documents</text></g><g id="elem_UC14"><ellipse cx="197.4744" cy="652.8949" fill="#F1F1F1" rx="87.4744" ry="19.8949" style="stroke:#181818;stroke-width:0.5;"/><text fill="#000000" font-family="sans-serif" font-size="14" lengthAdjust="spacing" textLength="136" x="129.4744" y="655.7416">Classify Documents</text></g><!--entity User--><g id="elem_User"><ellipse cx="22" cy="558.5" fill="#F1F1F1" rx="8" ry="8" style="stroke:#181818;stroke-width:0.5;"/><path d="M22,566.5 L22,593.5 M9,574.5 L35,574.5 M22,593.5 L9,608.5 M22,593.5 L35,608.5 " fill="none" style="stroke:#181818;stroke-width:0.5;"/><text fill="#000000" font-family="sans-serif" font-size="14" lengthAdjust="spacing" textLength="32" x="6" y="622.9951">User</text></g><!--link User to Document Management--><g id="link_User_Document Management"><path d="M24.21,549.73 C26.72,479.98 33.34,337.63 46,319 C66.675,288.575 103.4575,269.93 135.4825,258.8387 C139.4856,257.4523 143.4144,256.184 147.2281,255.0254 C149.135,254.4461 151.013,253.8942 152.8573,253.3687 C153.7794,253.106 154.693,252.8499 155.5975,252.6003 C156.0498,252.4754 156.4998,252.3522 156.9474,252.2306 C157.1713,252.1698 151.6012,253.6708 151.8238,253.6108 " fill="none" id="User-to-Document Management" style="stroke:#181818;stroke-width:1.0;"/><polygon fill="#181818" points="157.6171,252.0494,147.8863,250.5293,152.7894,253.3506,149.9681,258.2537,157.6171,252.0494" style="stroke:#181818;stroke-width:1.0;"/></g><!--link User to Author Management--><g id="link_User_Author Management"><path d="M38.17,551.78 C40.49,548.24 43.09,544.9 46,542 C72.025,516.005 108.89,497.43 139.62,485.2675 C147.3025,482.2269 154.6016,479.587 161.252,477.3322 C162.9146,476.7685 164.5366,476.2289 166.114,475.7131 C166.5083,475.5841 166.8999,475.4567 167.2886,475.3307 C167.4829,475.2677 161.9665,477.0476 162.1594,476.9854 " fill="none" id="User-to-Author Management" style="stroke:#181818;stroke-width:1.0;"/><polygon fill="#181818" points="167.8694,475.1428,158.076,474.0999,163.111,476.6783,160.5327,481.7134,167.8694,475.1428" style="stroke:#181818;stroke-width:1.0;"/></g><!--link User to Keyword Management--><g id="link_User_Keyword Management"><path d="M24.12,626.15 C26.08,661.91 31.41,711.67 46,724 C140.71,804.03 207.02,762.18 325,724 C413.09,695.485 497.5575,634.96 560.6288,580.8425 C592.1644,553.7837 618.3509,528.3269 636.9667,509.2741 C646.2746,499.7477 653.6898,491.8223 658.9346,486.0982 C659.5902,485.3827 656.1745,489.1399 656.7617,488.4944 " fill="none" id="User-to-Keyword Management" style="stroke:#181818;stroke-width:1.0;"/><polygon fill="#181818" points="660.7991,484.056,651.7841,488.0219,657.4346,487.7546,657.7019,493.4052,660.7991,484.056" style="stroke:#181818;stroke-width:1.0;"/></g><!--link User to Document Operations--><g id="link_User_Document Operations"><path d="M27.14,626.21 C30.67,651.13 36.67,680.54 46,689 C52.1475,694.57 59.0608,699.0569 66.4583,702.6428 C70.1571,704.4358 73.9769,706.0036 77.8826,707.3689 C79.8355,708.0515 81.8098,708.6835 83.8012,709.2678 C84.299,709.4139 79.0207,707.9374 79.5206,708.0775 " fill="none" id="User-to-Document Operations" style="stroke:#181818;stroke-width:1.0;"/><polygon fill="#181818" points="85.2979,709.6971,77.7116,703.4162,80.4835,708.3475,75.5522,711.1193,85.2979,709.6971" style="stroke:#181818;stroke-width:1.0;"/></g><!--SRC=[ZPFDJeGm54RtVOeRzfF8-ByncJ2k76FYX0UujdUW4IXfYuOOtrtGWa1Bj2j2JpxkQJyAEbcm2hJCSWj2Qk9MgeeXjqf3QaWpLYD_nOmWsijCMYpW85yqwXQEhR5KHl3167JhbrEyAQcoy8XLzw9_x25mgp74qNHSeWajmO17W0RI9FR1PqAnnBO-bjOYa7VkWtigo0Slli7FXSokiNbt57-ex8I07zA5NVhClP1s3btvq46Q0JAEkWuTIAdUQ1vs4np_WTftfSL_vdUeYxjT4PXJyTcAWiC6XpXUbLW4ReCQOwMUQjBOLzG4FOw4ckVZpOwV3vGWAT0OUMfzU2X2DqJ_1y1cSnSkzMJRhybaCt09eUI9snS0]--></g></svg>