<?xml version="1.0" encoding="us-ascii" standalone="no"?><svg xmlns="http://www.w3.org/2000/svg" xmlns:xlink="http://www.w3.org/1999/xlink" contentStyleType="text/css" height="891px" preserveAspectRatio="none" style="width:441px;height:891px;background:#FFFFFF;" version="1.1" viewBox="0 0 441 891" width="441px" zoomAndPan="magnify"><defs/><g><!--class Documento--><g id="elem_Documento"><rect codeLine="1" fill="#F1F1F1" height="227.2656" id="Documento" rx="2.5" ry="2.5" style="stroke:#181818;stroke-width:0.5;" width="120" x="162.5" y="657"/><ellipse cx="179.3" cy="673" fill="#ADD1B2" rx="11" ry="11" style="stroke:#181818;stroke-width:1.0;"/><path d="M181.6438,668.6719 C180.7063,668.2344 180.1125,668.0938 179.2375,668.0938 C176.6125,668.0938 174.6125,670.1719 174.6125,672.8906 L174.6125,674.0156 C174.6125,676.5938 176.7219,678.4844 179.6125,678.4844 C180.8313,678.4844 181.9875,678.1875 182.7375,677.6406 C183.3156,677.2344 183.6438,676.7813 183.6438,676.3906 C183.6438,675.9375 183.2531,675.5469 182.7844,675.5469 C182.5656,675.5469 182.3625,675.625 182.175,675.8125 C181.7219,676.2969 181.7219,676.2969 181.5344,676.3906 C181.1125,676.6563 180.425,676.7813 179.6594,676.7813 C177.6125,676.7813 176.3156,675.6875 176.3156,673.9844 L176.3156,672.8906 C176.3156,671.1094 177.5656,669.7969 179.3,669.7969 C179.8781,669.7969 180.4875,669.9531 180.9563,670.2031 C181.4406,670.4844 181.6125,670.7031 181.7063,671.1094 C181.7688,671.5156 181.8,671.6406 181.9406,671.7656 C182.0813,671.9063 182.3156,672.0156 182.5344,672.0156 C182.8,672.0156 183.0656,671.875 183.2375,671.6563 C183.3469,671.5 183.3781,671.3125 183.3781,670.8906 L183.3781,669.4688 C183.3781,669.0313 183.3625,668.9063 183.2688,668.75 C183.1125,668.4844 182.8313,668.3438 182.5344,668.3438 C182.2375,668.3438 182.0344,668.4375 181.8156,668.75 L181.6438,668.6719 Z " fill="#000000"/><text fill="#000000" font-family="sans-serif" font-size="14" lengthAdjust="spacing" textLength="84" x="193.7" y="677.8467">Documento</text><line style="stroke:#181818;stroke-width:0.5;" x1="163.5" x2="281.5" y1="689" y2="689"/><rect fill="none" height="6" style="stroke:#C82930;stroke-width:1.0;" width="6" x="170.5" y="699.6484"/><text fill="#000000" font-family="sans-serif" font-size="14" lengthAdjust="spacing" textLength="39" x="182.5" y="705.9951">titulo</text><rect fill="none" height="6" style="stroke:#C82930;stroke-width:1.0;" width="6" x="170.5" y="715.9453"/><text fill="#000000" font-family="sans-serif" font-size="14" lengthAdjust="spacing" textLength="38" x="182.5" y="722.292">autor</text><rect fill="none" height="6" style="stroke:#C82930;stroke-width:1.0;" width="6" x="170.5" y="732.2422"/><text fill="#000000" font-family="sans-serif" font-size="14" lengthAdjust="spacing" textLength="30" x="182.5" y="738.5889">tipo</text><line style="stroke:#181818;stroke-width:0.5;" x1="163.5" x2="281.5" y1="745.8906" y2="745.8906"/><ellipse cx="173.5" cy="759.5391" fill="#84BE84" rx="3" ry="3" style="stroke:#038048;stroke-width:1.0;"/><text fill="#000000" font-family="sans-serif" font-size="14" lengthAdjust="spacing" textLength="94" x="182.5" y="762.8857">Documento()</text><ellipse cx="173.5" cy="775.8359" fill="#84BE84" rx="3" ry="3" style="stroke:#038048;stroke-width:1.0;"/><text fill="#000000" font-family="sans-serif" font-size="14" lengthAdjust="spacing" textLength="76" x="182.5" y="779.1826">getTitulo()</text><ellipse cx="173.5" cy="792.1328" fill="#84BE84" rx="3" ry="3" style="stroke:#038048;stroke-width:1.0;"/><text fill="#000000" font-family="sans-serif" font-size="14" lengthAdjust="spacing" textLength="75" x="182.5" y="795.4795">getAutor()</text><ellipse cx="173.5" cy="808.4297" fill="#84BE84" rx="3" ry="3" style="stroke:#038048;stroke-width:1.0;"/><text fill="#000000" font-family="sans-serif" font-size="14" lengthAdjust="spacing" textLength="67" x="182.5" y="811.7764">getTipo()</text><ellipse cx="173.5" cy="824.7266" fill="#84BE84" rx="3" ry="3" style="stroke:#038048;stroke-width:1.0;"/><text fill="#000000" font-family="sans-serif" font-size="14" lengthAdjust="spacing" textLength="74" x="182.5" y="828.0732">setTitulo()</text><ellipse cx="173.5" cy="841.0234" fill="#84BE84" rx="3" ry="3" style="stroke:#038048;stroke-width:1.0;"/><text fill="#000000" font-family="sans-serif" font-size="14" lengthAdjust="spacing" textLength="73" x="182.5" y="844.3701">setAutor()</text><ellipse cx="173.5" cy="857.3203" fill="#84BE84" rx="3" ry="3" style="stroke:#038048;stroke-width:1.0;"/><text fill="#000000" font-family="sans-serif" font-size="14" lengthAdjust="spacing" textLength="65" x="182.5" y="860.667">setTipo()</text><ellipse cx="173.5" cy="873.6172" fill="#84BE84" rx="3" ry="3" style="stroke:#038048;stroke-width:1.0;"/><text fill="#000000" font-family="sans-serif" font-size="14" lengthAdjust="spacing" textLength="70" x="182.5" y="876.9639">toString()</text></g><!--class Autor--><g id="elem_Autor"><rect codeLine="15" fill="#F1F1F1" height="194.6719" id="Autor" rx="2.5" ry="2.5" style="stroke:#181818;stroke-width:0.5;" width="191" x="243" y="402"/><ellipse cx="314.25" cy="418" fill="#ADD1B2" rx="11" ry="11" style="stroke:#181818;stroke-width:1.0;"/><path d="M316.5938,413.6719 C315.6563,413.2344 315.0625,413.0938 314.1875,413.0938 C311.5625,413.0938 309.5625,415.1719 309.5625,417.8906 L309.5625,419.0156 C309.5625,421.5938 311.6719,423.4844 314.5625,423.4844 C315.7813,423.4844 316.9375,423.1875 317.6875,422.6406 C318.2656,422.2344 318.5938,421.7813 318.5938,421.3906 C318.5938,420.9375 318.2031,420.5469 317.7344,420.5469 C317.5156,420.5469 317.3125,420.625 317.125,420.8125 C316.6719,421.2969 316.6719,421.2969 316.4844,421.3906 C316.0625,421.6563 315.375,421.7813 314.6094,421.7813 C312.5625,421.7813 311.2656,420.6875 311.2656,418.9844 L311.2656,417.8906 C311.2656,416.1094 312.5156,414.7969 314.25,414.7969 C314.8281,414.7969 315.4375,414.9531 315.9063,415.2031 C316.3906,415.4844 316.5625,415.7031 316.6563,416.1094 C316.7188,416.5156 316.75,416.6406 316.8906,416.7656 C317.0313,416.9063 317.2656,417.0156 317.4844,417.0156 C317.75,417.0156 318.0156,416.875 318.1875,416.6563 C318.2969,416.5 318.3281,416.3125 318.3281,415.8906 L318.3281,414.4688 C318.3281,414.0313 318.3125,413.9063 318.2188,413.75 C318.0625,413.4844 317.7813,413.3438 317.4844,413.3438 C317.1875,413.3438 316.9844,413.4375 316.7656,413.75 L316.5938,413.6719 Z " fill="#000000"/><text fill="#000000" font-family="sans-serif" font-size="14" lengthAdjust="spacing" textLength="40" x="334.75" y="422.8467">Autor</text><line style="stroke:#181818;stroke-width:0.5;" x1="244" x2="433" y1="434" y2="434"/><rect fill="none" height="6" style="stroke:#C82930;stroke-width:1.0;" width="6" x="251" y="444.6484"/><text fill="#000000" font-family="sans-serif" font-size="14" lengthAdjust="spacing" textLength="57" x="263" y="450.9951">nombre</text><rect fill="none" height="6" style="stroke:#C82930;stroke-width:1.0;" width="6" x="251" y="460.9453"/><text fill="#000000" font-family="sans-serif" font-size="14" lengthAdjust="spacing" textLength="57" x="263" y="467.292">apellido</text><line style="stroke:#181818;stroke-width:0.5;" x1="244" x2="433" y1="474.5938" y2="474.5938"/><ellipse cx="254" cy="488.2422" fill="#84BE84" rx="3" ry="3" style="stroke:#038048;stroke-width:1.0;"/><text fill="#000000" font-family="sans-serif" font-size="14" lengthAdjust="spacing" textLength="50" x="263" y="491.5889">Autor()</text><ellipse cx="254" cy="504.5391" fill="#84BE84" rx="3" ry="3" style="stroke:#038048;stroke-width:1.0;"/><text fill="#000000" font-family="sans-serif" font-size="14" lengthAdjust="spacing" textLength="93" x="263" y="507.8857">getNombre()</text><ellipse cx="254" cy="520.8359" fill="#84BE84" rx="3" ry="3" style="stroke:#038048;stroke-width:1.0;"/><text fill="#000000" font-family="sans-serif" font-size="14" lengthAdjust="spacing" textLength="94" x="263" y="524.1826">getApellido()</text><ellipse cx="254" cy="537.1328" fill="#84BE84" rx="3" ry="3" style="stroke:#038048;stroke-width:1.0;"/><text fill="#000000" font-family="sans-serif" font-size="14" lengthAdjust="spacing" textLength="91" x="263" y="540.4795">setNombre()</text><ellipse cx="254" cy="553.4297" fill="#84BE84" rx="3" ry="3" style="stroke:#038048;stroke-width:1.0;"/><text fill="#000000" font-family="sans-serif" font-size="14" lengthAdjust="spacing" textLength="92" x="263" y="556.7764">setApellido()</text><ellipse cx="254" cy="569.7266" fill="#84BE84" rx="3" ry="3" style="stroke:#038048;stroke-width:1.0;"/><text fill="#000000" font-family="sans-serif" font-size="14" lengthAdjust="spacing" textLength="70" x="263" y="573.0732">toString()</text><ellipse cx="254" cy="586.0234" fill="#84BE84" rx="3" ry="3" style="stroke:#038048;stroke-width:1.0;"/><text fill="#000000" font-family="sans-serif" font-size="14" lengthAdjust="spacing" textLength="165" x="263" y="589.3701">getNombreCompleto()</text></g><!--class GeneradorDocumentos--><g id="elem_GeneradorDocumentos"><rect codeLine="27" fill="#F1F1F1" height="113.1875" id="GeneradorDocumentos" rx="2.5" ry="2.5" style="stroke:#181818;stroke-width:0.5;" width="201" x="7" y="443"/><ellipse cx="22.9" cy="459" fill="#ADD1B2" rx="11" ry="11" style="stroke:#181818;stroke-width:1.0;"/><path d="M25.2438,454.6719 C24.3063,454.2344 23.7125,454.0938 22.8375,454.0938 C20.2125,454.0938 18.2125,456.1719 18.2125,458.8906 L18.2125,460.0156 C18.2125,462.5938 20.3219,464.4844 23.2125,464.4844 C24.4313,464.4844 25.5875,464.1875 26.3375,463.6406 C26.9156,463.2344 27.2438,462.7813 27.2438,462.3906 C27.2438,461.9375 26.8531,461.5469 26.3844,461.5469 C26.1656,461.5469 25.9625,461.625 25.775,461.8125 C25.3219,462.2969 25.3219,462.2969 25.1344,462.3906 C24.7125,462.6563 24.025,462.7813 23.2594,462.7813 C21.2125,462.7813 19.9156,461.6875 19.9156,459.9844 L19.9156,458.8906 C19.9156,457.1094 21.1656,455.7969 22.9,455.7969 C23.4781,455.7969 24.0875,455.9531 24.5563,456.2031 C25.0406,456.4844 25.2125,456.7031 25.3063,457.1094 C25.3688,457.5156 25.4,457.6406 25.5406,457.7656 C25.6813,457.9063 25.9156,458.0156 26.1344,458.0156 C26.4,458.0156 26.6656,457.875 26.8375,457.6563 C26.9469,457.5 26.9781,457.3125 26.9781,456.8906 L26.9781,455.4688 C26.9781,455.0313 26.9625,454.9063 26.8688,454.75 C26.7125,454.4844 26.4313,454.3438 26.1344,454.3438 C25.8375,454.3438 25.6344,454.4375 25.4156,454.75 L25.2438,454.6719 Z " fill="#000000"/><text fill="#000000" font-family="sans-serif" font-size="14" lengthAdjust="spacing" textLength="167" x="37.1" y="463.8467">GeneradorDocumentos</text><line style="stroke:#181818;stroke-width:0.5;" x1="8" x2="207" y1="475" y2="475"/><line style="stroke:#181818;stroke-width:0.5;" x1="8" x2="207" y1="483" y2="483"/><ellipse cx="18" cy="496.6484" fill="#84BE84" rx="3" ry="3" style="stroke:#038048;stroke-width:1.0;"/><text fill="#000000" font-family="sans-serif" font-size="14" lengthAdjust="spacing" textLength="175" x="27" y="499.9951">crearNuevoDocumento()</text><ellipse cx="18" cy="512.9453" fill="#84BE84" rx="3" ry="3" style="stroke:#038048;stroke-width:1.0;"/><text fill="#000000" font-family="sans-serif" font-size="14" lengthAdjust="spacing" textLength="137" x="27" y="516.292">editarDocumento()</text><ellipse cx="18" cy="529.2422" fill="#84BE84" rx="3" ry="3" style="stroke:#038048;stroke-width:1.0;"/><text fill="#000000" font-family="sans-serif" font-size="14" lengthAdjust="spacing" textLength="152" x="27" y="532.5889">eliminarDocumento()</text><ellipse cx="18" cy="545.5391" fill="#84BE84" rx="3" ry="3" style="stroke:#038048;stroke-width:1.0;"/><text fill="#000000" font-family="sans-serif" font-size="14" lengthAdjust="spacing" textLength="141" x="27" y="548.8857">buscarDocumento()</text></g><!--class GeneradorAutores--><g id="elem_GeneradorAutores"><rect codeLine="34" fill="#F1F1F1" height="113.1875" id="GeneradorAutores" rx="2.5" ry="2.5" style="stroke:#181818;stroke-width:0.5;" width="164" x="232.5" y="229"/><ellipse cx="247.5" cy="245" fill="#ADD1B2" rx="11" ry="11" style="stroke:#181818;stroke-width:1.0;"/><path d="M249.8438,240.6719 C248.9063,240.2344 248.3125,240.0938 247.4375,240.0938 C244.8125,240.0938 242.8125,242.1719 242.8125,244.8906 L242.8125,246.0156 C242.8125,248.5938 244.9219,250.4844 247.8125,250.4844 C249.0313,250.4844 250.1875,250.1875 250.9375,249.6406 C251.5156,249.2344 251.8438,248.7813 251.8438,248.3906 C251.8438,247.9375 251.4531,247.5469 250.9844,247.5469 C250.7656,247.5469 250.5625,247.625 250.375,247.8125 C249.9219,248.2969 249.9219,248.2969 249.7344,248.3906 C249.3125,248.6563 248.625,248.7813 247.8594,248.7813 C245.8125,248.7813 244.5156,247.6875 244.5156,245.9844 L244.5156,244.8906 C244.5156,243.1094 245.7656,241.7969 247.5,241.7969 C248.0781,241.7969 248.6875,241.9531 249.1563,242.2031 C249.6406,242.4844 249.8125,242.7031 249.9063,243.1094 C249.9688,243.5156 250,243.6406 250.1406,243.7656 C250.2813,243.9063 250.5156,244.0156 250.7344,244.0156 C251,244.0156 251.2656,243.875 251.4375,243.6563 C251.5469,243.5 251.5781,243.3125 251.5781,242.8906 L251.5781,241.4688 C251.5781,241.0313 251.5625,240.9063 251.4688,240.75 C251.3125,240.4844 251.0313,240.3438 250.7344,240.3438 C250.4375,240.3438 250.2344,240.4375 250.0156,240.75 L249.8438,240.6719 Z " fill="#000000"/><text fill="#000000" font-family="sans-serif" font-size="14" lengthAdjust="spacing" textLength="132" x="261.5" y="249.8467">GeneradorAutores</text><line style="stroke:#181818;stroke-width:0.5;" x1="233.5" x2="395.5" y1="261" y2="261"/><line style="stroke:#181818;stroke-width:0.5;" x1="233.5" x2="395.5" y1="269" y2="269"/><ellipse cx="243.5" cy="282.6484" fill="#84BE84" rx="3" ry="3" style="stroke:#038048;stroke-width:1.0;"/><text fill="#000000" font-family="sans-serif" font-size="14" lengthAdjust="spacing" textLength="131" x="252.5" y="285.9951">crearNuevoAutor()</text><ellipse cx="243.5" cy="298.9453" fill="#84BE84" rx="3" ry="3" style="stroke:#038048;stroke-width:1.0;"/><text fill="#000000" font-family="sans-serif" font-size="14" lengthAdjust="spacing" textLength="93" x="252.5" y="302.292">editarAutor()</text><ellipse cx="243.5" cy="315.2422" fill="#84BE84" rx="3" ry="3" style="stroke:#038048;stroke-width:1.0;"/><text fill="#000000" font-family="sans-serif" font-size="14" lengthAdjust="spacing" textLength="108" x="252.5" y="318.5889">eliminarAutor()</text><ellipse cx="243.5" cy="331.5391" fill="#84BE84" rx="3" ry="3" style="stroke:#038048;stroke-width:1.0;"/><text fill="#000000" font-family="sans-serif" font-size="14" lengthAdjust="spacing" textLength="97" x="252.5" y="334.8857">buscarAutor()</text></g><!--class Menu--><g id="elem_Menu"><rect codeLine="41" fill="#F1F1F1" height="162.0781" id="Menu" rx="2.5" ry="2.5" style="stroke:#181818;stroke-width:0.5;" width="367" x="51" y="7"/><ellipse cx="211.25" cy="23" fill="#ADD1B2" rx="11" ry="11" style="stroke:#181818;stroke-width:1.0;"/><path d="M213.5938,18.6719 C212.6563,18.2344 212.0625,18.0938 211.1875,18.0938 C208.5625,18.0938 206.5625,20.1719 206.5625,22.8906 L206.5625,24.0156 C206.5625,26.5938 208.6719,28.4844 211.5625,28.4844 C212.7813,28.4844 213.9375,28.1875 214.6875,27.6406 C215.2656,27.2344 215.5938,26.7813 215.5938,26.3906 C215.5938,25.9375 215.2031,25.5469 214.7344,25.5469 C214.5156,25.5469 214.3125,25.625 214.125,25.8125 C213.6719,26.2969 213.6719,26.2969 213.4844,26.3906 C213.0625,26.6563 212.375,26.7813 211.6094,26.7813 C209.5625,26.7813 208.2656,25.6875 208.2656,23.9844 L208.2656,22.8906 C208.2656,21.1094 209.5156,19.7969 211.25,19.7969 C211.8281,19.7969 212.4375,19.9531 212.9063,20.2031 C213.3906,20.4844 213.5625,20.7031 213.6563,21.1094 C213.7188,21.5156 213.75,21.6406 213.8906,21.7656 C214.0313,21.9063 214.2656,22.0156 214.4844,22.0156 C214.75,22.0156 215.0156,21.875 215.1875,21.6563 C215.2969,21.5 215.3281,21.3125 215.3281,20.8906 L215.3281,19.4688 C215.3281,19.0313 215.3125,18.9063 215.2188,18.75 C215.0625,18.4844 214.7813,18.3438 214.4844,18.3438 C214.1875,18.3438 213.9844,18.4375 213.7656,18.75 L213.5938,18.6719 Z " fill="#000000"/><text fill="#000000" font-family="sans-serif" font-size="14" lengthAdjust="spacing" textLength="38" x="231.75" y="27.8467">Menu</text><line style="stroke:#181818;stroke-width:0.5;" x1="52" x2="417" y1="39" y2="39"/><rect fill="none" height="6" style="stroke:#C82930;stroke-width:1.0;" width="6" x="59" y="49.6484"/><text fill="#000000" font-family="sans-serif" font-size="14" lengthAdjust="spacing" textLength="341" x="71" y="55.9951">generadorDocumentos: GeneradorDocumentos</text><rect fill="none" height="6" style="stroke:#C82930;stroke-width:1.0;" width="6" x="59" y="65.9453"/><text fill="#000000" font-family="sans-serif" font-size="14" lengthAdjust="spacing" textLength="271" x="71" y="72.292">generadorAutores: GeneradorAutores</text><rect fill="none" height="6" style="stroke:#C82930;stroke-width:1.0;" width="6" x="59" y="82.2422"/><text fill="#000000" font-family="sans-serif" font-size="14" lengthAdjust="spacing" textLength="89" x="71" y="88.5889">documentos</text><rect fill="none" height="6" style="stroke:#C82930;stroke-width:1.0;" width="6" x="59" y="98.5391"/><text fill="#000000" font-family="sans-serif" font-size="14" lengthAdjust="spacing" textLength="54" x="71" y="104.8857">autores</text><line style="stroke:#181818;stroke-width:0.5;" x1="52" x2="417" y1="112.1875" y2="112.1875"/><ellipse cx="62" cy="125.8359" fill="#84BE84" rx="3" ry="3" style="stroke:#038048;stroke-width:1.0;"/><text fill="#000000" font-family="sans-serif" font-size="14" lengthAdjust="spacing" textLength="105" x="71" y="129.1826">mostrarMenu()</text><ellipse cx="62" cy="142.1328" fill="#84BE84" rx="3" ry="3" style="stroke:#038048;stroke-width:1.0;"/><text fill="#000000" font-family="sans-serif" font-size="14" lengthAdjust="spacing" textLength="169" x="71" y="145.4795">gestionarDocumentos()</text><ellipse cx="62" cy="158.4297" fill="#84BE84" rx="3" ry="3" style="stroke:#038048;stroke-width:1.0;"/><text fill="#000000" font-family="sans-serif" font-size="14" lengthAdjust="spacing" textLength="134" x="71" y="161.7764">gestionarAutores()</text></g><!--link GeneradorDocumentos to Documento--><g id="link_GeneradorDocumentos_Documento"><path codeLine="51" d="M136.0451,567.271 C148.5121,596.433 157.1644,616.672 172.0314,651.448 " fill="none" id="GeneradorDocumentos-Documento" style="stroke:#181818;stroke-width:1.0;"/><polygon fill="none" points="131.328,556.237,130.0086,563.3264,136.0451,567.271,137.3646,560.1816,131.328,556.237" style="stroke:#181818;stroke-width:1.0;"/><polygon fill="#181818" points="174.39,656.965,174.5302,647.1171,172.4245,652.3675,167.1742,650.2619,174.39,656.965" style="stroke:#181818;stroke-width:1.0;"/></g><!--link GeneradorAutores to Autor--><g id="link_GeneradorAutores_Autor"><path codeLine="52" d="M322.1557,354.1249 C324.2247,372.4039 324.5641,375.3951 326.8751,395.8101 " fill="none" id="GeneradorAutores-Autor" style="stroke:#181818;stroke-width:1.0;"/><polygon fill="none" points="320.806,342.201,317.5062,348.6128,322.1557,354.1249,325.4555,347.713,320.806,342.201" style="stroke:#181818;stroke-width:1.0;"/><polygon fill="#181818" points="327.55,401.772,330.5123,392.3792,326.9876,396.8037,322.563,393.279,327.55,401.772" style="stroke:#181818;stroke-width:1.0;"/></g><!--link Autor to Documento--><g id="link_Autor_Documento"><path codeLine="53" d="M292.0333,608.2541 C283.7193,627.5341 282.0469,631.4125 273.5239,651.1765 " fill="none" id="Autor-Documento" style="stroke:#181818;stroke-width:1.0;"/><polygon fill="#181818" points="296.785,597.235,290.7361,601.1607,292.0333,608.2541,298.0822,604.3285,296.785,597.235" style="stroke:#181818;stroke-width:1.0;"/><polygon fill="#181818" points="271.148,656.686,278.3849,650.0056,273.1279,652.0947,271.0389,646.8377,271.148,656.686" style="stroke:#181818;stroke-width:1.0;"/></g><!--link Menu to GeneradorDocumentos--><g id="link_Menu_GeneradorDocumentos"><path codeLine="54" d="M209.56,169.415 C184.53,250.124 148.4123,366.5823 126.5293,437.1433 " fill="none" id="Menu-to-GeneradorDocumentos" style="stroke:#181818;stroke-width:1.0;"/><polygon fill="#181818" points="124.752,442.874,131.2384,435.4627,126.2331,438.0984,123.5974,433.0931,124.752,442.874" style="stroke:#181818;stroke-width:1.0;"/></g><!--link Menu to GeneradorAutores--><g id="link_Menu_GeneradorAutores"><path codeLine="55" d="M267.27,169.081 C275.468,189.117 281.8136,204.623 289.4106,223.188 " fill="none" id="Menu-to-GeneradorAutores" style="stroke:#181818;stroke-width:1.0;"/><polygon fill="#181818" points="291.683,228.741,291.9765,218.8965,289.7894,224.1135,284.5724,221.9263,291.683,228.741" style="stroke:#181818;stroke-width:1.0;"/></g><!--SRC=[RPCzRiGW48Lxdu8oYUKBR14fIgHKsMPp0HQFB2HWB0RIHBbxrXXZ_jpnPXxpyS12SIBsWS9hC0xPxy0UtyIST5vXN73lqAR2kilZwNfwZie2xZiOS-LjSvSjwzb0ZOLg2rKMXpTdfLaUmjymY722u4Zq1lNTma6_Wb9oFgWRd6jeBeYZ8oUekgZJbN5Lcx-ZNXM4e1Bn9nYmV4QROgJ8Fp9XWTkhXnziCuPPEcuxkf9QcbxbxacKUWiHKe4UGPdNFhtIukHItQSUMfhu1SQdUrhQ32wzOEhsI7jf-6FZN3jvLXwPHdAMsmqbkojo4lFygAt5AVjvUXU8q_Hw_XT34s-eXyMmlzYNqX3IsQHU26qnRliF]--></g></svg>