<?xml version="1.0" encoding="us-ascii" standalone="no"?><svg xmlns="http://www.w3.org/2000/svg" xmlns:xlink="http://www.w3.org/1999/xlink" contentStyleType="text/css" height="391px" preserveAspectRatio="none" style="width:1212px;height:391px;background:#FFFFFF;" version="1.1" viewBox="0 0 1212 391" width="1212px" zoomAndPan="magnify"><defs/><g><g id="elem_Document1"><rect fill="#F1F1F1" height="109.7813" style="stroke:#181818;stroke-width:0.5;" width="289" x="641.5" y="120"/><text fill="#000000" font-family="sans-serif" font-size="14" lengthAdjust="spacing" textLength="82" x="745" y="134.9951">Document1</text><line style="stroke:#181818;stroke-width:0.5;" x1="642.5" x2="929.5" y1="140.2969" y2="140.2969"/><text fill="#000000" font-family="sans-serif" font-size="14" lengthAdjust="spacing" textLength="249" x="647.5" y="157.292">title = "Advanced Java Programming"</text><text fill="#000000" font-family="sans-serif" font-size="14" lengthAdjust="spacing" textLength="109" x="647.5" y="173.5889">authors = [1, 2]</text><text fill="#000000" font-family="sans-serif" font-size="14" lengthAdjust="spacing" textLength="162" x="647.5" y="189.8857">publicationYear = 2021</text><text fill="#000000" font-family="sans-serif" font-size="14" lengthAdjust="spacing" textLength="277" x="647.5" y="206.1826">documentType = DocumentType.BOOK</text><text fill="#000000" font-family="sans-serif" font-size="14" lengthAdjust="spacing" textLength="122" x="647.5" y="222.4795">keywords = [1, 2]</text></g><g id="elem_Document2"><rect fill="#F1F1F1" height="109.7813" style="stroke:#181818;stroke-width:0.5;" width="305" x="301.5" y="120"/><text fill="#000000" font-family="sans-serif" font-size="14" lengthAdjust="spacing" textLength="82" x="413" y="134.9951">Document2</text><line style="stroke:#181818;stroke-width:0.5;" x1="302.5" x2="605.5" y1="140.2969" y2="140.2969"/><text fill="#000000" font-family="sans-serif" font-size="14" lengthAdjust="spacing" textLength="240" x="307.5" y="157.292">title = "Modern Web Development"</text><text fill="#000000" font-family="sans-serif" font-size="14" lengthAdjust="spacing" textLength="92" x="307.5" y="173.5889">authors = [2]</text><text fill="#000000" font-family="sans-serif" font-size="14" lengthAdjust="spacing" textLength="162" x="307.5" y="189.8857">publicationYear = 2022</text><text fill="#000000" font-family="sans-serif" font-size="14" lengthAdjust="spacing" textLength="293" x="307.5" y="206.1826">documentType = DocumentType.ARTICLE</text><text fill="#000000" font-family="sans-serif" font-size="14" lengthAdjust="spacing" textLength="105" x="307.5" y="222.4795">keywords = [3]</text></g><g id="elem_Author1"><rect fill="#F1F1F1" height="77.1875" style="stroke:#181818;stroke-width:0.5;" width="206" x="611" y="307"/><text fill="#000000" font-family="sans-serif" font-size="14" lengthAdjust="spacing" textLength="55" x="686.5" y="321.9951">Author1</text><line style="stroke:#181818;stroke-width:0.5;" x1="612" x2="816" y1="327.2969" y2="327.2969"/><text fill="#000000" font-family="sans-serif" font-size="14" lengthAdjust="spacing" textLength="41" x="617" y="344.292">id = 1</text><text fill="#000000" font-family="sans-serif" font-size="14" lengthAdjust="spacing" textLength="132" x="617" y="360.5889">name = "John Doe"</text><text fill="#000000" font-family="sans-serif" font-size="14" lengthAdjust="spacing" textLength="194" x="617" y="376.8857">affiliation = "Tech University"</text></g><g id="elem_Author2"><rect fill="#F1F1F1" height="77.1875" style="stroke:#181818;stroke-width:0.5;" width="243" x="332.5" y="307"/><text fill="#000000" font-family="sans-serif" font-size="14" lengthAdjust="spacing" textLength="55" x="426.5" y="321.9951">Author2</text><line style="stroke:#181818;stroke-width:0.5;" x1="333.5" x2="574.5" y1="327.2969" y2="327.2969"/><text fill="#000000" font-family="sans-serif" font-size="14" lengthAdjust="spacing" textLength="41" x="338.5" y="344.292">id = 2</text><text fill="#000000" font-family="sans-serif" font-size="14" lengthAdjust="spacing" textLength="141" x="338.5" y="360.5889">name = "Jane Smith"</text><text fill="#000000" font-family="sans-serif" font-size="14" lengthAdjust="spacing" textLength="231" x="338.5" y="376.8857">affiliation = "Web Innovations Lab"</text></g><g id="elem_Keyword1"><rect fill="#F1F1F1" height="60.8906" style="stroke:#181818;stroke-width:0.5;" width="126" x="852" y="315"/><text fill="#000000" font-family="sans-serif" font-size="14" lengthAdjust="spacing" textLength="68" x="881" y="329.9951">Keyword1</text><line style="stroke:#181818;stroke-width:0.5;" x1="853" x2="977" y1="335.2969" y2="335.2969"/><text fill="#000000" font-family="sans-serif" font-size="14" lengthAdjust="spacing" textLength="41" x="858" y="352.292">id = 1</text><text fill="#000000" font-family="sans-serif" font-size="14" lengthAdjust="spacing" textLength="114" x="858" y="368.5889">keyword = "Java"</text></g><g id="elem_Keyword2"><rect fill="#F1F1F1" height="60.8906" style="stroke:#181818;stroke-width:0.5;" width="192" x="1013" y="315"/><text fill="#000000" font-family="sans-serif" font-size="14" lengthAdjust="spacing" textLength="68" x="1075" y="329.9951">Keyword2</text><line style="stroke:#181818;stroke-width:0.5;" x1="1014" x2="1204" y1="335.2969" y2="335.2969"/><text fill="#000000" font-family="sans-serif" font-size="14" lengthAdjust="spacing" textLength="41" x="1019" y="352.292">id = 2</text><text fill="#000000" font-family="sans-serif" font-size="14" lengthAdjust="spacing" textLength="180" x="1019" y="368.5889">keyword = "Programming"</text></g><g id="elem_Keyword3"><rect fill="#F1F1F1" height="60.8906" style="stroke:#181818;stroke-width:0.5;" width="228" x="7" y="144.5"/><text fill="#000000" font-family="sans-serif" font-size="14" lengthAdjust="spacing" textLength="68" x="87" y="159.4951">Keyword3</text><line style="stroke:#181818;stroke-width:0.5;" x1="8" x2="234" y1="164.7969" y2="164.7969"/><text fill="#000000" font-family="sans-serif" font-size="14" lengthAdjust="spacing" textLength="41" x="13" y="181.792">id = 3</text><text fill="#000000" font-family="sans-serif" font-size="14" lengthAdjust="spacing" textLength="216" x="13" y="198.0889">keyword = "Web Development"</text></g><g id="elem_DigitalLibrary"><rect fill="#F1F1F1" height="36.2969" style="stroke:#181818;stroke-width:0.5;" width="100" x="570" y="7"/><text fill="#000000" font-family="sans-serif" font-size="14" lengthAdjust="spacing" textLength="86" x="577" y="21.9951">DigitalLibrary</text><line style="stroke:#181818;stroke-width:0.5;" x1="571" x2="669" y1="27.2969" y2="27.2969"/></g><!--link DigitalLibrary to Document1--><g id="link_DigitalLibrary_Document1"><path codeLine="47" d="M639.37,43.27 C660.41,62.03 690.6008,88.9479 720.9508,115.9979 " fill="none" id="DigitalLibrary-to-Document1" style="stroke:#181818;stroke-width:1.0;"/><polygon fill="#181818" points="725.43,119.99,721.3727,111.0157,721.6974,116.6632,716.0498,116.9879,725.43,119.99" style="stroke:#181818;stroke-width:1.0;"/><text fill="#000000" font-family="sans-serif" font-size="13" lengthAdjust="spacing" textLength="54" x="689" y="86.0669">contains</text></g><!--link DigitalLibrary to Document2--><g id="link_DigitalLibrary_Document2"><path codeLine="48" d="M600.63,43.27 C579.59,62.03 549.3992,88.9479 519.0492,115.9979 " fill="none" id="DigitalLibrary-to-Document2" style="stroke:#181818;stroke-width:1.0;"/><polygon fill="#181818" points="514.57,119.99,523.9502,116.9879,518.3026,116.6632,518.6273,111.0157,514.57,119.99" style="stroke:#181818;stroke-width:1.0;"/><text fill="#000000" font-family="sans-serif" font-size="13" lengthAdjust="spacing" textLength="54" x="567" y="86.0669">contains</text></g><!--link Document1 to Author1--><g id="link_Document1_Author1"><path codeLine="50" d="M762.82,230.24 C752.13,255.26 742.0676,278.8126 732.4276,301.3726 " fill="none" id="Document1-to-Author1" style="stroke:#181818;stroke-width:1.0;"/><polygon fill="#181818" points="730.07,306.89,737.2847,300.1856,732.0347,302.2922,729.9282,297.0422,730.07,306.89" style="stroke:#181818;stroke-width:1.0;"/><text fill="#000000" font-family="sans-serif" font-size="13" lengthAdjust="spacing" textLength="23" x="751" y="273.0669">has</text></g><!--link Document1 to Author2--><g id="link_Document1_Author2"><path codeLine="51" d="M679.58,230.01 C630.18,255.09 578.0001,281.5641 533.4001,304.2041 " fill="none" id="Document1-to-Author2" style="stroke:#181818;stroke-width:1.0;"/><polygon fill="#181818" points="528.05,306.92,537.8858,306.413,532.5085,304.6568,534.2647,299.2794,528.05,306.92" style="stroke:#181818;stroke-width:1.0;"/><text fill="#000000" font-family="sans-serif" font-size="13" lengthAdjust="spacing" textLength="23" x="621" y="273.0669">has</text></g><!--link Document2 to Author2--><g id="link_Document2_Author2"><path codeLine="52" d="M454,230.24 C454,255.26 454,278.33 454,300.89 " fill="none" id="Document2-to-Author2" style="stroke:#181818;stroke-width:1.0;"/><polygon fill="#181818" points="454,306.89,458,297.89,454,301.89,450,297.89,454,306.89" style="stroke:#181818;stroke-width:1.0;"/><text fill="#000000" font-family="sans-serif" font-size="13" lengthAdjust="spacing" textLength="23" x="455" y="273.0669">has</text></g><!--link Document1 to Keyword1--><g id="link_Document1_Keyword1"><path codeLine="54" d="M827.53,230.24 C849.03,258.33 870.8122,286.7862 888.6922,310.1362 " fill="none" id="Document1-to-Keyword1" style="stroke:#181818;stroke-width:1.0;"/><polygon fill="#181818" points="892.34,314.9,890.0441,305.3225,889.3002,310.9302,883.6924,310.1862,892.34,314.9" style="stroke:#181818;stroke-width:1.0;"/><text fill="#000000" font-family="sans-serif" font-size="13" lengthAdjust="spacing" textLength="30" x="863" y="273.0669">uses</text></g><!--link Document1 to Keyword2--><g id="link_Document1_Keyword2"><path codeLine="55" d="M889.53,230.01 C943.41,258.12 1001.9007,288.6242 1046.7807,312.0442 " fill="none" id="Document1-to-Keyword2" style="stroke:#181818;stroke-width:1.0;"/><polygon fill="#181818" points="1052.1,314.82,1045.9716,307.1101,1047.6673,312.5068,1042.2705,314.2025,1052.1,314.82" style="stroke:#181818;stroke-width:1.0;"/><text fill="#000000" font-family="sans-serif" font-size="13" lengthAdjust="spacing" textLength="30" x="977" y="273.0669">uses</text></g><!--reverse link Keyword3 to Document2--><g id="link_Keyword3_Document2"><path codeLine="56" d="M241.13,175 C262.5,175 279.15,175 301.47,175 " fill="none" id="Keyword3-backto-Document2" style="stroke:#181818;stroke-width:1.0;"/><polygon fill="#181818" points="235.13,175,244.13,179,240.13,175,244.13,171,235.13,175" style="stroke:#181818;stroke-width:1.0;"/><text fill="#000000" font-family="sans-serif" font-size="13" lengthAdjust="spacing" textLength="30" x="253.25" y="168.0669">uses</text></g><!--SRC=[XP9BJyCm48Jl-HMhdYcYpgqII8Low0CLGH525OTDicqCYLqvJge8yTznt9IwIIYvnVFDxFWXWmyADOnbcASaz02-F32VvZeXk8RUA2fGX1J150k4HoKt2jEKYqtFSfZhMAhCaAl11R1tkxZDWuI7gBaKRuJAYEoA3QmKrNEMvRQA7pk_bxUBnSn2drJkf8gSr6_FawT5MRFeWun82NYb0CPKK2At5TPgUQuY-xVYw6avkPlVjrhwRiMHdNOuIHuPOBzvWQcjEfMnCBbKbrklUS9jbKfSKXZ3Y-05gOphijSAPcumEmr6GV2SSXrtHbTdCn525dObWpa6Rlnilw6EulLMzoCAx31rb79C9y-cvVLThz_qjYxKUGjympKcSnueLAL9CL9ZhT-_STxs448fD7AHdUEOotb7TyKSxdO8CMQT6cjeh4DpZP7S2GFy7luGyeoolmdM9Co0XDRwIFWryGC0]--></g></svg>