<?xml version="1.0" encoding="us-ascii" standalone="no"?><svg xmlns="http://www.w3.org/2000/svg" xmlns:xlink="http://www.w3.org/1999/xlink" contentStyleType="text/css" height="1071px" preserveAspectRatio="none" style="width:930px;height:1071px;background:#FFFFFF;" version="1.1" viewBox="0 0 930 1071" width="930px" zoomAndPan="magnify"><defs/><g><!--class Libro--><g id="elem_Libro"><rect codeLine="3" fill="#F1F1F1" height="308.75" id="Libro" rx="2.5" ry="2.5" style="stroke:#181818;stroke-width:0.5;" width="809" x="102" y="756"/><ellipse cx="483.75" cy="772" fill="#ADD1B2" rx="11" ry="11" style="stroke:#181818;stroke-width:1.0;"/><path d="M486.0938,767.6719 C485.1563,767.2344 484.5625,767.0938 483.6875,767.0938 C481.0625,767.0938 479.0625,769.1719 479.0625,771.8906 L479.0625,773.0156 C479.0625,775.5938 481.1719,777.4844 484.0625,777.4844 C485.2813,777.4844 486.4375,777.1875 487.1875,776.6406 C487.7656,776.2344 488.0938,775.7813 488.0938,775.3906 C488.0938,774.9375 487.7031,774.5469 487.2344,774.5469 C487.0156,774.5469 486.8125,774.625 486.625,774.8125 C486.1719,775.2969 486.1719,775.2969 485.9844,775.3906 C485.5625,775.6563 484.875,775.7813 484.1094,775.7813 C482.0625,775.7813 480.7656,774.6875 480.7656,772.9844 L480.7656,771.8906 C480.7656,770.1094 482.0156,768.7969 483.75,768.7969 C484.3281,768.7969 484.9375,768.9531 485.4063,769.2031 C485.8906,769.4844 486.0625,769.7031 486.1563,770.1094 C486.2188,770.5156 486.25,770.6406 486.3906,770.7656 C486.5313,770.9063 486.7656,771.0156 486.9844,771.0156 C487.25,771.0156 487.5156,770.875 487.6875,770.6563 C487.7969,770.5 487.8281,770.3125 487.8281,769.8906 L487.8281,768.4688 C487.8281,768.0313 487.8125,767.9063 487.7188,767.75 C487.5625,767.4844 487.2813,767.3438 486.9844,767.3438 C486.6875,767.3438 486.4844,767.4375 486.2656,767.75 L486.0938,767.6719 Z " fill="#000000"/><text fill="#000000" font-family="sans-serif" font-size="14" lengthAdjust="spacing" textLength="37" x="504.25" y="776.8467">Libro</text><line style="stroke:#181818;stroke-width:0.5;" x1="103" x2="910" y1="788" y2="788"/><rect fill="none" height="6" style="stroke:#C82930;stroke-width:1.0;" width="6" x="110" y="798.6484"/><text fill="#000000" font-family="sans-serif" font-size="14" lengthAdjust="spacing" textLength="87" x="122" y="804.9951">String titulo</text><rect fill="none" height="6" style="stroke:#C82930;stroke-width:1.0;" width="6" x="110" y="814.9453"/><text fill="#000000" font-family="sans-serif" font-size="14" lengthAdjust="spacing" textLength="150" x="122" y="821.292">List&lt;String&gt; autores</text><rect fill="none" height="6" style="stroke:#C82930;stroke-width:1.0;" width="6" x="110" y="831.2422"/><text fill="#000000" font-family="sans-serif" font-size="14" lengthAdjust="spacing" textLength="131" x="122" y="837.5889">int a&#241;oPublicacion</text><rect fill="none" height="6" style="stroke:#C82930;stroke-width:1.0;" width="6" x="110" y="847.5391"/><text fill="#000000" font-family="sans-serif" font-size="14" lengthAdjust="spacing" textLength="140" x="122" y="853.8857">TipoLibro tipoLibro</text><rect fill="none" height="6" style="stroke:#C82930;stroke-width:1.0;" width="6" x="110" y="863.8359"/><text fill="#000000" font-family="sans-serif" font-size="14" lengthAdjust="spacing" textLength="196" x="122" y="870.1826">List&lt;String&gt; palabrasClave</text><line style="stroke:#181818;stroke-width:0.5;" x1="103" x2="910" y1="877.4844" y2="877.4844"/><ellipse cx="113" cy="891.1328" fill="#84BE84" rx="3" ry="3" style="stroke:#038048;stroke-width:1.0;"/><text fill="#000000" font-family="sans-serif" font-size="14" lengthAdjust="spacing" textLength="783" x="122" y="894.4795">Libro(String titulo, List&lt;String&gt; autores, int a&#241;oPublicacion, TipoLibro tipoLibro, List&lt;String&gt; palabrasClave)</text><ellipse cx="113" cy="907.4297" fill="#84BE84" rx="3" ry="3" style="stroke:#038048;stroke-width:1.0;"/><text fill="#000000" font-family="sans-serif" font-size="14" lengthAdjust="spacing" textLength="124" x="122" y="910.7764">String getTitulo()</text><ellipse cx="113" cy="923.7266" fill="#84BE84" rx="3" ry="3" style="stroke:#038048;stroke-width:1.0;"/><text fill="#000000" font-family="sans-serif" font-size="14" lengthAdjust="spacing" textLength="195" x="122" y="927.0732">void setTitulo(String titulo)</text><ellipse cx="113" cy="940.0234" fill="#84BE84" rx="3" ry="3" style="stroke:#038048;stroke-width:1.0;"/><text fill="#000000" font-family="sans-serif" font-size="14" lengthAdjust="spacing" textLength="187" x="122" y="943.3701">List&lt;String&gt; getAutores()</text><ellipse cx="113" cy="956.3203" fill="#84BE84" rx="3" ry="3" style="stroke:#038048;stroke-width:1.0;"/><text fill="#000000" font-family="sans-serif" font-size="14" lengthAdjust="spacing" textLength="273" x="122" y="959.667">void setAutores(List&lt;String&gt; autores)</text><ellipse cx="113" cy="972.6172" fill="#84BE84" rx="3" ry="3" style="stroke:#038048;stroke-width:1.0;"/><text fill="#000000" font-family="sans-serif" font-size="14" lengthAdjust="spacing" textLength="168" x="122" y="975.9639">int getA&#241;oPublicacion()</text><ellipse cx="113" cy="988.9141" fill="#84BE84" rx="3" ry="3" style="stroke:#038048;stroke-width:1.0;"/><text fill="#000000" font-family="sans-serif" font-size="14" lengthAdjust="spacing" textLength="307" x="122" y="992.2607">void setA&#241;oPublicacion(int a&#241;oPublicacion)</text><ellipse cx="113" cy="1005.2109" fill="#84BE84" rx="3" ry="3" style="stroke:#038048;stroke-width:1.0;"/><text fill="#000000" font-family="sans-serif" font-size="14" lengthAdjust="spacing" textLength="177" x="122" y="1008.5576">TipoLibro getTipoLibro()</text><ellipse cx="113" cy="1021.5078" fill="#84BE84" rx="3" ry="3" style="stroke:#038048;stroke-width:1.0;"/><text fill="#000000" font-family="sans-serif" font-size="14" lengthAdjust="spacing" textLength="276" x="122" y="1024.8545">void setTipoLibro(TipoLibro tipoLibro)</text><ellipse cx="113" cy="1037.8047" fill="#84BE84" rx="3" ry="3" style="stroke:#038048;stroke-width:1.0;"/><text fill="#000000" font-family="sans-serif" font-size="14" lengthAdjust="spacing" textLength="230" x="122" y="1041.1514">List&lt;String&gt; getPalabrasClave()</text><ellipse cx="113" cy="1054.1016" fill="#84BE84" rx="3" ry="3" style="stroke:#038048;stroke-width:1.0;"/><text fill="#000000" font-family="sans-serif" font-size="14" lengthAdjust="spacing" textLength="362" x="122" y="1057.4482">void setPalabrasClave(List&lt;String&gt; palabrasClave)</text></g><!--class Busqueda--><g id="elem_Busqueda"><rect codeLine="22" fill="#F1F1F1" height="145.7813" id="Busqueda" rx="2.5" ry="2.5" style="stroke:#181818;stroke-width:0.5;" width="429" x="7" y="517"/><ellipse cx="183.25" cy="533" fill="#ADD1B2" rx="11" ry="11" style="stroke:#181818;stroke-width:1.0;"/><path d="M185.5938,528.6719 C184.6563,528.2344 184.0625,528.0938 183.1875,528.0938 C180.5625,528.0938 178.5625,530.1719 178.5625,532.8906 L178.5625,534.0156 C178.5625,536.5938 180.6719,538.4844 183.5625,538.4844 C184.7813,538.4844 185.9375,538.1875 186.6875,537.6406 C187.2656,537.2344 187.5938,536.7813 187.5938,536.3906 C187.5938,535.9375 187.2031,535.5469 186.7344,535.5469 C186.5156,535.5469 186.3125,535.625 186.125,535.8125 C185.6719,536.2969 185.6719,536.2969 185.4844,536.3906 C185.0625,536.6563 184.375,536.7813 183.6094,536.7813 C181.5625,536.7813 180.2656,535.6875 180.2656,533.9844 L180.2656,532.8906 C180.2656,531.1094 181.5156,529.7969 183.25,529.7969 C183.8281,529.7969 184.4375,529.9531 184.9063,530.2031 C185.3906,530.4844 185.5625,530.7031 185.6563,531.1094 C185.7188,531.5156 185.75,531.6406 185.8906,531.7656 C186.0313,531.9063 186.2656,532.0156 186.4844,532.0156 C186.75,532.0156 187.0156,531.875 187.1875,531.6563 C187.2969,531.5 187.3281,531.3125 187.3281,530.8906 L187.3281,529.4688 C187.3281,529.0313 187.3125,528.9063 187.2188,528.75 C187.0625,528.4844 186.7813,528.3438 186.4844,528.3438 C186.1875,528.3438 185.9844,528.4375 185.7656,528.75 L185.5938,528.6719 Z " fill="#000000"/><text fill="#000000" font-family="sans-serif" font-size="14" lengthAdjust="spacing" textLength="68" x="203.75" y="537.8467">Busqueda</text><line style="stroke:#181818;stroke-width:0.5;" x1="8" x2="435" y1="549" y2="549"/><rect fill="none" height="6" style="stroke:#C82930;stroke-width:1.0;" width="6" x="15" y="559.6484"/><text fill="#000000" font-family="sans-serif" font-size="14" lengthAdjust="spacing" textLength="129" x="27" y="565.9951">List&lt;Libro&gt; libros</text><line style="stroke:#181818;stroke-width:0.5;" x1="8" x2="435" y1="573.2969" y2="573.2969"/><ellipse cx="18" cy="586.9453" fill="#84BE84" rx="3" ry="3" style="stroke:#038048;stroke-width:1.0;"/><text fill="#000000" font-family="sans-serif" font-size="14" lengthAdjust="spacing" textLength="207" x="27" y="590.292">Busqueda(List&lt;Libro&gt; libros)</text><ellipse cx="18" cy="603.2422" fill="#84BE84" rx="3" ry="3" style="stroke:#038048;stroke-width:1.0;"/><text fill="#000000" font-family="sans-serif" font-size="14" lengthAdjust="spacing" textLength="296" x="27" y="606.5889">List&lt;Libro&gt; buscarPorAutor(String autor)</text><ellipse cx="18" cy="619.5391" fill="#84BE84" rx="3" ry="3" style="stroke:#038048;stroke-width:1.0;"/><text fill="#000000" font-family="sans-serif" font-size="14" lengthAdjust="spacing" textLength="252" x="27" y="622.8857">List&lt;Libro&gt; buscarPorA&#241;o(int anio)</text><ellipse cx="18" cy="635.8359" fill="#84BE84" rx="3" ry="3" style="stroke:#038048;stroke-width:1.0;"/><text fill="#000000" font-family="sans-serif" font-size="14" lengthAdjust="spacing" textLength="403" x="27" y="639.1826">List&lt;Libro&gt; buscarPorPalabraClave(String palabraClave)</text><ellipse cx="18" cy="652.1328" fill="#84BE84" rx="3" ry="3" style="stroke:#038048;stroke-width:1.0;"/><text fill="#000000" font-family="sans-serif" font-size="14" lengthAdjust="spacing" textLength="305" x="27" y="655.4795">List&lt;Libro&gt; buscarPorTipo(TipoLibro tipo)</text></g><!--class Biblioteca--><g id="elem_Biblioteca"><rect codeLine="31" fill="#F1F1F1" height="227.2656" id="Biblioteca" rx="2.5" ry="2.5" style="stroke:#181818;stroke-width:0.5;" width="441" x="139" y="197"/><ellipse cx="318.75" cy="213" fill="#ADD1B2" rx="11" ry="11" style="stroke:#181818;stroke-width:1.0;"/><path d="M321.0938,208.6719 C320.1563,208.2344 319.5625,208.0938 318.6875,208.0938 C316.0625,208.0938 314.0625,210.1719 314.0625,212.8906 L314.0625,214.0156 C314.0625,216.5938 316.1719,218.4844 319.0625,218.4844 C320.2813,218.4844 321.4375,218.1875 322.1875,217.6406 C322.7656,217.2344 323.0938,216.7813 323.0938,216.3906 C323.0938,215.9375 322.7031,215.5469 322.2344,215.5469 C322.0156,215.5469 321.8125,215.625 321.625,215.8125 C321.1719,216.2969 321.1719,216.2969 320.9844,216.3906 C320.5625,216.6563 319.875,216.7813 319.1094,216.7813 C317.0625,216.7813 315.7656,215.6875 315.7656,213.9844 L315.7656,212.8906 C315.7656,211.1094 317.0156,209.7969 318.75,209.7969 C319.3281,209.7969 319.9375,209.9531 320.4063,210.2031 C320.8906,210.4844 321.0625,210.7031 321.1563,211.1094 C321.2188,211.5156 321.25,211.6406 321.3906,211.7656 C321.5313,211.9063 321.7656,212.0156 321.9844,212.0156 C322.25,212.0156 322.5156,211.875 322.6875,211.6563 C322.7969,211.5 322.8281,211.3125 322.8281,210.8906 L322.8281,209.4688 C322.8281,209.0313 322.8125,208.9063 322.7188,208.75 C322.5625,208.4844 322.2813,208.3438 321.9844,208.3438 C321.6875,208.3438 321.4844,208.4375 321.2656,208.75 L321.0938,208.6719 Z " fill="#000000"/><text fill="#000000" font-family="sans-serif" font-size="14" lengthAdjust="spacing" textLength="73" x="339.25" y="217.8467">Biblioteca</text><line style="stroke:#181818;stroke-width:0.5;" x1="140" x2="579" y1="229" y2="229"/><rect fill="none" height="6" style="stroke:#C82930;stroke-width:1.0;" width="6" x="147" y="239.6484"/><text fill="#000000" font-family="sans-serif" font-size="14" lengthAdjust="spacing" textLength="188" x="159" y="245.9951">GestionLibro gestionLibro</text><rect fill="none" height="6" style="stroke:#C82930;stroke-width:1.0;" width="6" x="147" y="255.9453"/><text fill="#000000" font-family="sans-serif" font-size="14" lengthAdjust="spacing" textLength="140" x="159" y="262.292">Busqueda busqueda</text><line style="stroke:#181818;stroke-width:0.5;" x1="140" x2="579" y1="269.5938" y2="269.5938"/><ellipse cx="150" cy="283.2422" fill="#84BE84" rx="3" ry="3" style="stroke:#038048;stroke-width:1.0;"/><text fill="#000000" font-family="sans-serif" font-size="14" lengthAdjust="spacing" textLength="83" x="159" y="286.5889">Biblioteca()</text><ellipse cx="150" cy="299.5391" fill="#84BE84" rx="3" ry="3" style="stroke:#038048;stroke-width:1.0;"/><text fill="#000000" font-family="sans-serif" font-size="14" lengthAdjust="spacing" textLength="210" x="159" y="302.8857">void agregarLibro(Libro libro)</text><ellipse cx="150" cy="315.8359" fill="#84BE84" rx="3" ry="3" style="stroke:#038048;stroke-width:1.0;"/><text fill="#000000" font-family="sans-serif" font-size="14" lengthAdjust="spacing" textLength="145" x="159" y="319.1826">void mostrarLibros()</text><ellipse cx="150" cy="332.1328" fill="#84BE84" rx="3" ry="3" style="stroke:#038048;stroke-width:1.0;"/><text fill="#000000" font-family="sans-serif" font-size="14" lengthAdjust="spacing" textLength="296" x="159" y="335.4795">List&lt;Libro&gt; buscarPorAutor(String autor)</text><ellipse cx="150" cy="348.4297" fill="#84BE84" rx="3" ry="3" style="stroke:#038048;stroke-width:1.0;"/><text fill="#000000" font-family="sans-serif" font-size="14" lengthAdjust="spacing" textLength="256" x="159" y="351.7764">List&lt;Libro&gt; buscarPorAnio(int anio)</text><ellipse cx="150" cy="364.7266" fill="#84BE84" rx="3" ry="3" style="stroke:#038048;stroke-width:1.0;"/><text fill="#000000" font-family="sans-serif" font-size="14" lengthAdjust="spacing" textLength="403" x="159" y="368.0732">List&lt;Libro&gt; buscarPorPalabraClave(String palabraClave)</text><ellipse cx="150" cy="381.0234" fill="#84BE84" rx="3" ry="3" style="stroke:#038048;stroke-width:1.0;"/><text fill="#000000" font-family="sans-serif" font-size="14" lengthAdjust="spacing" textLength="305" x="159" y="384.3701">List&lt;Libro&gt; buscarPorTipo(TipoLibro tipo)</text><ellipse cx="150" cy="397.3203" fill="#84BE84" rx="3" ry="3" style="stroke:#038048;stroke-width:1.0;"/><text fill="#000000" font-family="sans-serif" font-size="14" lengthAdjust="spacing" textLength="287" x="159" y="400.667">Libro buscarLibroPorTitulo(String titulo)</text><ellipse cx="150" cy="413.6172" fill="#84BE84" rx="3" ry="3" style="stroke:#038048;stroke-width:1.0;"/><text fill="#000000" font-family="sans-serif" font-size="14" lengthAdjust="spacing" textLength="415" x="159" y="416.9639">void imprimirResultadosBusqueda(List&lt;Libro&gt; resultados)</text></g><!--class GestionLibro--><g id="elem_GestionLibro"><rect codeLine="45" fill="#F1F1F1" height="178.375" id="GestionLibro" rx="2.5" ry="2.5" style="stroke:#181818;stroke-width:0.5;" width="452" x="471.5" y="501"/><ellipse cx="646.75" cy="517" fill="#ADD1B2" rx="11" ry="11" style="stroke:#181818;stroke-width:1.0;"/><path d="M649.0938,512.6719 C648.1563,512.2344 647.5625,512.0938 646.6875,512.0938 C644.0625,512.0938 642.0625,514.1719 642.0625,516.8906 L642.0625,518.0156 C642.0625,520.5938 644.1719,522.4844 647.0625,522.4844 C648.2813,522.4844 649.4375,522.1875 650.1875,521.6406 C650.7656,521.2344 651.0938,520.7813 651.0938,520.3906 C651.0938,519.9375 650.7031,519.5469 650.2344,519.5469 C650.0156,519.5469 649.8125,519.625 649.625,519.8125 C649.1719,520.2969 649.1719,520.2969 648.9844,520.3906 C648.5625,520.6563 647.875,520.7813 647.1094,520.7813 C645.0625,520.7813 643.7656,519.6875 643.7656,517.9844 L643.7656,516.8906 C643.7656,515.1094 645.0156,513.7969 646.75,513.7969 C647.3281,513.7969 647.9375,513.9531 648.4063,514.2031 C648.8906,514.4844 649.0625,514.7031 649.1563,515.1094 C649.2188,515.5156 649.25,515.6406 649.3906,515.7656 C649.5313,515.9063 649.7656,516.0156 649.9844,516.0156 C650.25,516.0156 650.5156,515.875 650.6875,515.6563 C650.7969,515.5 650.8281,515.3125 650.8281,514.8906 L650.8281,513.4688 C650.8281,513.0313 650.8125,512.9063 650.7188,512.75 C650.5625,512.4844 650.2813,512.3438 649.9844,512.3438 C649.6875,512.3438 649.4844,512.4375 649.2656,512.75 L649.0938,512.6719 Z " fill="#000000"/><text fill="#000000" font-family="sans-serif" font-size="14" lengthAdjust="spacing" textLength="93" x="667.25" y="521.8467">GestionLibro</text><line style="stroke:#181818;stroke-width:0.5;" x1="472.5" x2="922.5" y1="533" y2="533"/><rect fill="none" height="6" style="stroke:#C82930;stroke-width:1.0;" width="6" x="479.5" y="543.6484"/><text fill="#000000" font-family="sans-serif" font-size="14" lengthAdjust="spacing" textLength="129" x="491.5" y="549.9951">List&lt;Libro&gt; libros</text><line style="stroke:#181818;stroke-width:0.5;" x1="472.5" x2="922.5" y1="557.2969" y2="557.2969"/><ellipse cx="482.5" cy="570.9453" fill="#84BE84" rx="3" ry="3" style="stroke:#038048;stroke-width:1.0;"/><text fill="#000000" font-family="sans-serif" font-size="14" lengthAdjust="spacing" textLength="103" x="491.5" y="574.292">GestionLibro()</text><ellipse cx="482.5" cy="587.2422" fill="#84BE84" rx="3" ry="3" style="stroke:#038048;stroke-width:1.0;"/><text fill="#000000" font-family="sans-serif" font-size="14" lengthAdjust="spacing" textLength="210" x="491.5" y="590.5889">void agregarLibro(Libro libro)</text><ellipse cx="482.5" cy="603.5391" fill="#84BE84" rx="3" ry="3" style="stroke:#038048;stroke-width:1.0;"/><text fill="#000000" font-family="sans-serif" font-size="14" lengthAdjust="spacing" textLength="254" x="491.5" y="606.8857">boolean eliminarLibro(String titulo)</text><ellipse cx="482.5" cy="619.8359" fill="#84BE84" rx="3" ry="3" style="stroke:#038048;stroke-width:1.0;"/><text fill="#000000" font-family="sans-serif" font-size="14" lengthAdjust="spacing" textLength="287" x="491.5" y="623.1826">Libro buscarLibroPorTitulo(String titulo)</text><ellipse cx="482.5" cy="636.1328" fill="#84BE84" rx="3" ry="3" style="stroke:#038048;stroke-width:1.0;"/><text fill="#000000" font-family="sans-serif" font-size="14" lengthAdjust="spacing" textLength="426" x="491.5" y="639.4795">void editarLibro(String tituloOriginal, Libro libroModificado)</text><ellipse cx="482.5" cy="652.4297" fill="#84BE84" rx="3" ry="3" style="stroke:#038048;stroke-width:1.0;"/><text fill="#000000" font-family="sans-serif" font-size="14" lengthAdjust="spacing" textLength="168" x="491.5" y="655.7764">List&lt;Libro&gt; getLibros()</text><ellipse cx="482.5" cy="668.7266" fill="#84BE84" rx="3" ry="3" style="stroke:#038048;stroke-width:1.0;"/><text fill="#000000" font-family="sans-serif" font-size="14" lengthAdjust="spacing" textLength="145" x="491.5" y="672.0732">void mostrarLibros()</text></g><!--class ManejadorBiblioteca--><g id="elem_ManejadorBiblioteca"><rect codeLine="56" fill="#F1F1F1" height="64.2969" id="ManejadorBiblioteca" rx="2.5" ry="2.5" style="stroke:#181818;stroke-width:0.5;" width="179" x="270" y="31.5"/><ellipse cx="285" cy="47.5" fill="#ADD1B2" rx="11" ry="11" style="stroke:#181818;stroke-width:1.0;"/><path d="M287.3438,43.1719 C286.4063,42.7344 285.8125,42.5938 284.9375,42.5938 C282.3125,42.5938 280.3125,44.6719 280.3125,47.3906 L280.3125,48.5156 C280.3125,51.0938 282.4219,52.9844 285.3125,52.9844 C286.5313,52.9844 287.6875,52.6875 288.4375,52.1406 C289.0156,51.7344 289.3438,51.2813 289.3438,50.8906 C289.3438,50.4375 288.9531,50.0469 288.4844,50.0469 C288.2656,50.0469 288.0625,50.125 287.875,50.3125 C287.4219,50.7969 287.4219,50.7969 287.2344,50.8906 C286.8125,51.1563 286.125,51.2813 285.3594,51.2813 C283.3125,51.2813 282.0156,50.1875 282.0156,48.4844 L282.0156,47.3906 C282.0156,45.6094 283.2656,44.2969 285,44.2969 C285.5781,44.2969 286.1875,44.4531 286.6563,44.7031 C287.1406,44.9844 287.3125,45.2031 287.4063,45.6094 C287.4688,46.0156 287.5,46.1406 287.6406,46.2656 C287.7813,46.4063 288.0156,46.5156 288.2344,46.5156 C288.5,46.5156 288.7656,46.375 288.9375,46.1563 C289.0469,46 289.0781,45.8125 289.0781,45.3906 L289.0781,43.9688 C289.0781,43.5313 289.0625,43.4063 288.9688,43.25 C288.8125,42.9844 288.5313,42.8438 288.2344,42.8438 C287.9375,42.8438 287.7344,42.9375 287.5156,43.25 L287.3438,43.1719 Z " fill="#000000"/><text fill="#000000" font-family="sans-serif" font-size="14" lengthAdjust="spacing" textLength="147" x="299" y="52.3467">ManejadorBiblioteca</text><line style="stroke:#181818;stroke-width:0.5;" x1="271" x2="448" y1="63.5" y2="63.5"/><line style="stroke:#181818;stroke-width:0.5;" x1="271" x2="448" y1="71.5" y2="71.5"/><ellipse cx="281" cy="85.1484" fill="#84BE84" rx="3" ry="3" style="stroke:#038048;stroke-width:1.0;"/><text fill="#000000" font-family="sans-serif" font-size="14" lengthAdjust="spacing" textLength="148" x="290" y="88.4951">static void ejecutar()</text></g><!--class TipoLibro--><g id="elem_TipoLibro"><rect codeLine="60" fill="#F1F1F1" height="113.1875" id="TipoLibro" rx="2.5" ry="2.5" style="stroke:#181818;stroke-width:0.5;" width="101" x="484" y="7"/><ellipse cx="499" cy="23" fill="#EB937F" rx="11" ry="11" style="stroke:#181818;stroke-width:1.0;"/><path d="M497.7969,23.875 L499.25,23.875 L499.25,23.9844 C499.25,24.3906 499.2813,24.5469 499.3594,24.7031 C499.5156,24.9531 499.7969,25.1094 500.0938,25.1094 C500.3438,25.1094 500.6094,24.9688 500.7656,24.75 C500.8906,24.5938 500.9219,24.4375 500.9219,23.9844 L500.9219,22.0625 C500.9219,21.9063 500.9219,21.8594 500.9063,21.7031 C500.8438,21.2344 500.5313,20.9219 500.0781,20.9219 C499.8281,20.9219 499.5625,21.0625 499.3906,21.2813 C499.2813,21.4531 499.25,21.6094 499.25,22.0625 L499.25,22.1875 L497.7969,22.1875 L497.7969,19.7813 L501.7813,19.7813 L501.7813,20.6406 C501.7813,21.0469 501.8125,21.2188 501.8906,21.375 C502.0625,21.625 502.3438,21.7813 502.625,21.7813 C502.8906,21.7813 503.1563,21.6406 503.3281,21.4219 C503.4375,21.25 503.4688,21.1094 503.4688,20.6406 L503.4688,18.0938 L495.8438,18.0938 C495.4063,18.0938 495.2813,18.1094 495.125,18.2031 C494.875,18.3594 494.7188,18.6563 494.7188,18.9375 C494.7188,19.2188 494.8594,19.4688 495.0781,19.6406 C495.2344,19.75 495.4219,19.7813 495.8438,19.7813 L496.0938,19.7813 L496.0938,26.2969 L495.8438,26.2969 C495.4375,26.2969 495.2813,26.3125 495.125,26.4219 C494.875,26.5938 494.7188,26.8594 494.7188,27.1563 C494.7188,27.4219 494.8594,27.6719 495.0781,27.8281 C495.2188,27.9531 495.4531,28 495.8438,28 L503.8438,28 L503.8438,25.4219 C503.8438,24.9844 503.8125,24.8438 503.7344,24.6875 C503.5625,24.4375 503.2813,24.2813 503,24.2813 C502.7344,24.2813 502.4688,24.3906 502.2969,24.6406 C502.1875,24.7969 502.1563,24.9375 502.1563,25.4219 L502.1563,26.2969 L497.7969,26.2969 L497.7969,23.875 Z " fill="#000000"/><text fill="#000000" font-family="sans-serif" font-size="14" lengthAdjust="spacing" textLength="69" x="513" y="27.8467">TipoLibro</text><line style="stroke:#181818;stroke-width:0.5;" x1="485" x2="584" y1="39" y2="39"/><text fill="#000000" font-family="sans-serif" font-size="14" lengthAdjust="spacing" textLength="43" x="490" y="55.9951">LIBRO</text><text fill="#000000" font-family="sans-serif" font-size="14" lengthAdjust="spacing" textLength="61" x="490" y="72.292">REVISTA</text><text fill="#000000" font-family="sans-serif" font-size="14" lengthAdjust="spacing" textLength="71" x="490" y="88.5889">ARTICULO</text><text fill="#000000" font-family="sans-serif" font-size="14" lengthAdjust="spacing" textLength="40" x="490" y="104.8857">TESIS</text><line style="stroke:#181818;stroke-width:0.5;" x1="485" x2="584" y1="112.1875" y2="112.1875"/></g><!--link Biblioteca to GestionLibro--><g id="link_Biblioteca_GestionLibro"><path codeLine="67" d="M496.978,424.37 C528.048,449.879 560.592,476.598 590.206,500.911 " fill="none" id="Biblioteca-GestionLibro" style="stroke:#181818;stroke-width:1.0;"/><text fill="#000000" font-family="sans-serif" font-size="13" lengthAdjust="spacing" textLength="55" x="549.5" y="467.0669">gestiona</text><text fill="#000000" font-family="sans-serif" font-size="13" lengthAdjust="spacing" textLength="8" x="497.5289" y="444.2079">1</text><text fill="#000000" font-family="sans-serif" font-size="13" lengthAdjust="spacing" textLength="8" x="572.9895" y="489.9691">1</text></g><!--link Biblioteca to Busqueda--><g id="link_Biblioteca_Busqueda"><path codeLine="68" d="M303.37,424.37 C287.849,455.581 271.427,488.603 257.398,516.815 " fill="none" id="Biblioteca-Busqueda" style="stroke:#181818;stroke-width:1.0;"/><text fill="#000000" font-family="sans-serif" font-size="13" lengthAdjust="spacing" textLength="37" x="287.5" y="467.0669">utiliza</text><text fill="#000000" font-family="sans-serif" font-size="13" lengthAdjust="spacing" textLength="8" x="291.5179" y="444.2079">1</text><text fill="#000000" font-family="sans-serif" font-size="13" lengthAdjust="spacing" textLength="8" x="252.538" y="505.9568">1</text></g><!--link GestionLibro to Libro--><g id="link_GestionLibro_Libro"><path codeLine="69" d="M644.549,679.297 C630.253,703.138 614.356,729.645 598.584,755.946 " fill="none" id="GestionLibro-Libro" style="stroke:#181818;stroke-width:1.0;"/><polygon fill="#000000" points="626.9285,721.8545,634.1008,715.6088,629.0599,712.5858,626.9285,721.8545" style="stroke:#000000;stroke-width:1.0;"/><text fill="#000000" font-family="sans-serif" font-size="13" lengthAdjust="spacing" textLength="63" x="638.5" y="722.0669">almacena</text><text fill="#000000" font-family="sans-serif" font-size="13" lengthAdjust="spacing" textLength="8" x="631.8327" y="699.3699">1</text><text fill="#000000" font-family="sans-serif" font-size="13" lengthAdjust="spacing" textLength="23" x="579.4873" y="745.1727">0..*</text></g><!--link Busqueda to Libro--><g id="link_Busqueda_Libro"><path codeLine="70" d="M286.171,663.273 C310.888,690.895 336.11,719.0818 365.055,751.4288 " fill="none" id="Busqueda-to-Libro" style="stroke:#181818;stroke-width:1.0;stroke-dasharray:7.0,7.0;"/><polygon fill="#181818" points="369.056,755.9,366.0353,746.5258,365.7218,752.174,360.0737,751.8605,369.056,755.9" style="stroke:#181818;stroke-width:1.0;"/><polygon fill="#000000" points="346.8342,721.2924,342.9927,712.5922,338.6125,716.5117,346.8342,721.2924" style="stroke:#000000;stroke-width:1.0;"/><text fill="#000000" font-family="sans-serif" font-size="13" lengthAdjust="spacing" textLength="38" x="352.5" y="722.0669">busca</text></g><!--link ManejadorBiblioteca to Biblioteca--><g id="link_ManejadorBiblioteca_Biblioteca"><path codeLine="71" d="M359.5,95.529 C359.5,121.346 359.5,153.756 359.5,190.937 " fill="none" id="ManejadorBiblioteca-to-Biblioteca" style="stroke:#181818;stroke-width:1.0;stroke-dasharray:7.0,7.0;"/><polygon fill="#181818" points="359.5,196.937,363.5,187.937,359.5,191.937,355.5,187.937,359.5,196.937" style="stroke:#181818;stroke-width:1.0;"/><polygon fill="#000000" points="364.5,163.5664,367.4389,154.5213,361.5611,154.5213,364.5,163.5664" style="stroke:#000000;stroke-width:1.0;"/><text fill="#000000" font-family="sans-serif" font-size="13" lengthAdjust="spacing" textLength="23" x="373.5" y="163.0669">usa</text></g><!--SRC=[nLHDZzCm4BtdLvYUkcnQmNM5AdMhQbMforPju3v9lDMitBZOpXv0_2X-0tyCnn-9axX582HwgUDvVZFptjXlIlgC5INxzIfRVdpOhad1GCeawJQsc0jElYL4_sRae0HMHw9GrOoxlIrAzS465WHgnGMLBeIL8l3p1z_LESC22kILYsHuvfPQ-LMCxWmCSW5onU2L6i2jhMZQgoID5f76ygUnrEcLh3SkhKjuf2epEQS-yCgn9BBTxXLsqzOSq6kAfQrmnE7tO-ruRDDKGz7lQqmrY4Uqy4SwHKntxYFIe8z49BpKwIxKSaJPZrupuNiubFUr_5BJ4jgvD2TD7Gl2cZ_f4ddaT8peLUmYUIqB43ikZ17UIsF0TRWMrYfS8R-AT1tRXXt_ETYxUhZHVI3-K1dKxd95YqwR1ogLDjiRt7suU2jcxXPUkfQgRniS1Js2i9DWMLau0GPqub891-h6_9z8hHN-Nr873v13chM1NxxyHX0ydGMUKEofh9c2aileQ8esF32sv-9lnpv4_vbxEUUCGaKeqzLM7dZXKViB7MY9Aihw9F2e4xAK15KzyXAVzMjLHftMpyjWmAAprzFn4Ihweld4wARS4gb0OU7gVA55hIkrvsbLdu9dqXxORkxtJsQrNt_U7BAbMI_tsMRrQMi3sVgmEJG4GRR9-mcPpSnVpzGxVpdX0hgzg7UaLiZmAoGz0WzzDv-_dH1F2km41Qs0B9AMO3vVj77Zdmx6X6bmmQVEApNq5m00]--></g></svg>