<?xml version="1.0" encoding="us-ascii" standalone="no"?><svg xmlns="http://www.w3.org/2000/svg" xmlns:xlink="http://www.w3.org/1999/xlink" contentStyleType="text/css" height="1729px" preserveAspectRatio="none" style="width:1596px;height:1729px;background:#FFFFFF;" version="1.1" viewBox="0 0 1596 1729" width="1596px" zoomAndPan="magnify"><defs/><g><!--class Autor--><g id="elem_Autor"><rect codeLine="3" fill="#F1F1F1" height="145.7813" id="Autor" rx="2.5" ry="2.5" style="stroke:#181818;stroke-width:0.5;" width="209" x="611" y="1577"/><ellipse cx="691.25" cy="1593" fill="#ADD1B2" rx="11" ry="11" style="stroke:#181818;stroke-width:1.0;"/><path d="M693.5938,1588.6719 C692.6563,1588.2344 692.0625,1588.0938 691.1875,1588.0938 C688.5625,1588.0938 686.5625,1590.1719 686.5625,1592.8906 L686.5625,1594.0156 C686.5625,1596.5938 688.6719,1598.4844 691.5625,1598.4844 C692.7813,1598.4844 693.9375,1598.1875 694.6875,1597.6406 C695.2656,1597.2344 695.5938,1596.7813 695.5938,1596.3906 C695.5938,1595.9375 695.2031,1595.5469 694.7344,1595.5469 C694.5156,1595.5469 694.3125,1595.625 694.125,1595.8125 C693.6719,1596.2969 693.6719,1596.2969 693.4844,1596.3906 C693.0625,1596.6563 692.375,1596.7813 691.6094,1596.7813 C689.5625,1596.7813 688.2656,1595.6875 688.2656,1593.9844 L688.2656,1592.8906 C688.2656,1591.1094 689.5156,1589.7969 691.25,1589.7969 C691.8281,1589.7969 692.4375,1589.9531 692.9063,1590.2031 C693.3906,1590.4844 693.5625,1590.7031 693.6563,1591.1094 C693.7188,1591.5156 693.75,1591.6406 693.8906,1591.7656 C694.0313,1591.9063 694.2656,1592.0156 694.4844,1592.0156 C694.75,1592.0156 695.0156,1591.875 695.1875,1591.6563 C695.2969,1591.5 695.3281,1591.3125 695.3281,1590.8906 L695.3281,1589.4688 C695.3281,1589.0313 695.3125,1588.9063 695.2188,1588.75 C695.0625,1588.4844 694.7813,1588.3438 694.4844,1588.3438 C694.1875,1588.3438 693.9844,1588.4375 693.7656,1588.75 L693.5938,1588.6719 Z " fill="#000000"/><text fill="#000000" font-family="sans-serif" font-size="14" lengthAdjust="spacing" textLength="40" x="711.75" y="1597.8467">Autor</text><line style="stroke:#181818;stroke-width:0.5;" x1="612" x2="819" y1="1609" y2="1609"/><rect fill="none" height="6" style="stroke:#C82930;stroke-width:1.0;" width="6" x="619" y="1619.6484"/><text fill="#000000" font-family="sans-serif" font-size="14" lengthAdjust="spacing" textLength="37" x="631" y="1625.9951">int id</text><rect fill="none" height="6" style="stroke:#C82930;stroke-width:1.0;" width="6" x="619" y="1635.9453"/><text fill="#000000" font-family="sans-serif" font-size="14" lengthAdjust="spacing" textLength="88" x="631" y="1642.292">String name</text><line style="stroke:#181818;stroke-width:0.5;" x1="612" x2="819" y1="1649.5938" y2="1649.5938"/><ellipse cx="622" cy="1663.2422" fill="#84BE84" rx="3" ry="3" style="stroke:#038048;stroke-width:1.0;"/><text fill="#000000" font-family="sans-serif" font-size="14" lengthAdjust="spacing" textLength="183" x="631" y="1666.5889">Autor(int id, String name)</text><ellipse cx="622" cy="1679.5391" fill="#84BE84" rx="3" ry="3" style="stroke:#038048;stroke-width:1.0;"/><text fill="#000000" font-family="sans-serif" font-size="14" lengthAdjust="spacing" textLength="72" x="631" y="1682.8857">int getId()</text><ellipse cx="622" cy="1695.8359" fill="#84BE84" rx="3" ry="3" style="stroke:#038048;stroke-width:1.0;"/><text fill="#000000" font-family="sans-serif" font-size="14" lengthAdjust="spacing" textLength="124" x="631" y="1699.1826">String getName()</text><ellipse cx="622" cy="1712.1328" fill="#84BE84" rx="3" ry="3" style="stroke:#038048;stroke-width:1.0;"/><text fill="#000000" font-family="sans-serif" font-size="14" lengthAdjust="spacing" textLength="175" x="631" y="1715.4795">String toString() : String</text></g><!--class Libro--><g id="elem_Libro"><rect codeLine="12" fill="#F1F1F1" height="259.8594" id="Libro" rx="2.5" ry="2.5" style="stroke:#181818;stroke-width:0.5;" width="805" x="313" y="1240"/><ellipse cx="692.75" cy="1256" fill="#ADD1B2" rx="11" ry="11" style="stroke:#181818;stroke-width:1.0;"/><path d="M695.0938,1251.6719 C694.1563,1251.2344 693.5625,1251.0938 692.6875,1251.0938 C690.0625,1251.0938 688.0625,1253.1719 688.0625,1255.8906 L688.0625,1257.0156 C688.0625,1259.5938 690.1719,1261.4844 693.0625,1261.4844 C694.2813,1261.4844 695.4375,1261.1875 696.1875,1260.6406 C696.7656,1260.2344 697.0938,1259.7813 697.0938,1259.3906 C697.0938,1258.9375 696.7031,1258.5469 696.2344,1258.5469 C696.0156,1258.5469 695.8125,1258.625 695.625,1258.8125 C695.1719,1259.2969 695.1719,1259.2969 694.9844,1259.3906 C694.5625,1259.6563 693.875,1259.7813 693.1094,1259.7813 C691.0625,1259.7813 689.7656,1258.6875 689.7656,1256.9844 L689.7656,1255.8906 C689.7656,1254.1094 691.0156,1252.7969 692.75,1252.7969 C693.3281,1252.7969 693.9375,1252.9531 694.4063,1253.2031 C694.8906,1253.4844 695.0625,1253.7031 695.1563,1254.1094 C695.2188,1254.5156 695.25,1254.6406 695.3906,1254.7656 C695.5313,1254.9063 695.7656,1255.0156 695.9844,1255.0156 C696.25,1255.0156 696.5156,1254.875 696.6875,1254.6563 C696.7969,1254.5 696.8281,1254.3125 696.8281,1253.8906 L696.8281,1252.4688 C696.8281,1252.0313 696.8125,1251.9063 696.7188,1251.75 C696.5625,1251.4844 696.2813,1251.3438 695.9844,1251.3438 C695.6875,1251.3438 695.4844,1251.4375 695.2656,1251.75 L695.0938,1251.6719 Z " fill="#000000"/><text fill="#000000" font-family="sans-serif" font-size="14" lengthAdjust="spacing" textLength="37" x="713.25" y="1260.8467">Libro</text><line style="stroke:#181818;stroke-width:0.5;" x1="314" x2="1117" y1="1272" y2="1272"/><rect fill="none" height="6" style="stroke:#C82930;stroke-width:1.0;" width="6" x="321" y="1282.6484"/><text fill="#000000" font-family="sans-serif" font-size="14" lengthAdjust="spacing" textLength="37" x="333" y="1288.9951">int id</text><rect fill="none" height="6" style="stroke:#C82930;stroke-width:1.0;" width="6" x="321" y="1298.9453"/><text fill="#000000" font-family="sans-serif" font-size="14" lengthAdjust="spacing" textLength="87" x="333" y="1305.292">String titulo</text><rect fill="none" height="6" style="stroke:#C82930;stroke-width:1.0;" width="6" x="321" y="1315.2422"/><text fill="#000000" font-family="sans-serif" font-size="14" lengthAdjust="spacing" textLength="146" x="333" y="1321.5889">List&lt;Autor&gt; autores</text><rect fill="none" height="6" style="stroke:#C82930;stroke-width:1.0;" width="6" x="321" y="1331.5391"/><text fill="#000000" font-family="sans-serif" font-size="14" lengthAdjust="spacing" textLength="131" x="333" y="1337.8857">int a&#241;oPublicacion</text><rect fill="none" height="6" style="stroke:#C82930;stroke-width:1.0;" width="6" x="321" y="1347.8359"/><text fill="#000000" font-family="sans-serif" font-size="14" lengthAdjust="spacing" textLength="140" x="333" y="1354.1826">TipoLibro tipoLibro</text><rect fill="none" height="6" style="stroke:#C82930;stroke-width:1.0;" width="6" x="321" y="1364.1328"/><text fill="#000000" font-family="sans-serif" font-size="14" lengthAdjust="spacing" textLength="196" x="333" y="1370.4795">List&lt;String&gt; palabrasClave</text><line style="stroke:#181818;stroke-width:0.5;" x1="314" x2="1117" y1="1377.7813" y2="1377.7813"/><ellipse cx="324" cy="1391.4297" fill="#84BE84" rx="3" ry="3" style="stroke:#038048;stroke-width:1.0;"/><text fill="#000000" font-family="sans-serif" font-size="14" lengthAdjust="spacing" textLength="779" x="333" y="1394.7764">Libro(String titulo, List&lt;Autor&gt; autores, int a&#241;oPublicacion, TipoLibro tipoLibro, List&lt;String&gt; palabrasClave)</text><ellipse cx="324" cy="1407.7266" fill="#84BE84" rx="3" ry="3" style="stroke:#038048;stroke-width:1.0;"/><text fill="#000000" font-family="sans-serif" font-size="14" lengthAdjust="spacing" textLength="117" x="333" y="1411.0732">void setId(int id)</text><ellipse cx="324" cy="1424.0234" fill="#84BE84" rx="3" ry="3" style="stroke:#038048;stroke-width:1.0;"/><text fill="#000000" font-family="sans-serif" font-size="14" lengthAdjust="spacing" textLength="195" x="333" y="1427.3701">void setTitulo(String titulo)</text><ellipse cx="324" cy="1440.3203" fill="#84BE84" rx="3" ry="3" style="stroke:#038048;stroke-width:1.0;"/><text fill="#000000" font-family="sans-serif" font-size="14" lengthAdjust="spacing" textLength="269" x="333" y="1443.667">void setAutores(List&lt;Autor&gt; autores)</text><ellipse cx="324" cy="1456.6172" fill="#84BE84" rx="3" ry="3" style="stroke:#038048;stroke-width:1.0;"/><text fill="#000000" font-family="sans-serif" font-size="14" lengthAdjust="spacing" textLength="307" x="333" y="1459.9639">void setA&#241;oPublicacion(int a&#241;oPublicacion)</text><ellipse cx="324" cy="1472.9141" fill="#84BE84" rx="3" ry="3" style="stroke:#038048;stroke-width:1.0;"/><text fill="#000000" font-family="sans-serif" font-size="14" lengthAdjust="spacing" textLength="276" x="333" y="1476.2607">void setTipoLibro(TipoLibro tipoLibro)</text><ellipse cx="324" cy="1489.2109" fill="#84BE84" rx="3" ry="3" style="stroke:#038048;stroke-width:1.0;"/><text fill="#000000" font-family="sans-serif" font-size="14" lengthAdjust="spacing" textLength="362" x="333" y="1492.5576">void setPalabrasClave(List&lt;String&gt; palabrasClave)</text></g><!--class Busqueda--><g id="elem_Busqueda"><rect codeLine="28" fill="#F1F1F1" height="162.0781" id="Busqueda" rx="2.5" ry="2.5" style="stroke:#181818;stroke-width:0.5;" width="429" x="7" y="944"/><ellipse cx="183.25" cy="960" fill="#ADD1B2" rx="11" ry="11" style="stroke:#181818;stroke-width:1.0;"/><path d="M185.5938,955.6719 C184.6563,955.2344 184.0625,955.0938 183.1875,955.0938 C180.5625,955.0938 178.5625,957.1719 178.5625,959.8906 L178.5625,961.0156 C178.5625,963.5938 180.6719,965.4844 183.5625,965.4844 C184.7813,965.4844 185.9375,965.1875 186.6875,964.6406 C187.2656,964.2344 187.5938,963.7813 187.5938,963.3906 C187.5938,962.9375 187.2031,962.5469 186.7344,962.5469 C186.5156,962.5469 186.3125,962.625 186.125,962.8125 C185.6719,963.2969 185.6719,963.2969 185.4844,963.3906 C185.0625,963.6563 184.375,963.7813 183.6094,963.7813 C181.5625,963.7813 180.2656,962.6875 180.2656,960.9844 L180.2656,959.8906 C180.2656,958.1094 181.5156,956.7969 183.25,956.7969 C183.8281,956.7969 184.4375,956.9531 184.9063,957.2031 C185.3906,957.4844 185.5625,957.7031 185.6563,958.1094 C185.7188,958.5156 185.75,958.6406 185.8906,958.7656 C186.0313,958.9063 186.2656,959.0156 186.4844,959.0156 C186.75,959.0156 187.0156,958.875 187.1875,958.6563 C187.2969,958.5 187.3281,958.3125 187.3281,957.8906 L187.3281,956.4688 C187.3281,956.0313 187.3125,955.9063 187.2188,955.75 C187.0625,955.4844 186.7813,955.3438 186.4844,955.3438 C186.1875,955.3438 185.9844,955.4375 185.7656,955.75 L185.5938,955.6719 Z " fill="#000000"/><text fill="#000000" font-family="sans-serif" font-size="14" lengthAdjust="spacing" textLength="68" x="203.75" y="964.8467">Busqueda</text><line style="stroke:#181818;stroke-width:0.5;" x1="8" x2="435" y1="976" y2="976"/><rect fill="none" height="6" style="stroke:#C82930;stroke-width:1.0;" width="6" x="15" y="986.6484"/><text fill="#000000" font-family="sans-serif" font-size="14" lengthAdjust="spacing" textLength="188" x="27" y="992.9951">GestionLibro gestionLibro</text><line style="stroke:#181818;stroke-width:0.5;" x1="8" x2="435" y1="1000.2969" y2="1000.2969"/><ellipse cx="18" cy="1013.9453" fill="#84BE84" rx="3" ry="3" style="stroke:#038048;stroke-width:1.0;"/><text fill="#000000" font-family="sans-serif" font-size="14" lengthAdjust="spacing" textLength="266" x="27" y="1017.292">Busqueda(GestionLibro gestionLibro)</text><ellipse cx="18" cy="1030.2422" fill="#84BE84" rx="3" ry="3" style="stroke:#038048;stroke-width:1.0;"/><text fill="#000000" font-family="sans-serif" font-size="14" lengthAdjust="spacing" textLength="355" x="27" y="1033.5889">List&lt;Libro&gt; buscarPorAutor(String nombreAutor)</text><ellipse cx="18" cy="1046.5391" fill="#84BE84" rx="3" ry="3" style="stroke:#038048;stroke-width:1.0;"/><text fill="#000000" font-family="sans-serif" font-size="14" lengthAdjust="spacing" textLength="248" x="27" y="1049.8857">List&lt;Libro&gt; buscarPorA&#241;o(int a&#241;o)</text><ellipse cx="18" cy="1062.8359" fill="#84BE84" rx="3" ry="3" style="stroke:#038048;stroke-width:1.0;"/><text fill="#000000" font-family="sans-serif" font-size="14" lengthAdjust="spacing" textLength="403" x="27" y="1066.1826">List&lt;Libro&gt; buscarPorPalabraClave(String palabraClave)</text><ellipse cx="18" cy="1079.1328" fill="#84BE84" rx="3" ry="3" style="stroke:#038048;stroke-width:1.0;"/><text fill="#000000" font-family="sans-serif" font-size="14" lengthAdjust="spacing" textLength="305" x="27" y="1082.4795">List&lt;Libro&gt; buscarPorTipo(TipoLibro tipo)</text><ellipse cx="18" cy="1095.4297" fill="#84BE84" rx="3" ry="3" style="stroke:#038048;stroke-width:1.0;"/><text fill="#000000" font-family="sans-serif" font-size="14" lengthAdjust="spacing" textLength="298" x="27" y="1098.7764">List&lt;Libro&gt; buscarPorTitulo(String titulo)</text></g><!--class Biblioteca--><g id="elem_Biblioteca"><rect codeLine="38" fill="#F1F1F1" height="422.8281" id="Biblioteca" rx="2.5" ry="2.5" style="stroke:#181818;stroke-width:0.5;" width="482" x="201.5" y="387"/><ellipse cx="401.75" cy="403" fill="#ADD1B2" rx="11" ry="11" style="stroke:#181818;stroke-width:1.0;"/><path d="M404.0938,398.6719 C403.1563,398.2344 402.5625,398.0938 401.6875,398.0938 C399.0625,398.0938 397.0625,400.1719 397.0625,402.8906 L397.0625,404.0156 C397.0625,406.5938 399.1719,408.4844 402.0625,408.4844 C403.2813,408.4844 404.4375,408.1875 405.1875,407.6406 C405.7656,407.2344 406.0938,406.7813 406.0938,406.3906 C406.0938,405.9375 405.7031,405.5469 405.2344,405.5469 C405.0156,405.5469 404.8125,405.625 404.625,405.8125 C404.1719,406.2969 404.1719,406.2969 403.9844,406.3906 C403.5625,406.6563 402.875,406.7813 402.1094,406.7813 C400.0625,406.7813 398.7656,405.6875 398.7656,403.9844 L398.7656,402.8906 C398.7656,401.1094 400.0156,399.7969 401.75,399.7969 C402.3281,399.7969 402.9375,399.9531 403.4063,400.2031 C403.8906,400.4844 404.0625,400.7031 404.1563,401.1094 C404.2188,401.5156 404.25,401.6406 404.3906,401.7656 C404.5313,401.9063 404.7656,402.0156 404.9844,402.0156 C405.25,402.0156 405.5156,401.875 405.6875,401.6563 C405.7969,401.5 405.8281,401.3125 405.8281,400.8906 L405.8281,399.4688 C405.8281,399.0313 405.8125,398.9063 405.7188,398.75 C405.5625,398.4844 405.2813,398.3438 404.9844,398.3438 C404.6875,398.3438 404.4844,398.4375 404.2656,398.75 L404.0938,398.6719 Z " fill="#000000"/><text fill="#000000" font-family="sans-serif" font-size="14" lengthAdjust="spacing" textLength="73" x="422.25" y="407.8467">Biblioteca</text><line style="stroke:#181818;stroke-width:0.5;" x1="202.5" x2="682.5" y1="419" y2="419"/><rect fill="none" height="6" style="stroke:#C82930;stroke-width:1.0;" width="6" x="209.5" y="429.6484"/><text fill="#000000" font-family="sans-serif" font-size="14" lengthAdjust="spacing" textLength="188" x="221.5" y="435.9951">GestionLibro gestionLibro</text><rect fill="none" height="6" style="stroke:#C82930;stroke-width:1.0;" width="6" x="209.5" y="445.9453"/><text fill="#000000" font-family="sans-serif" font-size="14" lengthAdjust="spacing" textLength="140" x="221.5" y="452.292">Busqueda busqueda</text><rect fill="none" height="6" style="stroke:#C82930;stroke-width:1.0;" width="6" x="209.5" y="462.2422"/><text fill="#000000" font-family="sans-serif" font-size="14" lengthAdjust="spacing" textLength="146" x="221.5" y="468.5889">List&lt;Autor&gt; autores</text><rect fill="none" height="6" style="stroke:#C82930;stroke-width:1.0;" width="6" x="209.5" y="478.5391"/><text fill="#000000" font-family="sans-serif" font-size="14" lengthAdjust="spacing" textLength="183" x="221.5" y="484.8857">static int nextAutorId = 1</text><line style="stroke:#181818;stroke-width:0.5;" x1="202.5" x2="682.5" y1="492.1875" y2="492.1875"/><ellipse cx="212.5" cy="505.8359" fill="#84BE84" rx="3" ry="3" style="stroke:#038048;stroke-width:1.0;"/><text fill="#000000" font-family="sans-serif" font-size="14" lengthAdjust="spacing" textLength="83" x="221.5" y="509.1826">Biblioteca()</text><ellipse cx="212.5" cy="522.1328" fill="#84BE84" rx="3" ry="3" style="stroke:#038048;stroke-width:1.0;"/><text fill="#000000" font-family="sans-serif" font-size="14" lengthAdjust="spacing" textLength="210" x="221.5" y="525.4795">void agregarLibro(Libro libro)</text><ellipse cx="212.5" cy="538.4297" fill="#84BE84" rx="3" ry="3" style="stroke:#038048;stroke-width:1.0;"/><text fill="#000000" font-family="sans-serif" font-size="14" lengthAdjust="spacing" textLength="244" x="221.5" y="541.7764">void agregarAutor(String nombre)</text><ellipse cx="212.5" cy="554.7266" fill="#84BE84" rx="3" ry="3" style="stroke:#038048;stroke-width:1.0;"/><text fill="#000000" font-family="sans-serif" font-size="14" lengthAdjust="spacing" textLength="328" x="221.5" y="558.0732">Autor buscarAutorPorNombre(String nombre)</text><ellipse cx="212.5" cy="571.0234" fill="#84BE84" rx="3" ry="3" style="stroke:#038048;stroke-width:1.0;"/><text fill="#000000" font-family="sans-serif" font-size="14" lengthAdjust="spacing" textLength="383" x="221.5" y="574.3701">void addAuthorToBook(int bookId, Autor nuevoAutor)</text><ellipse cx="212.5" cy="587.3203" fill="#84BE84" rx="3" ry="3" style="stroke:#038048;stroke-width:1.0;"/><text fill="#000000" font-family="sans-serif" font-size="14" lengthAdjust="spacing" textLength="145" x="221.5" y="590.667">void mostrarLibros()</text><ellipse cx="212.5" cy="603.6172" fill="#84BE84" rx="3" ry="3" style="stroke:#038048;stroke-width:1.0;"/><text fill="#000000" font-family="sans-serif" font-size="14" lengthAdjust="spacing" textLength="158" x="221.5" y="606.9639">void mostrarLibrosId()</text><ellipse cx="212.5" cy="619.9141" fill="#84BE84" rx="3" ry="3" style="stroke:#038048;stroke-width:1.0;"/><text fill="#000000" font-family="sans-serif" font-size="14" lengthAdjust="spacing" textLength="355" x="221.5" y="623.2607">List&lt;Libro&gt; buscarPorAutor(String nombreAutor)</text><ellipse cx="212.5" cy="636.2109" fill="#84BE84" rx="3" ry="3" style="stroke:#038048;stroke-width:1.0;"/><text fill="#000000" font-family="sans-serif" font-size="14" lengthAdjust="spacing" textLength="248" x="221.5" y="639.5576">List&lt;Libro&gt; buscarPorA&#241;o(int a&#241;o)</text><ellipse cx="212.5" cy="652.5078" fill="#84BE84" rx="3" ry="3" style="stroke:#038048;stroke-width:1.0;"/><text fill="#000000" font-family="sans-serif" font-size="14" lengthAdjust="spacing" textLength="403" x="221.5" y="655.8545">List&lt;Libro&gt; buscarPorPalabraClave(String palabraClave)</text><ellipse cx="212.5" cy="668.8047" fill="#84BE84" rx="3" ry="3" style="stroke:#038048;stroke-width:1.0;"/><text fill="#000000" font-family="sans-serif" font-size="14" lengthAdjust="spacing" textLength="305" x="221.5" y="672.1514">List&lt;Libro&gt; buscarPorTipo(TipoLibro tipo)</text><ellipse cx="212.5" cy="685.1016" fill="#84BE84" rx="3" ry="3" style="stroke:#038048;stroke-width:1.0;"/><text fill="#000000" font-family="sans-serif" font-size="14" lengthAdjust="spacing" textLength="298" x="221.5" y="688.4482">List&lt;Libro&gt; buscarPorTitulo(String titulo)</text><ellipse cx="212.5" cy="701.3984" fill="#84BE84" rx="3" ry="3" style="stroke:#038048;stroke-width:1.0;"/><text fill="#000000" font-family="sans-serif" font-size="14" lengthAdjust="spacing" textLength="456" x="221.5" y="704.7451">void imprimirResultadosBusquedaTitulo(List&lt;Libro&gt; resultados)</text><ellipse cx="212.5" cy="717.6953" fill="#84BE84" rx="3" ry="3" style="stroke:#038048;stroke-width:1.0;"/><text fill="#000000" font-family="sans-serif" font-size="14" lengthAdjust="spacing" textLength="455" x="221.5" y="721.042">void imprimirResultadosBusquedaAutor(List&lt;Libro&gt; resultados)</text><ellipse cx="212.5" cy="733.9922" fill="#84BE84" rx="3" ry="3" style="stroke:#038048;stroke-width:1.0;"/><text fill="#000000" font-family="sans-serif" font-size="14" lengthAdjust="spacing" textLength="375" x="221.5" y="737.3389">void imprimirResultadosA&#241;o(List&lt;Libro&gt; resultados)</text><ellipse cx="212.5" cy="750.2891" fill="#84BE84" rx="3" ry="3" style="stroke:#038048;stroke-width:1.0;"/><text fill="#000000" font-family="sans-serif" font-size="14" lengthAdjust="spacing" textLength="431" x="221.5" y="753.6357">void imprimirResultadosDocumento(List&lt;Libro&gt; resultados)</text><ellipse cx="212.5" cy="766.5859" fill="#84BE84" rx="3" ry="3" style="stroke:#038048;stroke-width:1.0;"/><text fill="#000000" font-family="sans-serif" font-size="14" lengthAdjust="spacing" textLength="439" x="221.5" y="769.9326">void imprimirResultadosPalabraClave(List&lt;Libro&gt; resultados)</text><ellipse cx="212.5" cy="782.8828" fill="#84BE84" rx="3" ry="3" style="stroke:#038048;stroke-width:1.0;"/><text fill="#000000" font-family="sans-serif" font-size="14" lengthAdjust="spacing" textLength="146" x="221.5" y="786.2295">int getNextAutorId()</text><ellipse cx="212.5" cy="799.1797" fill="#84BE84" rx="3" ry="3" style="stroke:#038048;stroke-width:1.0;"/><text fill="#000000" font-family="sans-serif" font-size="14" lengthAdjust="spacing" textLength="225" x="221.5" y="802.5264">GestionLibro getGestionLibro()</text></g><!--class GestionLibro--><g id="elem_GestionLibro"><rect codeLine="64" fill="#F1F1F1" height="276.1563" id="GestionLibro" rx="2.5" ry="2.5" style="stroke:#181818;stroke-width:0.5;" width="1118" x="471.5" y="887"/><ellipse cx="979.75" cy="903" fill="#ADD1B2" rx="11" ry="11" style="stroke:#181818;stroke-width:1.0;"/><path d="M982.0938,898.6719 C981.1563,898.2344 980.5625,898.0938 979.6875,898.0938 C977.0625,898.0938 975.0625,900.1719 975.0625,902.8906 L975.0625,904.0156 C975.0625,906.5938 977.1719,908.4844 980.0625,908.4844 C981.2813,908.4844 982.4375,908.1875 983.1875,907.6406 C983.7656,907.2344 984.0938,906.7813 984.0938,906.3906 C984.0938,905.9375 983.7031,905.5469 983.2344,905.5469 C983.0156,905.5469 982.8125,905.625 982.625,905.8125 C982.1719,906.2969 982.1719,906.2969 981.9844,906.3906 C981.5625,906.6563 980.875,906.7813 980.1094,906.7813 C978.0625,906.7813 976.7656,905.6875 976.7656,903.9844 L976.7656,902.8906 C976.7656,901.1094 978.0156,899.7969 979.75,899.7969 C980.3281,899.7969 980.9375,899.9531 981.4063,900.2031 C981.8906,900.4844 982.0625,900.7031 982.1563,901.1094 C982.2188,901.5156 982.25,901.6406 982.3906,901.7656 C982.5313,901.9063 982.7656,902.0156 982.9844,902.0156 C983.25,902.0156 983.5156,901.875 983.6875,901.6563 C983.7969,901.5 983.8281,901.3125 983.8281,900.8906 L983.8281,899.4688 C983.8281,899.0313 983.8125,898.9063 983.7188,898.75 C983.5625,898.4844 983.2813,898.3438 982.9844,898.3438 C982.6875,898.3438 982.4844,898.4375 982.2656,898.75 L982.0938,898.6719 Z " fill="#000000"/><text fill="#000000" font-family="sans-serif" font-size="14" lengthAdjust="spacing" textLength="93" x="1000.25" y="907.8467">GestionLibro</text><line style="stroke:#181818;stroke-width:0.5;" x1="472.5" x2="1588.5" y1="919" y2="919"/><rect fill="none" height="6" style="stroke:#C82930;stroke-width:1.0;" width="6" x="479.5" y="929.6484"/><text fill="#000000" font-family="sans-serif" font-size="14" lengthAdjust="spacing" textLength="129" x="491.5" y="935.9951">List&lt;Libro&gt; libros</text><rect fill="none" height="6" style="stroke:#C82930;stroke-width:1.0;" width="6" x="479.5" y="945.9453"/><text fill="#000000" font-family="sans-serif" font-size="14" lengthAdjust="spacing" textLength="143" x="491.5" y="952.292">static int nextId = 1</text><line style="stroke:#181818;stroke-width:0.5;" x1="472.5" x2="1588.5" y1="959.5938" y2="959.5938"/><ellipse cx="482.5" cy="973.2422" fill="#84BE84" rx="3" ry="3" style="stroke:#038048;stroke-width:1.0;"/><text fill="#000000" font-family="sans-serif" font-size="14" lengthAdjust="spacing" textLength="103" x="491.5" y="976.5889">GestionLibro()</text><ellipse cx="482.5" cy="989.5391" fill="#84BE84" rx="3" ry="3" style="stroke:#038048;stroke-width:1.0;"/><text fill="#000000" font-family="sans-serif" font-size="14" lengthAdjust="spacing" textLength="210" x="491.5" y="992.8857">void agregarLibro(Libro libro)</text><ellipse cx="482.5" cy="1005.8359" fill="#84BE84" rx="3" ry="3" style="stroke:#038048;stroke-width:1.0;"/><text fill="#000000" font-family="sans-serif" font-size="14" lengthAdjust="spacing" textLength="254" x="491.5" y="1009.1826">boolean eliminarLibro(String titulo)</text><ellipse cx="482.5" cy="1022.1328" fill="#84BE84" rx="3" ry="3" style="stroke:#038048;stroke-width:1.0;"/><text fill="#000000" font-family="sans-serif" font-size="14" lengthAdjust="spacing" textLength="241" x="491.5" y="1025.4795">boolean eliminarLibroPorId(int id)</text><ellipse cx="482.5" cy="1038.4297" fill="#84BE84" rx="3" ry="3" style="stroke:#038048;stroke-width:1.0;"/><text fill="#000000" font-family="sans-serif" font-size="14" lengthAdjust="spacing" textLength="1092" x="491.5" y="1041.7764">void editarLibro(int idLibro, String nuevoTitulo, List&lt;Autor&gt; nuevosAutores, Integer nuevoAnio, TipoLibro nuevoTipo, List&lt;String&gt; nuevasPalabrasClave)</text><ellipse cx="482.5" cy="1054.7266" fill="#84BE84" rx="3" ry="3" style="stroke:#038048;stroke-width:1.0;"/><text fill="#000000" font-family="sans-serif" font-size="14" lengthAdjust="spacing" textLength="209" x="491.5" y="1058.0732">Libro buscarLibroPorId(int id)</text><ellipse cx="482.5" cy="1071.0234" fill="#84BE84" rx="3" ry="3" style="stroke:#038048;stroke-width:1.0;"/><text fill="#000000" font-family="sans-serif" font-size="14" lengthAdjust="spacing" textLength="168" x="491.5" y="1074.3701">List&lt;Libro&gt; getLibros()</text><ellipse cx="482.5" cy="1087.3203" fill="#84BE84" rx="3" ry="3" style="stroke:#038048;stroke-width:1.0;"/><text fill="#000000" font-family="sans-serif" font-size="14" lengthAdjust="spacing" textLength="145" x="491.5" y="1090.667">void mostrarLibros()</text><ellipse cx="482.5" cy="1103.6172" fill="#84BE84" rx="3" ry="3" style="stroke:#038048;stroke-width:1.0;"/><text fill="#000000" font-family="sans-serif" font-size="14" lengthAdjust="spacing" textLength="158" x="491.5" y="1106.9639">void mostrarLibrosId()</text><ellipse cx="482.5" cy="1119.9141" fill="#84BE84" rx="3" ry="3" style="stroke:#038048;stroke-width:1.0;"/><text fill="#000000" font-family="sans-serif" font-size="14" lengthAdjust="spacing" textLength="240" x="491.5" y="1123.2607">void setLibros(List&lt;Libro&gt; libros)</text><ellipse cx="482.5" cy="1136.2109" fill="#84BE84" rx="3" ry="3" style="stroke:#038048;stroke-width:1.0;"/><text fill="#000000" font-family="sans-serif" font-size="14" lengthAdjust="spacing" textLength="151" x="491.5" y="1139.5576">static int getNextId()</text><ellipse cx="482.5" cy="1152.5078" fill="#84BE84" rx="3" ry="3" style="stroke:#038048;stroke-width:1.0;"/><text fill="#000000" font-family="sans-serif" font-size="14" lengthAdjust="spacing" textLength="229" x="491.5" y="1155.8545">static void setNextId(int nextId)</text></g><!--class ManejadorBiblioteca--><g id="elem_ManejadorBiblioteca"><rect codeLine="81" fill="#F1F1F1" height="96.8906" id="ManejadorBiblioteca" rx="2.5" ry="2.5" style="stroke:#181818;stroke-width:0.5;" width="179" x="353" y="213"/><ellipse cx="368" cy="229" fill="#ADD1B2" rx="11" ry="11" style="stroke:#181818;stroke-width:1.0;"/><path d="M370.3438,224.6719 C369.4063,224.2344 368.8125,224.0938 367.9375,224.0938 C365.3125,224.0938 363.3125,226.1719 363.3125,228.8906 L363.3125,230.0156 C363.3125,232.5938 365.4219,234.4844 368.3125,234.4844 C369.5313,234.4844 370.6875,234.1875 371.4375,233.6406 C372.0156,233.2344 372.3438,232.7813 372.3438,232.3906 C372.3438,231.9375 371.9531,231.5469 371.4844,231.5469 C371.2656,231.5469 371.0625,231.625 370.875,231.8125 C370.4219,232.2969 370.4219,232.2969 370.2344,232.3906 C369.8125,232.6563 369.125,232.7813 368.3594,232.7813 C366.3125,232.7813 365.0156,231.6875 365.0156,229.9844 L365.0156,228.8906 C365.0156,227.1094 366.2656,225.7969 368,225.7969 C368.5781,225.7969 369.1875,225.9531 369.6563,226.2031 C370.1406,226.4844 370.3125,226.7031 370.4063,227.1094 C370.4688,227.5156 370.5,227.6406 370.6406,227.7656 C370.7813,227.9063 371.0156,228.0156 371.2344,228.0156 C371.5,228.0156 371.7656,227.875 371.9375,227.6563 C372.0469,227.5 372.0781,227.3125 372.0781,226.8906 L372.0781,225.4688 C372.0781,225.0313 372.0625,224.9063 371.9688,224.75 C371.8125,224.4844 371.5313,224.3438 371.2344,224.3438 C370.9375,224.3438 370.7344,224.4375 370.5156,224.75 L370.3438,224.6719 Z " fill="#000000"/><text fill="#000000" font-family="sans-serif" font-size="14" lengthAdjust="spacing" textLength="147" x="382" y="233.8467">ManejadorBiblioteca</text><line style="stroke:#181818;stroke-width:0.5;" x1="354" x2="531" y1="245" y2="245"/><line style="stroke:#181818;stroke-width:0.5;" x1="354" x2="531" y1="253" y2="253"/><ellipse cx="364" cy="266.6484" fill="#84BE84" rx="3" ry="3" style="stroke:#038048;stroke-width:1.0;"/><text fill="#000000" font-family="sans-serif" font-size="14" lengthAdjust="spacing" textLength="123" x="373" y="269.9951">solicitarAutores()</text><ellipse cx="364" cy="282.9453" fill="#84BE84" rx="3" ry="3" style="stroke:#038048;stroke-width:1.0;"/><text fill="#000000" font-family="sans-serif" font-size="14" lengthAdjust="spacing" textLength="124" x="373" y="286.292">void editarLibro()</text><ellipse cx="364" cy="299.2422" fill="#84BE84" rx="3" ry="3" style="stroke:#038048;stroke-width:1.0;"/><text fill="#000000" font-family="sans-serif" font-size="14" lengthAdjust="spacing" textLength="103" x="373" y="302.5889">void ejecutar()</text></g><!--class App--><g id="elem_App"><rect codeLine="87" fill="#F1F1F1" height="64.2969" id="App" rx="2.5" ry="2.5" style="stroke:#181818;stroke-width:0.5;" width="238" x="323.5" y="39.5"/><ellipse cx="423.25" cy="55.5" fill="#ADD1B2" rx="11" ry="11" style="stroke:#181818;stroke-width:1.0;"/><path d="M425.5938,51.1719 C424.6563,50.7344 424.0625,50.5938 423.1875,50.5938 C420.5625,50.5938 418.5625,52.6719 418.5625,55.3906 L418.5625,56.5156 C418.5625,59.0938 420.6719,60.9844 423.5625,60.9844 C424.7813,60.9844 425.9375,60.6875 426.6875,60.1406 C427.2656,59.7344 427.5938,59.2813 427.5938,58.8906 C427.5938,58.4375 427.2031,58.0469 426.7344,58.0469 C426.5156,58.0469 426.3125,58.125 426.125,58.3125 C425.6719,58.7969 425.6719,58.7969 425.4844,58.8906 C425.0625,59.1563 424.375,59.2813 423.6094,59.2813 C421.5625,59.2813 420.2656,58.1875 420.2656,56.4844 L420.2656,55.3906 C420.2656,53.6094 421.5156,52.2969 423.25,52.2969 C423.8281,52.2969 424.4375,52.4531 424.9063,52.7031 C425.3906,52.9844 425.5625,53.2031 425.6563,53.6094 C425.7188,54.0156 425.75,54.1406 425.8906,54.2656 C426.0313,54.4063 426.2656,54.5156 426.4844,54.5156 C426.75,54.5156 427.0156,54.375 427.1875,54.1563 C427.2969,54 427.3281,53.8125 427.3281,53.3906 L427.3281,51.9688 C427.3281,51.5313 427.3125,51.4063 427.2188,51.25 C427.0625,50.9844 426.7813,50.8438 426.4844,50.8438 C426.1875,50.8438 425.9844,50.9375 425.7656,51.25 L425.5938,51.1719 Z " fill="#000000"/><text fill="#000000" font-family="sans-serif" font-size="14" lengthAdjust="spacing" textLength="30" x="443.75" y="60.3467">App</text><line style="stroke:#181818;stroke-width:0.5;" x1="324.5" x2="560.5" y1="71.5" y2="71.5"/><line style="stroke:#181818;stroke-width:0.5;" x1="324.5" x2="560.5" y1="79.5" y2="79.5"/><ellipse cx="334.5" cy="93.1484" fill="#84BE84" rx="3" ry="3" style="stroke:#038048;stroke-width:1.0;"/><text fill="#000000" font-family="sans-serif" font-size="14" lengthAdjust="spacing" textLength="212" x="343.5" y="96.4951">static void main(String[] args)</text></g><!--class TipoLibro--><g id="elem_TipoLibro"><rect codeLine="91" fill="#F1F1F1" height="129.4844" id="TipoLibro" rx="2.5" ry="2.5" style="stroke:#181818;stroke-width:0.5;" width="101" x="597" y="7"/><ellipse cx="612" cy="23" fill="#EB937F" rx="11" ry="11" style="stroke:#181818;stroke-width:1.0;"/><path d="M610.7969,23.875 L612.25,23.875 L612.25,23.9844 C612.25,24.3906 612.2813,24.5469 612.3594,24.7031 C612.5156,24.9531 612.7969,25.1094 613.0938,25.1094 C613.3438,25.1094 613.6094,24.9688 613.7656,24.75 C613.8906,24.5938 613.9219,24.4375 613.9219,23.9844 L613.9219,22.0625 C613.9219,21.9063 613.9219,21.8594 613.9063,21.7031 C613.8438,21.2344 613.5313,20.9219 613.0781,20.9219 C612.8281,20.9219 612.5625,21.0625 612.3906,21.2813 C612.2813,21.4531 612.25,21.6094 612.25,22.0625 L612.25,22.1875 L610.7969,22.1875 L610.7969,19.7813 L614.7813,19.7813 L614.7813,20.6406 C614.7813,21.0469 614.8125,21.2188 614.8906,21.375 C615.0625,21.625 615.3438,21.7813 615.625,21.7813 C615.8906,21.7813 616.1563,21.6406 616.3281,21.4219 C616.4375,21.25 616.4688,21.1094 616.4688,20.6406 L616.4688,18.0938 L608.8438,18.0938 C608.4063,18.0938 608.2813,18.1094 608.125,18.2031 C607.875,18.3594 607.7188,18.6563 607.7188,18.9375 C607.7188,19.2188 607.8594,19.4688 608.0781,19.6406 C608.2344,19.75 608.4219,19.7813 608.8438,19.7813 L609.0938,19.7813 L609.0938,26.2969 L608.8438,26.2969 C608.4375,26.2969 608.2813,26.3125 608.125,26.4219 C607.875,26.5938 607.7188,26.8594 607.7188,27.1563 C607.7188,27.4219 607.8594,27.6719 608.0781,27.8281 C608.2188,27.9531 608.4531,28 608.8438,28 L616.8438,28 L616.8438,25.4219 C616.8438,24.9844 616.8125,24.8438 616.7344,24.6875 C616.5625,24.4375 616.2813,24.2813 616,24.2813 C615.7344,24.2813 615.4688,24.3906 615.2969,24.6406 C615.1875,24.7969 615.1563,24.9375 615.1563,25.4219 L615.1563,26.2969 L610.7969,26.2969 L610.7969,23.875 Z " fill="#000000"/><text fill="#000000" font-family="sans-serif" font-size="14" lengthAdjust="spacing" textLength="69" x="626" y="27.8467">TipoLibro</text><line style="stroke:#181818;stroke-width:0.5;" x1="598" x2="697" y1="39" y2="39"/><text fill="#000000" font-family="sans-serif" font-size="14" lengthAdjust="spacing" textLength="43" x="603" y="55.9951">LIBRO</text><text fill="#000000" font-family="sans-serif" font-size="14" lengthAdjust="spacing" textLength="61" x="603" y="72.292">REVISTA</text><text fill="#000000" font-family="sans-serif" font-size="14" lengthAdjust="spacing" textLength="71" x="603" y="88.5889">ARTICULO</text><text fill="#000000" font-family="sans-serif" font-size="14" lengthAdjust="spacing" textLength="40" x="603" y="104.8857">TESIS</text><text fill="#000000" font-family="sans-serif" font-size="14" lengthAdjust="spacing" textLength="58" x="603" y="121.1826">NOVELA</text><line style="stroke:#181818;stroke-width:0.5;" x1="598" x2="697" y1="128.4844" y2="128.4844"/></g><!--link Libro to Autor--><g id="link_Libro_Autor"><path codeLine="99" d="M715.5,1500.234 C715.5,1526.607 715.5,1553.452 715.5,1576.945 " fill="none" id="Libro-Autor" style="stroke:#181818;stroke-width:1.0;"/><polygon fill="#000000" points="720.5,1543.5664,723.4389,1534.5213,717.5611,1534.5213,720.5,1543.5664" style="stroke:#000000;stroke-width:1.0;"/><text fill="#000000" font-family="sans-serif" font-size="13" lengthAdjust="spacing" textLength="55" x="729.5" y="1543.0669">contiene</text><text fill="#000000" font-family="sans-serif" font-size="13" lengthAdjust="spacing" textLength="8" x="707.2813" y="1519.8407">1</text><text fill="#000000" font-family="sans-serif" font-size="13" lengthAdjust="spacing" textLength="23" x="691.3141" y="1565.7228">0..*</text></g><!--link Biblioteca to GestionLibro--><g id="link_Biblioteca_GestionLibro"><path codeLine="100" d="M683.783,773.692 C736.081,811.447 790.679,850.864 840.664,886.95 " fill="none" id="Biblioteca-GestionLibro" style="stroke:#181818;stroke-width:1.0;"/><text fill="#000000" font-family="sans-serif" font-size="13" lengthAdjust="spacing" textLength="55" x="789.5" y="853.0669">gestiona</text><text fill="#000000" font-family="sans-serif" font-size="13" lengthAdjust="spacing" textLength="8" x="691.8313" y="776.2663">1</text><text fill="#000000" font-family="sans-serif" font-size="13" lengthAdjust="spacing" textLength="8" x="822.0636" y="876.0565">1</text></g><!--link Biblioteca to Busqueda--><g id="link_Biblioteca_Busqueda"><path codeLine="101" d="M332.809,810.195 C307.978,857.892 283.092,905.694 263.168,943.964 " fill="none" id="Biblioteca-Busqueda" style="stroke:#181818;stroke-width:1.0;"/><text fill="#000000" font-family="sans-serif" font-size="13" lengthAdjust="spacing" textLength="37" x="313.5" y="853.0669">utiliza</text><text fill="#000000" font-family="sans-serif" font-size="13" lengthAdjust="spacing" textLength="8" x="320.7232" y="830.1447">1</text><text fill="#000000" font-family="sans-serif" font-size="13" lengthAdjust="spacing" textLength="8" x="258.6405" y="932.8715">1</text></g><!--link GestionLibro to Libro--><g id="link_GestionLibro_Libro"><path codeLine="102" d="M904.646,1163.041 C881.34,1188.419 857.07,1214.846 833.992,1239.975 " fill="none" id="GestionLibro-Libro" style="stroke:#181818;stroke-width:1.0;"/><text fill="#000000" font-family="sans-serif" font-size="13" lengthAdjust="spacing" textLength="63" x="873.5" y="1206.0669">almacena</text><text fill="#000000" font-family="sans-serif" font-size="13" lengthAdjust="spacing" textLength="8" x="889.5446" y="1183.0665">1</text><text fill="#000000" font-family="sans-serif" font-size="13" lengthAdjust="spacing" textLength="23" x="817.1775" y="1229.0991">0..*</text></g><!--link Busqueda to Libro--><g id="link_Busqueda_Libro"><path codeLine="103" d="M337.009,1106.202 C394.323,1145.996 460.0395,1191.626 524.7165,1236.533 " fill="none" id="Busqueda-to-Libro" style="stroke:#181818;stroke-width:1.0;stroke-dasharray:7.0,7.0;"/><polygon fill="#181818" points="529.645,1239.955,524.5336,1231.5364,525.5379,1237.1033,519.9709,1238.1077,529.645,1239.955" style="stroke:#181818;stroke-width:1.0;"/><polygon fill="#000000" points="492.6071,1204.4181,486.8535,1196.8453,483.5011,1201.6734,492.6071,1204.4181" style="stroke:#000000;stroke-width:1.0;"/><text fill="#000000" font-family="sans-serif" font-size="13" lengthAdjust="spacing" textLength="38" x="497.5" y="1206.0669">busca</text></g><!--link ManejadorBiblioteca to Biblioteca--><g id="link_ManejadorBiblioteca_Biblioteca"><path codeLine="104" d="M442.5,310.14 C442.5,331.46 442.5,352.21 442.5,380.76 " fill="none" id="ManejadorBiblioteca-to-Biblioteca" style="stroke:#181818;stroke-width:1.0;stroke-dasharray:7.0,7.0;"/><polygon fill="#181818" points="442.5,386.76,446.5,377.76,442.5,381.76,438.5,377.76,442.5,386.76" style="stroke:#181818;stroke-width:1.0;"/><polygon fill="#000000" points="447.5,353.5664,450.4389,344.5213,444.5611,344.5213,447.5,353.5664" style="stroke:#000000;stroke-width:1.0;"/><text fill="#000000" font-family="sans-serif" font-size="13" lengthAdjust="spacing" textLength="23" x="456.5" y="353.0669">usa</text></g><!--link App to ManejadorBiblioteca--><g id="link_App_ManejadorBiblioteca"><path codeLine="105" d="M442.5,103.54 C442.5,133.27 442.5,172.53 442.5,206.83 " fill="none" id="App-to-ManejadorBiblioteca" style="stroke:#181818;stroke-width:1.0;stroke-dasharray:7.0,7.0;"/><polygon fill="#181818" points="442.5,212.83,446.5,203.83,442.5,207.83,438.5,203.83,442.5,212.83" style="stroke:#181818;stroke-width:1.0;"/><polygon fill="#000000" points="447.5,179.5664,450.4389,170.5213,444.5611,170.5213,447.5,179.5664" style="stroke:#000000;stroke-width:1.0;"/><text fill="#000000" font-family="sans-serif" font-size="13" lengthAdjust="spacing" textLength="32" x="456.5" y="179.0669">inicia</text></g><!--SRC=[vLRDZjCm4BxtAKnFATjMxBM2IjcbMaKgtQeDUq4SdCG4BubTR6U5MF5GF0ClXkEVr4xTxB9NUgapyysFPxx9v5M1lc22m6vrdSQRc_KAv1NaV3Gw2k96K0OUHq3-PW0J0N1X7lQ2OL820cka91SQ76dGrDLF3A1LbKWaHMGb1YI56udhYmNLXsW25aOs-kMcjyOPeuFf2IoQYXhP6dFnLcMv1B3zGzmnXNz-qssJLJY7EQR4Q59ye3gCi2VNcmwp10TOmOn1Vbt11riF1OwyHAQX7AQXyDDGvEb0K5kx1ueBm5MLTK7wYbHbukVLnyGwioYGxGdKppiAtEKq0tEVA737FdZhNZ8Qkhz7ZQk6VszG0Jjst20kP2uwMkayc7ZM83eBd7HzbJaeoH9a3SyXsrAcoMz9J-kC8IKQDf9rwWesY3HLq4KmKGwERD2uhNAlr4_WGmpnoujbTwb0-NCBF3js93E79wUI2oXmhgQ3e1-Qb4a1te5BsxCkYyYZ3ImPAY7J7DC9LIVSCg10uoRk2ysKHPrbRJOA4SPhjqKXiLzb5UaLfTzKUpDvIEGxKJia3NgW7ZcKOKsvO2Pf7frNEQ_F_vI9JcLmVM2unco7U5C9M51kQMPCNRUi0ptJXoxbYroeWhx8yZtDcneHyK9php_37im-tXndgsDMRvY5-nprtWKUzj6TQXDPpTwPeVRckHVb7oPQJbY5806eajKW5XZaJH2wLRSFB4nKO67TQRNPn7R0sc5E0yjTANXiLtn212gH7Nw2gRlWZPD3Vy6tSiYteJMl3VMWdBs1smJPn2TVBSzxwzZDR6nEEss1JgiDpHmlHccT6UsH5ZsIVO04tKloifFDSy6f_D1eksI_Mao8a_xvZRr7UIDLVJR7XuDrxELOGqmCeJvz1f2LN1aYqjHE9xNbEhdQtQhJRdMNxDDOdUDTcbn_N6j5kjedUtNQtDwjrd7hIxiONux1R0R6R-RprsEpCXOWfqHW9B_MboEd0XOh_xmfNDW53C-WksMy08t05Vu9Hvu3Fmdh55Orp57hr9hFvyjEgyWeymkrgiKvZp8gRw5jiLjLo6GXYIFxAc5_0G00]--></g></svg>